<svg width="107" height="73" viewBox="0 0 107 73" fill="none" xmlns="http://www.w3.org/2000/svg">
<path d="M24.9824 0.000976562C31.2673 0.000976562 36.4523 2.26273 40.5374 6.78624C44.7797 11.3097 46.9009 16.9251 46.9009 23.6324C46.9009 40.9465 34.6454 57.4027 10.1344 73.001L0 58.4946C11.4699 49.9155 18.6189 43.3642 21.4471 38.8407C16.7335 38.8407 12.5698 37.0469 8.95595 33.4593C5.49927 29.7157 3.77093 25.3482 3.77093 20.3567C3.77093 14.7414 5.81351 9.98389 9.89868 6.08431C14.141 2.02876 19.1689 0.000976562 24.9824 0.000976562ZM85.0815 0.000976562C91.3664 0.000976562 96.5514 2.26273 100.637 6.78624C104.879 11.3097 107 16.9251 107 23.6324C107 40.9465 94.7445 57.4027 70.2335 73.001L60.0991 58.4946C71.569 49.9155 78.7181 43.3642 81.5463 38.8407C76.8326 38.8407 72.6689 37.0469 69.0551 33.4593C65.5984 29.7157 63.87 25.3482 63.87 20.3567C63.87 14.7414 65.9126 9.98389 69.9978 6.08431C74.2401 2.02876 79.268 0.000976562 85.0815 0.000976562Z" fill="#F3F6F9"/>
</svg>
