<svg width="235" height="50" viewBox="0 0 235 50" fill="none" xmlns="http://www.w3.org/2000/svg">
<g clip-path="url(#clip0_8153_2249)">
<path d="M31.9073 44.5297C30.7218 44.1597 29.5718 44.4717 29.3518 45.2262C29.1246 45.9807 29.9055 46.8948 31.0981 47.2648C32.2835 47.6348 34.3563 46.786 34.3563 46.786C34.3563 46.786 33.0999 44.8997 31.9073 44.5297Z" fill="white"/>
<path d="M29.4809 41.2799C28.8279 42.0924 28.7072 43.0936 29.2041 43.5071C29.701 43.9207 30.6309 43.5869 31.284 42.7744C31.9371 41.9546 31.9442 40.0684 31.9442 40.0684C31.9442 40.0684 30.134 40.4601 29.4809 41.2799Z" fill="white"/>
<path d="M32.7512 40.0178C32.3253 40.9754 32.4531 41.9766 33.0423 42.245C33.6315 42.5134 34.4407 41.9548 34.8666 40.9972C35.2925 40.0396 34.824 38.2041 34.824 38.2041C34.824 38.2041 33.1772 39.0602 32.7512 40.0178Z" fill="white"/>
<path d="M36.2078 37.9786C35.8387 38.9653 36.0162 39.9446 36.6124 40.1841C37.2158 40.4235 37.9967 39.8141 38.3729 38.8347C38.742 37.848 38.1741 36.0488 38.1741 36.0488C38.1741 36.0488 36.5769 36.992 36.2078 37.9786Z" fill="white"/>
<path d="M39.3095 35.5923C39.1463 36.5064 39.4515 37.3335 40.0052 37.435C40.5589 37.5438 41.141 36.8909 41.3184 35.9841C41.4888 35.07 40.7151 33.6045 40.7151 33.6045C40.7151 33.6045 39.4799 34.6782 39.3095 35.5923Z" fill="white"/>
<path d="M41.5655 32.9658C41.4874 33.8146 41.8423 34.5401 42.3605 34.5836C42.8787 34.6344 43.3543 33.9887 43.4324 33.1399C43.5105 32.2911 42.687 31.0215 42.687 31.0215C42.687 31.0215 41.6435 32.117 41.5655 32.9658Z" fill="white"/>
<path d="M43.1848 30.2093C43.2558 30.9276 43.6675 31.4717 44.1005 31.4354C44.5406 31.3919 44.8388 30.7752 44.7678 30.0497C44.6968 29.3315 43.8095 28.4102 43.8095 28.4102C43.8095 28.4102 43.1138 29.4911 43.1848 30.2093Z" fill="white"/>
<path d="M44.1769 27.3578C44.2408 28.076 44.6525 28.6274 45.0855 28.5838C45.5257 28.5403 45.8238 27.9237 45.7599 27.2054C45.696 26.4872 44.8087 25.5586 44.8087 25.5586C44.8087 25.5586 44.1059 26.6396 44.1769 27.3578Z" fill="white"/>
<path d="M35.9135 43.4203C34.6783 43.2679 33.6064 43.783 33.5141 44.5665C33.4218 45.35 34.3518 46.1045 35.5869 46.2569C36.8221 46.4092 38.7103 45.1977 38.7103 45.1977C38.7103 45.1977 37.1486 43.5726 35.9135 43.4203Z" fill="white"/>
<path d="M39.112 41.2947C37.8769 41.4107 36.9328 42.1435 37.0038 42.927C37.0747 43.7105 38.1324 44.2546 39.3747 44.1385C40.6099 44.0225 42.2141 42.4409 42.2141 42.4409C42.2141 42.4409 40.3472 41.1786 39.112 41.2947Z" fill="white"/>
<path d="M41.993 38.741C41.0134 39.1255 40.41 39.9453 40.6442 40.5619C40.8785 41.1858 41.8652 41.3745 42.8448 40.99C43.8244 40.6055 44.7756 38.9369 44.7756 38.9369C44.7756 38.9369 42.9797 38.3565 41.993 38.741Z" fill="white"/>
<path d="M44.1092 35.3601C43.1934 35.9477 42.7391 36.8981 43.1012 37.4785C43.4561 38.0589 44.4925 38.0516 45.4082 37.464C46.3239 36.8763 46.9557 34.9974 46.9557 34.9974C46.9557 34.9974 45.0249 34.7725 44.1092 35.3601Z" fill="white"/>
<path d="M45.8812 32.0809C45.1216 32.6903 44.8093 33.5754 45.1784 34.0542C45.5475 34.533 46.4633 34.4314 47.2228 33.822C47.9824 33.2126 48.3728 31.4933 48.3728 31.4933C48.3728 31.4933 46.6407 31.4715 45.8812 32.0809Z" fill="white"/>
<path d="M46.7976 29.0408C46.2085 29.5921 46.0097 30.3321 46.3362 30.7021C46.6699 31.0794 47.4152 30.9343 48.0044 30.3902C48.5936 29.8388 48.8137 28.4023 48.8137 28.4023C48.8137 28.4023 47.3797 28.4894 46.7976 29.0408Z" fill="white"/>
<path d="M46.7218 26.4874C46.2817 27.1475 46.2462 27.9093 46.6437 28.1922C47.0483 28.4752 47.7298 28.1705 48.177 27.5103C48.6242 26.8501 48.5106 25.4209 48.5106 25.4209C48.5106 25.4209 47.169 25.8199 46.7218 26.4874Z" fill="white"/>
<path d="M45.9496 27.2783C45.9993 29.7812 44.8919 32.1173 43.5574 34.1341C42.2016 36.1727 40.4979 37.9574 38.6097 39.4736C36.7072 40.9826 34.5918 42.1797 32.3771 43.0647C30.1623 43.9643 27.7701 44.4214 25.3423 44.2545L25.3281 44.3271C27.7275 44.922 30.2901 44.5592 32.6184 43.7539C34.9681 42.9196 37.0764 41.534 38.9646 39.9307C40.8528 38.3274 42.5281 36.4484 43.8484 34.3372C44.5015 33.278 45.0623 32.1535 45.4669 30.9638C45.8645 29.7812 46.0987 28.5261 46.0135 27.2783H45.9496Z" fill="white"/>
<path d="M16.9029 44.5297C18.0883 44.1597 19.2383 44.4717 19.4655 45.2262C19.6926 45.9807 18.9118 46.8948 17.7192 47.2648C16.5337 47.6348 14.4609 46.786 14.4609 46.786C14.4609 46.786 15.7174 44.8997 16.9029 44.5297Z" fill="white"/>
<path d="M19.3311 41.2799C19.9842 42.0924 20.112 43.0936 19.6151 43.5071C19.1182 43.9207 18.1882 43.5869 17.5352 42.7744C16.8821 41.9546 16.875 40.0684 16.875 40.0684C16.875 40.0684 18.6851 40.4601 19.3311 41.2799Z" fill="white"/>
<path d="M16.0606 40.0178C16.4865 40.9754 16.3587 41.9766 15.7766 42.245C15.1875 42.5134 14.3711 41.9548 13.9523 40.9972C13.5264 40.0396 13.9949 38.2041 13.9949 38.2041C13.9949 38.2041 15.6347 39.0602 16.0606 40.0178Z" fill="white"/>
<path d="M12.603 37.9786C12.9721 38.9653 12.7947 39.9446 12.1984 40.1841C11.595 40.4235 10.8141 39.8141 10.445 38.8347C10.0759 37.848 10.6438 36.0488 10.6438 36.0488C10.6438 36.0488 12.2339 36.992 12.603 37.9786Z" fill="white"/>
<path d="M9.49435 35.5923C9.66472 36.5064 9.35238 37.3335 8.79869 37.435C8.245 37.5438 7.66291 36.8909 7.48544 35.9841C7.31508 35.07 8.08883 33.6045 8.08883 33.6045C8.08883 33.6045 9.32399 34.6782 9.49435 35.5923Z" fill="white"/>
<path d="M7.24716 32.9658C7.32525 33.8146 6.97031 34.5401 6.45211 34.5836C5.93392 34.6344 5.45831 33.9887 5.38022 33.1399C5.30214 32.2911 6.12558 31.0215 6.12558 31.0215C6.12558 31.0215 7.16908 32.117 7.24716 32.9658Z" fill="white"/>
<path d="M5.62469 30.2093C5.55371 30.9276 5.14199 31.4717 4.70897 31.4354C4.26886 31.3919 3.97071 30.7752 4.0417 30.0497C4.11269 29.3315 5.00001 28.4102 5.00001 28.4102C5.00001 28.4102 5.69568 29.4911 5.62469 30.2093Z" fill="white"/>
<path d="M4.64103 27.3578C4.57005 28.076 4.16542 28.6274 3.73241 28.5838C3.29229 28.5403 2.99415 27.9237 3.06514 27.2054C3.12903 26.4872 4.01635 25.5586 4.01635 25.5586C4.01635 25.5586 4.71202 26.6396 4.64103 27.3578Z" fill="white"/>
<path d="M12.9062 43.4203C14.1343 43.2679 15.2133 43.783 15.3056 44.5665C15.3979 45.35 14.475 46.1045 13.2328 46.2569C11.9976 46.4092 10.1094 45.1977 10.1094 45.1977C10.1094 45.1977 11.664 43.5726 12.9062 43.4203Z" fill="white"/>
<path d="M9.70438 41.2947C10.9395 41.4107 11.8837 42.1435 11.8198 42.927C11.7488 43.7105 10.684 44.2546 9.44883 44.1385C8.21366 44.0225 6.60938 42.4409 6.60938 42.4409C6.60938 42.4409 8.46212 41.1786 9.70438 41.2947Z" fill="white"/>
<path d="M6.81391 38.741C7.79352 39.1255 8.404 39.9453 8.16265 40.5619C7.9284 41.1858 6.94169 41.3745 5.96208 40.99C4.98247 40.6055 4.03125 38.9369 4.03125 38.9369C4.03125 38.9369 5.8343 38.3565 6.81391 38.741Z" fill="white"/>
<path d="M4.70592 35.3601C5.62165 35.9477 6.07596 36.8981 5.71393 37.4785C5.359 38.0589 4.3226 38.0516 3.40688 37.464C2.49115 36.8763 1.85938 34.9974 1.85938 34.9974C1.85938 34.9974 3.7902 34.7725 4.70592 35.3601Z" fill="white"/>
<path d="M2.92912 32.0809C3.68867 32.6903 4.00101 33.5754 3.63188 34.0542C3.26275 34.533 2.34703 34.4314 1.58748 33.822C0.827924 33.2126 0.4375 31.4933 0.4375 31.4933C0.4375 31.4933 2.16956 31.4715 2.92912 32.0809Z" fill="white"/>
<path d="M2.01601 29.0408C2.6052 29.5921 2.81106 30.3321 2.47742 30.7021C2.14378 31.0794 1.39843 30.9343 0.809243 30.3902C0.220057 29.8388 0 28.4023 0 28.4023C0 28.4023 1.42682 28.4894 2.01601 29.0408Z" fill="white"/>
<path d="M2.09609 26.4868C2.53621 27.147 2.5717 27.9087 2.17418 28.1917C1.76956 28.4746 1.08809 28.1699 0.640877 27.5097C0.193663 26.8423 0.300143 25.4131 0.300143 25.4131C0.300143 25.4131 1.64178 25.8194 2.09609 26.4868Z" fill="white"/>
<path d="M2.86406 27.2783C2.81437 29.7812 3.92176 32.1173 5.2563 34.1341C6.61214 36.1727 8.31581 37.9574 10.204 39.4736C12.1065 40.9826 14.2219 42.1797 16.4366 43.0647C18.6514 43.9643 21.0436 44.4214 23.4714 44.2545L23.4856 44.3271C21.0862 44.922 18.5236 44.5592 16.1882 43.7539C13.8385 42.9196 11.7302 41.534 9.84201 39.9307C7.95378 38.3274 6.2785 36.4484 4.95106 34.3372C4.29799 33.278 3.7372 32.1535 3.33967 30.9638C2.94215 29.7812 2.7008 28.5261 2.79308 27.2783H2.86406Z" fill="white"/>
<path d="M39.2928 0H9.52117C9.07395 0 8.68353 0.16686 8.35699 0.50058C8.03046 0.834301 7.86719 1.23331 7.86719 1.69037V21.982C7.86719 23.4983 8.15823 25 8.73322 26.4872C9.30821 27.9745 10.0252 29.2948 10.877 30.4483C11.7288 31.6019 12.7439 32.7263 13.9294 33.8146C15.1078 34.9028 16.201 35.8096 17.2019 36.5351C18.2028 37.2533 19.2463 37.9353 20.3324 38.581C21.4185 39.2194 22.1851 39.6547 22.6465 39.8868C23.1008 40.1117 23.47 40.2931 23.7468 40.4164C23.9527 40.5252 24.1798 40.576 24.4212 40.576C24.6625 40.576 24.8897 40.5252 25.0956 40.4164C25.3724 40.2931 25.7344 40.119 26.1958 39.8868C26.6502 39.6547 27.4239 39.2194 28.51 38.581C29.5961 37.9353 30.6396 37.2533 31.6405 36.5351C32.6414 35.8096 33.7275 34.9028 34.913 33.8146C36.0913 32.7191 37.1135 31.6019 37.9654 30.4483C38.8172 29.2948 39.5342 27.9745 40.1091 26.4872C40.6841 25 40.9752 23.4983 40.9752 21.982V1.69037C40.9752 1.23331 40.8119 0.834301 40.4854 0.50058C40.1304 0.16686 39.7471 0 39.2928 0ZM36.6947 21.5467C36.6947 22.6712 36.4817 23.7885 36.0487 24.8912C35.6228 25.9939 35.0904 26.9806 34.4586 27.8366C33.8269 28.6927 33.0673 29.527 32.1942 30.3395C31.3139 31.1521 30.5047 31.8268 29.7664 32.3636C29.0211 32.9005 28.2473 33.4083 27.4452 33.8871C26.636 34.3659 26.0681 34.6851 25.7273 34.8593C25.3866 35.0261 25.1168 35.1567 24.911 35.251C24.7548 35.3308 24.5915 35.3671 24.4141 35.3671C24.2366 35.3671 24.0663 35.3308 23.9172 35.251C23.7113 35.1567 23.4416 35.0261 23.1008 34.8593C22.7601 34.6851 22.1851 34.3659 21.383 33.8871C20.5737 33.4083 19.8 32.9005 19.0617 32.3636C18.3235 31.8268 17.5071 31.1521 16.634 30.3395C15.7609 29.527 15.0013 28.6927 14.3695 27.8366C13.7378 26.9806 13.2054 26.0012 12.7794 24.8912C12.3464 23.7885 12.1335 22.6712 12.1335 21.5467V6.47127C12.1335 6.1303 12.2541 5.8401 12.4955 5.58619C12.7368 5.33952 13.0279 5.21619 13.3615 5.21619H35.4808C35.8145 5.21619 36.1055 5.33952 36.3469 5.58619C36.5882 5.83285 36.7089 6.1303 36.7089 6.47127V21.5467H36.6947Z" fill="white"/>
<path d="M24.8036 22.7659C24.2499 21.1263 22.4326 21.1336 20.8851 22.7514C18.5497 25.2035 17.137 25.8492 15.7031 23.9992C15.7031 23.9992 16.6117 27.1695 19.6429 26.8648C21.6944 26.6617 25.5063 24.848 24.8036 22.7659Z" fill="white"/>
<path d="M24.0783 22.8892C24.1067 21.1553 25.8388 20.5822 27.798 21.6341C30.7653 23.2229 32.2986 23.397 33.1007 21.1843C33.1007 21.1843 33.2001 24.4852 30.2258 25.1599C28.2169 25.6097 24.0429 25.0801 24.0783 22.8892Z" fill="white"/>
<path d="M36.238 8.87973C35.7695 9.57619 35.2726 10.2654 35.2726 10.2654C33.938 10.0115 30.0977 9.23522 25.7533 10.853C24.4614 11.107 23.425 10.8095 23.425 10.8095C18.9812 9.18443 15.0415 10.026 13.8205 10.3017C13.8205 10.3017 13.3946 9.64874 12.919 8.95228C12.8338 8.82169 12.6138 9.35855 12.6635 9.50364C12.8906 10.1203 13.1675 11.7962 13.3378 12.5579C13.998 15.4888 14.0477 17.941 18.2359 17.999C22.6938 18.0643 23.0843 14.0887 23.7018 12.9206C23.7018 12.9206 24.5466 11.9267 25.4552 12.9134L25.4907 12.9642C26.1083 14.1322 26.5271 18.1006 30.9779 18.0135C35.1661 17.9265 35.2158 15.4816 35.8476 12.5434C36.0108 11.7816 36.2522 10.113 36.4723 9.49639C36.522 9.35129 36.3232 8.74915 36.238 8.87973ZM22.1259 14.6038C21.8349 15.3873 21.0895 17.23 18.3069 17.3388C15.5242 17.4476 14.5872 15.7065 14.5304 12.9352C14.4736 9.99697 18.8109 10.4468 21.0895 10.9909C23.3682 11.5422 22.4028 13.842 22.1259 14.6038ZM30.8643 17.4404C28.0817 17.3533 27.3221 15.5106 27.0311 14.7271C26.7471 13.9653 25.7746 11.6656 28.0462 11.107C30.3178 10.5483 34.6621 10.0768 34.6124 13.015C34.5698 15.7863 33.647 17.5274 30.8643 17.4404Z" fill="white"/>
<path d="M20.6989 13.9079C20.6989 13.9079 20.1026 13.7265 19.0378 13.7338C19.0378 13.7338 18.8036 13.712 17.6394 13.7991C17.6394 13.7991 17.2916 13.8789 16.8656 14.14H16.6172V13.9296C16.6172 13.9296 17.2561 13.1606 18.1931 13.0301C18.1931 13.0301 19.1443 12.8995 19.8826 13.2332C19.8826 13.2332 20.5853 13.6032 20.848 13.9151L20.6989 13.9079Z" fill="white"/>
<path d="M31.7096 13.5808C31.7025 14.4223 31.0282 15.097 30.2118 15.0825C29.3884 15.0753 28.7282 14.3861 28.7424 13.5518C28.7495 12.7102 29.4239 12.0355 30.2402 12.05C31.0637 12.05 31.7238 12.7392 31.7096 13.5808Z" fill="white"/>
<path d="M227.28 41.0117C226.833 41.0117 226.457 40.8594 226.23 40.5909C225.896 40.25 225.74 39.8655 225.74 39.3649C225.74 38.828 225.924 38.2912 226.301 37.7616C226.897 36.9563 227.763 36.1583 228.956 35.4691V40.1774C228.331 40.7433 227.77 41.0117 227.28 41.0117ZM229.751 42.9632C230.198 43.3478 230.837 43.5364 231.625 43.5364C232.299 43.5364 232.895 43.384 233.421 43.0358C233.946 42.6948 234.429 42.158 234.918 41.4325L234.471 41.048C234.209 41.4325 233.946 41.6211 233.683 41.6211C233.57 41.6211 233.456 41.5848 233.385 41.505C233.271 41.4252 233.201 41.3164 233.158 41.1205C233.08 40.9682 233.08 40.5474 233.08 39.8945V34.4606C233.08 32.9299 233.002 31.9722 232.853 31.5515C232.626 30.8985 232.143 30.2891 231.39 29.716C230.602 29.1429 229.594 28.8744 228.281 28.8744C227.195 28.8744 226.144 29.0268 225.136 29.375C224.164 29.716 223.376 30.2529 222.815 30.9058C222.254 31.5587 221.956 32.2479 221.956 32.9734C221.956 33.474 222.183 33.931 222.595 34.3155C223.042 34.7 223.532 34.8887 224.164 34.8887C224.725 34.8887 225.215 34.7 225.548 34.3518C225.924 34.0108 226.109 33.5901 226.109 33.0895C226.109 32.705 225.924 32.2842 225.548 31.8634C225.286 31.5587 225.136 31.2903 225.136 31.0581C225.136 30.826 225.25 30.6011 225.513 30.4487C225.924 30.144 226.45 29.9917 227.082 29.9917C227.493 29.9917 227.827 30.1078 228.132 30.2964C228.466 30.5285 228.657 30.7534 228.771 31.0219C228.885 31.2903 228.956 31.9795 228.956 33.046V34.4606C225.924 35.8753 223.937 37.0216 223.042 37.8631C222.141 38.7047 221.694 39.6986 221.694 40.7723C221.694 41.5341 221.956 42.2233 222.482 42.7238C223.007 43.2607 223.639 43.5291 224.427 43.5291C225.775 43.5291 227.273 42.7674 228.956 41.2729C229.076 42.0419 229.339 42.5787 229.751 42.9632ZM209.917 32.9009C210.556 31.4499 211.379 30.6809 212.387 30.6809C212.984 30.6809 213.509 30.9856 213.885 31.5587C214.446 32.4801 214.709 34.1197 214.709 36.5718C214.709 38.9441 214.481 40.5474 213.963 41.389C213.63 41.9258 213.175 42.2305 212.65 42.2305C211.677 42.2305 210.776 41.6211 209.917 40.3951V32.9009ZM211.45 43.2679C212.125 43.6089 212.835 43.7685 213.587 43.7685C214.638 43.7685 215.568 43.4638 216.434 42.8472C217.293 42.2378 217.931 41.3164 218.379 40.1339C218.826 38.9876 219.053 37.689 219.053 36.2308C219.053 34.9322 218.826 33.7061 218.379 32.5599C217.967 31.3774 217.328 30.4923 216.505 29.8466C215.681 29.1937 214.744 28.889 213.736 28.889C212.913 28.889 212.125 29.1211 211.415 29.5782C210.89 29.8829 210.407 30.4197 209.917 31.1452V29.2735H204.153V29.8466C204.827 29.8829 205.275 30.0352 205.502 30.3036C205.729 30.6083 205.835 31.225 205.835 32.2189V47.0622C205.835 48.0198 205.722 48.6292 205.502 48.8614C205.204 49.1661 204.756 49.362 204.153 49.3982V49.9351H212.011V49.3982C211.301 49.3982 210.854 49.3184 210.627 49.2096C210.364 49.0935 210.215 48.9049 210.102 48.6365C209.988 48.3681 209.917 47.8747 209.917 47.1855V41.9476C210.478 42.5425 210.961 42.9995 211.45 43.2679ZM195.464 41.0117C195.017 41.0117 194.641 40.8594 194.414 40.5909C194.08 40.25 193.924 39.8655 193.924 39.3649C193.924 38.828 194.108 38.2912 194.485 37.7616C195.081 36.9563 195.947 36.1583 197.139 35.4691V40.1774C196.515 40.7433 195.954 41.0117 195.464 41.0117ZM197.935 42.9632C198.382 43.3478 199.021 43.5364 199.809 43.5364C200.483 43.5364 201.079 43.384 201.605 43.0358C202.13 42.6948 202.613 42.158 203.102 41.4325L202.655 41.048C202.392 41.4325 202.13 41.6211 201.867 41.6211C201.754 41.6211 201.64 41.5848 201.569 41.505C201.455 41.4252 201.384 41.3164 201.342 41.1205C201.264 40.9682 201.264 40.5474 201.264 39.8945V34.4606C201.264 32.9299 201.186 31.9722 201.037 31.5515C200.81 30.8985 200.327 30.2891 199.574 29.716C198.786 29.1429 197.778 28.8744 196.465 28.8744C195.379 28.8744 194.328 29.0268 193.32 29.375C192.348 29.716 191.56 30.2529 190.999 30.9058C190.438 31.5587 190.14 32.2479 190.14 32.9734C190.14 33.474 190.367 33.931 190.779 34.3155C191.226 34.7 191.716 34.8887 192.348 34.8887C192.909 34.8887 193.399 34.7 193.732 34.3518C194.108 34.0108 194.293 33.5901 194.293 33.0895C194.293 32.705 194.108 32.2842 193.732 31.8634C193.47 31.5587 193.32 31.2903 193.32 31.0581C193.32 30.826 193.434 30.6011 193.697 30.4487C194.108 30.144 194.634 29.9917 195.265 29.9917C195.677 29.9917 196.011 30.1078 196.316 30.2964C196.65 30.5285 196.841 30.7534 196.955 31.0219C197.069 31.2903 197.139 31.9795 197.139 33.046V34.4606C194.108 35.8753 192.121 37.0216 191.226 37.8631C190.325 38.7047 189.878 39.6986 189.878 40.7723C189.878 41.5341 190.14 42.2233 190.666 42.7238C191.191 43.2607 191.823 43.5291 192.611 43.5291C193.959 43.5291 195.457 42.7674 197.139 41.2729C197.26 42.0419 197.523 42.5787 197.935 42.9632ZM178.846 24.1371C180.16 24.1371 181.132 24.478 181.764 25.1673C182.403 25.8927 182.736 26.9664 182.736 28.4972C182.736 30.028 182.403 31.1379 181.764 31.8634C181.125 32.5889 180.195 32.9734 178.995 32.9734C178.846 32.9734 178.584 32.9734 178.25 32.9371V24.1371H178.846ZM183.077 33.7424C184.497 33.4014 185.626 32.7848 186.406 31.8271C187.23 30.8695 187.606 29.7595 187.606 28.4247C187.606 26.8576 187.01 25.559 185.732 24.5216C184.497 23.4479 182.438 22.9545 179.592 22.9545H170.91V23.4914C171.812 23.4914 172.443 23.6075 172.742 23.7598C173.075 23.9484 173.302 24.1806 173.451 24.449C173.565 24.7175 173.636 25.4429 173.636 26.5529V39.7494C173.636 40.8594 173.558 41.5486 173.451 41.8533C173.302 42.1217 173.075 42.3538 172.777 42.5425C172.443 42.6948 171.805 42.7746 170.903 42.7746V43.3478H181.047V42.7746C180.11 42.7746 179.478 42.6948 179.137 42.5425C178.839 42.3538 178.577 42.1217 178.463 41.8533C178.314 41.5486 178.236 40.8594 178.236 39.7494V34.1269C180.529 34.1269 182.14 34.0108 183.077 33.7424ZM154.342 22.9545V23.4914C154.981 23.6075 155.35 23.7598 155.577 24.0282C155.762 24.2967 155.84 24.9496 155.84 26.0161V40.2862C155.84 41.3599 155.762 42.0056 155.613 42.2378C155.35 42.5425 154.938 42.7383 154.342 42.8109V43.3478H161.341V42.8109C160.745 42.7311 160.369 42.5062 160.184 42.158C160.035 41.9258 159.957 41.2801 159.957 40.2862V32.7485C160.404 32.0593 160.78 31.6022 161.157 31.2975C161.568 31.0291 161.945 30.8768 162.314 30.8768C162.576 30.8768 162.839 30.9928 163.024 31.1452C163.251 31.2975 163.4 31.5297 163.471 31.8344C163.584 32.1391 163.62 32.8646 163.62 34.0181V40.2935C163.62 41.3237 163.506 41.9403 163.357 42.2087C163.094 42.5497 162.718 42.7456 162.236 42.8182V43.355H169.199V42.8182C168.603 42.7383 168.227 42.5497 168.042 42.3176C167.815 42.0491 167.744 41.3599 167.744 40.2935V34.8234C167.744 33.2201 167.631 32.0666 167.446 31.3773C167.219 30.7244 166.807 30.115 166.211 29.6144C165.615 29.1139 164.862 28.889 164.003 28.889C163.329 28.889 162.654 29.0413 162.058 29.3895C161.419 29.7305 160.709 30.3109 159.964 31.1089V22.9545H154.342ZM150.821 28.8817C150.594 29.2662 150.409 29.4548 150.296 29.5346C150.182 29.6144 150.069 29.6507 149.884 29.6507C149.699 29.6507 149.508 29.5709 149.245 29.4186C148.535 29.0341 147.825 28.8817 147.073 28.8817C145.689 28.8817 144.638 29.3025 143.893 30.1803C143.183 31.0581 142.807 32.052 142.807 33.1258C142.807 34.1197 143.105 34.9975 143.779 35.839C144.226 36.3759 145.199 37.2175 146.697 38.2839C147.705 38.9731 148.344 39.51 148.642 39.8509C148.94 40.1919 149.089 40.6127 149.089 41.1133C149.089 41.5341 148.94 41.875 148.642 42.187C148.344 42.4917 147.967 42.6078 147.485 42.6078C146.81 42.6078 146.1 42.3031 145.312 41.6501C144.524 40.9609 143.928 39.967 143.481 38.6684H142.991L143.218 43.7177H143.708C143.935 43.2172 144.198 42.956 144.532 42.956C144.645 42.956 144.83 43.0358 145.128 43.1446C146.214 43.5654 147.108 43.754 147.747 43.754C148.606 43.754 149.394 43.5654 150.069 43.1446C150.778 42.7601 151.304 42.187 151.68 41.4252C152.092 40.6635 152.276 39.8945 152.276 39.1327C152.276 38.2549 152.049 37.4859 151.566 36.7967C151.119 36.0712 150.182 35.2296 148.72 34.2357C147.3 33.2418 146.399 32.5526 146.1 32.1318C145.916 31.8997 145.802 31.6313 145.802 31.3701C145.802 30.9856 145.951 30.6809 146.214 30.4125C146.512 30.1078 146.853 29.9917 147.265 29.9917C147.903 29.9917 148.535 30.2601 149.174 30.7534C149.813 31.2903 150.445 32.2479 151.048 33.6989H151.538L151.311 28.8817H150.821ZM133.862 29.2662V29.8393C134.501 29.8756 134.913 30.028 135.176 30.2964C135.403 30.6011 135.509 31.2177 135.509 32.2117V40.4386C135.509 41.4325 135.396 42.0419 135.211 42.274C134.913 42.5787 134.466 42.7746 133.862 42.8109V43.3478H141.273V42.8109C140.599 42.7746 140.152 42.6223 139.925 42.3538C139.697 42.0491 139.591 41.4325 139.591 40.4386V29.2662H133.862ZM135.964 23.1432C135.516 23.6002 135.289 24.1733 135.289 24.79C135.289 25.4429 135.516 25.9725 135.964 26.4368C136.375 26.8939 136.936 27.126 137.575 27.126C138.171 27.126 138.732 26.8939 139.144 26.4368C139.591 25.9798 139.818 25.4429 139.818 24.79C139.818 24.1806 139.591 23.6075 139.179 23.1432C138.732 22.7224 138.207 22.4902 137.568 22.4902C136.936 22.4975 136.375 22.7224 135.964 23.1432ZM125.479 22.9545V23.4914C126.118 23.5277 126.565 23.7235 126.792 23.992C127.019 24.2604 127.126 24.9133 127.126 25.8637V40.4386C127.126 41.4325 127.012 42.0419 126.828 42.274C126.529 42.5787 126.082 42.7746 125.479 42.8109V43.3478H132.89V42.8109C132.251 42.7746 131.804 42.6223 131.577 42.3538C131.349 42.0491 131.243 41.4325 131.243 40.4386V22.9545H125.479ZM120.503 45.5967C121.028 45.7128 121.44 45.9014 121.702 46.2061C121.851 46.3585 121.93 46.5906 121.93 46.8155C121.93 47.5047 121.518 47.9981 120.73 48.3826C119.985 48.7671 118.898 48.9194 117.55 48.9194C115.938 48.9194 114.852 48.7308 114.256 48.31C113.695 47.8892 113.397 47.4322 113.397 46.9316C113.397 46.3948 113.695 45.974 114.256 45.6693C114.554 45.4807 115.228 45.4009 116.236 45.4009C118.558 45.4081 119.977 45.4879 120.503 45.5967ZM118.409 30.5285C118.856 31.1815 119.083 32.4003 119.083 34.1995C119.083 35.7665 118.898 36.8402 118.487 37.4133C118.111 37.9502 117.628 38.2186 117.024 38.2186C116.499 38.2186 116.052 37.9502 115.64 37.3771C115.264 36.8402 115.079 35.81 115.079 34.3155C115.079 32.4801 115.264 31.254 115.64 30.6809C116.052 30.1078 116.542 29.8031 117.103 29.8031C117.656 29.8031 118.103 30.028 118.409 30.5285ZM116.833 28.8817C115.072 28.8817 113.688 29.3823 112.566 30.3762C111.48 31.4064 110.92 32.5962 110.92 33.931C110.92 35.0047 111.218 35.9188 111.821 36.7241C112.417 37.5294 113.354 38.1751 114.668 38.6757C113.546 39.1327 112.723 39.7058 112.197 40.3588C111.672 41.0117 111.409 41.7009 111.409 42.3901C111.409 43.5364 112.048 44.4142 113.319 45.0671C112.417 45.2993 111.786 45.604 111.445 45.9885C111.111 46.373 110.92 46.7938 110.92 47.2508C110.92 47.7079 111.147 48.1722 111.594 48.593C112.041 49.05 112.751 49.3982 113.766 49.6231C114.817 49.8916 115.938 50.0076 117.173 50.0076C118.82 50.0076 120.283 49.7392 121.518 49.2459C122.377 48.9412 123.051 48.4043 123.576 47.7151C124.066 47.0259 124.322 46.2642 124.322 45.3791C124.322 44.037 123.761 43.0866 122.675 42.4336C121.887 41.9766 120.467 41.7444 118.409 41.7444H115.86C115.264 41.7444 114.81 41.6284 114.547 41.4035C114.249 41.1713 114.135 40.9029 114.135 40.5256C114.135 40.1411 114.284 39.7639 114.582 39.4955C114.881 39.1908 115.257 39.0384 115.704 39.0384C116.826 39.1182 117.386 39.1182 117.465 39.1182C118.174 39.1182 118.998 38.9296 119.935 38.5088C120.907 38.088 121.617 37.5149 122.178 36.7894C122.703 36.0277 123.001 35.1861 123.001 34.1487C123.001 33.5756 122.852 33.0024 122.625 32.4656C122.441 32.0448 122.1 31.624 121.617 31.1234H124.272V29.4548H119.63C118.671 29.0776 117.734 28.8817 116.833 28.8817ZM94.0391 29.2662V29.8393C94.6779 29.9191 95.0471 30.1078 95.2742 30.3399C95.4588 30.6083 95.5369 31.2613 95.5369 32.3277V40.2862C95.5369 41.3599 95.4588 42.0056 95.3097 42.2378C95.0471 42.5425 94.6353 42.7383 94.0391 42.8109V43.3478H101.003V42.8109C100.478 42.7311 100.144 42.5425 99.9522 42.274C99.7606 42.0056 99.6541 41.3164 99.6541 40.2862V32.7485C100.399 31.4862 101.187 30.8768 102.011 30.8768C102.273 30.8768 102.501 30.9928 102.721 31.1452C102.905 31.2975 103.054 31.5297 103.168 31.8344C103.246 32.1391 103.281 32.8646 103.281 34.0181V40.2935C103.281 41.2874 103.203 41.8968 103.054 42.1652C102.827 42.5062 102.458 42.7383 101.933 42.8182V43.355H108.896V42.8182C108.3 42.7383 107.888 42.5497 107.697 42.3176C107.512 42.0491 107.399 41.3599 107.399 40.2935V34.8234C107.399 33.1765 107.321 32.0666 107.172 31.4934C106.987 30.7679 106.575 30.1513 106.014 29.6217C105.418 29.1211 104.666 28.8962 103.771 28.8962C103.026 28.8962 102.352 29.0486 101.677 29.3968C101.038 29.7813 100.364 30.3544 99.6541 31.1162V29.2807H94.0391V29.2662Z" fill="white"/>
<path d="M225.786 5.55721V5.89093C226.184 5.96348 226.411 6.05779 226.553 6.22465C226.666 6.39151 226.716 6.79053 226.716 7.45797V16.3016C226.716 16.969 226.666 17.368 226.574 17.5131C226.411 17.7017 226.155 17.8178 225.786 17.8686V18.2023H230.123V17.8686C229.754 17.8178 229.52 17.68 229.406 17.4623C229.314 17.3172 229.264 16.9182 229.264 16.3016V11.6295C229.541 11.2014 229.775 10.9185 230.01 10.7299C230.265 10.563 230.499 10.4687 230.727 10.4687C230.89 10.4687 231.053 10.5413 231.167 10.6356C231.309 10.7299 231.401 10.875 231.444 11.0636C231.515 11.2522 231.536 11.702 231.536 12.413V16.3016C231.536 16.94 231.465 17.3245 231.373 17.4841C231.209 17.6945 230.975 17.8178 230.677 17.8613V18.1951H234.993V17.8613C234.624 17.8105 234.39 17.6945 234.276 17.5494C234.134 17.3825 234.091 16.9545 234.091 16.2943V12.9063C234.091 11.9124 234.02 11.2014 233.907 10.7734C233.765 10.3671 233.509 9.98989 233.14 9.68519C232.771 9.38049 232.303 9.23539 231.77 9.23539C231.351 9.23539 230.932 9.3297 230.563 9.54009C230.166 9.75048 229.726 10.106 229.264 10.6065V5.55721H225.786ZM223.316 9.22814C223.174 9.46754 223.06 9.58362 222.989 9.6344C222.918 9.68519 222.847 9.70695 222.734 9.70695C222.62 9.70695 222.499 9.65617 222.336 9.56186C221.896 9.32245 221.456 9.22814 220.987 9.22814C220.128 9.22814 219.482 9.48931 219.014 10.0334C218.574 10.5775 218.34 11.1942 218.34 11.8616C218.34 12.4783 218.524 13.0224 218.943 13.5447C219.22 13.8785 219.823 14.4008 220.753 15.061C221.378 15.489 221.775 15.8227 221.96 16.0331C222.144 16.2435 222.237 16.5047 222.237 16.8166C222.237 17.0778 222.144 17.2882 221.96 17.4841C221.775 17.6727 221.541 17.7453 221.243 17.7453C220.824 17.7453 220.384 17.5566 219.894 17.1504C219.404 16.7223 219.035 16.1057 218.758 15.3004H218.46L218.602 18.4345H218.9C219.042 18.1225 219.198 17.9629 219.411 17.9629C219.482 17.9629 219.596 18.0137 219.781 18.079C220.455 18.3401 221.009 18.4562 221.406 18.4562C221.939 18.4562 222.428 18.3401 222.847 18.079C223.287 17.8396 223.614 17.4841 223.848 17.0125C224.104 16.541 224.217 16.0621 224.217 15.5906C224.217 15.0465 224.075 14.5677 223.777 14.1469C223.5 13.6971 222.918 13.1747 222.017 12.5581C221.136 11.9414 220.576 11.5134 220.391 11.2522C220.277 11.1071 220.206 10.9475 220.206 10.7807C220.206 10.5413 220.299 10.3526 220.462 10.1858C220.647 9.99714 220.86 9.92459 221.115 9.92459C221.513 9.92459 221.903 10.0915 222.301 10.3962C222.698 10.7299 223.089 11.3248 223.458 12.2244H223.756L223.614 9.23539H223.316V9.22814ZM212.533 9.46754V9.82303C212.93 9.84479 213.186 9.9391 213.342 10.106C213.484 10.2946 213.548 10.6718 213.548 11.2885V16.3886C213.548 17.0053 213.477 17.3825 213.363 17.5276C213.179 17.7162 212.902 17.8323 212.526 17.8613V18.1951H217.119V17.8613C216.7 17.8396 216.423 17.7453 216.281 17.5784C216.139 17.3898 216.075 17.0125 216.075 16.3959V9.46754H212.533ZM213.832 5.67329C213.555 5.95623 213.413 6.31171 213.413 6.69621C213.413 7.10248 213.555 7.42895 213.832 7.71914C214.087 8.00208 214.435 8.14717 214.833 8.14717C215.202 8.14717 215.55 8.00208 215.805 7.71914C216.082 7.4362 216.224 7.10248 216.224 6.69621C216.224 6.31896 216.082 5.96348 215.827 5.67329C215.55 5.41212 215.223 5.26702 214.826 5.26702C214.435 5.26702 214.087 5.41212 213.832 5.67329ZM207.067 5.55721V5.89093C207.464 5.9127 207.741 6.03603 207.876 6.20289C208.018 6.36975 208.082 6.76876 208.082 7.36365V16.3959C208.082 17.0125 208.011 17.3898 207.897 17.5349C207.713 17.7235 207.436 17.8396 207.06 17.8686V18.2023H211.653V17.8686C211.255 17.8468 210.978 17.7525 210.843 17.5857C210.701 17.397 210.638 17.0198 210.638 16.4031V5.55721H207.067ZM203.695 19.5952C204.022 19.6678 204.277 19.7839 204.44 19.9725C204.533 20.0668 204.582 20.2119 204.582 20.3497C204.582 20.7778 204.327 21.0825 203.837 21.3219C203.376 21.5613 202.701 21.6556 201.864 21.6556C200.863 21.6556 200.195 21.5395 199.819 21.2783C199.471 21.0172 199.287 20.7342 199.287 20.4223C199.287 20.0886 199.471 19.8274 199.819 19.6388C200.004 19.5227 200.423 19.4719 201.047 19.4719C202.488 19.4792 203.369 19.5227 203.695 19.5952ZM202.396 10.2511C202.673 10.6573 202.815 11.4118 202.815 12.5291C202.815 13.5012 202.701 14.1686 202.446 14.5241C202.211 14.8579 201.913 15.0247 201.537 15.0247C201.211 15.0247 200.934 14.8579 200.678 14.5024C200.444 14.1686 200.33 13.5302 200.33 12.6016C200.33 11.4626 200.444 10.7009 200.678 10.3454C200.934 9.98989 201.232 9.80126 201.58 9.80126C201.927 9.80126 202.211 9.9391 202.396 10.2511ZM201.416 9.22814C200.323 9.22814 199.464 9.53284 198.769 10.1567C198.094 10.7952 197.746 11.5352 197.746 12.3622C197.746 13.0296 197.931 13.5955 198.3 14.0961C198.669 14.5967 199.251 14.9957 200.061 15.3076C199.365 15.5906 198.854 15.9461 198.527 16.3523C198.201 16.7586 198.037 17.1794 198.037 17.6074C198.037 18.3184 198.435 18.8625 199.223 19.2688C198.669 19.4139 198.272 19.6025 198.066 19.8346C197.86 20.074 197.739 20.3352 197.739 20.6182C197.739 20.9011 197.881 21.184 198.158 21.4452C198.435 21.7281 198.875 21.9458 199.507 22.0836C200.16 22.2505 200.856 22.323 201.622 22.323C202.644 22.323 203.546 22.1562 204.313 21.8515C204.845 21.6628 205.264 21.3291 205.59 20.9011C205.889 20.4731 206.052 20.0015 206.052 19.4574C206.052 18.6303 205.704 18.0354 205.03 17.6292C204.54 17.3462 203.66 17.2011 202.382 17.2011H200.806C200.437 17.2011 200.153 17.1286 199.997 16.9908C199.812 16.8457 199.741 16.6788 199.741 16.4466C199.741 16.2072 199.833 15.9751 200.018 15.8082C200.203 15.6196 200.437 15.5253 200.714 15.5253C201.409 15.5761 201.757 15.5761 201.807 15.5761C202.247 15.5761 202.758 15.46 203.34 15.1988C203.944 14.9377 204.384 14.5822 204.731 14.1324C205.058 13.6608 205.243 13.1385 205.243 12.4928C205.243 12.1373 205.15 11.7818 205.008 11.4481C204.895 11.1869 204.682 10.9258 204.384 10.6211H206.031V9.59813H203.156C202.559 9.35147 201.977 9.22814 201.416 9.22814ZM187.013 9.46754V9.82303C187.411 9.87381 187.638 9.98989 187.78 10.135C187.894 10.3018 187.943 10.7009 187.943 11.3683V16.3016C187.943 16.969 187.894 17.368 187.801 17.5131C187.638 17.7017 187.382 17.8178 187.013 17.8686V18.2023H191.329V17.8686C191.003 17.8178 190.797 17.7017 190.676 17.5349C190.563 17.368 190.492 16.94 190.492 16.3016V11.6295C190.953 10.846 191.443 10.4687 191.954 10.4687C192.117 10.4687 192.252 10.5413 192.394 10.6356C192.508 10.7299 192.6 10.875 192.671 11.0636C192.721 11.2522 192.742 11.702 192.742 12.413V16.3016C192.742 16.9182 192.692 17.2955 192.6 17.4623C192.458 17.6727 192.231 17.8178 191.904 17.8686V18.2023H196.22V17.8686C195.851 17.8178 195.596 17.7017 195.475 17.5566C195.361 17.3898 195.29 16.9617 195.29 16.3016V12.9136C195.29 11.8906 195.241 11.2087 195.148 10.8532C195.035 10.4034 194.779 10.0262 194.431 9.69244C194.062 9.38774 193.594 9.24264 193.04 9.24264C192.579 9.24264 192.16 9.33696 191.741 9.54735C191.343 9.78675 190.932 10.1422 190.485 10.6138V9.4748H187.013V9.46754ZM180 6.28995C180.951 6.28995 181.576 6.34073 181.924 6.45681C182.506 6.64543 182.946 6.92837 183.272 7.33463C183.599 7.7409 183.854 8.37932 184.018 9.30068H184.366V5.55721H174.016V5.89093H174.435C174.832 5.89093 175.151 5.98524 175.386 6.17387C175.549 6.28995 175.663 6.45681 175.712 6.67445C175.762 6.79053 175.762 7.14601 175.762 7.71914V16.0404C175.762 16.657 175.741 17.0633 175.67 17.2011C175.577 17.4115 175.464 17.5566 175.301 17.6509C175.095 17.796 174.789 17.8396 174.442 17.8396H174.023V18.1951H184.72L185.274 14.1832H184.926C184.621 15.3004 184.138 16.1274 183.443 16.6715C182.747 17.2157 181.817 17.4986 180.66 17.4986H179.915C179.567 17.4986 179.311 17.4478 179.148 17.3317C178.985 17.2374 178.871 17.1213 178.821 16.9545C178.75 16.8094 178.729 16.3886 178.729 15.6704V12.1155C179.333 12.1155 179.773 12.1881 180.078 12.3549C180.404 12.5218 180.66 12.8265 180.916 13.2763C181.15 13.7479 181.285 14.3428 181.377 15.0537H181.725V8.43736H181.377C181.263 9.4095 181.05 10.1713 180.681 10.6646C180.333 11.1652 179.78 11.4263 178.985 11.4263H178.729V6.28995H180ZM167.84 10.3962V9.46754H166.562V8.37932V6.73974C166.562 6.40602 166.612 6.17387 166.725 6.02877C166.839 5.86191 167.002 5.78937 167.166 5.78937C167.308 5.78937 167.421 5.84015 167.535 5.93446C167.606 6.00701 167.627 6.10132 167.627 6.2174C167.627 6.31171 167.627 6.40602 167.606 6.5221C167.556 6.68896 167.535 6.80504 167.535 6.85582C167.535 7.06621 167.627 7.26209 167.812 7.42169C167.996 7.58855 168.252 7.68286 168.578 7.68286C168.947 7.68286 169.253 7.56679 169.458 7.37091C169.693 7.16052 169.806 6.92111 169.806 6.63818C169.806 6.30445 169.622 5.97073 169.253 5.6878C168.905 5.40486 168.351 5.25977 167.606 5.25977C166.512 5.25977 165.632 5.5427 165.008 6.1376C164.354 6.75425 164.035 7.48699 164.035 8.39383L164.056 8.82187V9.46029H162.8V10.3889H164.056V16.4394C164.056 16.911 164.007 17.2229 163.964 17.3608C163.893 17.5276 163.779 17.6219 163.616 17.7162C163.453 17.8105 163.176 17.8613 162.807 17.8613V18.1951H167.84V17.8613C167.308 17.8613 166.931 17.767 166.747 17.5494C166.633 17.3825 166.562 17.027 166.562 16.4321V10.3816H167.84V10.3962ZM157.895 10.0842C158.101 10.2511 158.292 10.534 158.406 10.9403C158.519 11.3175 158.569 12.0575 158.569 13.124C158.569 14.9014 158.519 16.1129 158.385 16.7078C158.314 17.0633 158.15 17.3753 157.923 17.5857C157.739 17.7525 157.504 17.8251 157.249 17.8251C156.972 17.8251 156.716 17.709 156.482 17.4696C156.276 17.2302 156.134 16.9037 156.063 16.4757C155.971 15.8808 155.921 15.2641 155.921 14.6039C155.921 13.3489 155.971 12.3767 156.035 11.6657C156.106 10.9765 156.241 10.505 156.475 10.2656C156.681 10.0044 156.965 9.88832 157.263 9.88832C157.526 9.87381 157.731 9.9391 157.895 10.0842ZM154.324 10.6065C153.628 11.5352 153.259 12.6234 153.259 13.8785C153.259 15.09 153.607 16.1565 154.303 17.0778C154.998 18.0064 155.971 18.4562 157.27 18.4562C158.569 18.4562 159.591 17.9556 160.337 16.94C160.961 16.1129 161.267 15.0682 161.267 13.8349C161.267 12.9789 161.103 12.1953 160.777 11.4844C160.429 10.7516 159.939 10.2003 159.314 9.80126C158.661 9.42401 157.994 9.23539 157.249 9.23539C155.992 9.22813 155.02 9.68519 154.324 10.6065ZM142.562 5.55721V5.89093C142.959 5.9127 143.236 6.03603 143.371 6.20289C143.513 6.36975 143.577 6.76876 143.577 7.36365V16.3959C143.577 17.0125 143.506 17.3898 143.392 17.5349C143.208 17.7235 142.931 17.8396 142.555 17.8686V18.2023H147.147V17.8686C146.75 17.8468 146.473 17.7525 146.338 17.5857C146.196 17.397 146.132 17.0198 146.132 16.4031V5.55721H142.562ZM137.87 10.0842C138.075 10.2511 138.267 10.534 138.381 10.9403C138.494 11.3175 138.544 12.0575 138.544 13.124C138.544 14.9014 138.494 16.1129 138.359 16.7078C138.288 17.0633 138.125 17.3753 137.898 17.5857C137.713 17.7525 137.479 17.8251 137.224 17.8251C136.947 17.8251 136.691 17.709 136.457 17.4696C136.251 17.2302 136.109 16.9037 136.038 16.4757C135.946 15.8808 135.896 15.2641 135.896 14.6039C135.896 13.3489 135.946 12.3767 136.01 11.6657C136.081 10.9765 136.216 10.505 136.45 10.2656C136.656 10.0044 136.94 9.88832 137.238 9.88832C137.493 9.87381 137.706 9.9391 137.87 10.0842ZM134.292 10.6065C133.596 11.5352 133.227 12.6234 133.227 13.8785C133.227 15.09 133.575 16.1565 134.271 17.0778C134.966 18.0064 135.939 18.4562 137.238 18.4562C138.537 18.4562 139.559 17.9556 140.304 16.94C140.929 16.1129 141.234 15.0682 141.234 13.8349C141.234 12.9789 141.071 12.1953 140.744 11.4844C140.397 10.7516 139.907 10.2003 139.282 9.80126C138.629 9.42401 137.962 9.23539 137.216 9.23539C135.967 9.22813 134.987 9.68519 134.292 10.6065ZM128.251 10.0842C128.457 10.2511 128.648 10.534 128.762 10.9403C128.876 11.3175 128.925 12.0575 128.925 13.124C128.925 14.9014 128.876 16.1129 128.741 16.7078C128.67 17.0633 128.506 17.3753 128.279 17.5857C128.095 17.7525 127.86 17.8251 127.605 17.8251C127.328 17.8251 127.072 17.709 126.838 17.4696C126.632 17.2302 126.49 16.9037 126.419 16.4757C126.327 15.8808 126.277 15.2641 126.277 14.6039C126.277 13.3489 126.327 12.3767 126.391 11.6657C126.462 10.9765 126.597 10.505 126.831 10.2656C127.037 10.0044 127.321 9.88832 127.619 9.88832C127.882 9.87381 128.088 9.9391 128.251 10.0842ZM124.68 10.6065C123.985 11.5352 123.615 12.6234 123.615 13.8785C123.615 15.09 123.963 16.1565 124.659 17.0778C125.355 18.0064 126.327 18.4562 127.626 18.4562C128.925 18.4562 129.947 17.9556 130.693 16.94C131.317 16.1129 131.623 15.0682 131.623 13.8349C131.623 12.9789 131.459 12.1953 131.133 11.4844C130.785 10.7516 130.295 10.2003 129.671 9.80126C129.018 9.42401 128.35 9.23539 127.605 9.23539C126.348 9.22813 125.376 9.68519 124.68 10.6065ZM112.897 5.55721V5.89093C113.294 5.96348 113.521 6.05779 113.663 6.22465C113.777 6.39151 113.826 6.79053 113.826 7.45797V16.3016C113.826 16.969 113.777 17.368 113.684 17.5131C113.521 17.7017 113.266 17.8178 112.897 17.8686V18.2023H117.234V17.8686C116.865 17.8178 116.63 17.68 116.517 17.4623C116.425 17.3172 116.375 16.9182 116.375 16.3016V11.6295C116.652 11.2014 116.886 10.9185 117.12 10.7299C117.376 10.563 117.61 10.4687 117.837 10.4687C118 10.4687 118.164 10.5413 118.277 10.6356C118.419 10.7299 118.512 10.875 118.554 11.0636C118.625 11.2522 118.646 11.702 118.646 12.413V16.3016C118.646 16.94 118.575 17.3245 118.483 17.4841C118.32 17.6945 118.086 17.8178 117.787 17.8613V18.1951H122.103V17.8613C121.734 17.8105 121.5 17.6945 121.386 17.5494C121.245 17.3825 121.202 16.9545 121.202 16.2943V12.9063C121.202 11.9124 121.131 11.2014 121.017 10.7734C120.875 10.3671 120.62 9.98989 120.251 9.68519C119.882 9.38049 119.413 9.23539 118.881 9.23539C118.462 9.23539 118.043 9.3297 117.674 9.54009C117.276 9.75048 116.836 10.106 116.375 10.6065V5.55721H112.897ZM110.334 16.7731C110.078 16.9182 109.802 16.9835 109.496 16.9835C109.035 16.9835 108.637 16.8384 108.311 16.5772C107.871 16.2 107.502 15.6269 107.246 14.8941C106.99 14.1324 106.877 13.3561 106.877 12.5436C106.877 11.5497 107.04 10.8097 107.338 10.3381C107.544 10.0334 107.8 9.86656 108.084 9.86656C108.29 9.86656 108.453 9.9391 108.573 10.106C108.737 10.2511 108.829 10.534 108.85 10.9112C108.9 11.5497 109.056 11.9777 109.29 12.2171C109.525 12.4565 109.823 12.5726 110.171 12.5726C110.518 12.5726 110.795 12.4783 111.008 12.2679C111.214 12.0575 111.306 11.7673 111.306 11.4118C111.306 10.8677 111.051 10.3454 110.54 9.89558C110.007 9.44578 109.312 9.22814 108.432 9.22814C107.111 9.22814 106.089 9.77224 105.344 10.8387C104.719 11.7383 104.414 12.783 104.414 13.9728C104.414 15.2061 104.74 16.2725 105.436 17.1504C106.11 18.0282 107.012 18.4562 108.148 18.4562C108.822 18.4562 109.468 18.2676 110.071 17.8904C110.675 17.5131 111.164 16.94 111.555 16.1855L111.278 15.9461C110.909 16.3451 110.611 16.628 110.334 16.7731ZM101.517 5.26702C101.446 5.64427 101.354 5.88368 101.262 5.97799C101.191 6.0723 101.056 6.12309 100.893 6.12309C100.73 6.12309 100.453 6.02877 100.034 5.84015C99.615 5.62976 99.2672 5.48466 98.9903 5.41212C98.6212 5.3178 98.2237 5.26702 97.8333 5.26702C96.7188 5.26702 95.8173 5.6225 95.0932 6.33347C94.3762 7.02268 94 7.90051 94 8.89441C94 9.48931 94.142 10.0334 94.3975 10.534C94.6531 11.0056 95.0506 11.4554 95.5333 11.8616C96.0231 12.2389 96.8323 12.7395 97.9681 13.2836C98.7561 13.7116 99.3169 14.0453 99.6363 14.2775C99.9416 14.5386 100.19 14.7998 100.332 15.0827C100.495 15.3439 100.588 15.6486 100.588 15.9388C100.588 16.4394 100.382 16.8892 99.9629 17.2664C99.5653 17.6437 99.0116 17.8323 98.3373 17.8323C97.457 17.8323 96.6407 17.4768 95.8811 16.7659C95.1145 16.0767 94.6034 15.061 94.3265 13.7043H94V18.4707H94.3265C94.4401 18.2096 94.5821 18.0209 94.7667 17.9049C94.9299 17.7888 95.0932 17.7162 95.2565 17.7162C95.441 17.7162 95.6966 17.7888 95.9734 17.9049C96.5058 18.1443 96.9459 18.2821 97.2938 18.3764C97.6416 18.449 97.9894 18.4925 98.387 18.4925C99.6434 18.4925 100.659 18.1153 101.475 17.3535C102.263 16.5917 102.682 15.6704 102.682 14.6257C102.682 13.7696 102.426 13.0369 101.915 12.3985C101.404 11.7601 100.431 11.0709 98.9903 10.3381C97.9681 9.81577 97.2938 9.46029 97.0169 9.2499C96.6194 8.96696 96.3426 8.68403 96.158 8.37207C96.0444 8.16168 95.9734 7.92227 95.9734 7.63934C95.9734 7.2113 96.158 6.81229 96.5058 6.47857C96.8749 6.14485 97.3647 5.95623 97.9894 5.95623C98.7774 5.95623 99.544 6.28995 100.218 6.92837C100.914 7.56679 101.354 8.42285 101.517 9.46754H101.887L101.794 5.26702H101.517Z" fill="white"/>
<path d="M75.8812 6.74703C78.7987 6.74703 80.7154 6.89213 81.7873 7.25487C83.5619 7.83525 84.9177 8.70582 85.9116 9.94639C86.9054 11.1797 87.6862 13.1458 88.1902 15.9824H89.255V4.49805H57.5312V5.51372H58.809C60.0158 5.51372 61.0167 5.80391 61.7265 6.38429C62.2234 6.74703 62.5784 7.25487 62.7203 7.9078C62.8623 8.27054 62.8623 9.35876 62.8623 11.1072V36.615C62.8623 38.5012 62.7913 39.7418 62.5784 40.1771C62.2944 40.83 61.9395 41.2653 61.4426 41.5555C60.8037 41.9908 59.8809 42.1359 58.809 42.1359H57.5312V43.2241H90.3198L92.0235 30.9417H90.9587C90.0359 34.3588 88.538 36.9052 86.4085 38.5738C84.2718 40.2424 81.4323 41.1202 77.8759 41.1202H75.5972C74.5325 41.1202 73.7516 40.9751 73.2476 40.6124C72.7507 40.3222 72.3958 39.9594 72.2538 39.4516C72.0408 39.0163 71.9699 37.7105 71.9699 35.5268V24.6301C73.8155 24.6301 75.1713 24.8477 76.0942 25.3556C77.088 25.8634 77.8688 26.8065 78.6568 28.1922C79.3666 29.6431 79.7925 31.4641 80.0765 33.6405H81.1413V13.3634H80.0765C79.7215 16.3451 79.0827 18.6666 77.9398 20.1974C76.875 21.7209 75.1642 22.5262 72.7507 22.5262H71.9699V6.74703H75.8812Z" fill="white"/>
</g>
<defs>
<clipPath id="clip0_8153_2249">
<rect width="235" height="50" fill="white"/>
</clipPath>
</defs>
</svg>
