<svg width="278" height="58" viewBox="0 0 278 58" fill="none" xmlns="http://www.w3.org/2000/svg">
<g clip-path="url(#clip0_8153_2200)">
<path d="M37.7493 51.6547C36.3469 51.2256 34.9865 51.5874 34.7262 52.4626C34.4574 53.3379 35.3812 54.3982 36.792 54.8274C38.1943 55.2566 40.6464 54.272 40.6464 54.272C40.6464 54.272 39.1601 52.0839 37.7493 51.6547Z" fill="#9B2F26"/>
<path d="M34.8766 47.8844C34.104 48.8269 33.9612 49.9883 34.5491 50.468C35.1369 50.9477 36.237 50.5605 37.0095 49.618C37.7821 48.667 37.7905 46.479 37.7905 46.479C37.7905 46.479 35.6491 46.9334 34.8766 47.8844Z" fill="#9B2F26"/>
<path d="M38.7425 46.4203C38.2387 47.5311 38.3898 48.6925 39.0868 49.0039C39.7838 49.3152 40.7411 48.6672 41.245 47.5564C41.7488 46.4455 41.1946 44.3164 41.1946 44.3164C41.1946 44.3164 39.2464 45.3094 38.7425 46.4203Z" fill="#9B2F26"/>
<path d="M42.8367 44.0554C42.4001 45.1999 42.61 46.336 43.3154 46.6138C44.0292 46.8915 44.9529 46.1846 45.398 45.0485C45.8347 43.904 45.1629 41.8169 45.1629 41.8169C45.1629 41.8169 43.2734 42.9109 42.8367 44.0554Z" fill="#9B2F26"/>
<path d="M46.5051 41.2868C46.3119 42.3472 46.673 43.3066 47.328 43.4244C47.983 43.5506 48.6716 42.7932 48.8816 41.7413C49.0831 40.6809 48.1678 38.981 48.1678 38.981C48.1678 38.981 46.7066 40.2265 46.5051 41.2868Z" fill="#9B2F26"/>
<path d="M49.169 38.2402C49.0766 39.2249 49.4965 40.0664 50.1095 40.1169C50.7225 40.1758 51.2852 39.4268 51.3775 38.4422C51.4699 37.4576 50.4958 35.9849 50.4958 35.9849C50.4958 35.9849 49.2614 37.2556 49.169 38.2402Z" fill="#9B2F26"/>
<path d="M51.092 35.0424C51.1759 35.8755 51.663 36.5067 52.1752 36.4646C52.6959 36.4141 53.0486 35.6988 52.9646 34.8572C52.8806 34.0241 51.8309 32.9553 51.8309 32.9553C51.8309 32.9553 51.008 34.2092 51.092 35.0424Z" fill="#9B2F26"/>
<path d="M52.256 31.735C52.3315 32.5681 52.8186 33.2077 53.3308 33.1572C53.8515 33.1067 54.2042 32.3914 54.1286 31.5583C54.053 30.7251 53.0033 29.6479 53.0033 29.6479C53.0033 29.6479 52.172 30.9019 52.256 31.735Z" fill="#9B2F26"/>
<path d="M42.4865 50.3672C41.0253 50.1904 39.7573 50.7879 39.6481 51.6968C39.5389 52.6057 40.639 53.4809 42.1002 53.6576C43.5613 53.8344 45.7951 52.429 45.7951 52.429C45.7951 52.429 43.9476 50.5439 42.4865 50.3672Z" fill="#9B2F26"/>
<path d="M46.2719 47.9013C44.8108 48.036 43.6939 48.8859 43.7779 49.7948C43.8619 50.7037 45.1131 51.3349 46.5827 51.2002C48.0438 51.0656 49.9417 49.231 49.9417 49.231C49.9417 49.231 47.7331 47.7667 46.2719 47.9013Z" fill="#9B2F26"/>
<path d="M49.6787 44.939C48.5198 45.3851 47.806 46.336 48.0831 47.0513C48.3603 47.7751 49.5275 47.9939 50.6864 47.5479C51.8452 47.1018 52.9705 45.1663 52.9705 45.1663C52.9705 45.1663 50.8459 44.493 49.6787 44.939Z" fill="#9B2F26"/>
<path d="M52.1836 41.0174C51.1003 41.6991 50.5629 42.8015 50.9911 43.4748C51.411 44.148 52.6371 44.1396 53.7203 43.4579C54.8036 42.7763 55.551 40.5966 55.551 40.5966C55.551 40.5966 53.2669 40.3358 52.1836 41.0174Z" fill="#9B2F26"/>
<path d="M54.2725 37.2135C53.374 37.9204 53.0045 38.9471 53.4411 39.5025C53.8778 40.058 54.9611 39.9401 55.8596 39.2332C56.7582 38.5263 57.22 36.5319 57.22 36.5319C57.22 36.5319 55.171 36.5066 54.2725 37.2135Z" fill="#9B2F26"/>
<path d="M55.3638 33.6873C54.6669 34.3269 54.4317 35.1853 54.818 35.6145C55.2127 36.0521 56.0944 35.8838 56.7914 35.2526C57.4884 34.6131 57.7487 32.9468 57.7487 32.9468C57.7487 32.9468 56.0524 33.0478 55.3638 33.6873Z" fill="#9B2F26"/>
<path d="M55.271 30.7251C54.7504 31.4909 54.7084 32.3746 55.1787 32.7028C55.6573 33.031 56.4635 32.6775 56.9925 31.9117C57.5216 31.1459 57.3872 29.488 57.3872 29.488C57.3872 29.488 55.8001 29.9509 55.271 30.7251Z" fill="#9B2F26"/>
<path d="M54.3557 31.6426C54.4145 34.5459 53.1045 37.2558 51.5258 39.5953C49.9219 41.96 47.9064 44.0303 45.6727 45.7891C43.4222 47.5396 40.9197 48.9281 38.2997 49.9548C35.6797 50.9984 32.8497 51.5285 29.9777 51.335L29.9609 51.4191C32.7993 52.1092 35.8308 51.6884 38.5852 50.7543C41.3648 49.7865 43.8588 48.1791 46.0926 46.3193C48.3263 44.4595 50.3081 42.2798 51.8701 39.8309C52.6426 38.6022 53.3061 37.2978 53.7847 35.9177C54.255 34.5459 54.5321 33.0901 54.4313 31.6426H54.3557Z" fill="#9B2F26"/>
<path d="M19.9981 51.6547C21.4005 51.2256 22.7609 51.5874 23.0296 52.4626C23.2983 53.3379 22.3746 54.3982 20.9638 54.8274C19.5615 55.2566 17.1094 54.272 17.1094 54.272C17.1094 54.272 18.5957 52.0839 19.9981 51.6547Z" fill="#9B2F26"/>
<path d="M22.8665 47.8844C23.6391 48.8269 23.7902 49.9883 23.2024 50.468C22.6146 50.9477 21.5145 50.5605 20.7419 49.618C19.9693 48.667 19.9609 46.479 19.9609 46.479C19.9609 46.479 22.1023 46.9334 22.8665 47.8844Z" fill="#9B2F26"/>
<path d="M19.0025 46.4203C19.5064 47.5311 19.3552 48.6925 18.6666 49.0039C17.9696 49.3152 17.0039 48.6672 16.5085 47.5564C16.0046 46.4455 16.5588 44.3164 16.5588 44.3164C16.5588 44.3164 18.4987 45.3094 19.0025 46.4203Z" fill="#9B2F26"/>
<path d="M14.9035 44.0554C15.3402 45.1999 15.1302 46.336 14.4248 46.6138C13.7111 46.8915 12.7873 46.1846 12.3507 45.0485C11.914 43.904 12.5858 41.8169 12.5858 41.8169C12.5858 41.8169 14.4668 42.9109 14.9035 44.0554Z" fill="#9B2F26"/>
<path d="M11.2336 41.2868C11.4352 42.3472 11.0657 43.3066 10.4107 43.4244C9.75565 43.5506 9.06705 42.7932 8.85712 41.7413C8.65557 40.6809 9.5709 38.981 9.5709 38.981C9.5709 38.981 11.0321 40.2265 11.2336 41.2868Z" fill="#9B2F26"/>
<path d="M8.5741 38.2402C8.66647 39.2249 8.2466 40.0664 7.63358 40.1169C7.02056 40.1758 6.45793 39.4268 6.36555 38.4422C6.27318 37.4576 7.24729 35.9849 7.24729 35.9849C7.24729 35.9849 8.48173 37.2556 8.5741 38.2402Z" fill="#9B2F26"/>
<path d="M6.65063 35.0424C6.56666 35.8755 6.0796 36.5067 5.56735 36.4646C5.04671 36.4141 4.69401 35.6988 4.77799 34.8572C4.86196 34.0241 5.91165 32.9553 5.91165 32.9553C5.91165 32.9553 6.73461 34.2092 6.65063 35.0424Z" fill="#9B2F26"/>
<path d="M5.4938 31.735C5.40982 32.5681 4.93117 33.2077 4.41892 33.1572C3.89827 33.1067 3.54557 32.3914 3.62955 31.5583C3.70513 30.7251 4.75482 29.6479 4.75482 29.6479C4.75482 29.6479 5.57777 30.9019 5.4938 31.735Z" fill="#9B2F26"/>
<path d="M15.2696 50.3672C16.7223 50.1904 17.9988 50.7879 18.1079 51.6968C18.2171 52.6057 17.1254 53.4809 15.6558 53.6576C14.1947 53.8344 11.9609 52.429 11.9609 52.429C11.9609 52.429 13.8 50.5439 15.2696 50.3672Z" fill="#9B2F26"/>
<path d="M11.4816 47.9013C12.9428 48.036 14.0597 48.8859 13.9841 49.7948C13.9001 50.7037 12.6405 51.3349 11.1793 51.2002C9.71815 51.0656 7.82031 49.231 7.82031 49.231C7.82031 49.231 10.0121 47.7667 11.4816 47.9013Z" fill="#9B2F26"/>
<path d="M8.06527 44.939C9.22413 45.3851 9.94631 46.336 9.6608 47.0513C9.38368 47.7751 8.21642 47.9939 7.05756 47.5479C5.89871 47.1018 4.77344 45.1663 4.77344 45.1663C4.77344 45.1663 6.90641 44.493 8.06527 44.939Z" fill="#9B2F26"/>
<path d="M5.57053 41.0174C6.65381 41.6991 7.19125 42.8015 6.76298 43.4748C6.3431 44.148 5.11707 44.1396 4.03379 43.4579C2.9505 42.7763 2.20312 40.5966 2.20312 40.5966C2.20312 40.5966 4.48725 40.3358 5.57053 41.0174Z" fill="#9B2F26"/>
<path d="M3.47097 37.2135C4.3695 37.9204 4.73899 38.9471 4.30232 39.5025C3.86565 40.058 2.78237 39.9401 1.88384 39.2332C0.985301 38.5263 0.523438 36.5319 0.523438 36.5319C0.523438 36.5319 2.57243 36.5066 3.47097 37.2135Z" fill="#9B2F26"/>
<path d="M2.3849 33.6873C3.08189 34.3269 3.32542 35.1853 2.93074 35.6145C2.53605 36.0521 1.65431 35.8838 0.957318 35.2526C0.260323 34.6131 0 32.9468 0 32.9468C0 32.9468 1.6879 33.0478 2.3849 33.6873Z" fill="#9B2F26"/>
<path d="M2.47362 30.7252C2.99426 31.4911 3.03625 32.3747 2.56599 32.7029C2.08733 33.0311 1.28117 32.6776 0.752126 31.9118C0.223082 31.1376 0.349045 29.4797 0.349045 29.4797C0.349045 29.4797 1.93618 29.951 2.47362 30.7252Z" fill="#9B2F26"/>
<path d="M3.38065 31.6426C3.32187 34.5459 4.63188 37.2558 6.21061 39.5953C7.81454 41.96 9.82995 44.0303 12.0637 45.7891C14.3142 47.5396 16.8167 48.9281 19.4367 49.9548C22.0567 50.9984 24.8867 51.5285 27.7587 51.335L27.7755 51.4191C24.9371 52.1092 21.9056 51.6884 19.1428 50.7543C16.3632 49.7865 13.8692 48.1791 11.6354 46.3193C9.40167 44.4595 7.41986 42.2798 5.84952 39.8309C5.07695 38.6022 4.41354 37.2978 3.94328 35.9177C3.47302 34.5459 3.1875 33.0901 3.29667 31.6426H3.38065Z" fill="#9B2F26"/>
<path d="M46.4805 0H11.2613C10.7323 0 10.2704 0.193558 9.88412 0.580673C9.49783 0.967789 9.30469 1.43064 9.30469 1.96082V25.4991C9.30469 27.258 9.64899 29 10.3292 30.7252C11.0094 32.4504 11.8575 33.982 12.8652 35.3201C13.8729 36.6582 15.0738 37.9626 16.4762 39.2249C17.8702 40.4872 19.1634 41.5392 20.3474 42.3807C21.5315 43.2139 22.7659 44.0049 24.0507 44.7539C25.3356 45.4945 26.2425 45.9994 26.7883 46.2687C27.3258 46.5296 27.7624 46.74 28.0899 46.8831C28.3335 47.0093 28.6022 47.0682 28.8877 47.0682C29.1732 47.0682 29.4419 47.0093 29.6855 46.8831C30.013 46.74 30.4413 46.538 30.9871 46.2687C31.5245 45.9994 32.4399 45.4945 33.7247 44.7539C35.0095 44.0049 36.2439 43.2139 37.428 42.3807C38.612 41.5392 39.8969 40.4872 41.2993 39.2249C42.6932 37.9542 43.9025 36.6582 44.9102 35.3201C45.9179 33.982 46.766 32.4504 47.4462 30.7252C48.1264 29 48.4707 27.258 48.4707 25.4991V1.96082C48.4707 1.43064 48.2776 0.967789 47.8913 0.580673C47.4714 0.193558 47.018 0 46.4805 0ZM43.407 24.9942C43.407 26.2986 43.1551 27.5946 42.6429 28.8738C42.139 30.1529 41.5092 31.2974 40.7618 32.2905C40.0144 33.2835 39.1159 34.2513 38.083 35.1938C37.0417 36.1364 36.0844 36.919 35.211 37.5418C34.3293 38.1645 33.414 38.7536 32.4651 39.3091C31.5077 39.8645 30.8359 40.2348 30.4329 40.4367C30.0298 40.6303 29.7107 40.7818 29.4671 40.8912C29.2824 40.9837 29.0893 41.0258 28.8793 41.0258C28.6694 41.0258 28.4678 40.9837 28.2915 40.8912C28.048 40.7818 27.7289 40.6303 27.3258 40.4367C26.9227 40.2348 26.2425 39.8645 25.2936 39.3091C24.3363 38.7536 23.4209 38.1645 22.5476 37.5418C21.6742 36.919 20.7085 36.1364 19.6756 35.1938C18.6427 34.2513 17.7442 33.2835 16.9968 32.2905C16.2494 31.2974 15.6196 30.1613 15.1158 28.8738C14.6035 27.5946 14.3516 26.2986 14.3516 24.9942V7.50667C14.3516 7.11114 14.4944 6.77452 14.7799 6.47998C15.0654 6.19385 15.4097 6.05078 15.8044 6.05078H41.9711C42.3657 6.05078 42.71 6.19385 42.9956 6.47998C43.2811 6.76611 43.4238 7.11114 43.4238 7.50667V24.9942H43.407Z" fill="#223242"/>
<path d="M29.3437 26.4081C28.6887 24.5061 26.539 24.5146 24.7083 26.3912C21.9455 29.2357 20.2744 29.9847 18.5781 27.8387C18.5781 27.8387 19.653 31.5163 23.2387 31.1628C25.6656 30.9272 30.1751 28.8233 29.3437 26.4081Z" fill="#024867"/>
<path d="M28.4846 26.5511C28.5182 24.5398 30.5672 23.875 32.8849 25.0952C36.3951 26.9382 38.209 27.1402 39.1579 24.5735C39.1579 24.5735 39.2755 28.4026 35.7569 29.1852C33.3804 29.707 28.4427 29.0926 28.4846 26.5511Z" fill="#024867"/>
<path d="M42.8655 10.3006C42.3112 11.1085 41.7234 11.908 41.7234 11.908C40.1447 11.6135 35.6016 10.713 30.4623 12.5897C28.934 12.8842 27.7079 12.5392 27.7079 12.5392C22.4511 10.6541 17.7905 11.6303 16.3461 11.9501C16.3461 11.9501 15.8422 11.1927 15.2796 10.3848C15.1788 10.2333 14.9185 10.8561 14.9773 11.0244C15.246 11.7397 15.5735 13.6837 15.7751 14.5673C16.556 17.9672 16.6148 20.8117 21.5693 20.879C26.843 20.9547 27.3049 16.343 28.0354 14.9881C28.0354 14.9881 29.0347 13.8352 30.1096 14.9797L30.1516 15.0386C30.8822 16.3935 31.3777 20.9968 36.6429 20.8958C41.5974 20.7948 41.6562 17.9588 42.4036 14.5505C42.5967 13.6669 42.8823 11.7313 43.1426 11.016C43.2014 10.8477 42.9662 10.1492 42.8655 10.3006ZM26.1712 16.9405C25.8269 17.8494 24.9452 19.9869 21.6533 20.1132C18.3615 20.2394 17.253 18.2197 17.1858 15.0049C17.1187 11.5966 22.2495 12.1184 24.9451 12.7496C27.6408 13.3892 26.4987 16.0569 26.1712 16.9405ZM36.5085 20.231C33.2167 20.13 32.3182 17.9925 31.9739 17.0836C31.638 16.1999 30.4875 13.5322 33.1747 12.8842C35.8619 12.2362 41.0012 11.6892 40.9424 15.0975C40.892 18.3123 39.8004 20.332 36.5085 20.231Z" fill="#9B2F26"/>
<path d="M24.4848 16.1327C24.4848 16.1327 23.7794 15.9223 22.5198 15.9307C22.5198 15.9307 22.2427 15.9055 20.8655 16.0065C20.8655 16.0065 20.454 16.099 19.9502 16.402H19.6562V16.1579C19.6562 16.1579 20.412 15.2659 21.5205 15.1144C21.5205 15.1144 22.6458 14.9629 23.5191 15.35C23.5191 15.35 24.3505 15.7792 24.6612 16.1411L24.4848 16.1327Z" fill="#024867"/>
<path d="M37.5104 15.754C37.502 16.7302 36.7043 17.5128 35.7386 17.496C34.7644 17.4876 33.9835 16.6881 34.0003 15.7203C34.0087 14.7441 34.8064 13.9615 35.7721 13.9783C36.7463 13.9783 37.5272 14.7778 37.5104 15.754Z" fill="#024867"/>
<path d="M268.864 47.573C268.335 47.573 267.89 47.3963 267.621 47.0849C267.226 46.6894 267.041 46.2434 267.041 45.6627C267.041 45.04 267.26 44.4172 267.705 43.8029C268.41 42.8687 269.435 41.943 270.846 41.1436V46.6053C270.107 47.2617 269.443 47.573 268.864 47.573ZM271.786 49.8368C272.315 50.2829 273.071 50.5017 274.003 50.5017C274.801 50.5017 275.506 50.3249 276.128 49.921C276.749 49.5255 277.32 48.9027 277.899 48.0611L277.37 47.6151C277.06 48.0611 276.749 48.28 276.438 48.28C276.304 48.28 276.17 48.2379 276.086 48.1453C275.951 48.0527 275.867 47.9265 275.817 47.6993C275.724 47.5226 275.724 47.0345 275.724 46.2771V39.9738C275.724 38.1981 275.632 37.0873 275.456 36.5992C275.187 35.8418 274.616 35.1349 273.726 34.47C272.794 33.8052 271.601 33.4938 270.048 33.4938C268.763 33.4938 267.52 33.6706 266.328 34.0745C265.177 34.47 264.245 35.0928 263.582 35.8502C262.918 36.6076 262.566 37.4071 262.566 38.2486C262.566 38.8293 262.834 39.3595 263.321 39.8055C263.85 40.2515 264.43 40.4703 265.177 40.4703C265.841 40.4703 266.42 40.2515 266.815 39.8476C267.26 39.452 267.478 38.9639 267.478 38.3833C267.478 37.9372 267.26 37.4491 266.815 36.961C266.504 36.6076 266.328 36.2962 266.328 36.0269C266.328 35.7576 266.462 35.4967 266.773 35.32C267.26 34.9665 267.881 34.7898 268.629 34.7898C269.116 34.7898 269.51 34.9245 269.871 35.1433C270.266 35.4126 270.493 35.6735 270.627 35.9848C270.762 36.2962 270.846 37.0957 270.846 38.3328V39.9738C267.26 41.6148 264.908 42.9445 263.85 43.9207C262.784 44.8969 262.255 46.0498 262.255 47.2953C262.255 48.179 262.566 48.9784 263.187 49.5591C263.808 50.1819 264.556 50.4932 265.488 50.4932C267.083 50.4932 268.855 49.6096 270.846 47.876C270.988 48.7681 271.299 49.3908 271.786 49.8368ZM248.323 38.1645C249.079 36.4813 250.053 35.5893 251.246 35.5893C251.951 35.5893 252.572 35.9427 253.018 36.6076C253.681 37.6764 253.992 39.5783 253.992 42.4227C253.992 45.1746 253.723 47.0345 253.11 48.0107C252.715 48.6334 252.178 48.9869 251.556 48.9869C250.406 48.9869 249.339 48.28 248.323 46.8577V38.1645ZM250.137 50.1903C250.935 50.5858 251.775 50.771 252.665 50.771C253.908 50.771 255.008 50.4175 256.032 49.7022C257.048 48.9953 257.804 47.9265 258.333 46.5548C258.862 45.2251 259.131 43.7187 259.131 42.0272C259.131 40.5208 258.862 39.0986 258.333 37.7689C257.846 36.3972 257.09 35.3705 256.116 34.6215C255.142 33.8641 254.034 33.5107 252.841 33.5107C251.867 33.5107 250.935 33.78 250.095 34.3101C249.474 34.6636 248.903 35.2863 248.323 36.1279V33.9567H241.505V34.6215C242.302 34.6636 242.831 34.8403 243.1 35.1517C243.369 35.5051 243.495 36.2205 243.495 37.3734V54.5916C243.495 55.7025 243.36 56.4094 243.1 56.6787C242.747 57.0321 242.218 57.2593 241.505 57.3014V57.9242H250.801V57.3014C249.961 57.3014 249.432 57.2089 249.163 57.0826C248.852 56.948 248.676 56.7292 248.542 56.4178C248.407 56.1064 248.323 55.5342 248.323 54.7347V48.6587C248.987 49.3487 249.558 49.8789 250.137 50.1903ZM231.226 47.573C230.697 47.573 230.252 47.3963 229.983 47.0849C229.588 46.6894 229.404 46.2434 229.404 45.6627C229.404 45.04 229.622 44.4172 230.067 43.8029C230.773 42.8687 231.797 41.943 233.208 41.1436V46.6053C232.469 47.2617 231.805 47.573 231.226 47.573ZM234.148 49.8368C234.677 50.2829 235.433 50.5017 236.365 50.5017C237.163 50.5017 237.868 50.3249 238.49 49.921C239.111 49.5255 239.682 48.9027 240.262 48.0611L239.733 47.6151C239.422 48.0611 239.111 48.28 238.801 48.28C238.666 48.28 238.532 48.2379 238.448 48.1453C238.314 48.0527 238.23 47.9265 238.179 47.6993C238.087 47.5226 238.087 47.0345 238.087 46.2771V39.9738C238.087 38.1981 237.994 37.0873 237.818 36.5992C237.549 35.8418 236.978 35.1349 236.088 34.47C235.156 33.8052 233.964 33.4938 232.41 33.4938C231.125 33.4938 229.882 33.6706 228.69 34.0745C227.539 34.47 226.607 35.0928 225.944 35.8502C225.281 36.6076 224.928 37.4071 224.928 38.2486C224.928 38.8293 225.197 39.3595 225.684 39.8055C226.213 40.2515 226.792 40.4703 227.539 40.4703C228.203 40.4703 228.782 40.2515 229.177 39.8476C229.622 39.452 229.84 38.9639 229.84 38.3833C229.84 37.9372 229.622 37.4491 229.177 36.961C228.866 36.6076 228.69 36.2962 228.69 36.0269C228.69 35.7576 228.824 35.4967 229.135 35.32C229.622 34.9665 230.243 34.7898 230.991 34.7898C231.478 34.7898 231.873 34.9245 232.234 35.1433C232.628 35.4126 232.855 35.6735 232.989 35.9848C233.124 36.2962 233.208 37.0957 233.208 38.3328V39.9738C229.622 41.6148 227.271 42.9445 226.213 43.9207C225.146 44.8969 224.617 46.0498 224.617 47.2953C224.617 48.179 224.928 48.9784 225.549 49.5591C226.171 50.1819 226.918 50.4932 227.85 50.4932C229.446 50.4932 231.218 49.6096 233.208 47.876C233.351 48.7681 233.661 49.3908 234.148 49.8368ZM211.567 27.9985C213.121 27.9985 214.271 28.394 215.019 29.1935C215.775 30.035 216.169 31.2805 216.169 33.0562C216.169 34.8319 215.775 36.1195 215.019 36.961C214.263 37.8026 213.163 38.2486 211.744 38.2486C211.567 38.2486 211.257 38.2486 210.862 38.2065V27.9985H211.567ZM216.572 39.1407C218.252 38.7451 219.587 38.0298 220.511 36.919C221.485 35.8081 221.93 34.5205 221.93 32.9721C221.93 31.1543 221.225 29.6479 219.713 28.4445C218.252 27.199 215.817 26.6267 212.449 26.6267H202.179V27.2495C203.245 27.2495 203.993 27.3841 204.346 27.5609C204.74 27.7797 205.009 28.049 205.185 28.3603C205.32 28.6717 205.404 29.5133 205.404 30.8008V46.1087C205.404 47.3963 205.311 48.1958 205.185 48.5492C205.009 48.8606 204.74 49.1299 204.388 49.3487C203.993 49.5255 203.237 49.618 202.171 49.618V50.2829H214.171V49.618C213.062 49.618 212.315 49.5255 211.912 49.3487C211.559 49.1299 211.248 48.8606 211.114 48.5492C210.938 48.1958 210.845 47.3963 210.845 46.1087V39.5867C213.558 39.5867 215.464 39.452 216.572 39.1407ZM182.579 26.6267V27.2495C183.335 27.3841 183.772 27.5609 184.04 27.8722C184.259 28.1836 184.351 28.941 184.351 30.1781V46.7315C184.351 47.977 184.259 48.726 184.082 48.9953C183.772 49.3487 183.285 49.5759 182.579 49.6601V50.2829H190.859V49.6601C190.154 49.5675 189.709 49.3067 189.49 48.9027C189.314 48.6334 189.222 47.8844 189.222 46.7315V37.9877C189.751 37.1883 190.196 36.6581 190.641 36.3046C191.128 35.9932 191.573 35.8165 192.01 35.8165C192.32 35.8165 192.631 35.9512 192.849 36.1279C193.118 36.3046 193.294 36.5739 193.378 36.9274C193.513 37.2808 193.555 38.1224 193.555 39.4605V46.7399C193.555 47.9349 193.42 48.6502 193.244 48.9616C192.933 49.3571 192.488 49.5844 191.917 49.6685V50.2913H200.155V49.6685C199.45 49.5759 199.005 49.3571 198.786 49.0878C198.518 48.7765 198.434 47.977 198.434 46.7399V40.3946C198.434 38.5347 198.299 37.1967 198.081 36.3972C197.812 35.6398 197.325 34.9329 196.62 34.3522C195.914 33.7715 195.024 33.5107 194.008 33.5107C193.21 33.5107 192.413 33.6874 191.707 34.0913C190.951 34.4869 190.112 35.1601 189.23 36.0858V26.6267H182.579ZM178.414 33.5022C178.145 33.9483 177.927 34.1671 177.793 34.2596C177.658 34.3522 177.524 34.3943 177.306 34.3943C177.087 34.3943 176.86 34.3017 176.55 34.125C175.71 33.679 174.87 33.5022 173.98 33.5022C172.343 33.5022 171.1 33.9903 170.218 35.0086C169.378 36.0269 168.933 37.1798 168.933 38.4253C168.933 39.5783 169.286 40.5966 170.084 41.5728C170.613 42.1955 171.763 43.1717 173.535 44.4088C174.727 45.2083 175.483 45.831 175.836 46.2266C176.189 46.6221 176.365 47.1102 176.365 47.6909C176.365 48.179 176.189 48.5745 175.836 48.9364C175.483 49.2898 175.038 49.4245 174.467 49.4245C173.669 49.4245 172.83 49.071 171.897 48.3136C170.965 47.5141 170.26 46.3612 169.731 44.8548H169.152L169.42 50.712H170C170.268 50.1314 170.579 49.8284 170.974 49.8284C171.108 49.8284 171.326 49.921 171.679 50.0472C172.964 50.5353 174.022 50.7541 174.778 50.7541C175.794 50.7541 176.726 50.5353 177.524 50.0472C178.364 49.6012 178.985 48.9364 179.43 48.0527C179.917 47.1691 180.135 46.2771 180.135 45.3934C180.135 44.3751 179.867 43.4831 179.296 42.6836C178.767 41.8421 177.658 40.8658 175.928 39.7129C174.249 38.56 173.182 37.7605 172.83 37.2724C172.611 37.0031 172.477 36.6917 172.477 36.3888C172.477 35.9428 172.653 35.5893 172.964 35.2779C173.317 34.9245 173.72 34.7898 174.207 34.7898C174.963 34.7898 175.71 35.1012 176.466 35.6735C177.222 36.2962 177.969 37.4071 178.683 39.0902H179.262L178.993 33.5022H178.414ZM158.352 33.9483V34.6131C159.108 34.6552 159.595 34.8319 159.906 35.1433C160.175 35.4967 160.301 36.212 160.301 37.365V46.9082C160.301 48.0611 160.166 48.7681 159.948 49.0374C159.595 49.3908 159.066 49.618 158.352 49.6601V50.2829H167.119V49.6601C166.322 49.618 165.792 49.4413 165.524 49.1299C165.255 48.7765 165.129 48.0611 165.129 46.9082V33.9483H158.352ZM160.838 26.8455C160.309 27.3757 160.04 28.0405 160.04 28.7559C160.04 29.5133 160.309 30.1276 160.838 30.6662C161.325 31.1964 161.988 31.4657 162.744 31.4657C163.45 31.4657 164.113 31.1964 164.6 30.6662C165.129 30.136 165.398 29.5133 165.398 28.7559C165.398 28.049 165.129 27.3841 164.642 26.8455C164.113 26.3574 163.492 26.0881 162.736 26.0881C161.988 26.0966 161.325 26.3574 160.838 26.8455ZM148.435 26.6267V27.2495C149.191 27.2916 149.72 27.5188 149.988 27.8302C150.257 28.1415 150.383 28.8989 150.383 30.0014V46.9082C150.383 48.0611 150.249 48.7681 150.03 49.0374C149.678 49.3908 149.149 49.618 148.435 49.6601V50.2829H157.202V49.6601C156.446 49.618 155.917 49.4413 155.648 49.1299C155.38 48.7765 155.254 48.0611 155.254 46.9082V26.6267H148.435ZM142.548 52.8917C143.17 53.0263 143.657 53.2451 143.967 53.5986C144.144 53.7753 144.236 54.0446 144.236 54.3055C144.236 55.105 143.749 55.6772 142.817 56.1233C141.935 56.5693 140.65 56.746 139.055 56.746C137.149 56.746 135.864 56.5272 135.158 56.0391C134.495 55.551 134.142 55.0208 134.142 54.4401C134.142 53.8174 134.495 53.3293 135.158 52.9758C135.511 52.757 136.309 52.6645 137.501 52.6645C140.247 52.6729 141.927 52.7654 142.548 52.8917ZM140.071 35.4126C140.6 36.17 140.869 37.5838 140.869 39.6708C140.869 41.4886 140.65 42.7341 140.163 43.3989C139.718 44.0217 139.147 44.3331 138.433 44.3331C137.812 44.3331 137.283 44.0217 136.796 43.3569C136.351 42.7341 136.132 41.5391 136.132 39.8055C136.132 37.6764 136.351 36.2541 136.796 35.5893C137.283 34.9245 137.862 34.571 138.526 34.571C139.181 34.571 139.71 34.8319 140.071 35.4126ZM138.207 33.5022C136.124 33.5022 134.487 34.0829 133.16 35.2358C131.875 36.4309 131.211 37.811 131.211 39.3595C131.211 40.605 131.564 41.6653 132.278 42.5995C132.983 43.5336 134.092 44.2826 135.645 44.8632C134.319 45.3934 133.344 46.0582 132.723 46.8156C132.102 47.573 131.791 48.3725 131.791 49.172C131.791 50.5017 132.547 51.5199 134.05 52.2773C132.983 52.5466 132.236 52.9001 131.833 53.3461C131.438 53.7921 131.211 54.2802 131.211 54.8104C131.211 55.3406 131.48 55.8792 132.009 56.3673C132.538 56.8975 133.378 57.3014 134.579 57.5623C135.822 57.8737 137.149 58.0083 138.61 58.0083C140.558 58.0083 142.288 57.697 143.749 57.1247C144.765 56.7712 145.563 56.1485 146.184 55.349C146.764 54.5495 147.066 53.6659 147.066 52.6392C147.066 51.0823 146.403 49.9799 145.118 49.2225C144.186 48.6923 142.506 48.423 140.071 48.423H137.056C136.351 48.423 135.813 48.2884 135.503 48.0275C135.15 47.7582 135.016 47.4468 135.016 47.0092C135.016 46.5632 135.192 46.1256 135.545 45.8142C135.897 45.4607 136.342 45.284 136.871 45.284C138.198 45.3766 138.862 45.3766 138.954 45.3766C139.794 45.3766 140.768 45.1578 141.876 44.6697C143.027 44.1816 143.867 43.5167 144.53 42.6752C145.151 41.7916 145.504 40.8154 145.504 39.6119C145.504 38.9471 145.328 38.2823 145.059 37.6595C144.841 37.1714 144.438 36.6833 143.867 36.1026H147.007V34.1671H141.515C140.382 33.7295 139.273 33.5022 138.207 33.5022ZM111.242 33.9483V34.6131C111.998 34.7057 112.435 34.9245 112.703 35.1938C112.922 35.5051 113.014 36.2625 113.014 37.4996V46.7315C113.014 47.977 112.922 48.726 112.745 48.9953C112.435 49.3487 111.948 49.5759 111.242 49.6601V50.2829H119.48V49.6601C118.859 49.5675 118.464 49.3487 118.237 49.0374C118.011 48.726 117.885 47.9265 117.885 46.7315V37.9877C118.766 36.5234 119.698 35.8165 120.673 35.8165C120.983 35.8165 121.252 35.9512 121.512 36.1279C121.731 36.3046 121.907 36.5739 122.041 36.9274C122.134 37.2808 122.176 38.1224 122.176 39.4605V46.7399C122.176 47.8928 122.083 48.5997 121.907 48.9111C121.638 49.3067 121.202 49.5759 120.58 49.6685V50.2913H128.818V49.6685C128.113 49.5759 127.626 49.3571 127.399 49.0878C127.181 48.7765 127.046 47.977 127.046 46.7399V40.3946C127.046 38.4842 126.954 37.1967 126.778 36.5318C126.559 35.6903 126.072 34.975 125.409 34.3606C124.703 33.78 123.813 33.5191 122.755 33.5191C121.873 33.5191 121.076 33.6958 120.278 34.0997C119.522 34.5458 118.724 35.2106 117.885 36.0942V33.9651H111.242V33.9483Z" fill="#223242"/>
<path d="M267.103 6.44636V6.83347C267.573 6.91763 267.842 7.02703 268.01 7.22059C268.144 7.41414 268.203 7.877 268.203 8.65123V18.9098C268.203 19.684 268.144 20.1469 268.035 20.3152C267.842 20.534 267.54 20.6686 267.103 20.7276V21.1147H272.234V20.7276C271.797 20.6686 271.52 20.5087 271.386 20.2563C271.277 20.088 271.218 19.6251 271.218 18.9098V13.4902C271.545 12.9937 271.823 12.6655 272.1 12.4466C272.402 12.2531 272.679 12.1437 272.948 12.1437C273.141 12.1437 273.334 12.2278 273.468 12.3372C273.636 12.4466 273.746 12.615 273.796 12.8338C273.88 13.0526 273.905 13.5743 273.905 14.3991V18.9098C273.905 19.6504 273.821 20.0964 273.712 20.2815C273.519 20.5256 273.242 20.6686 272.889 20.7191V21.1063H277.995V20.7191C277.558 20.6602 277.281 20.5256 277.147 20.3573C276.979 20.1637 276.928 19.6672 276.928 18.9014V14.9713C276.928 13.8184 276.844 12.9937 276.71 12.4971C276.542 12.0259 276.24 11.5883 275.803 11.2348C275.366 10.8814 274.812 10.713 274.182 10.713C273.687 10.713 273.191 10.8224 272.755 11.0665C272.284 11.3105 271.764 11.7229 271.218 12.3036V6.44636H267.103ZM264.181 10.7046C264.013 10.9823 263.878 11.117 263.795 11.1759C263.711 11.2348 263.627 11.2601 263.492 11.2601C263.358 11.2601 263.215 11.2011 263.022 11.0917C262.501 10.814 261.981 10.7046 261.426 10.7046C260.41 10.7046 259.646 11.0076 259.092 11.6388C258.571 12.2699 258.294 12.9852 258.294 13.7595C258.294 14.4748 258.512 15.106 259.008 15.7119C259.335 16.099 260.049 16.7049 261.149 17.4707C261.888 17.9673 262.359 18.3544 262.577 18.5984C262.795 18.8425 262.904 19.1454 262.904 19.5073C262.904 19.8103 262.795 20.0543 262.577 20.2815C262.359 20.5003 262.081 20.5845 261.729 20.5845C261.233 20.5845 260.713 20.3657 260.133 19.8944C259.554 19.3979 259.117 18.6826 258.79 17.7484H258.437L258.605 21.384H258.958C259.125 21.0221 259.31 20.837 259.562 20.837C259.646 20.837 259.78 20.8959 259.999 20.9716C260.797 21.2746 261.452 21.4092 261.922 21.4092C262.552 21.4092 263.131 21.2746 263.627 20.9716C264.147 20.6939 264.533 20.2815 264.811 19.7345C265.113 19.1875 265.247 18.6321 265.247 18.0851C265.247 17.4539 265.079 16.8985 264.727 16.4104C264.399 15.8886 263.711 15.2827 262.644 14.5674C261.603 13.852 260.939 13.3555 260.721 13.0526C260.587 12.8843 260.503 12.6991 260.503 12.5056C260.503 12.2278 260.612 12.009 260.805 11.8155C261.023 11.5967 261.275 11.5125 261.578 11.5125C262.048 11.5125 262.51 11.7061 262.98 12.0595C263.45 12.4466 263.912 13.1367 264.349 14.1803H264.701L264.534 10.713H264.181V10.7046ZM251.425 10.9823V11.3947C251.895 11.4199 252.198 11.5294 252.382 11.7229C252.55 11.9417 252.626 12.3793 252.626 13.0946V19.0108C252.626 19.7261 252.542 20.1637 252.407 20.332C252.189 20.5508 251.862 20.6855 251.417 20.7191V21.1063H256.85V20.7191C256.354 20.6939 256.027 20.5845 255.859 20.3909C255.691 20.1721 255.615 19.7345 255.615 19.0192V10.9823H251.425ZM252.962 6.58101C252.634 6.90921 252.466 7.32157 252.466 7.7676C252.466 8.23887 252.634 8.61757 252.962 8.95419C253.264 9.2824 253.676 9.45071 254.146 9.45071C254.582 9.45071 254.994 9.2824 255.296 8.95419C255.624 8.62599 255.792 8.23887 255.792 7.7676C255.792 7.32999 255.624 6.91763 255.321 6.58101C254.994 6.27805 254.608 6.10973 254.137 6.10973C253.676 6.10973 253.264 6.27805 252.962 6.58101ZM244.959 6.44636V6.83347C245.429 6.85872 245.757 7.00178 245.916 7.19534C246.084 7.3889 246.16 7.85175 246.16 8.54183V19.0192C246.16 19.7345 246.076 20.1721 245.941 20.3404C245.723 20.5592 245.396 20.6939 244.95 20.7276V21.1147H250.384V20.7276C249.913 20.7023 249.586 20.5929 249.426 20.3993C249.258 20.1805 249.183 19.7429 249.183 19.0276V6.44636H244.959ZM240.97 22.7305C241.356 22.8146 241.659 22.9493 241.852 23.1681C241.961 23.2775 242.02 23.4458 242.02 23.6057C242.02 24.1022 241.717 24.4556 241.138 24.7334C240.592 25.0111 239.794 25.1205 238.803 25.1205C237.619 25.1205 236.83 24.9858 236.385 24.6829C235.974 24.3799 235.755 24.0517 235.755 23.6898C235.755 23.3027 235.974 22.9998 236.385 22.7809C236.603 22.6463 237.099 22.5874 237.838 22.5874C239.542 22.5958 240.584 22.6463 240.97 22.7305ZM239.433 11.8912C239.761 12.3625 239.929 13.2377 239.929 14.5337C239.929 15.6614 239.794 16.4356 239.492 16.848C239.215 17.2351 238.862 17.4287 238.417 17.4287C238.031 17.4287 237.703 17.2351 237.401 16.8227C237.124 16.4356 236.99 15.6951 236.99 14.6179C236.99 13.2966 237.124 12.413 237.401 12.0006C237.703 11.5883 238.056 11.3695 238.468 11.3695C238.879 11.3695 239.215 11.5294 239.433 11.8912ZM238.274 10.7046C236.981 10.7046 235.965 11.0581 235.142 11.7818C234.344 12.5224 233.933 13.3808 233.933 14.3401C233.933 15.1144 234.151 15.7708 234.588 16.3515C235.025 16.9321 235.713 17.395 236.671 17.7569C235.848 18.0851 235.243 18.4974 234.857 18.9687C234.47 19.44 234.277 19.9281 234.277 20.4246C234.277 21.2493 234.747 21.8805 235.68 22.3518C235.025 22.5201 234.554 22.7389 234.311 23.0082C234.067 23.2859 233.925 23.5888 233.925 23.917C233.925 24.2453 234.092 24.5735 234.42 24.8764C234.747 25.2046 235.268 25.4571 236.016 25.617C236.788 25.8105 237.611 25.8947 238.518 25.8947C239.727 25.8947 240.794 25.7011 241.701 25.3477C242.33 25.1289 242.826 24.7418 243.212 24.2453C243.565 23.7487 243.758 23.2017 243.758 22.5706C243.758 21.6112 243.347 20.9211 242.549 20.4498C241.969 20.1216 240.928 19.9533 239.417 19.9533H237.552C237.116 19.9533 236.78 19.8692 236.595 19.7093C236.377 19.541 236.293 19.3474 236.293 19.0781C236.293 18.8004 236.402 18.5311 236.62 18.3375C236.838 18.1187 237.116 18.0093 237.443 18.0093C238.266 18.0682 238.678 18.0682 238.736 18.0682C239.257 18.0682 239.862 17.9336 240.55 17.6306C241.264 17.3277 241.785 16.9153 242.196 16.3935C242.582 15.8465 242.801 15.2406 242.801 14.4916C242.801 14.0793 242.692 13.6669 242.524 13.2798C242.389 12.9768 242.137 12.6739 241.785 12.3204H243.733V11.1338H240.332C239.626 10.8477 238.938 10.7046 238.274 10.7046ZM221.236 10.9823V11.3947C221.706 11.4536 221.975 11.5883 222.143 11.7566C222.277 11.9501 222.336 12.413 222.336 13.1872V18.9098C222.336 19.684 222.277 20.1469 222.168 20.3152C221.975 20.534 221.673 20.6686 221.236 20.7276V21.1147H226.342V20.7276C225.955 20.6686 225.712 20.534 225.569 20.3404C225.435 20.1469 225.351 19.6504 225.351 18.9098V13.4902C225.896 12.5813 226.476 12.1437 227.081 12.1437C227.274 12.1437 227.433 12.2278 227.601 12.3372C227.736 12.4466 227.845 12.615 227.929 12.8338C227.987 13.0526 228.013 13.5743 228.013 14.3991V18.9098C228.013 19.6251 227.954 20.0627 227.845 20.2563C227.677 20.5003 227.408 20.6686 227.022 20.7276V21.1147H232.127V20.7276C231.691 20.6686 231.388 20.534 231.246 20.3657C231.111 20.1721 231.027 19.6756 231.027 18.9098V14.9797C231.027 13.7931 230.969 13.0021 230.859 12.5897C230.725 12.0679 230.423 11.6303 230.011 11.2432C229.575 10.8898 229.02 10.7215 228.365 10.7215C227.82 10.7215 227.324 10.8309 226.829 11.0749C226.358 11.3526 225.871 11.765 225.342 12.312V10.9908H221.236V10.9823ZM212.939 7.29633C214.064 7.29633 214.803 7.35524 215.215 7.48988C215.903 7.70869 216.424 8.0369 216.81 8.50817C217.197 8.97944 217.499 9.72001 217.692 10.7888H218.104V6.44636H205.86V6.83347H206.355C206.826 6.83347 207.204 6.94287 207.481 7.16168C207.674 7.29633 207.808 7.48988 207.867 7.74235C207.926 7.877 207.926 8.28936 207.926 8.95419V18.6068C207.926 19.3222 207.901 19.7934 207.817 19.9533C207.707 20.1974 207.573 20.3657 207.38 20.4751C207.136 20.6434 206.775 20.6939 206.364 20.6939H205.868V21.1063H218.523L219.178 16.4524H218.767C218.406 17.7484 217.835 18.7078 217.012 19.339C216.189 19.9702 215.089 20.2984 213.72 20.2984H212.838C212.427 20.2984 212.125 20.2394 211.931 20.1048C211.738 19.9954 211.604 19.8608 211.545 19.6672C211.461 19.4989 211.436 19.0108 211.436 18.1776V14.054C212.15 14.054 212.67 14.1382 213.031 14.3317C213.418 14.5253 213.72 14.8787 214.022 15.4005C214.3 15.9475 214.459 16.6376 214.568 17.4623H214.98V9.78733H214.568C214.434 10.915 214.182 11.7986 213.745 12.3709C213.334 12.9516 212.679 13.2545 211.738 13.2545H211.436V7.29633H212.939ZM198.554 12.0595V10.9823H197.043V9.72001V7.81809C197.043 7.43098 197.101 7.16168 197.236 6.99337C197.37 6.79981 197.563 6.71565 197.756 6.71565C197.924 6.71565 198.059 6.77456 198.193 6.88397C198.277 6.96812 198.302 7.07752 198.302 7.21217C198.302 7.32157 198.302 7.43098 198.277 7.56562C198.218 7.75918 198.193 7.89383 198.193 7.95274C198.193 8.19679 198.302 8.42401 198.521 8.60915C198.739 8.80271 199.041 8.91211 199.427 8.91211C199.864 8.91211 200.225 8.77746 200.469 8.55024C200.746 8.30619 200.88 8.02848 200.88 7.70027C200.88 7.31316 200.662 6.92604 200.225 6.59784C199.814 6.26963 199.159 6.10132 198.277 6.10132C196.984 6.10132 195.943 6.42953 195.204 7.1196C194.431 7.83492 194.053 8.68489 194.053 9.73684L194.078 10.2334V10.9739H192.592V12.0511H194.078V19.0697C194.078 19.6167 194.019 19.9786 193.969 20.1385C193.885 20.332 193.751 20.4414 193.558 20.5508C193.364 20.6602 193.037 20.7191 192.6 20.7191V21.1063H198.554V20.7191C197.924 20.7191 197.479 20.6097 197.261 20.3573C197.127 20.1637 197.043 19.7513 197.043 19.0613V12.0427H198.554V12.0595ZM186.789 11.6977C187.033 11.8912 187.259 12.2194 187.394 12.6907C187.528 13.1283 187.587 13.9867 187.587 15.2238C187.587 17.2856 187.528 18.691 187.369 19.3811C187.285 19.7934 187.092 20.1553 186.823 20.3993C186.604 20.5929 186.327 20.6771 186.025 20.6771C185.698 20.6771 185.395 20.5424 185.118 20.2647C184.875 19.987 184.707 19.6083 184.623 19.1118C184.514 18.4217 184.455 17.7064 184.455 16.9406C184.455 15.4847 184.514 14.357 184.589 13.5323C184.673 12.7328 184.833 12.1858 185.11 11.9081C185.353 11.6051 185.689 11.4704 186.042 11.4704C186.353 11.4536 186.596 11.5294 186.789 11.6977ZM182.565 12.3036C181.742 13.3808 181.306 14.6431 181.306 16.099C181.306 17.5044 181.717 18.7415 182.54 19.8103C183.363 20.8874 184.514 21.4092 186.05 21.4092C187.587 21.4092 188.796 20.8285 189.678 19.6504C190.417 18.691 190.778 17.4791 190.778 16.0485C190.778 15.0555 190.585 14.1466 190.199 13.3219C189.787 12.4719 189.208 11.8323 188.469 11.3695C187.696 10.9318 186.907 10.713 186.025 10.713C184.539 10.7046 183.388 11.2348 182.565 12.3036ZM168.651 6.44636V6.83347C169.121 6.85872 169.448 7.00178 169.608 7.19534C169.776 7.3889 169.851 7.85175 169.851 8.54183V19.0192C169.851 19.7345 169.767 20.1721 169.633 20.3404C169.415 20.5592 169.087 20.6939 168.642 20.7276V21.1147H174.075V20.7276C173.605 20.7023 173.278 20.5929 173.118 20.3993C172.95 20.1805 172.875 19.7429 172.875 19.0276V6.44636H168.651ZM163.1 11.6977C163.343 11.8912 163.57 12.2194 163.704 12.6907C163.839 13.1283 163.898 13.9867 163.898 15.2238C163.898 17.2856 163.839 18.691 163.679 19.3811C163.595 19.7934 163.402 20.1553 163.133 20.3993C162.915 20.5929 162.638 20.6771 162.336 20.6771C162.008 20.6771 161.706 20.5424 161.429 20.2647C161.185 19.987 161.017 19.6083 160.933 19.1118C160.824 18.4217 160.765 17.7064 160.765 16.9406C160.765 15.4847 160.824 14.357 160.9 13.5323C160.984 12.7328 161.143 12.1858 161.42 11.9081C161.664 11.6051 162 11.4704 162.352 11.4704C162.655 11.4536 162.907 11.5294 163.1 11.6977ZM158.867 12.3036C158.045 13.3808 157.608 14.6431 157.608 16.099C157.608 17.5044 158.019 18.7415 158.842 19.8103C159.665 20.8874 160.816 21.4092 162.352 21.4092C163.889 21.4092 165.098 20.8285 165.98 19.6504C166.719 18.691 167.08 17.4791 167.08 16.0485C167.08 15.0555 166.887 14.1466 166.501 13.3219C166.089 12.4719 165.51 11.8323 164.771 11.3695C163.998 10.9318 163.209 10.713 162.327 10.713C160.849 10.7046 159.69 11.2348 158.867 12.3036ZM151.721 11.6977C151.965 11.8912 152.191 12.2194 152.326 12.6907C152.46 13.1283 152.519 13.9867 152.519 15.2238C152.519 17.2856 152.46 18.691 152.301 19.3811C152.217 19.7934 152.023 20.1553 151.755 20.3993C151.536 20.5929 151.259 20.6771 150.957 20.6771C150.629 20.6771 150.327 20.5424 150.05 20.2647C149.807 19.987 149.639 19.6083 149.555 19.1118C149.445 18.4217 149.387 17.7064 149.387 16.9406C149.387 15.4847 149.445 14.357 149.521 13.5323C149.605 12.7328 149.765 12.1858 150.042 11.9081C150.285 11.6051 150.621 11.4704 150.974 11.4704C151.285 11.4536 151.528 11.5294 151.721 11.6977ZM147.497 12.3036C146.674 13.3808 146.238 14.6431 146.238 16.099C146.238 17.5044 146.649 18.7415 147.472 19.8103C148.295 20.8874 149.445 21.4092 150.982 21.4092C152.519 21.4092 153.728 20.8285 154.61 19.6504C155.349 18.691 155.71 17.4791 155.71 16.0485C155.71 15.0555 155.517 14.1466 155.131 13.3219C154.719 12.4719 154.14 11.8323 153.401 11.3695C152.628 10.9318 151.839 10.713 150.957 10.713C149.471 10.7046 148.32 11.2348 147.497 12.3036ZM133.557 6.44636V6.83347C134.028 6.91763 134.296 7.02703 134.464 7.22059C134.599 7.41414 134.657 7.877 134.657 8.65123V18.9098C134.657 19.684 134.599 20.1469 134.489 20.3152C134.296 20.534 133.994 20.6686 133.557 20.7276V21.1147H138.688V20.7276C138.252 20.6686 137.974 20.5087 137.84 20.2563C137.731 20.088 137.672 19.6251 137.672 18.9098V13.4902C138 12.9937 138.277 12.6655 138.554 12.4466C138.856 12.2531 139.133 12.1437 139.402 12.1437C139.595 12.1437 139.788 12.2278 139.923 12.3372C140.091 12.4466 140.2 12.615 140.25 12.8338C140.334 13.0526 140.359 13.5743 140.359 14.3991V18.9098C140.359 19.6504 140.275 20.0964 140.166 20.2815C139.973 20.5256 139.696 20.6686 139.343 20.7191V21.1063H144.449V20.7191C144.012 20.6602 143.735 20.5256 143.601 20.3573C143.433 20.1637 143.382 19.6672 143.382 18.9014V14.9713C143.382 13.8184 143.298 12.9937 143.164 12.4971C142.996 12.0259 142.694 11.5883 142.257 11.2348C141.82 10.8814 141.266 10.713 140.636 10.713C140.141 10.713 139.646 10.8224 139.209 11.0665C138.739 11.3105 138.218 11.7229 137.672 12.3036V6.44636H133.557ZM130.526 19.4568C130.224 19.6251 129.896 19.7009 129.535 19.7009C128.989 19.7009 128.519 19.5325 128.133 19.2296C127.612 18.792 127.175 18.1271 126.873 17.2772C126.571 16.3935 126.436 15.4931 126.436 14.5505C126.436 13.3976 126.629 12.5392 126.982 11.9922C127.226 11.6388 127.528 11.4452 127.864 11.4452C128.107 11.4452 128.3 11.5294 128.443 11.7229C128.636 11.8912 128.746 12.2194 128.771 12.657C128.83 13.3976 129.014 13.8941 129.291 14.1718C129.569 14.4495 129.921 14.5842 130.333 14.5842C130.744 14.5842 131.072 14.4748 131.324 14.2307C131.567 13.9867 131.676 13.6501 131.676 13.2377C131.676 12.6065 131.374 12.0006 130.769 11.4789C130.14 10.9571 129.317 10.7046 128.275 10.7046C126.713 10.7046 125.504 11.3358 124.622 12.5729C123.883 13.6164 123.522 14.8282 123.522 16.2084C123.522 17.639 123.909 18.8761 124.732 19.8944C125.529 20.9127 126.596 21.4092 127.939 21.4092C128.737 21.4092 129.501 21.1904 130.215 20.7528C130.929 20.3152 131.508 19.6504 131.97 18.7751L131.643 18.4974C131.206 18.9603 130.853 19.2885 130.526 19.4568ZM120.096 6.10973C120.012 6.54734 119.903 6.82506 119.794 6.93446C119.71 7.04386 119.55 7.10277 119.357 7.10277C119.164 7.10277 118.836 6.99337 118.341 6.77456C117.846 6.53051 117.434 6.3622 117.107 6.27805C116.67 6.16864 116.2 6.10973 115.738 6.10973C114.419 6.10973 113.353 6.5221 112.496 7.34682C111.648 8.1463 111.203 9.16458 111.203 10.3175C111.203 11.0076 111.371 11.6388 111.673 12.2194C111.976 12.7664 112.446 13.2882 113.017 13.7595C113.596 14.1971 114.554 14.7778 115.897 15.4089C116.829 15.9054 117.493 16.2926 117.871 16.5619C118.232 16.8648 118.526 17.1678 118.694 17.496C118.887 17.7989 118.996 18.1524 118.996 18.489C118.996 19.0697 118.753 19.5915 118.257 20.0291C117.787 20.4667 117.132 20.6855 116.334 20.6855C115.293 20.6855 114.327 20.2731 113.428 19.4484C112.522 18.6489 111.917 17.4707 111.589 15.897H111.203V21.426H111.589C111.724 21.1231 111.892 20.9043 112.11 20.7696C112.303 20.635 112.496 20.5508 112.689 20.5508C112.908 20.5508 113.21 20.635 113.538 20.7696C114.167 21.0473 114.688 21.2072 115.1 21.3166C115.511 21.4008 115.923 21.4513 116.393 21.4513C117.879 21.4513 119.08 21.0137 120.046 20.13C120.978 19.2464 121.473 18.1776 121.473 16.9658C121.473 15.9728 121.171 15.1228 120.566 14.3822C119.962 13.6417 118.811 12.8422 117.107 11.9922C115.897 11.3863 115.1 10.9739 114.772 10.7299C114.302 10.4017 113.974 10.0735 113.756 9.71159C113.622 9.46754 113.538 9.18983 113.538 8.86162C113.538 8.3651 113.756 7.90225 114.167 7.51513C114.604 7.12802 115.184 6.90921 115.923 6.90921C116.855 6.90921 117.762 7.29633 118.559 8.0369C119.382 8.77746 119.903 9.7705 120.096 10.9823H120.533L120.424 6.10973H120.096Z" fill="#9B2F26"/>
<path d="M89.7701 7.82635C93.2215 7.82635 95.4888 7.99466 96.7568 8.41544C98.8562 9.08868 100.46 10.0986 101.636 11.5376C102.811 12.9683 103.735 15.2489 104.331 18.5394H105.591V5.21753H68.0625V6.39571H69.5741C71.0016 6.39571 72.1857 6.73233 73.0254 7.40557C73.6133 7.82635 74.0331 8.41544 74.2011 9.17284C74.369 9.59362 74.369 10.856 74.369 12.8841V42.4732C74.369 44.6612 74.2851 46.1003 74.0331 46.6052C73.6972 47.3626 73.2774 47.8676 72.6895 48.2042C71.9338 48.7091 70.8421 48.8774 69.5741 48.8774H68.0625V50.1398H106.851L108.866 35.8922H107.606C106.515 39.8559 104.743 42.8098 102.224 44.7454C99.696 46.681 96.337 47.6992 92.1298 47.6992H89.4342C88.1746 47.6992 87.2508 47.5309 86.6546 47.1102C86.0668 46.7735 85.6469 46.3528 85.479 45.7637C85.227 45.2587 85.1431 43.7439 85.1431 41.2109V28.5707C87.3264 28.5707 88.9303 28.8232 90.022 29.4122C91.1977 30.0013 92.1214 31.0954 93.0535 32.7027C93.8933 34.3858 94.3971 36.4981 94.733 39.0228H95.9927V15.5013H94.733C94.3132 18.9601 93.5574 21.6531 92.2054 23.4288C90.9458 25.1961 88.9219 26.1302 86.0668 26.1302H85.1431V7.82635H89.7701Z" fill="#223242"/>
</g>
<defs>
<clipPath id="clip0_8153_2200">
<rect width="278" height="58" fill="white"/>
</clipPath>
</defs>
</svg>
