<svg width="272" height="140" viewBox="0 0 272 140" fill="none" xmlns="http://www.w3.org/2000/svg">
<g clip-path="url(#clip0_8153_323)">
<path d="M272 139.751C272 139.806 211.104 139.854 136.006 139.854C60.88 139.854 0 139.806 0 139.751C0 139.695 60.88 139.648 136.006 139.648C211.108 139.648 272 139.691 272 139.751Z" fill="#263238"/>
<path d="M78.6406 139.703L80.8536 123.401L128.112 121.143L131.435 139.751L78.6406 139.703Z" fill="#263238"/>
<path d="M122.914 72.0743L137.093 87.8188C139.432 90.4172 141.12 92.7823 144.486 93.7314C146.842 94.3959 151.805 94.6727 153.058 93.1224C154.777 90.9986 155.844 87.3245 153.437 82.7012C151.872 79.6915 138.116 67.4036 138.116 67.4036L122.914 72.0743Z" fill="#C27461"/>
<path d="M127.586 74.7044C127.665 75.4835 131.376 83.2233 131.376 83.2233L143.547 75.2778C143.547 75.2778 135.711 56.6502 129.989 55.3965L127.586 74.7044Z" fill="#E26055"/>
<path d="M148.423 52.9918L148.597 47.0713L148.202 39.5333L147.005 33.2647C147.005 33.2647 146.689 32.6478 145.898 33.1144C145.108 33.5811 145.792 37.0021 145.792 37.0021L145.914 39.5768C145.914 39.5768 145.452 41.5621 145.302 41.396C145.151 41.2299 144.657 37.7575 144.657 37.7575L143.223 30.2985C143.223 30.2985 142.883 29.4957 141.966 29.7844C141.457 29.9465 141.125 30.6861 141.188 31.7895C141.251 32.8969 141.733 34.7597 141.785 35.3885C141.836 36.0173 142.247 39.644 142.247 39.644L139.73 31.3031C139.73 31.3031 139.263 28.59 138.133 28.9776C137.003 29.3691 137.758 31.3149 137.809 32.1573C137.86 32.9997 139.496 38.679 139.358 40.261C139.22 41.8429 138.971 41.0519 138.971 41.0519C138.971 41.0519 138.315 38.4378 137.801 36.3772C137.284 34.3167 136.505 33.1223 135.616 32.9721C134.723 32.8218 135.92 37.5954 135.92 37.5954L137.43 44.2673L137.054 46.3911L135.568 44.4809C135.568 44.4809 135.525 41.9774 133.96 40.9333C132.372 39.8734 131.992 41.0638 131.992 41.0638L134.909 50.7573C135.596 52.3432 140.062 55.4241 140.062 55.4241L140.86 65.1413L150.783 64.9436L148.423 52.9918Z" fill="#C27461"/>
<path d="M144.939 49.4917C144.887 49.5391 144.421 49.0646 143.615 48.3804C142.82 47.7238 141.564 46.8063 139.987 46.8775C139.292 46.9012 138.644 47.1385 138.193 47.5301L138.027 47.6724L137.881 47.4826C137.245 46.6442 136.561 45.9125 136.158 45.3825C135.731 44.8565 135.522 44.5006 135.569 44.4729C135.605 44.4531 135.869 44.7339 136.348 45.2125C136.818 45.7108 137.494 46.3357 138.233 47.2651L137.924 47.2176C138.438 46.743 139.193 46.4622 139.971 46.4345C140.833 46.395 141.647 46.6402 142.287 46.9922C142.935 47.3402 143.433 47.7673 143.824 48.1431C144.595 48.9103 144.974 49.4561 144.939 49.4917Z" fill="#7D4336"/>
<path d="M142.368 86.8301L140.266 56.5869L148.667 53.9529L154.764 86.8301H142.368Z" fill="#C27461"/>
<path d="M124.17 17.7377C125.81 18.0224 127.577 16.9071 128.023 15.3014C128.47 13.6957 127.537 11.8251 125.988 11.22C127.075 10.2273 127.434 8.51085 126.834 7.16618C126.233 5.81756 124.724 4.93957 123.253 5.0859C123.277 3.63049 122.491 2.18695 121.254 1.41969C120.017 0.65244 118.377 0.585207 117.085 1.25359C115.559 -0.217641 112.979 -0.419341 111.244 0.798772C109.849 0.45074 108.269 1.11517 107.534 2.3491C106.799 3.58303 106.968 5.29155 107.933 6.35543" fill="#263238"/>
<path d="M124.598 36.6935C124.863 32.96 124.788 25.2321 124.637 18.2398C124.475 10.7216 118.572 4.59144 111.071 4.14849L110.324 4.10498C102.259 4.10103 97.7501 10.9549 97.9674 19.0229L96.7266 50.0967L101.599 54.4985C106.037 58.5127 113.063 57.2788 115.873 51.995L116.248 45.1649C116.248 45.1649 124.045 44.4174 124.598 36.6935Z" fill="#C27461"/>
<path d="M116.314 45.1569C116.314 45.1569 111.362 45.1608 106.367 41.5935C106.367 41.5935 108.418 47.2965 116.167 47.0552L116.314 45.1569Z" fill="#7D4336"/>
<path d="M121.217 24.7614C121.205 25.3467 120.699 25.8174 120.087 25.8134C119.478 25.8095 118.996 25.3349 119.008 24.7495C119.02 24.1642 119.526 23.6936 120.134 23.6975C120.751 23.7015 121.233 24.18 121.217 24.7614Z" fill="#263238"/>
<path d="M122.754 21.9259C122.607 22.0604 121.809 21.392 120.624 21.3247C119.438 21.2417 118.533 21.7993 118.411 21.6491C118.351 21.5818 118.506 21.3287 118.901 21.0756C119.292 20.8225 119.944 20.5931 120.683 20.6405C121.422 20.688 122.027 20.9965 122.37 21.2971C122.714 21.5976 122.825 21.8666 122.754 21.9259Z" fill="#263238"/>
<path d="M110.326 24.7614C110.315 25.3467 109.809 25.8174 109.196 25.8134C108.588 25.8095 108.106 25.3349 108.117 24.7495C108.133 24.1642 108.639 23.6936 109.248 23.6975C109.856 23.7015 110.342 24.18 110.326 24.7614Z" fill="#263238"/>
<path d="M111.07 21.459C110.924 21.5935 110.126 20.9251 108.936 20.8619C107.751 20.7788 106.846 21.3364 106.723 21.1862C106.664 21.1189 106.818 20.8658 107.213 20.6127C107.604 20.3596 108.256 20.1302 108.995 20.1777C109.734 20.2251 110.339 20.5336 110.683 20.8342C111.031 21.1308 111.137 21.3958 111.07 21.459Z" fill="#263238"/>
<path d="M114.859 30.5238C114.859 30.4565 115.602 30.3735 116.808 30.2904C117.112 30.2785 117.404 30.235 117.467 30.0294C117.55 29.8158 117.444 29.4797 117.317 29.1198C117.076 28.3683 116.823 27.5813 116.559 26.7547C115.507 23.393 114.765 20.6325 114.903 20.593C115.037 20.5534 116.001 23.2428 117.053 26.6084C117.305 27.4389 117.547 28.2259 117.776 28.9813C117.871 29.3333 118.044 29.7367 117.863 30.1797C117.768 30.4011 117.535 30.5514 117.337 30.5949C117.14 30.6424 116.97 30.6345 116.819 30.6345C115.61 30.6305 114.863 30.591 114.859 30.5238Z" fill="#263238"/>
<path d="M111.317 31.1407C111.51 31.1407 111.435 32.43 112.487 33.4108C113.534 34.3956 114.917 34.3323 114.917 34.5103C114.929 34.5934 114.597 34.7436 114.016 34.7239C113.447 34.708 112.625 34.4787 111.985 33.8775C111.344 33.2764 111.099 32.5091 111.088 31.9792C111.068 31.4373 111.23 31.1249 111.317 31.1407Z" fill="#263238"/>
<path d="M111.651 16.8201C111.517 17.1364 110.339 16.915 108.937 16.998C107.534 17.0573 106.384 17.3975 106.218 17.0969C106.143 16.9545 106.356 16.6619 106.83 16.3732C107.301 16.0884 108.036 15.8313 108.877 15.7878C109.719 15.7443 110.478 15.9223 110.972 16.1596C111.466 16.4008 111.711 16.6698 111.651 16.8201Z" fill="#263238"/>
<path d="M122.522 18.4613C122.297 18.7183 121.495 18.3901 120.515 18.3189C119.535 18.2121 118.689 18.394 118.511 18.1014C118.436 17.959 118.582 17.698 118.962 17.4646C119.333 17.2313 119.946 17.0573 120.621 17.1205C121.297 17.1838 121.866 17.4607 122.194 17.7573C122.522 18.0499 122.621 18.3347 122.522 18.4613Z" fill="#263238"/>
<path d="M124.1 14.6527C124.1 14.6527 122.349 9.68931 120.081 8.42373C117.338 6.88923 115.94 9.91869 113.292 9.00906C110.644 8.09548 108.024 6.62425 105.151 8.54634C102.006 10.6464 103.322 12.3312 102.934 15.7482C101.362 29.6102 98.5916 33.3951 98.2557 26.8022C98.2201 26.0785 96.264 25.3903 96.1455 22.3411C95.9953 18.3862 96.1257 13.6047 97.165 10.8639C98.0423 8.55425 99.4767 7.00788 101.986 5.35868C105.946 2.75634 111.158 3.00155 114.675 3.5671C118.2 4.1287 124.78 8.60566 124.1 14.6527Z" fill="#263238"/>
<path d="M98.7672 26.6163C98.787 25.4219 97.8188 24.4173 96.6214 24.4608C95.1711 24.5122 93.5193 25.236 93.4403 28.222C93.298 33.5176 98.6407 32.5684 98.6526 32.4181C98.6605 32.3153 98.7237 28.835 98.7672 26.6163Z" fill="#C27461"/>
<path d="M97.5578 30.3932C97.5341 30.3774 97.463 30.4565 97.3049 30.5237C97.1508 30.5909 96.89 30.6305 96.6173 30.5197C96.0641 30.2983 95.6175 29.3965 95.6175 28.4434C95.6175 27.9609 95.7321 27.5061 95.9099 27.1304C96.0838 26.7467 96.3407 26.4818 96.6212 26.4422C96.9018 26.3829 97.0994 26.5569 97.1587 26.7112C97.2259 26.8614 97.1903 26.9643 97.218 26.9761C97.2338 26.988 97.3326 26.8891 97.297 26.6716C97.2772 26.5648 97.218 26.4383 97.0994 26.3354C96.9769 26.2287 96.7912 26.1693 96.5936 26.1851C96.1866 26.201 95.8072 26.5688 95.6096 26.9801C95.3883 27.3954 95.25 27.9055 95.25 28.4474C95.254 29.5152 95.7756 30.5276 96.5343 30.7689C96.9058 30.8757 97.218 30.7728 97.38 30.6502C97.5459 30.5237 97.5776 30.405 97.5578 30.3932Z" fill="#7D4336"/>
<path d="M99.4708 16.381C100.131 16.8912 100.826 17.4172 101.648 17.5477C102.47 17.6782 103.442 17.259 103.632 16.4483C103.715 16.0844 103.652 15.6533 103.909 15.3804C104.217 15.0601 104.742 15.1946 105.181 15.2697C106.706 15.5228 108.342 14.5301 108.824 13.0589C109.18 13.668 110.097 13.6957 110.713 13.3516C111.33 13.0035 111.749 12.4024 112.243 11.8962C112.737 11.3939 113.416 10.9549 114.108 11.0973C114.495 11.1764 114.847 11.4295 115.242 11.4176C115.938 11.3978 116.325 10.6029 116.471 9.92266C116.617 9.23846 116.744 8.43957 117.356 8.09945C117.921 7.78305 118.613 8.02826 119.249 8.15877C119.881 8.28928 120.715 8.19041 120.917 7.57344C121.023 7.24914 120.901 6.89715 120.739 6.60054C119.992 5.25587 118.233 4.57562 116.779 5.06603C116.364 3.29027 114.815 1.83487 113.013 1.53429C111.215 1.23767 109.275 2.11566 108.315 3.66204C107.26 2.58234 105.663 2.0603 104.173 2.30945C102.683 2.55861 101.344 3.57107 100.692 4.93552C99.4273 4.52025 97.9335 4.93156 97.0563 5.93611C96.179 6.94066 95.9735 8.47516 96.5544 9.6735C95.5744 10.16 94.705 11.0577 94.622 12.1493C94.539 13.2408 95.5388 14.3957 96.6097 14.1702C96.1316 14.9968 96.4121 16.1754 97.2104 16.6974C98.0086 17.2234 99.1981 17.0138 99.7671 16.2466" fill="#263238"/>
<path d="M117.07 6.64412C117.074 6.64412 117.074 6.67576 117.063 6.73904C117.051 6.80232 117.043 6.89724 117.011 7.01984C116.948 7.26109 116.829 7.61703 116.569 8.01648C116.308 8.40802 115.909 8.85888 115.324 9.199C114.751 9.54308 113.976 9.78433 113.123 9.68941L113.218 9.57867C113.356 10.0414 113.277 10.5793 113.024 11.0301C112.783 11.4889 112.423 11.8883 112.044 12.2759C111.85 12.4618 111.68 12.6833 111.416 12.8494C111.163 13.0076 110.862 13.0906 110.562 13.1104C109.961 13.15 109.301 12.9285 108.898 12.3985L109.1 12.355C108.902 13.3991 108.246 14.4155 107.258 15.0009C106.737 15.3331 106.101 15.519 105.492 15.4675C104.879 15.424 104.322 15.2105 103.805 14.9929L103.951 14.9376C103.627 15.5783 103.16 16.1122 102.603 16.4958C102.058 16.8794 101.351 17.0811 100.734 16.8874C99.5012 16.5512 98.7385 15.4636 98.6279 14.4749L98.7425 14.5381C98.1023 14.8387 97.4384 14.8308 96.9128 14.6963C96.3793 14.5658 95.9684 14.3048 95.6799 14.0556C95.3914 13.8025 95.2255 13.5494 95.1267 13.3754C95.0397 13.1935 95.0042 13.0946 95.0081 13.0946C95.0358 13.0748 95.1583 13.5059 95.7352 13.9884C96.0237 14.2178 96.4268 14.459 96.9405 14.5698C97.4463 14.6884 98.0786 14.6805 98.6713 14.3878L98.7741 14.3364L98.7899 14.4511C98.9045 15.3726 99.6435 16.389 100.786 16.6857C101.347 16.8518 101.967 16.6698 102.485 16.3099C103.002 15.95 103.449 15.4319 103.749 14.8308L103.797 14.7359L103.895 14.7754C104.405 14.9929 104.943 15.1907 105.508 15.2302C106.073 15.2777 106.642 15.1116 107.14 14.7952C108.072 14.2415 108.689 13.2923 108.883 12.3036L108.93 12.0544L109.084 12.2561C109.424 12.707 110.013 12.9166 110.554 12.881C110.823 12.8652 111.092 12.7901 111.313 12.6556C111.53 12.5251 111.708 12.3076 111.906 12.1217C112.285 11.742 112.633 11.3584 112.862 10.9313C113.103 10.5081 113.17 10.0335 113.056 9.61822L113.02 9.48771L113.15 9.50353C113.953 9.60636 114.696 9.38884 115.257 9.06849C115.826 8.75209 116.221 8.32892 116.49 7.9532C117.015 7.1899 117.035 6.62831 117.07 6.64412Z" fill="#455A64"/>
<path d="M128.486 82.4164L129.043 76.7846L130.983 56.14C129.988 55.088 125.973 53.4388 125.973 53.4388L116.003 49.8517C116.003 49.8517 115.046 52.5885 107.562 52.6992C99.9033 52.8139 96.73 48.0166 96.73 48.0166C92.9048 49.2505 84.5469 52.4224 84.5469 52.4224L81.6977 79.2842L81.5515 88.1511L79.7891 133.308C79.7891 133.308 129.972 131.177 130.727 131.046L128.695 114.783L128.486 82.4164Z" fill="#E26055"/>
<path opacity="0.3" d="M114.078 69.1597V79.7312L119.824 84.4217L125.815 79.7707L126.147 69.4563L114.078 69.1597Z" fill="black"/>
<path opacity="0.3" d="M80.8415 106.257L80.6953 110.01C80.6953 110.01 112.396 104.259 117.936 102.025C124.773 99.2683 128.444 96.931 128.444 96.931L128.558 94.0676L80.8415 106.257Z" fill="black"/>
<path d="M83.0422 54.6846C83.0422 54.6846 75.8935 55.8275 74.4196 64.9476C73.4711 70.8285 70.5983 96.7332 74.5263 103.694C79.0707 111.746 120.113 98.2361 120.113 98.2361L121.516 87.8109L89.8905 89.9031L85.919 67.9335L83.0422 54.6846Z" fill="#C27461"/>
<path d="M71.5859 85.3192H91.629L86.144 51.8606C86.144 51.8606 74.6564 54.19 73.1508 66.2011C71.6334 78.319 71.5859 85.3192 71.5859 85.3192Z" fill="#E26055"/>
<path d="M74.1016 85.3193C74.1016 85.3153 74.1332 85.3114 74.1925 85.3074C74.2636 85.3035 74.3505 85.2995 74.4572 85.2955C74.7062 85.2916 75.0421 85.2837 75.4689 85.2758C76.3659 85.2679 77.6383 85.256 79.2032 85.2441C82.3804 85.2362 86.751 85.2244 91.6234 85.2125L91.5207 85.3232C91.497 85.0622 91.4733 84.7854 91.4496 84.5006C91.0307 79.4541 90.6474 74.8862 90.3707 71.5601C90.2443 69.9188 90.1415 68.5821 90.0665 67.6369C90.0348 67.186 90.0111 66.8301 89.9953 66.569C89.9914 66.4583 89.9835 66.3673 89.9835 66.2922C89.9835 66.2289 89.9835 66.1973 89.9874 66.1973C89.9914 66.1973 89.9953 66.2289 90.0072 66.2922C90.0151 66.3673 90.0269 66.4583 90.0427 66.569C90.0704 66.8301 90.106 67.186 90.1534 67.6329C90.2403 68.5742 90.3668 69.9109 90.5209 71.5522C90.8133 74.8783 91.2164 79.4423 91.659 84.4848C91.6827 84.7656 91.7064 85.0464 91.7301 85.3074L91.738 85.4181H91.6274C86.7549 85.4063 82.3843 85.3944 79.2072 85.3865C77.6423 85.3746 76.3698 85.3628 75.4728 85.3549C75.046 85.347 74.7101 85.339 74.4612 85.3351C74.3545 85.3311 74.2675 85.3272 74.1964 85.3232C74.1332 85.3232 74.1016 85.3193 74.1016 85.3193Z" fill="#263238"/>
<path d="M129.985 64.991C130.001 64.991 130.001 65.2362 129.993 65.6752C129.989 66.1142 129.961 66.7509 129.922 67.534C129.839 69.1041 129.676 71.2674 129.451 73.6562C129.226 76.045 128.989 78.2004 128.799 79.7626C128.704 80.5417 128.621 81.1745 128.562 81.6095C128.499 82.0446 128.459 82.2858 128.444 82.2818C128.428 82.2818 128.444 82.0366 128.483 81.6016C128.527 81.131 128.586 80.5061 128.657 79.7507C128.811 78.1569 129.021 76.0133 129.25 73.6443C129.475 71.2595 129.661 69.1001 129.779 67.534C129.835 66.7786 129.882 66.1537 129.914 65.6791C129.945 65.2322 129.969 64.991 129.985 64.991Z" fill="#263238"/>
<path d="M91.9359 61.3486C91.9241 61.3565 91.845 61.222 91.7107 60.9768C91.5565 60.6921 91.3708 60.3441 91.1535 59.9327C90.6793 59.0587 90.0114 57.8446 88.9998 56.7174C87.9882 55.5942 86.7789 54.8823 85.8384 54.5936C84.894 54.293 84.2617 54.3405 84.2656 54.297C84.2656 54.2851 84.4198 54.2654 84.7003 54.2693C84.9809 54.2733 85.3919 54.3207 85.8779 54.4552C86.854 54.7162 88.1146 55.4281 89.15 56.579C90.1813 57.7299 90.8334 58.9717 91.2799 59.8655C91.5012 60.3164 91.6672 60.6842 91.7818 60.9413C91.8964 61.1983 91.9478 61.3407 91.9359 61.3486Z" fill="#263238"/>
<path opacity="0.3" d="M89.3352 86.83C89.2996 86.6322 92.8008 85.778 92.8008 85.778L90.2401 69.1594L91.6232 85.3153H89.0625L89.3352 86.83Z" fill="black"/>
<path d="M141.834 88.333L141.214 96.8717L138.381 100.443L131.445 109.654L139.847 110.204C139.847 110.204 149.702 107.752 151.152 104.714C152.603 101.677 152.686 88.333 152.686 88.333H141.834Z" fill="#FFCFB4"/>
<path d="M183.348 59.8932L183.822 26.6759C184.126 18.774 180.198 11.932 172.299 11.845L171.568 11.8806C164.218 12.2286 158.357 18.1649 158.116 25.529C157.891 32.3828 157.729 39.9605 157.946 43.6227C158.401 51.2003 166.032 52.019 166.032 52.019C166.043 52.2523 166.024 54.1388 165.992 56.3971L166.004 60.1622L183.348 59.8932Z" fill="#FFCFB4"/>
<path d="M166.008 52.015C166.008 52.015 170.797 52.0665 175.733 48.6296C175.733 48.6296 173.591 54.2812 166 53.9569L166.008 52.015Z" fill="#FF9D64"/>
<path d="M170.481 29.4048C170.647 29.4523 171.41 28.8986 172.642 28.6099C173.871 28.3133 174.875 28.4477 174.986 28.337C175.041 28.2856 174.851 28.1709 174.413 28.1076C173.978 28.0404 173.275 28.0443 172.508 28.2263C171.741 28.4082 171.141 28.7127 170.817 28.9579C170.485 29.2071 170.402 29.385 170.481 29.4048Z" fill="#263238"/>
<path d="M171.703 31.7501C171.711 32.2919 172.173 32.7309 172.739 32.7349C173.304 32.7388 173.754 32.3038 173.75 31.7619C173.742 31.2201 173.28 30.7772 172.715 30.7732C172.15 30.7693 171.695 31.2083 171.703 31.7501Z" fill="#263238"/>
<path d="M167.349 37.6783C167.353 37.6111 166.622 37.5202 165.441 37.4252C165.14 37.4094 164.86 37.362 164.796 37.1642C164.717 36.9506 164.824 36.6263 164.955 36.2744C165.2 35.5427 165.456 34.7715 165.725 33.9686C166.792 30.6861 167.551 27.9928 167.416 27.9493C167.282 27.9058 166.31 30.5358 165.243 33.8184C164.986 34.6291 164.741 35.4003 164.508 36.1359C164.413 36.48 164.235 36.8715 164.409 37.3105C164.5 37.5281 164.725 37.6784 164.919 37.7219C165.113 37.7693 165.279 37.7654 165.429 37.7693C166.618 37.7772 167.349 37.7456 167.349 37.6783Z" fill="#263238"/>
<path d="M171.405 24.2002C171.52 24.4849 172.539 24.299 173.748 24.39C174.962 24.4572 175.949 24.7776 176.1 24.5087C176.167 24.3821 175.981 24.1171 175.578 23.8561C175.175 23.5951 174.543 23.3578 173.816 23.3103C173.088 23.2629 172.432 23.4131 172.002 23.6188C171.567 23.8284 171.358 24.0657 171.405 24.2002Z" fill="#263238"/>
<path d="M159.331 26.2409C159.457 26.4743 160.453 26.2449 161.65 26.237C162.848 26.2093 163.836 26.411 163.97 26.1737C164.029 26.063 163.836 25.8494 163.425 25.6596C163.018 25.4658 162.381 25.3115 161.662 25.3234C160.943 25.3353 160.307 25.5093 159.892 25.711C159.469 25.9166 159.271 26.1302 159.331 26.2409Z" fill="#263238"/>
<path d="M183.459 32.4224C183.593 32.3591 188.892 30.6862 188.833 36.1361C188.774 41.5859 183.32 40.4034 183.313 40.2452C183.309 40.091 183.459 32.4224 183.459 32.4224Z" fill="#FFCFB4"/>
<path d="M185.006 38.2006C185.029 38.1848 185.1 38.2679 185.258 38.343C185.413 38.4182 185.681 38.4696 185.966 38.3667C186.543 38.1611 187.037 37.2515 187.072 36.2706C187.092 35.7763 186.993 35.3017 186.819 34.9101C186.657 34.5107 186.404 34.2299 186.112 34.1745C185.824 34.1033 185.618 34.2774 185.551 34.4276C185.476 34.5779 185.511 34.6887 185.48 34.6966C185.464 34.7084 185.365 34.6056 185.409 34.3802C185.432 34.2734 185.496 34.1429 185.626 34.0401C185.756 33.9372 185.95 33.8819 186.152 33.9056C186.57 33.9372 186.946 34.3288 187.132 34.7599C187.345 35.1949 187.467 35.7249 187.444 36.2825C187.396 37.382 186.823 38.4023 186.037 38.6199C185.654 38.7148 185.334 38.5961 185.172 38.4656C185.013 38.3351 184.986 38.2125 185.006 38.2006Z" fill="#FF9D64"/>
<path d="M159.434 28.8352C159.552 28.9578 160.485 28.8984 161.69 29.2939C162.895 29.6776 163.69 30.3024 163.84 30.2629C163.915 30.2471 163.808 30.0612 163.464 29.7843C163.125 29.5115 162.516 29.1555 161.769 28.9103C161.018 28.6691 160.351 28.6097 159.947 28.6414C159.536 28.677 159.374 28.7798 159.434 28.8352Z" fill="#263238"/>
<path d="M160.883 31.6194C160.891 32.1613 161.353 32.6003 161.918 32.6042C162.483 32.6082 162.934 32.1731 162.93 31.6313C162.922 31.0895 162.46 30.6465 161.895 30.6426C161.329 30.6426 160.875 31.0816 160.883 31.6194Z" fill="#263238"/>
<path d="M148.051 18.4813C148.142 18.1807 148.367 17.9355 148.644 17.7813C149.245 17.4451 149.924 17.5124 150.584 17.5163C152.224 17.5321 153.86 17.1525 155.338 16.4485C154.836 16.1756 154.366 15.8513 153.975 15.436C153.161 14.5818 152.714 13.2925 153.125 12.1891C153.2 11.9834 153.331 11.7659 153.544 11.7066C153.884 11.6116 154.169 11.9478 154.394 12.2167C155.141 13.0947 155.84 13.4823 156.99 13.3953C157.705 13.3399 158.397 13.1976 158.966 12.8653C158.99 12.8416 159.009 12.8179 159.033 12.7942C159.31 12.5252 159.578 12.2642 159.843 12.015C159.843 12.015 159.843 12.015 159.843 12.0111C161.835 10.1325 163.538 8.83924 165.277 8.19063C167.822 7.2375 172.05 6.93297 174.662 7.69231C177.274 8.4477 179.578 10.6427 179.874 13.3478C181.38 12.1376 183.593 12.2049 185.371 12.9721L185.419 12.9523C187.398 13.7156 188.481 15.8592 189.019 17.9158C189.046 18.0265 189.074 18.1412 189.102 18.2559C189.75 19.3474 190.647 20.2887 191.726 20.9531C191.915 21.0718 192.133 21.2142 192.152 21.4356C192.172 21.6571 191.978 21.8351 191.797 21.9577C191.307 22.2899 190.746 22.4995 190.161 22.5905C190.331 23.0809 190.532 23.5555 190.789 24.0142C191.006 24.4018 191.263 24.8685 191.054 25.26C190.892 25.5646 190.501 25.6793 190.161 25.6239C189.821 25.5646 189.524 25.3708 189.24 25.177C189.449 25.7188 189.659 26.2567 189.868 26.7985C189.141 26.9053 188.394 26.8301 187.699 26.5968C187.225 28.4952 186.683 30.9156 186.162 32.197C185.324 32.1732 184.541 31.9557 184.012 32.4066C183.297 33.0196 182.953 34.1981 181.799 33.7156C181.214 33.4704 180.704 32.2128 180.522 31.6037C179.309 27.5618 178.981 23.2589 179.562 19.0825C178.756 18.1768 177.776 17.4293 176.689 16.8954L176.776 16.9785C174.682 16.1914 172.315 15.4084 170.288 16.3496C168.715 17.0813 167.758 18.6712 166.565 19.9288C164.301 22.3136 161.594 23.5555 158.31 23.6148C157.954 25.8889 158.128 28.7878 157.962 30.9156L156.085 27.4313V27.4471C155.943 27.194 155.828 26.9409 155.718 26.6838L155.678 26.6047V26.5968C155.504 26.1855 155.334 25.7781 155.109 25.3708C155.101 25.3787 155.093 25.3826 155.089 25.3866C153.912 26.3753 152.252 24.7775 153.192 23.5594C153.378 23.3182 153.599 23.1046 153.852 22.9306C153.315 23.4131 152.521 23.6306 151.837 23.4012C151.153 23.1718 150.636 22.46 150.711 21.7402C150.766 21.2498 151.126 20.8187 151.576 20.6367C150.644 20.6842 149.695 20.4588 148.897 19.9723C148.363 19.6599 147.854 19.1457 148.051 18.4813Z" fill="#263238"/>
<path d="M177.477 14.1587C177.461 14.1785 177.789 14.3683 178.216 14.8706C178.639 15.3728 179.109 16.2429 179.311 17.4096C179.413 17.991 179.473 18.6396 179.457 19.3357C179.441 20.0317 179.366 20.7753 179.295 21.5623C179.224 22.3454 179.149 23.1759 179.176 24.042C179.192 24.4731 179.232 24.9121 179.315 25.3551C179.398 25.7901 179.5 26.2607 179.817 26.6364C180.069 26.9449 180.496 27.0913 180.876 27.024C181.255 26.9687 181.595 26.7749 181.848 26.5059C182.35 25.9522 182.488 25.2325 182.626 24.5997L182.468 24.6155C182.713 25.1929 182.966 25.7624 183.345 26.2251C183.721 26.6879 184.25 27.0003 184.796 27.0636C185.068 27.0952 185.341 27.0596 185.578 26.9449C185.819 26.8342 185.997 26.6404 186.12 26.4347C186.238 26.2251 186.301 25.9918 186.297 25.7703C186.289 25.5449 186.206 25.3313 186.068 25.1771L185.985 25.2483C186.55 25.9285 187.159 26.3003 187.578 26.5099C187.791 26.6127 187.961 26.676 188.076 26.7195C188.19 26.759 188.253 26.7749 188.253 26.767C188.253 26.763 188.198 26.7353 188.084 26.6918C187.973 26.6444 187.807 26.5692 187.601 26.4585C187.194 26.237 186.61 25.8534 186.064 25.181L185.981 25.2522C186.23 25.5291 186.23 26.0037 186.001 26.3754C185.886 26.5613 185.724 26.7314 185.511 26.8263C185.301 26.9212 185.049 26.9568 184.804 26.9252C184.306 26.8619 183.812 26.5692 183.46 26.1302C183.1 25.6912 182.855 25.1336 182.614 24.5562L182.512 24.311L182.456 24.572C182.318 25.2048 182.172 25.8929 181.717 26.3912C181.492 26.6325 181.18 26.8065 180.848 26.854C180.516 26.9093 180.168 26.7907 179.951 26.5257C179.674 26.1974 179.572 25.7505 179.489 25.3274C179.41 24.8963 179.366 24.4652 179.35 24.042C179.319 23.1917 179.394 22.3691 179.461 21.5821C179.528 20.799 179.599 20.0515 179.607 19.3436C179.619 18.6396 179.552 17.9791 179.437 17.3899C179.216 16.2034 178.718 15.3254 178.271 14.8271C177.817 14.3248 177.477 14.1587 177.477 14.1587Z" fill="#455A64"/>
<path d="M153.914 20.9216C153.914 20.9255 153.934 20.9413 153.973 20.973C154.025 21.0125 154.084 21.06 154.159 21.1154C154.238 21.1786 154.345 21.2538 154.475 21.3289C154.606 21.408 154.752 21.5029 154.93 21.582C155.621 21.934 156.74 22.2939 158.15 22.2465C159.545 22.203 161.233 21.7521 162.754 20.6764C164.291 19.6283 165.659 18.0622 166.785 16.2548C167.358 15.3531 167.828 14.4237 168.346 13.5694C168.859 12.7151 169.421 11.9281 170.092 11.3111C170.756 10.6902 171.523 10.2394 172.305 10.0456C172.697 9.93878 173.084 9.92296 173.455 9.94273C173.827 9.97042 174.178 10.0574 174.502 10.1721C175.147 10.4055 175.664 10.7812 176.055 11.1608C176.447 11.5445 176.704 11.9479 176.881 12.288C177.209 12.992 177.213 13.4389 177.241 13.431C177.245 13.431 177.241 13.4033 177.237 13.3519C177.229 13.2886 177.217 13.2134 177.205 13.1185C177.174 12.9168 177.095 12.6202 176.941 12.2564C176.771 11.9004 176.518 11.4852 176.123 11.0857C175.731 10.6902 175.206 10.2987 174.546 10.0495C174.214 9.92691 173.854 9.83595 173.467 9.80036C173.084 9.77663 172.673 9.79245 172.27 9.89923C171.46 10.097 170.665 10.5597 169.986 11.1885C169.294 11.8174 168.717 12.6163 168.199 13.4784C167.678 14.3406 167.204 15.2621 166.639 16.1559C165.516 17.9475 164.173 19.4978 162.663 20.534C161.169 21.5979 159.522 22.0527 158.146 22.112C156.759 22.1753 155.657 21.8391 154.961 21.5109C154.258 21.1905 153.93 20.9018 153.914 20.9216Z" fill="#455A64"/>
<path d="M153.305 17.5797C153.297 17.5916 153.392 17.6588 153.57 17.7775C153.748 17.8961 154.016 18.0464 154.36 18.2046C154.704 18.3667 155.135 18.521 155.621 18.6554C156.111 18.7781 156.656 18.8769 157.241 18.9125C157.822 18.9442 158.379 18.9086 158.881 18.8413C159.379 18.7662 159.821 18.6594 160.185 18.5408C160.545 18.4221 160.833 18.3035 161.019 18.2046C161.209 18.1097 161.311 18.0503 161.307 18.0424C161.292 18.0108 160.869 18.2165 160.149 18.4221C159.79 18.5289 159.351 18.6159 158.861 18.6831C158.371 18.7385 157.826 18.7662 157.253 18.7385C156.684 18.7029 156.146 18.6119 155.664 18.5012C155.186 18.3786 154.759 18.2402 154.416 18.0939C153.72 17.8051 153.325 17.552 153.305 17.5797Z" fill="#455A64"/>
<path d="M171.153 39.6519C171.153 39.6519 168.399 40.4547 167.352 40.8344L167.77 42.0327C168.13 43.0649 169.347 43.6186 170.359 43.1401C170.596 43.0294 170.809 42.8672 170.995 42.6497C171.315 42.274 171.453 41.7875 171.434 41.305C171.41 40.7395 171.256 40.162 171.153 39.6519Z" fill="#FF9D64"/>
<path d="M167.36 40.8345C167.324 40.7356 168.992 40.1266 171.106 39.4661L171.304 39.4028L171.347 39.6124C171.351 39.6401 171.359 39.6718 171.367 39.6995C171.482 40.2452 171.604 40.7831 171.616 41.2933C171.655 41.8035 171.47 42.3097 171.217 42.6024C170.699 43.2233 170.158 43.2589 170.162 43.2193C170.13 43.16 170.604 43.0216 170.995 42.4402C171.454 41.8747 171.244 40.8701 170.992 39.7746C170.984 39.743 170.98 39.7113 170.972 39.6836L171.213 39.83C169.111 40.4865 167.395 40.9294 167.36 40.8345Z" fill="#263238"/>
<path d="M148.575 140L202.216 139.751L199.256 94.0874L199.035 80.4746L195.893 55.8038L183.904 53.2332C183.904 53.2332 180.904 58.7503 173.246 58.6356C165.757 58.5248 165.999 55.3372 165.999 55.3372L153.262 60.1226C153.262 60.1226 146.28 63.5238 144.999 66.8183C143.75 70.0257 141.336 88.4873 141.336 88.4873L152.318 88.3528L151.318 123.279L148.575 140Z" fill="#455A64"/>
<path d="M152.684 72.1536C152.692 72.1536 152.7 72.2366 152.712 72.3948C152.724 72.5728 152.735 72.8022 152.751 73.083C152.779 73.6841 152.803 74.5502 152.807 75.622C152.822 77.7695 152.775 80.7318 152.672 84.0025C152.57 87.2732 152.439 90.2354 152.332 92.379C152.273 93.431 152.222 94.2892 152.186 94.9141C152.166 95.1949 152.147 95.4243 152.135 95.6022C152.119 95.7604 152.111 95.8435 152.103 95.8435C152.095 95.8435 152.091 95.7604 152.095 95.6022C152.099 95.4203 152.103 95.1949 152.107 94.9101C152.127 94.2853 152.155 93.4231 152.186 92.3711C152.257 90.2038 152.356 87.2534 152.467 83.9946C152.57 80.7239 152.641 77.7656 152.66 75.622C152.676 74.5502 152.672 73.6841 152.668 73.083C152.668 72.8022 152.668 72.5728 152.664 72.3909C152.676 72.2366 152.68 72.1536 152.684 72.1536Z" fill="#263238"/>
<path d="M195.516 56.1399C195.516 56.1399 200.91 56.7054 203.802 60.4943C206.458 63.9785 211.583 74.9455 211.445 75.2144C211.311 75.4873 199.38 83.3102 199.38 83.3102L196.432 77.8682L195.516 56.1399Z" fill="#455A64"/>
<path d="M198.152 61.5266C198.16 61.5266 198.168 61.5978 198.184 61.7362C198.196 61.8944 198.212 62.0922 198.232 62.3334C198.271 62.8515 198.314 63.6069 198.362 64.5363C198.453 66.3951 198.524 68.9698 198.567 71.8094C198.611 74.649 198.658 77.2197 198.71 79.0825C198.737 79.9881 198.757 80.7356 198.773 81.2854C198.777 81.5266 198.781 81.7244 198.785 81.8865C198.785 82.0249 198.781 82.0961 198.773 82.0961C198.765 82.0961 198.757 82.0249 198.741 81.8865C198.729 81.7283 198.714 81.5306 198.694 81.2893C198.654 80.7712 198.611 80.0158 198.563 79.0864C198.473 77.2276 198.401 74.653 198.358 71.8133C198.315 68.9737 198.267 66.403 198.216 64.5442C198.188 63.6385 198.168 62.8911 198.152 62.3413C198.149 62.1001 198.145 61.9023 198.141 61.7402C198.141 61.5978 198.145 61.5266 198.152 61.5266Z" fill="#263238"/>
<path d="M123.469 109.053C123.469 109.053 125.247 110.247 126.361 110.097C127.48 109.947 131.131 109.053 131.131 109.053C131.131 109.053 131.206 109.377 132.174 110.109C133.143 110.841 139.027 111.81 141.489 111.513C143.947 111.216 148.12 109.65 148.12 109.65L146.867 102.603L135.794 104.351L123.469 107.19V108.234V109.053Z" fill="#824E44"/>
<path d="M127.179 103.31C127.179 103.31 126.211 107.562 126.732 108.155C127.254 108.752 127.91 108.903 128.281 108.08C128.653 107.261 129.337 104.343 129.337 104.343L129.783 103.307C129.783 103.307 129.186 110.315 130.38 110.686C131.573 111.058 132.241 110.686 132.241 110.686C132.241 110.686 134.624 112.474 134.774 109.642C134.924 106.811 135.786 103.307 135.786 103.307L136.339 102.385V103.979C136.339 103.979 135.082 107.708 135.786 108.23C136.489 108.752 137.232 109.124 137.679 108.527C138.125 107.93 140.204 103.564 140.662 102.033C140.662 102.033 142.057 104.05 144.005 104.078C145.535 104.098 146.42 103.441 145.795 102.488C145.171 101.535 143.634 100.736 143.634 100.736L141.622 96.0334L136.707 94.8826H131.119L127.179 103.31Z" fill="#FFCFB4"/>
<path d="M119.203 100.289C119.203 100.289 123.902 103.089 126.063 103.611C128.225 104.133 139.807 102.072 139.689 101.345C139.57 100.613 138.061 99.9604 137.017 99.8101C135.974 99.6598 132.919 99.1378 132.919 99.1378H141.115L145.063 101.637C145.063 101.637 146.466 101.072 146.008 99.9248C145.767 99.3157 142.676 96.8993 142.676 96.8993L135.152 95.4083L121.815 94.8862L119.203 100.289Z" fill="#FFBF9D"/>
<path d="M123.6 87.728C123.6 87.728 136.937 89.9665 137.233 90.3383C137.529 90.71 140.959 94.5898 140.959 94.5898C140.959 94.5898 146.097 96.3576 145.429 97.4967C144.761 98.6357 143.267 97.9436 143.267 97.9436C143.267 97.9436 145.354 101.222 144.386 101.895C143.417 102.567 142.374 102.12 141.627 101.147C140.88 100.178 138.723 96.5989 138.723 96.5989C138.723 96.5989 140.509 103.908 139.616 104.129C138.723 104.354 137.308 104.426 136.711 102.563C136.115 100.7 135.964 99.656 135.964 99.656L133.135 94.9576C133.135 94.9576 134.253 103.536 133.582 104.244C133.582 104.244 131.867 104.801 131.274 103.31C130.681 101.819 129.859 98.4102 129.859 98.4102L128.444 94.661L128.294 97.0458C128.294 97.0458 129.488 101.444 128.741 101.744C127.994 102.041 127.026 101.748 126.504 100.74C125.982 99.7312 125.409 98.5487 125.164 97.5679C125.018 96.9865 124.228 95.0011 124.228 95.0011L121.398 94.6294L123.6 87.728Z" fill="#C27461"/>
<path d="M140.018 93.4467C140.065 93.4151 140.856 94.4592 141.788 95.7801C142.721 97.1011 143.436 98.2006 143.389 98.2322C143.341 98.2638 142.551 97.2197 141.618 95.8988C140.69 94.5778 139.97 93.4823 140.018 93.4467Z" fill="#7D4336"/>
<path d="M135.58 90.9789C135.6 90.9631 135.849 91.2399 136.204 91.7264C136.56 92.2089 137.014 92.9089 137.457 93.7118C137.9 94.5146 138.255 95.266 138.488 95.8197C138.722 96.3734 138.844 96.7254 138.816 96.7333C138.789 96.7452 138.623 96.413 138.354 95.8791C138.085 95.3451 137.718 94.6056 137.275 93.8106C136.833 93.0157 136.406 92.3117 136.082 91.8094C135.762 91.3072 135.556 90.9987 135.58 90.9789Z" fill="#7D4336"/>
<path d="M131.651 91.3784C131.666 91.3586 131.872 91.4733 132.121 91.7502C132.374 92.027 132.65 92.4739 132.828 93.0157C133.01 93.5575 133.081 94.0638 133.117 94.4276C133.152 94.7915 133.156 95.0209 133.129 95.0248C133.101 95.0288 133.046 94.8073 132.974 94.4514C132.899 94.0954 132.805 93.6011 132.635 93.083C132.461 92.5649 132.224 92.1298 132.01 91.8451C131.797 91.5524 131.627 91.4021 131.651 91.3784Z" fill="#7D4336"/>
<path d="M126.916 91.7818C126.927 91.7581 127.125 91.8214 127.394 92.0152C127.662 92.205 127.998 92.5412 128.224 93C128.453 93.4587 128.512 93.9294 128.5 94.2616C128.488 94.5938 128.417 94.7876 128.394 94.7836C128.33 94.7836 128.473 93.961 128.042 93.0909C127.619 92.2208 126.876 91.8293 126.916 91.7818Z" fill="#7D4336"/>
<path opacity="0.3" d="M151.664 111.252C152.616 111.244 188.838 108.59 188.838 108.59L201.618 105.944L198.46 91.7856L151.763 106.826L151.664 111.252Z" fill="black"/>
<path d="M146.859 102.598L180.394 94.8862C180.394 94.8862 210.924 77.0773 211.391 76.7886C211.912 76.4682 209.032 94.8862 209.032 94.8862C209.032 94.8862 189.585 105.141 183.986 106.47C180.939 107.194 147.108 110.01 147.108 110.01L146.859 102.598Z" fill="#824E44"/>
<path d="M229.422 29.3614C231.489 27.1308 236.531 27.5184 237.713 29.0094C239.475 28.1156 241.898 28.9461 242.735 30.7337C244.522 31.1411 246.308 31.5524 248.094 31.9598C249.007 32.1694 249.963 32.3988 250.663 33.0276C251.362 33.6525 251.678 34.8113 251.089 35.5429C252.974 36.0531 253.69 38.8809 252.275 40.2255C253.038 41.0442 252.872 42.5392 251.943 43.168C253.409 44.9596 254.563 47.0043 255.345 49.1874C255.673 50.101 255.93 51.1174 255.586 52.023C255.243 52.9287 254.041 53.5417 253.263 52.9683C253.792 53.7078 253.828 54.7678 253.35 55.5429C254.259 55.5746 254.515 56.9825 253.883 57.6351C253.251 58.2916 252.239 58.3509 251.33 58.3193C250.422 58.2876 249.438 58.2323 248.687 58.7425C248.718 59.0153 248.821 59.1933 248.979 59.3238C250.528 60.6092 250.947 62.8002 249.762 64.4257C249.651 64.5759 249.548 64.7144 249.461 64.8409C248.928 65.5844 247.62 66.2568 246.806 66.6681C244.743 67.7201 243.522 67.5065 241.226 67.815C241.838 69.3021 238.08 72.5411 233.852 69.2783C225.328 71.4812 219.187 72.288 210.383 72.2287C209.126 72.2208 207.617 72.0349 207.071 70.9038C206.052 71.1648 204.953 70.6784 204.21 69.9349C203.463 69.1913 203.001 68.2145 202.551 67.2613C200.381 66.6562 198.725 64.5404 198.658 62.2861C197.196 61.1194 196.259 59.3159 196.153 57.4452C194.043 56.7808 192.904 54.0203 193.928 52.0586C194.41 49.4682 195.319 46.9608 196.611 44.6669C195.173 44.3426 194.651 42.3928 195.256 41.0482C195.86 39.7035 197.18 38.8492 198.429 38.0662C197.35 38.343 196.425 36.9786 196.69 35.8989C196.959 34.8152 197.939 34.0756 198.899 33.5141C200.306 32.6875 201.816 32.031 203.38 31.5643C203.91 29.6738 206.356 27.5342 208.138 26.7116C215.338 23.3934 220.361 22.5827 229.422 29.3614Z" fill="#263238"/>
<path d="M209.352 42.8239C209.973 37.8961 213.624 32.031 218.516 32.8575L233.655 37.7063C235.141 37.9594 236.188 39.304 236.066 40.8109L233.497 73.7592C233.161 78.0543 229.858 81.5188 225.586 82.0487C220.117 82.729 215.311 78.3984 215.414 72.8852C215.458 70.619 215.485 68.9145 215.481 68.9263C215.481 68.9263 209.23 67.4828 208.436 59.1577C208.04 55.009 208.665 48.2975 209.352 42.8239Z" fill="#824E44"/>
<path d="M212.114 49.5196C212.059 50.0772 212.486 50.5834 213.067 50.6507C213.647 50.7179 214.161 50.3224 214.217 49.7648C214.272 49.2071 213.845 48.7009 213.264 48.6337C212.683 48.5664 212.17 48.9619 212.114 49.5196Z" fill="#263238"/>
<path d="M210.593 46.4109C210.716 46.5573 211.553 46.0154 212.691 46.0866C213.83 46.142 214.628 46.7827 214.758 46.6482C214.821 46.5889 214.703 46.3318 214.359 46.0471C214.019 45.7623 213.423 45.4657 212.715 45.4262C212.008 45.3866 211.395 45.612 211.036 45.8572C210.664 46.1025 210.53 46.3477 210.593 46.4109Z" fill="#263238"/>
<path d="M222.544 49.9546C222.489 50.5123 222.915 51.0185 223.496 51.0857C224.077 51.153 224.591 50.7575 224.646 50.1998C224.701 49.6422 224.275 49.136 223.694 49.0687C223.113 49.0015 222.599 49.397 222.544 49.9546Z" fill="#263238"/>
<path d="M221.756 47.3207C221.878 47.467 222.716 46.9252 223.854 46.9964C224.992 47.0517 225.79 47.6924 225.921 47.558C225.984 47.4986 225.869 47.2416 225.522 46.9568C225.182 46.6721 224.585 46.3754 223.878 46.3359C223.17 46.2964 222.558 46.5178 222.198 46.767C221.831 47.0122 221.696 47.2534 221.756 47.3207Z" fill="#263238"/>
<path d="M217.104 55.5032C217.112 55.4399 216.413 55.2738 215.278 55.0563C214.99 55.0088 214.717 54.9337 214.682 54.732C214.626 54.5184 214.769 54.2139 214.931 53.8817C215.247 53.1935 215.579 52.4777 215.926 51.7223C217.314 48.6453 218.337 46.1102 218.215 46.0549C218.092 45.9995 216.863 48.4476 215.476 51.5245C215.14 52.2839 214.82 53.0076 214.516 53.6997C214.385 54.024 214.172 54.3879 214.294 54.8308C214.358 55.0523 214.563 55.2224 214.745 55.2856C214.927 55.3529 215.093 55.3687 215.235 55.3845C216.381 55.515 217.096 55.5664 217.104 55.5032Z" fill="#263238"/>
<path d="M215.484 68.9223C215.484 68.9223 221.005 69.6263 226.703 66.6641C226.703 66.6641 223.672 72.1614 215.477 70.876L215.484 68.9223Z" fill="#5B342F"/>
<path d="M221.542 42.6024C221.637 42.9188 222.779 42.8436 224.103 43.0849C225.431 43.3024 226.482 43.7612 226.679 43.4922C226.766 43.3657 226.597 43.0611 226.182 42.7368C225.771 42.4125 225.099 42.0843 224.305 41.9459C223.51 41.8074 222.767 41.8905 222.269 42.0566C221.768 42.2267 221.507 42.4521 221.542 42.6024Z" fill="#263238"/>
<path d="M211.235 42.5193C211.421 42.7882 212.219 42.5707 213.164 42.6182C214.108 42.63 214.891 42.899 215.092 42.6419C215.179 42.5153 215.073 42.2504 214.737 41.9814C214.409 41.7164 213.848 41.4831 213.199 41.4594C212.551 41.4396 211.974 41.6373 211.631 41.8825C211.279 42.1278 211.152 42.3888 211.235 42.5193Z" fill="#263238"/>
<path d="M205.573 46.7235C205.672 45.4303 206.103 44.1252 207.004 43.1918C207.498 42.6816 208.118 42.298 208.557 41.7403C209.505 40.538 209.402 38.8414 209.825 37.3662C210.367 35.4639 211.884 33.8701 213.757 33.2373C215.314 32.7113 217.065 32.8181 218.531 32.0706C219.614 31.5208 220.447 30.544 221.562 30.0575C223.731 29.1123 226.209 30.2592 228.22 31.505C228.596 33.1265 227.549 34.5068 226.541 35.8317C225.533 37.1566 223.921 37.999 222.257 38.0702C220.969 38.1255 219.467 37.8092 218.547 38.7109C217.578 39.6601 217.918 41.3725 217.116 42.468C215.97 44.0342 213.433 43.3856 211.742 44.3387C210.434 45.0743 209.865 46.6128 209.189 47.9535C208.513 49.2942 207.363 50.6824 205.87 50.5835C205.672 49.31 205.474 48.0168 205.573 46.7235Z" fill="#263238"/>
<path d="M224.953 34.396C228.719 34.4039 232.481 35.1514 235.967 36.5831C237.006 37.0102 238.077 37.5481 238.658 38.5091C239.167 39.3555 239.211 40.3956 239.183 41.3804C239.092 44.4731 237.784 48.2342 236.555 51.0739L232.655 53.3163C229.695 52.5609 231.149 47.4512 231.339 44.8805C229.28 43.9352 227.873 41.7205 227.885 39.4543C226.206 38.3351 225.087 36.409 224.953 34.396Z" fill="#263238"/>
<path d="M232.729 52.2088C232.875 50.4409 235.053 50.1364 236.554 51.0737C237.38 51.5878 237.989 52.5884 237.851 54.4631C237.475 59.466 232.536 58.0581 232.539 57.9117C232.536 57.8247 232.555 54.2772 232.729 52.2088Z" fill="#824E44"/>
<path d="M234.2 56.1362C234.224 56.1204 234.283 56.2034 234.425 56.2825C234.564 56.3576 234.809 56.4209 235.074 56.3458C235.615 56.1915 236.125 55.3847 236.216 54.487C236.263 54.0322 236.2 53.5932 236.065 53.2214C235.939 52.8457 235.722 52.5688 235.461 52.5016C235.2 52.4225 235.002 52.5649 234.927 52.7033C234.848 52.8378 234.876 52.9406 234.848 52.9485C234.832 52.9604 234.746 52.8575 234.805 52.6519C234.833 52.553 234.9 52.4423 235.026 52.3513C235.153 52.2643 235.334 52.2248 235.516 52.2604C235.899 52.3157 236.22 52.6954 236.366 53.1028C236.536 53.5141 236.615 54.0084 236.563 54.5186C236.457 55.5232 235.868 56.4288 235.133 56.5831C234.773 56.6503 234.489 56.5198 234.346 56.3893C234.2 56.2548 234.184 56.1441 234.2 56.1362Z" fill="#5B342F"/>
<path d="M236.61 59.3158C236.859 59.3277 237.128 59.3158 237.412 59.2763C237.697 59.2367 237.997 59.1695 238.294 59.0271L238.234 58.9954C238.329 59.6796 238.768 60.4232 239.527 60.8345C240.277 61.2498 241.348 61.2379 242.17 60.6446L242.087 60.6288C242.23 60.8543 242.471 61.0204 242.735 61.0797C243 61.1469 243.285 61.1192 243.545 61.0283C243.806 60.9334 244.051 60.7554 244.205 60.5102C244.364 60.2689 244.45 59.9842 244.474 59.6915C244.522 59.1062 244.316 58.5011 243.96 58.0107C243.609 57.5124 243.138 57.105 242.664 56.7016L242.652 56.8163C243.079 56.575 243.364 56.1242 243.466 55.6456C243.573 55.1631 243.534 54.6411 243.348 54.1665C243.158 53.6919 242.85 53.2727 242.494 52.9009C242.139 52.5292 241.736 52.2009 241.329 51.8766L241.333 51.9913C241.712 51.6274 241.878 51.0738 241.85 50.5478C241.827 50.0178 241.637 49.4839 241.313 49.0488C240.684 48.2183 239.756 47.7437 238.902 47.3008L238.942 47.3878C239.23 46.2962 238.926 45.1058 238.207 44.3109C237.488 43.512 236.409 43.1204 235.405 43.2193L235.48 43.3063C235.693 42.4125 235.377 41.4989 234.848 40.8582C234.318 40.2096 233.54 39.7904 232.753 39.7825L232.817 39.8458C232.832 38.9282 232.334 38.1333 231.718 37.6429C231.098 37.1446 230.323 36.927 229.635 37.0259L229.691 37.0773C229.683 36.5909 229.513 36.1558 229.307 35.7841C229.098 35.4123 228.845 35.0959 228.565 34.8507C228.015 34.3405 227.375 34.123 226.865 34.0834C226.802 34.0795 226.739 34.0716 226.68 34.0676C226.62 34.0676 226.561 34.0755 226.502 34.0795C226.387 34.0914 226.28 34.0874 226.186 34.1111C225.996 34.1625 225.826 34.1823 225.704 34.2377C225.585 34.2851 225.49 34.3247 225.423 34.3524C225.36 34.3801 225.328 34.3919 225.328 34.3959C225.328 34.3998 225.364 34.388 225.427 34.3642C225.498 34.3405 225.593 34.3049 225.711 34.2614C225.834 34.21 226 34.1942 226.19 34.1507C226.284 34.1309 226.391 34.1349 226.502 34.127C226.557 34.123 226.616 34.119 226.676 34.119C226.735 34.1269 226.798 34.1309 226.861 34.1388C227.359 34.1902 227.98 34.4077 228.513 34.91C228.786 35.1513 229.031 35.4637 229.232 35.8276C229.43 36.1914 229.592 36.6146 229.596 37.0734V37.1327L229.651 37.1248C230.311 37.0338 231.054 37.2434 231.647 37.7299C232.24 38.2045 232.71 38.9757 232.69 39.8418V39.9051H232.753C233.496 39.9169 234.239 40.3164 234.745 40.9413C235.251 41.5582 235.547 42.4323 235.346 43.2707L235.322 43.3696L235.421 43.3617C236.377 43.2668 237.416 43.6464 238.1 44.4097C238.784 45.1691 239.076 46.312 238.8 47.3482L238.784 47.4076L238.839 47.4352C239.693 47.8782 240.598 48.3449 241.194 49.1398C241.502 49.5511 241.68 50.0534 241.704 50.5517C241.728 51.05 241.574 51.5523 241.23 51.8806L241.167 51.9399L241.234 51.9953C242.04 52.6359 242.846 53.3083 243.21 54.2179C243.383 54.6648 243.423 55.1592 243.32 55.61C243.221 56.0609 242.961 56.4722 242.577 56.6897L242.49 56.7411L242.569 56.8084C243.044 57.2118 243.506 57.6112 243.846 58.0898C244.194 58.5604 244.383 59.1299 244.344 59.6796C244.312 60.2254 244 60.7475 243.502 60.9096C243.028 61.0876 242.435 60.9808 242.186 60.5695L242.155 60.5141L242.103 60.5537C241.329 61.1232 240.297 61.139 239.578 60.7475C238.847 60.3559 238.42 59.6401 238.321 58.9836L238.313 58.9282L238.262 58.9519C237.981 59.0904 237.685 59.1616 237.408 59.2011C237.132 59.2446 236.863 59.2565 236.618 59.2486C236.124 59.2327 235.709 59.1418 235.401 58.9915C235.097 58.8452 234.903 58.6514 234.832 58.4892C234.757 58.335 234.745 58.2361 234.733 58.2401C234.733 58.2401 234.737 58.2638 234.745 58.3073C234.761 58.3508 234.761 58.422 234.808 58.4971C234.875 58.6672 235.069 58.8728 235.377 59.0271" fill="#455A64"/>
<path d="M253.878 53.2175C253.878 53.2175 253.961 53.1265 254.071 52.9169C254.178 52.7113 254.316 52.383 254.352 51.9322C254.391 51.4892 254.324 50.9039 253.969 50.3541C253.625 49.8123 252.996 49.3061 252.175 49.1677L252.214 49.227C252.388 48.4637 252.277 47.5501 251.803 46.7473C251.57 46.3478 251.25 45.9761 250.843 45.6873C250.436 45.3907 249.946 45.2325 249.487 45.019C249.258 44.9122 249.033 44.7856 248.839 44.6195C248.646 44.4534 248.499 44.2398 248.393 43.9946C248.179 43.5121 248.116 42.9426 247.843 42.4206C247.302 41.3923 246.073 40.6883 244.824 40.8544L244.907 40.9414C245.089 39.8024 244.745 38.5289 243.915 37.6114C243.054 36.6583 241.75 36.1916 240.545 36.3182L240.628 36.4012C240.802 34.9379 240.003 33.5023 238.818 32.8695C237.628 32.2327 236.198 32.3672 235.21 33.0118L235.289 33.0198C234.783 32.4977 234.163 32.1576 233.558 31.9203C232.949 31.6909 232.345 31.5367 231.768 31.4773C230.618 31.327 229.602 31.4457 228.796 31.6276C227.99 31.8214 227.393 32.0903 227.022 32.3316C226.828 32.4344 226.706 32.557 226.611 32.6203C226.52 32.6875 226.477 32.7271 226.477 32.7271C226.484 32.739 226.666 32.5887 227.042 32.3632C227.417 32.1378 228.014 31.8807 228.812 31.6988C229.61 31.5288 230.618 31.422 231.752 31.5802C232.321 31.6434 232.914 31.7977 233.511 32.031C234.103 32.2683 234.704 32.6045 235.19 33.1107L235.226 33.1503L235.269 33.1226C236.218 32.5056 237.605 32.383 238.739 32.996C239.869 33.6011 240.636 34.9853 240.466 36.3814L240.454 36.4763L240.549 36.4684C241.706 36.3498 242.963 36.8007 243.793 37.7142C244.587 38.5922 244.923 39.8222 244.749 40.9177L244.733 41.0166L244.832 41.0047C246.014 40.8426 247.191 41.5149 247.705 42.4878C247.962 42.9743 248.029 43.5398 248.254 44.05C248.365 44.3071 248.527 44.5404 248.737 44.7223C248.946 44.9003 249.183 45.0308 249.42 45.1416C249.894 45.3591 250.373 45.5133 250.76 45.7941C251.151 46.067 251.467 46.423 251.692 46.8105C252.155 47.5817 252.269 48.4676 252.107 49.2072L252.095 49.2586L252.147 49.2665C252.937 49.3891 253.55 49.8756 253.89 50.3937C254.237 50.9236 254.312 51.4892 254.285 51.9242C254.257 52.3672 254.131 52.6915 254.032 52.9011C253.945 53.1147 253.87 53.2135 253.878 53.2175Z" fill="#455A64"/>
<path d="M206.008 53.7632C206 53.7671 206.115 53.6287 206.036 53.3519C205.996 53.2174 205.901 53.0671 205.751 52.9326C205.601 52.7903 205.384 52.6954 205.139 52.6123C204.898 52.5253 204.613 52.4541 204.364 52.2722C204.115 52.0942 203.922 51.8055 203.815 51.4575C203.704 51.1134 203.68 50.7218 203.708 50.3105C203.732 49.8992 203.807 49.4602 203.815 48.9936C203.839 48.0444 203.455 47.0715 203.23 46.0234C203.119 45.4974 203.08 44.9319 203.19 44.3742C203.297 43.8205 203.598 43.2747 204.123 42.9821C204.637 42.6776 205.269 42.5945 205.886 42.4165C206.194 42.3256 206.51 42.2109 206.79 42.0131C207.075 41.8233 207.284 41.5346 207.439 41.234C207.743 40.617 207.83 39.9289 208 39.2724C208.083 38.9441 208.185 38.6159 208.363 38.3271C208.533 38.0384 208.802 37.817 209.11 37.6944C209.545 37.5401 210.023 37.5718 210.497 37.5283C210.734 37.5085 210.975 37.465 211.201 37.3661C211.426 37.2672 211.623 37.1051 211.762 36.9073C212.046 36.5118 212.157 36.0531 212.307 35.6378C212.445 35.2146 212.667 34.835 212.955 34.5186C213.528 33.8818 214.35 33.514 215.152 33.514C215.954 33.5061 216.721 33.8185 217.263 34.3208L217.33 34.3801L217.369 34.301C218.009 32.9485 219.23 32.0982 220.384 31.7857C220.965 31.6275 221.542 31.6077 222.06 31.671C222.578 31.7304 223.044 31.8767 223.427 32.0784C224.202 32.4818 224.632 33.0513 224.866 33.4468C224.988 33.6445 225.059 33.8106 225.107 33.9214C225.13 33.9728 225.15 34.0123 225.166 34.044C225.178 34.0717 225.186 34.0875 225.19 34.0835C225.19 34.0835 225.186 34.0677 225.178 34.04C225.166 34.0044 225.15 33.9649 225.13 33.9095C225.091 33.7948 225.024 33.6287 224.905 33.4231C224.684 33.0157 224.253 32.4264 223.467 32.0072C223.075 31.7976 222.605 31.6433 222.076 31.5761C221.546 31.5049 220.961 31.5247 220.361 31.6789C219.175 31.9914 217.922 32.8535 217.255 34.2417L217.357 34.2219C216.792 33.6959 215.994 33.3677 215.156 33.3716C214.315 33.3716 213.453 33.7553 212.852 34.4197C212.548 34.748 212.315 35.1553 212.173 35.5864C212.019 36.0096 211.908 36.4604 211.647 36.8164C211.394 37.1881 210.948 37.3463 210.489 37.378C210.031 37.4215 209.541 37.3819 209.063 37.552C208.719 37.6904 208.423 37.9356 208.237 38.248C208.047 38.5565 207.94 38.9006 207.857 39.2328C207.688 39.9012 207.601 40.5814 207.312 41.1668C207.166 41.4555 206.976 41.7165 206.715 41.8945C206.459 42.0764 206.158 42.1911 205.858 42.2781C205.253 42.4561 204.609 42.5391 204.064 42.8634C203.795 43.0256 203.558 43.2471 203.396 43.5081C203.234 43.7691 203.131 44.0578 203.072 44.3505C202.961 44.9319 203.005 45.5132 203.119 46.0511C203.356 47.1189 203.74 48.0721 203.72 48.9936C203.716 49.4523 203.649 49.8874 203.625 50.3066C203.598 50.7258 203.629 51.1292 203.748 51.4851C203.862 51.8411 204.072 52.1456 204.336 52.3315C204.605 52.5174 204.894 52.5846 205.135 52.6677C205.38 52.7468 205.589 52.8377 205.735 52.9682C205.886 53.0948 205.976 53.2372 206.02 53.3637C206.091 53.6248 205.992 53.7632 206.008 53.7632Z" fill="#455A64"/>
<path d="M196.422 45.8454C196.426 45.8454 196.442 45.8137 196.473 45.7544C196.509 45.6832 196.556 45.5923 196.616 45.4776C196.742 45.2245 196.92 44.8606 197.149 44.4018C197.382 43.9352 197.647 43.3538 198.022 42.717C198.398 42.0922 198.908 41.3763 199.729 40.9492C200.136 40.7356 200.607 40.6012 201.081 40.3995C201.318 40.2966 201.555 40.178 201.772 40.0119C201.99 39.8497 202.176 39.6243 202.294 39.3672C202.539 38.8531 202.559 38.2638 202.756 37.7299C202.859 37.4649 203.013 37.2197 203.25 37.0536C203.484 36.8835 203.768 36.7847 204.061 36.6937C204.353 36.6027 204.661 36.5236 204.95 36.3694C205.246 36.227 205.491 35.97 205.645 35.6733C205.957 35.0682 205.969 34.384 206.108 33.7394C206.175 33.4151 206.27 33.0908 206.455 32.8258C206.637 32.5569 206.933 32.3789 207.257 32.3156C207.917 32.1891 208.621 32.4303 209.356 32.3275C209.723 32.2721 210.071 32.0902 210.328 31.8331C210.589 31.576 210.782 31.2755 210.964 30.9828C211.15 30.6862 211.32 30.3935 211.529 30.1285C211.735 29.8636 211.98 29.6381 212.276 29.5116C212.877 29.2466 213.553 29.4088 214.165 29.559C214.785 29.7133 215.43 29.8794 216.062 29.7568C216.69 29.6421 217.228 29.3297 217.729 29.033C218.231 28.7364 218.706 28.4161 219.215 28.2381C220.243 27.8901 221.298 27.9573 222.187 28.1946C223.084 28.4358 223.811 28.8867 224.368 29.3652C224.926 29.8517 225.285 30.3856 225.558 30.8246C225.803 31.2834 225.977 31.6472 226.06 31.9122C226.107 32.0348 226.143 32.1297 226.17 32.2049C226.198 32.2721 226.21 32.3038 226.214 32.3038C226.218 32.3038 226.206 32.2682 226.186 32.2009C226.162 32.1258 226.131 32.0269 226.087 31.9043C226.012 31.6393 225.85 31.2636 225.609 30.8009C225.34 30.354 224.985 29.8082 224.424 29.3099C223.866 28.8155 223.128 28.3488 222.215 28.0997C221.314 27.8545 220.239 27.7754 219.172 28.1274C218.638 28.3093 218.16 28.6296 217.658 28.9263C217.16 29.2229 216.631 29.5234 216.038 29.6302C215.441 29.7449 214.825 29.5867 214.201 29.4285C213.888 29.3534 213.564 29.2703 213.229 29.2426C212.893 29.215 212.537 29.2426 212.217 29.385C211.893 29.5234 211.624 29.7726 211.411 30.0455C211.193 30.3184 211.019 30.619 210.838 30.9116C210.656 31.2043 210.466 31.493 210.221 31.7342C209.98 31.9755 209.672 32.1337 209.332 32.1851C208.648 32.2879 207.945 32.0427 207.226 32.1732C206.87 32.2405 206.534 32.4422 206.329 32.7427C206.119 33.0394 206.025 33.3834 205.957 33.7157C205.823 34.3761 205.803 35.0524 205.515 35.614C205.369 35.8869 205.155 36.1163 204.882 36.2508C204.614 36.3931 204.313 36.4762 204.017 36.5671C203.725 36.6581 203.42 36.7609 203.167 36.9508C202.907 37.1327 202.733 37.4095 202.63 37.6903C202.425 38.2559 202.409 38.8373 202.18 39.3237C201.962 39.8181 201.492 40.1068 201.034 40.3045C200.571 40.5062 200.097 40.6447 199.678 40.8661C198.832 41.317 198.319 42.0526 197.947 42.6854C197.576 43.334 197.323 43.9193 197.094 44.39C196.876 44.8566 196.706 45.2205 196.584 45.4776C196.529 45.5962 196.489 45.6911 196.453 45.7623C196.434 45.8098 196.422 45.8414 196.422 45.8454Z" fill="#455A64"/>
<path d="M201.835 40.6962C201.835 40.6923 201.803 40.6883 201.744 40.6804C201.685 40.6804 201.586 40.6804 201.475 40.7358C201.258 40.8386 201.005 41.1511 200.961 41.6138C200.942 41.8471 200.997 42.0963 201.056 42.3652C201.116 42.6302 201.191 42.9229 201.171 43.2353C201.151 43.5477 201.001 43.8562 200.803 44.1528C200.606 44.4534 200.353 44.7421 200.147 45.0981C199.934 45.4421 199.827 45.9246 200.001 46.3557C200.155 46.7868 200.456 47.1467 200.602 47.5817C200.752 48.0168 200.649 48.5112 200.44 48.9581C200.238 49.4129 199.95 49.8519 199.752 50.3581C199.649 50.6073 199.582 50.8841 199.578 51.1689C199.574 51.4536 199.642 51.7384 199.752 51.9994C199.985 52.5254 200.361 52.9683 200.681 53.4429C201.001 53.9096 201.266 54.4593 201.183 55.0368C201.108 55.6142 200.776 56.1362 200.55 56.7176C200.436 57.0063 200.353 57.3187 200.349 57.6351C200.349 57.9515 200.432 58.264 200.566 58.5408C200.839 59.0945 201.258 59.5295 201.621 59.9764C201.989 60.4194 202.321 60.8782 202.471 61.4081C202.641 61.9302 202.724 62.4799 202.965 62.9743C203.083 63.2195 203.249 63.4489 203.463 63.615C203.676 63.785 203.925 63.8839 204.166 63.967C204.407 64.05 204.64 64.1212 204.854 64.228C205.063 64.3387 205.257 64.4732 205.427 64.6314C205.759 64.9557 206.004 65.3393 206.229 65.715C206.454 66.0907 206.66 66.4625 206.893 66.7947C207.355 67.471 208.003 67.9061 208.616 68.1078C209.228 68.3174 209.797 68.349 210.248 68.2936C210.698 68.2383 211.034 68.1196 211.252 68.0168C211.465 67.914 211.568 67.8428 211.568 67.8428C211.56 67.8111 211.137 68.1394 210.244 68.2343C209.801 68.2778 209.244 68.2422 208.647 68.0286C208.051 67.823 207.434 67.3959 206.988 66.7354C206.762 66.4071 206.557 66.0393 206.336 65.6557C206.114 65.276 205.865 64.8805 205.522 64.5404C205.348 64.3704 205.142 64.228 204.921 64.1093C204.696 63.9986 204.455 63.9235 204.218 63.8404C203.984 63.7573 203.747 63.6624 203.558 63.5042C203.364 63.35 203.214 63.1404 203.103 62.907C202.878 62.4364 202.795 61.8946 202.621 61.3567C202.463 60.807 202.115 60.3166 201.748 59.8736C201.38 59.4267 200.973 58.9917 200.712 58.4696C200.586 58.2086 200.507 57.9238 200.507 57.6312C200.511 57.3385 200.59 57.0498 200.697 56.769C200.914 56.2074 201.258 55.6775 201.341 55.0526C201.384 54.7441 201.337 54.4277 201.234 54.1429C201.131 53.8582 200.977 53.5972 200.815 53.3559C200.487 52.8734 200.12 52.4344 199.898 51.9361C199.792 51.6869 199.728 51.4259 199.732 51.1649C199.736 50.9039 199.8 50.6468 199.894 50.4016C200.084 49.9151 200.369 49.4762 200.574 49.0055C200.788 48.5467 200.898 48.0089 200.732 47.5343C200.57 47.0676 200.266 46.7117 200.124 46.3083C199.962 45.9088 200.052 45.4817 200.254 45.1416C200.448 44.7975 200.697 44.5009 200.898 44.1963C201.1 43.8918 201.254 43.5636 201.27 43.2313C201.285 42.8991 201.202 42.6065 201.139 42.3415C201.076 42.0765 201.021 41.8313 201.033 41.6098C201.064 41.1669 201.297 40.8584 201.499 40.7556C201.704 40.6527 201.839 40.7081 201.835 40.6962Z" fill="#455A64"/>
<path d="M253.752 53.0512C253.752 53.0512 253.89 53.0631 254.151 53.0196C254.408 52.9721 254.791 52.8693 255.214 52.5845C255.629 52.3077 256.087 51.8331 256.297 51.1291C256.506 50.441 256.459 49.5313 255.933 48.7562C255.668 48.3725 255.309 48.0522 254.953 47.7081C254.597 47.368 254.222 46.9962 254.04 46.5019C253.847 46.0075 253.941 45.438 254.147 44.912C254.348 44.3781 254.649 43.86 254.846 43.2707C255.23 42.0961 255.17 40.6881 254.534 39.47C253.906 38.2598 252.705 37.279 251.266 36.9508L251.31 37.0694C251.543 36.753 251.701 36.3773 251.764 35.9818C251.823 35.5863 251.804 35.179 251.713 34.7874C251.618 34.3959 251.46 34.0162 251.231 33.6761C251.001 33.336 250.717 33.0354 250.397 32.7783C249.433 32.0071 248.259 31.6274 247.129 31.3862C245.991 31.1489 244.849 31.0896 243.766 31.1805L243.845 31.2517C243.829 29.9031 243.011 28.6692 241.893 28.1352C241.339 27.8584 240.727 27.7398 240.142 27.7635C239.545 27.7793 239.004 28.0008 238.494 28.1669C238.237 28.246 237.977 28.3132 237.72 28.329C237.463 28.3488 237.206 28.3093 236.969 28.2341C236.487 28.0838 236.068 27.8109 235.657 27.5657C235.25 27.3166 234.831 27.0912 234.404 26.9646C233.977 26.8341 233.551 26.7748 233.144 26.7708C232.33 26.7668 231.606 26.9883 231.057 27.3008C230.5 27.6132 230.101 27.9968 229.82 28.3369C229.54 28.681 229.378 28.9816 229.279 29.1873C229.18 29.3969 229.148 29.5116 229.148 29.5116C229.156 29.5155 229.196 29.4008 229.303 29.1991C229.409 28.9974 229.575 28.7008 229.86 28.3686C230.14 28.0364 230.543 27.6646 231.093 27.364C231.638 27.0635 232.349 26.8539 233.144 26.8657C233.543 26.8697 233.958 26.933 234.377 27.0635C234.795 27.19 235.199 27.4115 235.602 27.6646C236.009 27.9098 236.431 28.1906 236.937 28.3528C237.186 28.4319 237.459 28.4754 237.732 28.4556C238.004 28.4398 238.273 28.3725 238.538 28.2895C239.063 28.1234 239.585 27.9098 240.154 27.898C240.719 27.8782 241.308 27.9929 241.837 28.2618C242.908 28.7759 243.691 29.9664 243.707 31.2557V31.3348L243.786 31.3269C244.856 31.2399 245.983 31.2992 247.105 31.5365C248.219 31.7777 249.373 32.1534 250.306 32.9009C250.614 33.1501 250.891 33.4388 251.108 33.7631C251.325 34.0874 251.476 34.4512 251.57 34.823C251.661 35.1987 251.677 35.5863 251.622 35.9581C251.563 36.3298 251.416 36.6818 251.199 36.9784L251.132 37.0694L251.242 37.0931C252.633 37.4095 253.807 38.3587 254.42 39.5333C255.04 40.7119 255.099 42.0842 254.732 43.2272C254.546 43.8007 254.246 44.3188 254.044 44.8685C253.835 45.4064 253.736 46.0154 253.945 46.5414C254.143 47.0674 254.538 47.4471 254.894 47.7872C255.257 48.1273 255.613 48.4437 255.87 48.8115C256.384 49.5511 256.439 50.437 256.241 51.1054C256.048 51.7896 255.605 52.2602 255.202 52.541C254.795 52.8258 254.416 52.9365 254.167 52.9919C253.89 53.0433 253.752 53.0433 253.752 53.0512Z" fill="#263238"/>
<path d="M200.137 37.2237C200.141 37.2237 200.145 37.1921 200.153 37.1288C200.161 37.0576 200.172 36.9666 200.184 36.848C200.212 36.5909 200.251 36.231 200.303 35.7683C200.362 35.3016 200.437 34.7282 200.575 34.0756C200.714 33.423 200.915 32.6835 201.275 31.9281C201.635 31.1727 202.156 30.3975 202.907 29.7647C203.282 29.4523 203.721 29.1834 204.203 28.9975C204.689 28.8116 205.223 28.7127 205.768 28.5783C206.309 28.4517 206.871 28.25 207.361 27.9059C207.847 27.5658 208.266 27.1229 208.657 26.6601C209.052 26.1974 209.431 25.711 209.87 25.272C210.305 24.829 210.814 24.4533 211.391 24.1883C212.549 23.6504 213.818 23.512 215.019 23.4843C216.228 23.4685 217.394 23.5397 218.496 23.69C220.702 23.9787 222.626 24.6194 224.124 25.3708C225.629 26.1262 226.684 27.0121 227.348 27.6726C227.51 27.8427 227.664 27.985 227.783 28.1195C227.898 28.254 227.996 28.3726 228.079 28.4675C228.154 28.5545 228.218 28.6257 228.265 28.6811C228.309 28.7286 228.328 28.7523 228.332 28.7523C228.336 28.7523 228.316 28.7246 228.277 28.6732C228.233 28.6178 228.174 28.5427 228.103 28.4517C228.024 28.3528 227.929 28.2302 227.819 28.0918C227.7 27.9534 227.554 27.8071 227.392 27.633C226.736 26.9568 225.681 26.0511 224.171 25.2759C222.666 24.5047 220.729 23.8482 218.512 23.5516C217.406 23.3973 216.232 23.3222 215.015 23.338C213.802 23.3657 212.514 23.5002 211.324 24.0538C210.731 24.3228 210.202 24.7143 209.759 25.1691C209.313 25.616 208.933 26.1104 208.538 26.5692C208.147 27.0279 207.74 27.463 207.27 27.7952C206.799 28.1274 206.266 28.3212 205.729 28.4517C205.191 28.5862 204.654 28.689 204.152 28.8828C203.654 29.0805 203.207 29.3574 202.82 29.6817C202.053 30.3343 201.528 31.1292 201.168 31.8964C200.809 32.6677 200.615 33.4151 200.481 34.0756C200.35 34.7361 200.283 35.3095 200.232 35.7802C200.184 36.2508 200.157 36.6147 200.141 36.8638C200.133 36.9825 200.129 37.0734 200.125 37.1446C200.133 37.1881 200.133 37.2198 200.137 37.2237Z" fill="#263238"/>
<path d="M221.996 58.1372C221.956 57.4649 221.529 56.8163 220.913 56.5513C220.292 56.2863 219.506 56.4405 219.063 56.9507C218.644 57.4372 218.601 58.2123 218.969 58.7304C219.134 59.0033 219.387 59.2287 219.68 59.3593C220.055 59.5293 220.486 59.5649 220.893 59.4898C221.225 59.4265 221.561 59.2841 221.766 59.0152C221.956 58.766 222.015 58.4417 221.996 58.1372Z" fill="#5B342F"/>
<path d="M221.364 55.701C221.174 55.705 221.277 56.9587 220.281 57.9356C219.285 58.9164 217.942 58.8847 217.946 59.0627C217.934 59.1418 218.262 59.2802 218.827 59.2486C219.38 59.2209 220.174 58.9757 220.783 58.3785C221.392 57.7774 221.613 57.0299 221.613 56.5118C221.613 55.9858 221.451 55.6852 221.364 55.701Z" fill="#263238"/>
<path d="M243.222 76.488L233.509 72.802C233.509 72.802 226.025 77.2552 220.251 76.3337C215.778 75.6179 215.41 73.3161 215.41 73.3161L210.028 74.1823C210.028 74.1823 201.88 80.961 200.177 87.8505C199.173 91.9201 198.928 97.2473 198.928 101.926C198.928 103.797 201.311 111.192 201.311 111.192L202.235 121.902L197.734 139.747H244.704V90.3737L243.222 76.488Z" fill="#E26055"/>
<path d="M190.653 105.944L183.836 88.8511L203.405 75.2027L210.032 74.1824L208.309 98.3746L190.653 105.944Z" fill="#E26055"/>
<path d="M200.877 109.191C200.869 109.195 200.829 109.112 200.754 108.954C200.683 108.796 200.565 108.562 200.442 108.254C200.185 107.641 199.861 106.731 199.569 105.576C198.964 103.271 198.636 99.9525 198.968 96.3298C199.3 92.7071 200.082 89.4997 200.667 87.2019C200.964 86.051 201.221 85.1255 201.402 84.4848C201.489 84.1842 201.56 83.939 201.616 83.7492C201.667 83.5831 201.699 83.4961 201.703 83.4961C201.711 83.4961 201.691 83.5871 201.655 83.7571C201.612 83.947 201.552 84.1961 201.477 84.5006C201.311 85.169 201.086 86.0945 200.806 87.2295C200.256 89.5352 199.498 92.7348 199.17 96.3417C198.838 99.9446 199.146 103.235 199.707 105.537C199.98 106.688 200.28 107.601 200.513 108.222C200.62 108.535 200.727 108.772 200.786 108.934C200.853 109.1 200.881 109.187 200.877 109.191Z" fill="#263238"/>
<g opacity="0.3">
<path d="M198.637 99.735L199.064 99.4265C199.04 94.2337 199.906 88.7364 201.609 83.8323C198.436 88.5426 197.084 94.471 198.637 99.735Z" fill="black"/>
</g>
<path opacity="0.3" d="M212.109 97.3741C212.109 97.3741 218.847 122.334 222.601 126.909C226.355 131.485 228.406 132.854 234.195 133.312C239.989 133.771 242.134 127.072 243.419 124.457C244.703 121.843 244.47 117.92 244.47 117.92L236.582 113.506L230.339 123.805L214.255 96.9312L212.109 97.3741Z" fill="black"/>
<path d="M213.156 100.625C213.156 100.625 220.016 116.603 224.936 125.762C229.101 133.518 237.598 132.656 240.297 128.345C242.992 124.03 247.505 111.113 247.505 111.113L233.172 108.594L231.575 113.138L220.708 99.2683L213.156 100.625Z" fill="#824E44"/>
<path d="M224.887 98.3232L223.832 93.5457C223.832 93.5457 223.35 92.2248 222.564 93.3915C221.777 94.5582 222.145 96.7611 222.145 96.7611C222.145 96.7611 220.663 85.3946 219.355 84.1567C218.877 83.7059 218.225 84.3268 218.225 84.3268C218.225 84.3268 218.071 82.1041 217.375 82.12C216.68 82.1358 216.02 83.7889 216.02 83.7889C216.02 83.7889 215.154 83.3183 214.475 84.1409C213.866 84.8805 213.862 91.0581 213.862 91.0581C213.862 91.0581 213.281 85.9681 212.372 85.6477C210.914 85.1336 210.914 87.0715 210.914 87.0715L211.341 93.696C211.341 93.696 212.139 98.2165 213.143 101.06C214.147 103.904 214.731 103.931 214.731 103.931L221.275 103.757C221.275 103.757 222.749 102.405 223.915 101.361C224.761 100.597 225.132 99.4385 224.887 98.3232Z" fill="#824E44"/>
<path d="M235.987 119.577C235.979 119.581 235.944 119.51 235.876 119.379C235.801 119.225 235.71 119.035 235.596 118.798C235.45 118.545 235.28 118.252 235.086 117.912C234.877 117.572 234.624 117.196 234.351 116.773C233.221 115.116 231.51 112.925 229.562 110.556C227.613 108.187 225.815 106.067 224.555 104.497C223.922 103.714 223.425 103.069 223.089 102.614C222.938 102.401 222.812 102.223 222.713 102.084C222.63 101.962 222.587 101.895 222.595 101.891C222.599 101.887 222.654 101.946 222.749 102.061C222.855 102.195 222.99 102.361 223.152 102.567C223.508 103.002 224.021 103.635 224.665 104.406C225.954 105.948 227.767 108.056 229.72 110.425C231.668 112.798 233.367 115.005 234.47 116.694C234.734 117.121 234.983 117.509 235.181 117.853C235.371 118.205 235.537 118.509 235.663 118.762C235.762 119.007 235.845 119.205 235.908 119.363C235.967 119.502 235.991 119.573 235.987 119.577Z" fill="#5B342F"/>
<path d="M241.602 76.0649C241.602 76.0649 249.427 77.6627 251.395 86.5296C253.205 94.6807 252.644 112.019 252.644 112.019L231.336 108.266L236.521 78.6633L241.602 76.0649Z" fill="#E26055"/>
<path d="M234.364 90.2039C234.368 90.2039 234.364 90.2355 234.36 90.2988C234.352 90.3739 234.34 90.4609 234.325 90.5717C234.285 90.8287 234.234 91.1768 234.167 91.6197C234.02 92.5452 233.811 93.8582 233.554 95.4797C233.013 98.7544 232.27 103.263 231.444 108.278L231.361 108.159C231.582 108.199 231.819 108.242 232.056 108.282C237.213 109.215 241.884 110.058 245.283 110.671C246.958 110.983 248.322 111.24 249.286 111.418C249.744 111.509 250.108 111.58 250.373 111.632C250.487 111.655 250.578 111.675 250.653 111.691C250.716 111.707 250.748 111.715 250.748 111.719C250.748 111.723 250.712 111.719 250.649 111.711C250.574 111.699 250.479 111.687 250.365 111.671C250.1 111.628 249.732 111.568 249.27 111.497C248.306 111.331 246.939 111.102 245.255 110.813C241.853 110.216 237.182 109.393 232.021 108.483C231.784 108.44 231.543 108.4 231.325 108.361L231.227 108.341L231.242 108.242C232.096 103.231 232.859 98.7267 233.416 95.452C233.7 93.8384 233.93 92.5293 234.092 91.6039C234.175 91.1649 234.238 90.8169 234.285 90.5638C234.309 90.453 234.325 90.366 234.341 90.2948C234.352 90.2355 234.36 90.2039 234.364 90.2039Z" fill="#263238"/>
<path d="M235.556 87.3603C235.544 87.3563 235.6 87.1744 235.718 86.8501C235.837 86.5298 236.015 86.0631 236.256 85.5015C236.746 84.3862 237.469 82.8003 238.816 81.4516C239.484 80.7754 240.255 80.281 240.994 79.933C241.737 79.5889 242.452 79.3872 243.057 79.2725C243.661 79.1578 244.163 79.1262 244.507 79.1222C244.851 79.1182 245.04 79.1341 245.04 79.1459C245.044 79.1894 244.278 79.1578 243.088 79.4149C241.911 79.668 240.275 80.2731 238.963 81.594C237.651 82.9071 236.912 84.4613 236.39 85.5568C236.153 86.0868 235.951 86.5298 235.793 86.8778C235.651 87.1942 235.568 87.3642 235.556 87.3603Z" fill="#263238"/>
<path d="M215.897 92.0546C215.869 92.0546 215.83 91.5919 215.79 90.8444C215.751 90.0969 215.707 89.0607 215.703 87.9178C215.699 86.7709 215.743 85.7347 215.822 84.9872C215.897 84.2397 215.996 83.7849 216.02 83.7888C216.051 83.7928 216.004 84.2555 215.968 84.999C215.929 85.7465 215.905 86.7788 215.909 87.9178C215.921 89.0252 215.929 90.0297 215.937 90.8405C215.94 91.5879 215.929 92.0507 215.897 92.0546Z" fill="#5B342F"/>
<path d="M218.059 84.4019C218.087 84.4019 218.102 84.7816 218.122 85.3906C218.142 85.9997 218.166 86.8421 218.213 87.7715C218.261 88.7009 218.324 89.5393 218.367 90.1484C218.411 90.7574 218.434 91.1332 218.407 91.1371C218.379 91.1411 218.304 90.7693 218.225 90.1642C218.142 89.5591 218.059 88.7167 218.012 87.7833C217.964 86.85 217.96 86.0036 217.98 85.3946C217.996 84.7776 218.031 84.3979 218.059 84.4019Z" fill="#5B342F"/>
<path d="M70.9979 38.5843C70.4684 35.0644 69.599 31.2163 67.2794 28.519C65.6039 26.5732 63.9599 25.0822 61.7667 23.7533C59.4194 22.3335 57.3527 21.8668 54.8315 21.5979L53.1797 23.0612C58.4631 24.3426 63.055 28.0128 65.754 32.7349C68.453 37.4571 69.3027 43.1482 68.4254 48.515C67.8484 52.031 66.576 55.3847 65.6039 58.8136C64.6317 62.2426 63.9639 65.8573 64.6357 69.3574C67.5402 68.2263 66.7182 70.1366 67.9433 67.2692C69.1683 64.4019 69.8045 58.0938 70.5158 55.0565C71.6934 50.0575 71.7211 43.4093 70.9979 38.5843Z" fill="#E26055"/>
<path d="M68.1574 30.7455C63.7038 23.8204 53.3108 21.6847 53.3108 21.6847C38.0967 20.5971 35.3779 32.2958 33.8447 42.9543C32.8884 49.5827 36.4014 70.2827 36.4014 70.2827L40.1279 71.6314L64.6087 71.6234C64.5969 71.1765 66.3396 67.4273 66.7664 66.2052C69.0228 55.1235 70.7773 34.819 68.1574 30.7455Z" fill="#263238"/>
<path d="M55.473 25.6555L54.5206 24.7458L44.2343 28.8946C42.7445 28.9776 41.5669 30.1839 41.5234 31.6749L41.6143 65.2165C41.6025 67.4906 42.0569 69.4601 43.4282 71.2754L44.8745 73.1856C48.1702 77.536 54.9434 77.1801 57.5516 72.3828C57.7333 72.0466 57.8598 71.754 57.9151 71.5167C57.9704 71.2161 58.0534 71.0223 58.0692 70.7652C58.3735 68.068 58.3933 65.7267 58.3933 65.7267C58.5751 62.7644 58.6383 61.5463 58.6383 61.574C58.6383 61.574 64.9373 60.8503 66.6405 52.7545C67.4862 48.7284 67.3281 43.1916 67.091 37.7417C66.759 30.2036 61.5309 25.6476 55.473 25.6555Z" fill="#FFBF9D"/>
<path d="M53.614 42.7765C53.6061 43.3301 53.1319 43.781 52.5549 43.781C51.978 43.785 51.5156 43.338 51.5235 42.7844C51.5314 42.2307 52.0056 41.7798 52.5826 41.7798C53.1595 41.7759 53.6219 42.2228 53.614 42.7765Z" fill="#263238"/>
<path d="M63.9734 43.1283C63.9655 43.6819 63.4913 44.1328 62.9143 44.1328C62.3374 44.1368 61.875 43.6899 61.8829 43.1362C61.8908 42.5825 62.365 42.1316 62.942 42.1316C63.5189 42.1277 63.9813 42.5746 63.9734 43.1283Z" fill="#263238"/>
<path d="M66.012 39.9011C65.8737 40.0316 65.111 39.4068 63.9887 39.3514C62.8665 39.2802 62.0089 39.8181 61.8943 39.6757C61.839 39.6124 61.9813 39.3712 62.3527 39.1299C62.7202 38.8887 63.3367 38.6632 64.0362 38.7028C64.7356 38.7423 65.3126 39.031 65.6406 39.3118C65.9765 39.5926 66.0792 39.8457 66.012 39.9011Z" fill="#263238"/>
<path d="M54.5948 40.0197C54.4447 40.1344 53.7492 39.4344 52.6387 39.2643C51.5283 39.0785 50.6234 39.5254 50.5246 39.3711C50.4732 39.2999 50.6431 39.0785 51.0383 38.8728C51.4295 38.6671 52.0657 38.5089 52.7573 38.6197C53.4488 38.7304 53.9942 39.0745 54.2905 39.3909C54.5869 39.7073 54.666 39.9683 54.5948 40.0197Z" fill="#263238"/>
<path d="M58.5273 48.2143C58.5234 48.151 59.2308 48.064 60.3728 47.977C60.6613 47.9612 60.9379 47.9177 60.9932 47.7239C61.0723 47.5183 60.9656 47.2019 60.8431 46.8617C60.6059 46.1538 60.3609 45.4103 60.1041 44.6312C59.0806 41.4554 58.3535 38.8491 58.4839 38.8095C58.6103 38.77 59.5469 41.313 60.5704 44.4888C60.8154 45.2719 61.0525 46.0193 61.2738 46.7312C61.3647 47.0634 61.5346 47.4431 61.3647 47.8663C61.2777 48.0759 61.0564 48.2222 60.8707 48.2618C60.685 48.3092 60.523 48.3053 60.3807 48.3053C59.2347 48.3092 58.5273 48.2776 58.5273 48.2143Z" fill="#263238"/>
<path d="M58.6395 61.578C58.6395 61.578 53.1388 61.6571 47.8672 58.1174C47.8672 58.1174 50.3291 63.9035 58.5249 63.5475L58.6395 61.578Z" fill="#FF9A6C"/>
<path d="M57.9148 50.9037C57.5354 50.35 56.8438 50.0178 56.1365 50.0574C55.6465 50.0851 55.1407 50.2947 54.8245 50.6783C54.5084 51.0619 54.4175 51.6235 54.6664 52.0151C54.947 52.458 55.5793 52.5885 56.1246 52.462C56.67 52.3354 57.1481 52.0072 57.6065 51.6749C57.733 51.584 57.8634 51.4891 57.9464 51.3585C58.0294 51.228 58.0531 51.054 57.9661 50.9393" fill="#FF9A6C"/>
<path d="M55.1794 48.8275C55.3612 48.8275 55.3059 50.0496 56.3057 50.9671C57.3055 51.8886 58.6135 51.8174 58.6135 51.9875C58.6253 52.0666 58.3131 52.2089 57.7599 52.1971C57.2185 52.1892 56.44 51.9756 55.8275 51.414C55.215 50.8485 54.9779 50.1247 54.9621 49.6224C54.9463 49.1122 55.0965 48.8156 55.1794 48.8275Z" fill="#263238"/>
<path d="M55.6739 35.6297C55.5158 35.9145 54.4291 35.6021 53.0974 35.5586C51.7656 35.4874 50.6552 35.7088 50.5248 35.4122C50.4655 35.2699 50.6947 35.0128 51.165 34.7874C51.6313 34.558 52.3466 34.3839 53.1448 34.4156C53.943 34.4512 54.6425 34.6845 55.089 34.9535C55.5356 35.2184 55.7411 35.4913 55.6739 35.6297Z" fill="#263238"/>
<path d="M65.8526 35.0642C65.6431 35.3094 64.8804 35.0049 63.9478 34.9455C63.0192 34.8546 62.217 35.0325 62.051 34.7557C61.9759 34.6212 62.1142 34.3721 62.4739 34.1466C62.8256 33.9212 63.4025 33.7551 64.0427 33.8065C64.6829 33.8579 65.2242 34.119 65.5364 34.3958C65.8526 34.6766 65.9474 34.9455 65.8526 35.0642Z" fill="#263238"/>
<path d="M41.7294 45.9916C41.7294 45.9916 47.491 47.7871 50.7511 33.5534C51.8655 28.6849 56.3744 24.7458 56.3744 24.7458L54.5448 24.196C54.5448 24.196 43.1836 27.3995 42.99 27.5419C42.8003 27.6843 40.125 33.4229 40.125 33.4229L41.7294 45.9916Z" fill="#263238"/>
<path d="M43.155 45.4617C43.1826 44.8526 42.5543 43.3854 41.9576 43.2628C40.369 42.9345 37.4764 42.9147 37.2472 46.9843C36.931 52.5449 42.5741 51.7144 42.5938 51.5562C42.6096 51.4336 43.0522 47.5618 43.155 45.4617Z" fill="#FFBF9D"/>
<path d="M41.0088 49.3533C40.9851 49.3335 40.91 49.4166 40.74 49.4799C40.578 49.5431 40.2975 49.5787 40.0169 49.4522C39.4439 49.203 39.0013 48.242 39.029 47.2374C39.0448 46.7312 39.1752 46.2527 39.3767 45.8651C39.5703 45.4696 39.847 45.1967 40.1473 45.1651C40.4437 45.1136 40.6452 45.3035 40.7045 45.4617C40.7717 45.6199 40.7282 45.7306 40.7559 45.7425C40.7717 45.7583 40.8784 45.6555 40.8467 45.4261C40.8309 45.3153 40.7717 45.1809 40.6492 45.0662C40.5227 44.9515 40.3291 44.8843 40.1236 44.8961C39.6928 44.9001 39.2858 45.2758 39.0645 45.7029C38.8195 46.1301 38.6575 46.664 38.6417 47.2335C38.614 48.3567 39.1277 49.4364 39.9181 49.7172C40.3014 49.8398 40.6373 49.7409 40.8112 49.6183C40.993 49.4878 41.0285 49.3652 41.0088 49.3533Z" fill="#FF9A6C"/>
<path d="M45.6407 43.2706C45.6367 43.2509 45.9489 43.2509 46.4745 43.1006C46.9961 42.9543 47.7311 42.6102 48.4543 41.9497C48.8139 41.6214 49.1656 41.2141 49.4857 40.7395C49.8018 40.261 50.0824 39.7152 50.3234 39.114C50.8134 37.9157 51.1296 36.5196 51.5208 35.0682C51.912 33.6167 52.3349 32.2483 52.7972 31.0302C53.2556 29.8121 53.7654 28.7482 54.2435 27.89C54.7256 27.0318 55.1801 26.3713 55.516 25.9363C55.682 25.7148 55.8242 25.5566 55.9151 25.4419C56.0099 25.3312 56.0613 25.2758 56.0653 25.2797C56.0692 25.2837 56.0258 25.347 55.9388 25.4617C55.8558 25.5803 55.7215 25.7464 55.5634 25.9718C55.2433 26.4188 54.8047 27.0792 54.3344 27.9414C53.8681 28.8036 53.3702 29.8635 52.9237 31.0816C52.4692 32.2958 52.0503 33.6642 51.6591 35.1117C51.2718 36.5552 50.9518 37.9592 50.4459 39.1694C50.197 39.7745 49.9085 40.3282 49.5805 40.8107C49.2486 41.2892 48.885 41.7005 48.5175 42.0288C47.7746 42.6893 47.0198 43.0254 46.4824 43.156C45.9528 43.2904 45.6407 43.2706 45.6407 43.2706Z" fill="#263238"/>
<path d="M37.0405 66.4624C37.0405 66.4624 37.1551 65.7742 37.163 64.5205C37.1749 63.2628 37.0168 61.4475 36.6256 59.2407C36.428 58.1373 36.2107 56.9271 35.9775 55.6338C35.7523 54.3366 35.5547 52.9445 35.4796 51.4653C35.4124 49.9941 35.4559 48.428 35.8155 46.8618C35.9933 46.0827 36.2502 45.3036 36.598 44.5521C36.9418 43.8007 37.3962 43.0888 37.9139 42.4165C38.9571 41.0679 40.2059 39.9526 41.4111 38.8887C42.6283 37.8327 43.794 36.7966 44.8333 35.7366C46.9198 33.6247 48.5716 31.5088 49.8283 29.654C51.0928 27.7991 51.9661 26.2013 52.5352 25.0861C52.8197 24.5284 53.0292 24.0894 53.1635 23.7888C53.2307 23.6425 53.2821 23.5318 53.3176 23.4487C53.3532 23.3696 53.369 23.3301 53.365 23.3301C53.3611 23.3301 53.3413 23.3657 53.3018 23.4408C53.2623 23.5239 53.203 23.6346 53.1319 23.777C52.9896 24.0736 52.7683 24.5086 52.4759 25.0623C51.8911 26.1697 51.0059 27.7517 49.7334 29.5947C48.4649 31.4377 46.8131 33.5417 44.7266 35.6417C43.6913 36.6977 42.5255 37.726 41.3084 38.7819C40.0992 39.8418 38.8425 40.965 37.7874 42.3295C37.2618 43.0097 36.8034 43.7335 36.4557 44.4968C36.104 45.2561 35.8471 46.0471 35.6653 46.8381C35.3057 48.424 35.2623 49.9981 35.3334 51.4812C35.4124 52.9642 35.6179 54.3643 35.8471 55.6615C36.0882 56.9587 36.3095 58.165 36.515 59.2684C36.922 61.4713 37.0959 63.2787 37.0998 64.5324C37.1077 65.1572 37.088 65.6437 37.0643 65.972C37.0524 66.1302 37.0445 66.2567 37.0405 66.3477C37.0366 66.4189 37.0366 66.4624 37.0405 66.4624Z" fill="#455A64"/>
<path d="M35.2515 66.9843C35.2515 66.9843 35.3661 66.2962 35.374 65.0425C35.3858 63.7848 35.2278 61.9695 34.8366 59.7627C34.639 58.6593 34.4216 57.4491 34.1885 56.1558C33.9632 54.8586 33.7656 53.4664 33.6906 51.9873C33.6234 50.5161 33.6668 48.9499 34.0265 47.3838C34.2043 46.6047 34.4611 45.8256 34.8089 45.0741C35.1527 44.3227 35.6071 43.6108 36.1248 42.9385C37.1681 41.5898 38.4168 40.4746 39.6221 39.4107C40.8392 38.3547 42.0049 37.3185 43.0442 36.2586C45.1308 34.1467 46.7826 32.0308 48.0392 30.176C49.3038 28.3211 50.1771 26.7233 50.7461 25.608C51.0307 25.0504 51.2401 24.6114 51.3744 24.3108C51.4416 24.1645 51.493 24.0538 51.5286 23.9707C51.5641 23.8916 51.5799 23.8521 51.576 23.8521C51.572 23.8521 51.5523 23.8876 51.5128 23.9628C51.4732 24.0458 51.414 24.1566 51.3428 24.299C51.2006 24.5956 50.9793 25.0306 50.6868 25.5843C50.102 26.6917 49.2168 28.2736 47.9444 30.1166C46.6759 31.9596 45.0241 34.0636 42.9376 36.1637C41.9022 37.2197 40.7365 38.2479 39.5193 39.3039C38.3101 40.3638 37.0535 41.487 35.9984 42.8515C35.4728 43.5317 35.0144 44.2555 34.6666 45.0188C34.3149 45.7781 34.0581 46.5691 33.8763 47.3601C33.5167 48.946 33.4732 50.52 33.5443 52.0031C33.6234 53.4862 33.8289 54.8863 34.0581 56.1835C34.2991 57.4807 34.5204 58.6869 34.7259 59.7904C35.1329 61.9932 35.3068 63.8006 35.3108 65.0544C35.3187 65.6792 35.2989 66.1657 35.2752 66.4939C35.2633 66.6521 35.2554 66.7787 35.2515 66.8697C35.2515 66.9408 35.2515 66.9843 35.2515 66.9843Z" fill="#455A64"/>
<path d="M27.2145 139.703C27.2145 139.703 26.6968 135.076 29.6527 127.34C32.0751 121.005 34.9204 117.504 34.9204 117.504L73.2361 114.977L76.192 139.703H27.2145Z" fill="#263238"/>
<path d="M72.8033 100.597C73.3645 92.0545 72.8033 79.1101 72.8033 79.1101L66.4727 68.4832L58.1385 67.1742C58.1385 67.1742 58.1188 73.0116 53.76 73.9766C46.3032 75.6258 41.4426 66.6521 41.4426 66.6521C40.7392 66.6521 30.1288 68.8827 26.7659 72.0862C23.3121 75.3766 17.594 84.1051 15.9817 86.6046C15.9817 86.6046 4.81025 102.931 3.17424 107.407C1.93736 110.793 3.0873 113.387 3.72353 114.455C4.06337 115.464 14.405 130.306 22.4032 136.231L23.0276 135.048L27.1809 127.922L16.4204 110.227L28.8999 97.0693L31.3539 94.7636L32.0573 97.8722L35.0843 112.474C35.0843 112.474 29.054 124.54 28.2083 130.813C28.2083 130.813 57.858 141.04 76.1544 135.99C76.1544 135.99 72.2422 109.14 72.8033 100.597Z" fill="#EBEBEB"/>
<path d="M41.6202 124.722C41.6202 124.722 36.6015 123.366 36.0957 123.65C35.5899 123.935 31.8437 125.913 31.8437 125.913C31.8437 125.913 30.6937 127.324 30.0772 127.831C30.0772 127.831 28.7929 129.053 27.9038 129.092C27.0147 129.132 26.493 128.942 26.493 128.942L23.0234 135.052C23.0234 135.052 25.0823 137.014 26.173 136.998C27.2636 136.978 33.3097 134.435 33.3097 134.435L34.7719 134.115C34.7719 134.115 40.2568 134.91 40.7073 133.257L40.7587 132.786L35.3686 131.73L33.3176 131.849L36.9493 130.912C36.9493 130.912 42.0865 131.161 42.5686 131.078C43.0546 130.995 43.6711 130.31 43.513 129.887L42.454 129.638C42.454 129.638 43.6988 128.962 43.7383 128.218L38.9883 126.933C38.9883 126.929 42.0509 125.786 41.6202 124.722Z" fill="#FFBF9D"/>
<path d="M43.0112 129.618C43.0033 129.634 42.8532 129.587 42.5766 129.508C42.2999 129.429 41.8969 129.318 41.3989 129.187C40.4031 128.926 39.0161 128.598 37.4828 128.258C37.2892 128.218 37.0995 128.163 36.9256 128.151C36.7478 128.135 36.566 128.147 36.3961 128.187C36.0562 128.282 35.7045 128.4 35.3884 128.507C34.7443 128.729 34.1752 128.946 33.705 129.152C33.2347 129.353 32.8633 129.543 32.6143 129.686C32.3614 129.824 32.231 129.915 32.2191 129.899C32.2112 129.891 32.3258 129.773 32.5669 129.611C32.8079 129.444 33.1715 129.231 33.6378 129.009C34.1041 128.784 34.6771 128.547 35.3212 128.317C35.6453 128.203 35.9772 128.084 36.3487 127.977C36.5383 127.93 36.7438 127.914 36.9454 127.934C37.1548 127.949 37.3405 128.005 37.5342 128.044C39.0714 128.384 40.4545 128.74 41.4464 129.037C41.9403 129.187 42.3395 129.322 42.6082 129.429C42.8729 129.531 43.0152 129.607 43.0112 129.618Z" fill="#FF9A6C"/>
<path d="M39.1103 127.162C39.0906 127.194 38.731 126.988 38.0987 126.795C37.4704 126.597 36.5536 126.447 35.5617 126.593C34.5698 126.739 33.7321 127.15 33.1907 127.518C32.6414 127.886 32.3569 128.191 32.3292 128.163C32.3095 128.147 32.5584 127.803 33.0998 127.388C33.6333 126.976 34.4947 126.522 35.5301 126.367C36.5654 126.213 37.5218 126.399 38.154 126.64C38.7863 126.882 39.1222 127.143 39.1103 127.162Z" fill="#FF9A6C"/>
<path d="M98.5586 88.9696L78.9977 74.3957L71.691 69.5865L66.2969 68.4871L68.5889 91.3109H73.655L95.4644 100.799L122.182 103.069L122.577 94.7793L98.5586 88.9696Z" fill="#EBEBEB"/>
<path d="M73.1564 110.603C73.1485 110.603 73.1406 110.488 73.1287 110.263C73.1168 110.022 73.105 109.697 73.0852 109.29C73.0536 108.448 73.0181 107.226 72.9904 105.715C72.9627 104.204 72.943 102.408 72.939 100.411C72.9311 98.414 72.9588 96.219 72.9232 93.9212C72.9114 89.3098 72.0499 85.2046 71.3662 82.274C71.0224 80.8067 70.7182 79.6203 70.5166 78.8016C70.4218 78.4061 70.3427 78.0897 70.2874 77.8564C70.236 77.6389 70.2123 77.5242 70.2202 77.5242C70.2281 77.5242 70.2637 77.6349 70.3269 77.8445C70.3941 78.0739 70.4811 78.3863 70.5957 78.7779C70.8209 79.5926 71.1449 80.7711 71.5085 82.2345C72.2317 85.1571 73.1208 89.2821 73.1327 93.9133C73.1682 96.219 73.1366 98.414 73.1327 100.407C73.1247 102.405 73.1287 104.2 73.1366 105.711C73.1485 107.206 73.1603 108.42 73.1643 109.286C73.1643 109.693 73.1682 110.018 73.1682 110.259C73.1682 110.484 73.1643 110.603 73.1564 110.603Z" fill="#263238"/>
<g opacity="0.3">
<path d="M73.0366 91.7421C74.6726 85.8532 73.0247 79.1576 68.8359 74.7043C71.0528 80.0237 72.4873 85.6713 73.084 91.402" fill="black"/>
</g>
<path d="M56.9123 21.8627C44.662 22.9622 44.1799 37.9474 42.5518 49.7686C40.2243 66.6561 52.5733 70.2827 52.5733 70.2827L37.2368 67.4075C37.2368 67.4075 28.8473 64.0063 28.9066 54.6885C28.9658 45.3668 30.4319 33.9569 40.1966 25.2877C48.6256 17.7971 56.1417 21.3525 56.9123 21.8627Z" fill="#E26055"/>
<path d="M68.8344 66.6562C67.9097 65.8217 68.2693 65.4974 65.6216 65.2562C62.6302 64.9793 59.291 66.8974 56.3153 67.2929C53.3397 67.6884 50.1586 67.2929 47.6611 65.6279C44.7329 63.6742 43.1324 60.3046 41.6743 57.0972L34.4822 63.0177C33.0872 64.1686 32.2534 65.8929 32.3245 67.7003C32.3403 68.1037 32.3917 68.428 32.4945 68.5862C32.9133 69.219 35.9996 67.728 36.624 68.163C39.9197 70.4687 41.3226 74.131 44.3417 76.7887C47.8705 79.8973 51.1347 82.3612 53.6203 82.2781C56.0585 82.1951 60.6938 79.5571 62.3377 76.5079C63.8592 73.688 65.1869 71.6315 66.3803 69.48C67.0126 68.3449 69.2058 69.9427 69.4666 68.5901C69.601 67.8901 69.3639 67.1347 68.8344 66.6562Z" fill="#E26055"/>
<path d="M28.9004 84.2634C28.9083 84.2634 28.936 84.3583 28.9874 84.5442C29.0427 84.7499 29.1138 85.0188 29.2008 85.3589C29.3825 86.0906 29.6354 87.111 29.9437 88.3647C30.5562 90.9037 31.3821 94.4196 32.2554 98.3113C33.1288 102.203 33.8835 105.739 34.3815 108.301C34.6304 109.583 34.8161 110.627 34.9347 111.347C34.9821 111.695 35.0216 111.972 35.0532 112.181C35.077 112.371 35.0888 112.474 35.0809 112.474C35.073 112.474 35.0493 112.375 35.0137 112.189C34.9742 111.979 34.9228 111.707 34.8557 111.362C34.7055 110.623 34.4961 109.595 34.2392 108.329C33.7018 105.77 32.9272 102.246 32.0539 98.3548C31.1766 94.475 30.3823 90.9631 29.8014 88.3963C29.5169 87.1386 29.2877 86.1104 29.1217 85.3748C29.0466 85.0346 28.9874 84.7578 28.9439 84.5521C28.9083 84.3663 28.8925 84.2674 28.9004 84.2634Z" fill="#263238"/>
<path d="M68.8377 68.2065C68.8377 68.2105 68.814 68.2263 68.7587 68.2619C68.6915 68.3014 68.6125 68.3449 68.5137 68.4042C68.2924 68.5189 67.9842 68.7285 67.5455 68.9105C66.692 69.3336 65.3918 69.8082 63.7361 70.1879C62.0764 70.5715 60.057 70.8049 57.8125 70.8602C55.5679 70.9314 53.0981 70.8128 50.5176 70.6467C49.2254 70.5636 47.9648 70.4371 46.7556 70.2472C45.5464 70.0534 44.3925 69.8122 43.3018 69.5314C41.1284 68.954 39.2276 68.2342 37.7022 67.4788C36.1769 66.7274 35.0032 65.9996 34.2326 65.446C33.8375 65.1849 33.5569 64.9437 33.3553 64.7934C33.2645 64.7222 33.1933 64.6629 33.1341 64.6154C33.0827 64.5759 33.059 64.5522 33.0629 64.5482C33.0669 64.5442 33.0945 64.5601 33.1459 64.5957C33.2091 64.6392 33.2842 64.6906 33.3791 64.7539C33.5885 64.8923 33.877 65.1217 34.2761 65.3708C35.0585 65.9008 36.2361 66.6087 37.7615 67.3364C39.2869 68.0681 41.1797 68.772 43.3453 69.3376C44.428 69.6065 45.578 69.8478 46.7793 70.0376C47.9806 70.2235 49.2373 70.3461 50.5255 70.4292C53.106 70.5953 55.5639 70.7179 57.8006 70.6585C60.0373 70.6111 62.0447 70.3936 63.6966 70.0337C65.3484 69.6777 66.6485 69.2229 67.506 68.8274C67.9486 68.6534 68.2608 68.4557 68.486 68.3568C68.5888 68.3054 68.6718 68.2658 68.7429 68.2342C68.8061 68.2144 68.8377 68.2025 68.8377 68.2065Z" fill="#263238"/>
<path d="M45.328 69.8122C45.324 69.8162 45.3003 69.8004 45.2489 69.7648C45.1896 69.7213 45.1185 69.6698 45.0316 69.6066C44.83 69.4563 44.5534 69.2467 44.2057 68.9896C43.85 68.7207 43.4311 68.3647 42.9372 67.9613C42.6922 67.7596 42.4432 67.5263 42.1705 67.289C41.8979 67.0517 41.6173 66.7946 41.3328 66.5099C40.1868 65.3946 38.8709 63.9827 37.7604 62.1634C36.65 60.356 35.8439 58.074 35.7609 55.6062C35.67 53.1423 36.1639 50.8286 36.6935 48.7839C37.2349 46.7353 37.8237 44.92 38.3018 43.3934C38.7721 41.8787 39.1514 40.6487 39.4241 39.7747C39.5506 39.3594 39.6493 39.0311 39.7205 38.7899C39.7521 38.6871 39.7798 38.604 39.8035 38.5328C39.8232 38.4774 39.8351 38.4458 39.839 38.4458C39.843 38.4458 39.839 38.4774 39.8232 38.5368C39.8074 38.608 39.7837 38.695 39.76 38.7978C39.6968 39.043 39.6098 39.3752 39.4992 39.7944C39.2621 40.6566 38.9025 41.9024 38.4401 43.4329C37.9817 44.9675 37.4048 46.7828 36.8752 48.8274C36.3536 50.8682 35.8715 53.166 35.9624 55.5943C36.0414 58.0226 36.8278 60.269 37.9185 62.0606C39.0052 63.864 40.2974 65.2799 41.4276 66.3991C41.7082 66.6839 41.9809 66.9449 42.2496 67.1862C42.5143 67.4274 42.7633 67.6608 43.0004 67.8704C43.4865 68.2777 43.8935 68.6416 44.2412 68.9224C44.5771 69.1953 44.8458 69.4128 45.0395 69.571C45.1225 69.6422 45.1896 69.6975 45.245 69.745C45.3082 69.7885 45.3319 69.8083 45.328 69.8122Z" fill="#263238"/>
<path d="M56.906 21.8629C56.9099 21.9064 56.2697 21.938 55.2858 22.2228C54.7918 22.3533 54.2267 22.5866 53.6102 22.8674C53.0056 23.168 52.3615 23.5437 51.7174 23.9867C50.4331 24.8844 49.3977 25.8652 48.6746 26.593C47.9514 27.3246 47.5325 27.8071 47.5088 27.7834C47.4969 27.7755 47.5918 27.645 47.7696 27.4195C47.9474 27.1901 48.2201 26.8738 48.5679 26.4901C49.2673 25.7308 50.2948 24.7223 51.5988 23.8126C52.2509 23.3618 52.9068 22.9861 53.5273 22.6895C54.1556 22.4126 54.7365 22.1911 55.2462 22.0764C55.4952 22.0053 55.7284 21.9697 55.9338 21.9341C56.1354 21.8945 56.3132 21.8747 56.4594 21.8668C56.7439 21.855 56.906 21.851 56.906 21.8629Z" fill="#263238"/>
<g opacity="0.3">
<path d="M41.2521 34.6727C41.347 34.3089 41.4339 33.9253 41.4853 33.5416C41.5841 32.8218 40.5527 32.5766 40.2958 33.2529C39.4857 35.4004 38.6796 37.544 37.8695 39.6915C36.269 43.9352 34.6488 48.2856 34.5659 52.8179C34.4829 57.3542 35.9292 62.3967 39.7584 64.8211L38.644 62.8357C35.7553 58.8689 35.6723 53.4704 36.7788 48.689C37.8813 43.9075 40.0271 39.4226 41.2521 34.6727Z" fill="black"/>
</g>
<path d="M69.0524 69.2939C69.0327 69.2821 69.1473 69.116 69.2342 68.7679C69.3172 68.4278 69.3409 67.8899 69.1078 67.3046C68.8825 66.7193 68.349 66.13 67.5903 65.782C66.8395 65.4142 65.899 65.3034 64.9308 65.3825C63.9627 65.4656 63.0419 65.6673 62.216 65.8492C61.3861 66.039 60.6511 66.2447 60.0346 66.4306C59.4182 66.6165 58.9242 66.7826 58.5844 66.9012C58.2445 67.0159 58.0548 67.0792 58.0469 67.0673C58.043 67.0555 58.2208 66.9684 58.5567 66.83C58.8887 66.6916 59.3787 66.5018 59.9912 66.2961C60.6037 66.0905 61.3427 65.8729 62.1725 65.6712C63.0063 65.4774 63.9231 65.2678 64.915 65.1848C65.9029 65.1017 66.8869 65.2243 67.6733 65.6198C68.4636 65.9955 69.0248 66.6362 69.2421 67.2611C69.4753 67.886 69.42 68.4515 69.3133 68.7956C69.2579 68.9696 69.1947 69.1001 69.1433 69.1832C69.088 69.2583 69.0564 69.2979 69.0524 69.2939Z" fill="#263238"/>
<g opacity="0.3">
<path d="M64.9823 70.0139C60.2995 72.106 55.0398 72.8733 49.9539 72.2128C44.872 71.5523 40.6358 70.0811 36.6406 66.8618C36.6406 66.8618 43.0068 70.5399 52.89 70.619C61.1056 70.6902 64.9823 70.0139 64.9823 70.0139Z" fill="black"/>
</g>
</g>
<defs>
<clipPath id="clip0_8153_323">
<rect width="272" height="140" fill="white"/>
</clipPath>
</defs>
</svg>
