<svg width="273" height="132" viewBox="0 0 273 132" fill="none" xmlns="http://www.w3.org/2000/svg">
<g clip-path="url(#clip0_8153_1451)">
<path d="M273 131.899C273 131.953 211.883 132 136.506 132C61.1057 132 0 131.953 0 131.899C0 131.845 61.1057 131.798 136.506 131.798C211.883 131.798 273 131.845 273 131.899Z" fill="#263238"/>
<path d="M247.354 112.08C247.354 112.08 237.023 100.233 233.126 88.3858C229.229 76.5386 231.08 77.8977 231.08 77.8977C231.08 77.8977 236.341 89.407 240.339 94.9636C244.334 100.524 251.45 108.679 251.45 108.679L247.354 112.08Z" fill="#455A64"/>
<path d="M249.411 79.7459C249.076 79.1674 248.191 79.4664 248.289 80.1265C248.92 84.2891 250.28 94.0511 250.226 100.388C250.155 108.616 250.229 111.797 250.229 111.797H254.528C254.528 111.797 253.764 94.7888 252.794 89.6011C252.116 85.9666 250.67 81.9282 249.411 79.7459Z" fill="#455A64"/>
<path d="M251.75 110.41C251.75 110.41 254.455 104.741 255.289 97.6195C255.643 94.5908 255.012 90.4981 254.073 85.0346C253.617 82.3903 253.515 80.375 253.531 78.981C253.543 77.9248 254.938 77.5831 255.456 78.5034C255.974 79.4275 257.479 82.5767 257.857 84.5531C258.897 89.9467 260.078 92.6415 259.174 97.7593C258.274 102.877 254.942 110.756 254.942 110.756L251.75 110.41Z" fill="#455A64"/>
<path d="M255.629 110.76C255.629 110.76 266.969 86.4715 267.757 82.8719C268.544 79.2685 271.217 70.9665 271.529 71.4364C271.845 71.9062 272.316 76.2941 270.27 81.3071C268.228 86.3201 259.499 111.502 259.499 111.502H255.625" fill="#455A64"/>
<path d="M250.513 109.673C250.509 109.68 250.4 109.603 250.194 109.455C249.991 109.304 249.687 109.09 249.317 108.787C248.561 108.197 247.501 107.296 246.269 106.108C243.795 103.739 240.712 100.085 238.043 95.585C235.365 91.0846 233.565 86.6851 232.427 83.4621C231.858 81.8507 231.441 80.5305 231.172 79.6102C231.032 79.152 230.938 78.7947 230.872 78.5501C230.806 78.3055 230.775 78.1773 230.782 78.1773C230.79 78.1735 230.837 78.2977 230.919 78.5385C231.005 78.7986 231.118 79.1481 231.262 79.583C231.558 80.4916 231.998 81.8002 232.591 83.4039C233.768 86.6035 235.587 90.9797 238.253 95.4607C240.915 99.9418 243.958 103.596 246.394 105.984C247.606 107.188 248.646 108.1 249.383 108.714C249.745 109.028 250.042 109.253 250.233 109.416C250.416 109.576 250.517 109.665 250.513 109.673Z" fill="#263238"/>
<path d="M251.75 98.0195C251.734 98.0195 251.699 97.7671 251.649 97.305C251.594 96.8041 251.524 96.1479 251.438 95.3596C251.259 93.7171 250.978 91.4494 250.577 88.9604C250.176 86.4713 249.727 84.2308 249.381 82.6155C249.213 81.8389 249.073 81.1943 248.967 80.7011C248.87 80.2507 248.823 79.9983 248.839 79.9944C248.854 79.9905 248.932 80.2352 249.057 80.6817C249.186 81.1283 249.353 81.7767 249.548 82.5805C249.938 84.1881 250.413 86.4286 250.815 88.9254C251.216 91.4222 251.469 93.6938 251.606 95.3441C251.676 96.1673 251.719 96.8391 251.738 97.3011C251.762 97.7632 251.766 98.0195 251.75 98.0195Z" fill="#263238"/>
<path d="M254.412 78.3131C254.42 78.3092 254.467 78.4179 254.545 78.6199C254.631 78.849 254.744 79.1479 254.884 79.5207C255.036 79.9129 255.207 80.3944 255.371 80.9652C255.539 81.536 255.757 82.1767 255.92 82.9106C256.01 83.2756 256.104 83.6562 256.201 84.0522C256.295 84.4483 256.365 84.8715 256.45 85.3026C256.638 86.1646 256.751 87.1004 256.887 88.0828C257.109 90.0515 257.23 92.2299 257.16 94.5209C257.066 96.808 256.79 98.9747 256.427 100.924C256.221 101.895 256.037 102.819 255.792 103.665C255.675 104.089 255.578 104.504 255.453 104.896C255.328 105.285 255.207 105.657 255.09 106.015C254.872 106.733 254.611 107.358 254.401 107.913C254.194 108.473 253.988 108.942 253.812 109.319C253.645 109.68 253.512 109.972 253.407 110.193C253.313 110.391 253.259 110.496 253.251 110.492C253.243 110.488 253.282 110.379 253.364 110.173C253.454 109.948 253.574 109.649 253.726 109.28C253.89 108.896 254.085 108.422 254.276 107.863C254.471 107.304 254.724 106.675 254.931 105.956C255.04 105.599 255.157 105.226 255.277 104.838C255.394 104.45 255.488 104.034 255.601 103.611C255.839 102.765 256.01 101.844 256.213 100.877C256.563 98.9359 256.832 96.7808 256.922 94.5092C256.992 92.2338 256.879 90.067 256.673 88.1061C256.54 87.1276 256.435 86.1995 256.26 85.3375C256.178 84.9065 256.115 84.4871 256.026 84.0911C255.932 83.695 255.846 83.3144 255.761 82.9494C255.609 82.2194 255.402 81.5748 255.246 81.004C255.094 80.4293 254.935 79.944 254.802 79.5479C254.677 79.1674 254.58 78.8645 254.506 78.6315C254.436 78.4296 254.405 78.317 254.412 78.3131Z" fill="#263238"/>
<path d="M271.401 71.9217C271.405 71.9217 271.401 71.9605 271.394 72.0304C271.382 72.1158 271.362 72.2206 271.343 72.3449C271.292 72.6206 271.23 73.0322 271.121 73.5525C270.903 74.5971 270.536 76.0998 269.971 77.9248C269.406 79.7499 268.631 81.8894 267.711 84.2386C266.795 86.5918 265.731 89.1507 264.726 91.8766C263.705 94.5986 262.917 97.2546 262.177 99.666C261.444 102.077 260.747 104.244 260.076 106.034C259.41 107.824 258.771 109.234 258.284 110.189C258.05 110.67 257.843 111.028 257.707 111.276C257.645 111.389 257.59 111.478 257.547 111.556C257.512 111.618 257.489 111.649 257.485 111.645C257.481 111.641 257.497 111.61 257.524 111.544C257.563 111.467 257.606 111.369 257.66 111.257C257.781 111.004 257.976 110.639 258.194 110.15C258.65 109.187 259.266 107.774 259.909 105.98C260.56 104.19 261.238 102.023 261.959 99.6077C262.688 97.1963 263.471 94.5287 264.496 91.7989C265.505 89.0653 266.577 86.5063 267.5 84.161C268.428 81.8195 269.219 79.6916 269.804 77.8782C270.392 76.0649 270.778 74.5738 271.027 73.537C271.152 73.0206 271.23 72.6128 271.296 72.341C271.327 72.2168 271.351 72.1158 271.37 72.0304C271.386 71.9566 271.397 71.9178 271.401 71.9217Z" fill="#263238"/>
<path d="M236.425 66.5553C235.712 65.8486 234.524 66.5864 234.82 67.5494C235.12 68.5241 235.576 69.7822 236.246 71.1995C237.805 74.5 242.384 86.3472 244.531 92.8552C246.675 99.3593 249.695 111.498 249.695 111.498L254.274 110.756C254.274 110.756 250.085 90.8127 245.993 83.6252C242.7 77.855 239.411 69.5103 236.425 66.5553Z" fill="#455A64"/>
<path d="M245.776 96.9246C245.792 96.9207 245.874 97.1149 246.014 97.4721C246.15 97.8294 246.333 98.3536 246.54 99.002C246.961 100.303 247.479 102.12 247.998 104.139C248.516 106.158 248.948 107.995 249.248 109.331C249.385 109.96 249.502 110.492 249.591 110.911C249.669 111.284 249.701 111.494 249.685 111.498C249.669 111.502 249.603 111.3 249.498 110.931C249.385 110.515 249.245 109.991 249.077 109.37C248.726 107.999 248.266 106.193 247.756 104.198C247.238 102.182 246.747 100.361 246.369 99.0486C246.189 98.4312 246.037 97.9109 245.916 97.4954C245.811 97.1343 245.761 96.9285 245.776 96.9246Z" fill="#263238"/>
<path d="M251.989 111.129C251.985 111.129 251.977 111.086 251.961 111.008C251.946 110.915 251.93 110.795 251.911 110.647C251.864 110.333 251.821 109.863 251.724 109.265C251.556 108.065 251.256 106.341 250.765 104.233C250.278 102.124 249.565 99.6467 248.622 96.9441C247.682 94.2415 246.506 91.3215 245.169 88.3005C242.476 82.2623 239.783 76.9076 238.018 72.9469C237.125 70.9705 236.432 69.359 235.976 68.2368C235.742 67.6776 235.578 67.235 235.461 66.9399C235.411 66.8001 235.368 66.6913 235.333 66.5982C235.305 66.5205 235.294 66.4817 235.298 66.4778C235.302 66.4778 235.321 66.5127 235.356 66.5865C235.395 66.6719 235.446 66.7845 235.504 66.9166C235.641 67.2272 235.824 67.6543 236.061 68.1941C236.545 69.3046 237.258 70.9044 238.17 72.8693C239.978 76.8067 242.69 82.1497 245.387 88.1956C246.724 91.2244 247.897 94.1522 248.828 96.8664C249.76 99.5807 250.457 102.07 250.929 104.19C251.4 106.306 251.677 108.042 251.813 109.249C251.895 109.851 251.922 110.321 251.957 110.64C251.969 110.787 251.977 110.908 251.985 111.001C251.993 111.086 251.993 111.129 251.989 111.129Z" fill="#263238"/>
<path d="M254.271 110.76C254.256 110.764 254.201 110.488 254.115 109.995C254.026 109.459 253.905 108.752 253.761 107.898C253.445 106.131 252.962 103.697 252.272 101.048C251.586 98.3963 250.815 96.0354 250.218 94.3424C249.926 93.527 249.684 92.8513 249.501 92.3388C249.33 91.865 249.244 91.601 249.26 91.5971C249.275 91.5893 249.392 91.8417 249.591 92.3077C249.79 92.7698 250.062 93.4454 250.382 94.288C251.017 95.9694 251.82 98.3303 252.51 100.99C253.203 103.65 253.659 106.096 253.932 107.875C254.061 108.764 254.162 109.486 254.213 109.987C254.263 110.48 254.287 110.756 254.271 110.76Z" fill="#263238"/>
<path d="M263.661 110.104H245.789V131.798H263.661V110.104Z" fill="#E26055"/>
<g opacity="0.3">
<path d="M263.661 110.104H245.789V131.798H263.661V110.104Z" fill="black"/>
</g>
<path d="M257.963 110.104H242.109V131.798H257.963V110.104Z" fill="#E26055"/>
<path d="M25.6377 102.559C22.5941 100.617 18.3736 100.579 15.4119 102.644C12.5982 104.605 11.1719 108.17 11.2966 111.587C11.4213 115.004 13.0814 119.178 16.1913 120.976L25.3104 120.941C28.2215 118.806 30.1934 115.369 30.3298 111.77C30.4662 108.17 28.6813 104.5 25.6377 102.559Z" fill="#455A64"/>
<path d="M21.1429 121.302C21.1234 121.302 21.1039 121.023 21.0845 120.522C21.0689 119.963 21.0494 119.248 21.0221 118.39C20.9753 116.592 20.9052 114.107 20.7844 111.362C20.6636 108.617 20.5155 106.135 20.4025 104.341C20.3518 103.487 20.3089 102.773 20.2739 102.213C20.2466 101.709 20.2427 101.433 20.2622 101.429C20.2817 101.425 20.3245 101.705 20.3869 102.202C20.4492 102.703 20.5233 103.429 20.6051 104.326C20.7688 106.12 20.952 108.605 21.0728 111.35C21.1936 114.095 21.2325 116.584 21.2247 118.386C21.2209 119.287 21.2092 120.017 21.1936 120.518C21.1819 121.027 21.1624 121.302 21.1429 121.302Z" fill="#263238"/>
<path d="M12.2137 110.81C12.2059 110.892 11.711 110.915 11.1069 110.865C10.5029 110.814 10.0157 110.709 10.0235 110.632C10.0313 110.55 10.5262 110.527 11.1303 110.577C11.7343 110.628 12.2176 110.733 12.2137 110.81Z" fill="#263238"/>
<path d="M12.3804 107.747C12.3492 107.82 11.9205 107.704 11.4256 107.483C10.9307 107.265 10.5566 107.028 10.5878 106.954C10.6189 106.881 11.0476 106.997 11.5425 107.219C12.0414 107.436 12.4155 107.673 12.3804 107.747Z" fill="#263238"/>
<path d="M13.9637 105.471C13.9208 105.537 13.4415 105.312 12.9427 104.9C12.4438 104.489 12.1282 104.062 12.1866 104.007C12.2451 103.953 12.6426 104.279 13.1258 104.675C13.6091 105.075 14.0066 105.401 13.9637 105.471Z" fill="#263238"/>
<path d="M15.56 103.324C15.4859 103.355 15.256 102.998 15.0456 102.524C14.8351 102.05 14.7221 101.639 14.7962 101.608C14.8702 101.577 15.1001 101.934 15.3106 102.407C15.5249 102.877 15.634 103.289 15.56 103.324Z" fill="#263238"/>
<path d="M18.0528 101.798C17.9827 101.833 17.7333 101.448 17.5696 100.92C17.402 100.392 17.3903 99.9378 17.4683 99.9223C17.5501 99.9068 17.6865 100.322 17.8463 100.831C18.0061 101.343 18.1269 101.767 18.0528 101.798Z" fill="#263238"/>
<path d="M22.2223 100.082C22.2964 100.109 22.2535 100.435 22.1171 100.808C21.9846 101.184 21.8131 101.464 21.7391 101.441C21.665 101.414 21.7079 101.087 21.8443 100.715C21.9768 100.338 22.1483 100.054 22.2223 100.082Z" fill="#263238"/>
<path d="M25.319 101.402C25.3735 101.46 25.1748 101.732 24.8747 102.007C24.5746 102.283 24.2901 102.458 24.2356 102.4C24.181 102.341 24.3798 102.07 24.6798 101.794C24.976 101.522 25.2644 101.343 25.319 101.402Z" fill="#263238"/>
<path d="M28.0419 103.153C28.0887 103.219 27.8432 103.46 27.5002 103.693C27.1573 103.926 26.8416 104.058 26.7949 103.992C26.7481 103.926 26.9897 103.685 27.3365 103.452C27.6834 103.223 27.999 103.087 28.0419 103.153Z" fill="#263238"/>
<path d="M29.9701 105.766C30.0013 105.84 29.6194 106.073 29.1167 106.287C28.614 106.5 28.1814 106.613 28.1502 106.539C28.119 106.465 28.501 106.232 28.9998 106.019C29.5064 105.805 29.939 105.692 29.9701 105.766Z" fill="#263238"/>
<path d="M30.7344 108.616C30.7461 108.694 30.3564 108.811 29.8692 108.869C29.3821 108.931 28.9768 108.912 28.969 108.834C28.9573 108.756 29.347 108.64 29.8342 108.582C30.3213 108.519 30.7266 108.535 30.7344 108.616Z" fill="#263238"/>
<path d="M31.1306 112.123C31.0994 112.197 30.6864 112.088 30.207 111.882C29.7277 111.676 29.3691 111.447 29.4003 111.373C29.4315 111.3 29.8446 111.408 30.3239 111.614C30.8033 111.82 31.1618 112.049 31.1306 112.123Z" fill="#263238"/>
<path d="M30.7835 115.128C30.7562 115.202 30.234 115.078 29.6885 114.721C29.139 114.367 28.8155 113.94 28.874 113.886C28.9324 113.827 29.3299 114.142 29.8482 114.476C30.3626 114.818 30.8108 115.054 30.7835 115.128Z" fill="#263238"/>
<path d="M29.2106 117.87C29.1638 117.932 28.7469 117.687 28.3494 117.26C27.948 116.833 27.7375 116.402 27.7999 116.359C27.8661 116.313 28.1779 116.654 28.5598 117.066C28.9417 117.474 29.2613 117.804 29.2106 117.87Z" fill="#263238"/>
<path d="M14.2826 118.192C14.3216 118.262 13.8812 118.561 13.3084 118.86C12.7316 119.159 12.2367 119.341 12.1977 119.271C12.1587 119.202 12.5991 118.903 13.172 118.604C13.7487 118.305 14.2476 118.118 14.2826 118.192Z" fill="#263238"/>
<path d="M12.9164 115.715C12.9515 115.788 12.6007 116.017 12.1331 116.227C11.6693 116.437 11.2641 116.549 11.229 116.476C11.1939 116.402 11.5446 116.173 12.0123 115.963C12.4799 115.753 12.8852 115.641 12.9164 115.715Z" fill="#263238"/>
<path d="M11.9136 113.521C11.9252 113.598 11.4927 113.726 10.951 113.804C10.4093 113.882 9.95724 113.878 9.94554 113.8C9.93385 113.723 10.3664 113.594 10.9081 113.517C11.4537 113.439 11.9019 113.439 11.9136 113.521Z" fill="#263238"/>
<path d="M15.2024 112.309C15.2258 112.383 14.8049 112.581 14.2437 112.643C13.6826 112.709 13.2305 112.608 13.2344 112.53C13.2383 112.449 13.6787 112.414 14.2087 112.352C14.7426 112.294 15.179 112.231 15.2024 112.309Z" fill="#263238"/>
<path d="M17.9339 109.603C17.9573 109.676 17.6222 109.847 17.1701 109.89C16.718 109.937 16.3595 109.836 16.3673 109.758C16.3751 109.676 16.7219 109.645 17.1428 109.603C17.5637 109.56 17.9105 109.525 17.9339 109.603Z" fill="#263238"/>
<path d="M18.4551 107.432C18.4278 107.51 18.0654 107.451 17.6445 107.308C17.2236 107.164 16.904 106.986 16.9313 106.908C16.9586 106.834 17.321 106.888 17.7419 107.032C18.1589 107.18 18.4784 107.358 18.4551 107.432Z" fill="#263238"/>
<path d="M19.4582 105.238C19.4036 105.292 19.1542 105.129 18.975 104.823C18.7957 104.516 18.7801 104.221 18.8542 104.197C18.9321 104.174 19.0685 104.403 19.2244 104.675C19.3842 104.951 19.5167 105.184 19.4582 105.238Z" fill="#263238"/>
<path d="M18.2468 114.22C18.2663 114.297 17.9506 114.441 17.5453 114.538C17.3115 114.596 17.0972 114.623 16.9569 114.623L16.8984 114.453C17.0037 114.433 17.0699 114.437 17.0855 114.468C17.0972 114.499 17.0582 114.554 16.9725 114.616L16.914 114.445C17.0387 114.379 17.2414 114.309 17.4752 114.251C17.8844 114.161 18.2273 114.142 18.2468 114.22Z" fill="#263238"/>
<path d="M18.8097 118.068C18.8409 118.141 18.4395 118.37 17.9173 118.572C17.3951 118.778 16.9469 118.883 16.9158 118.809C16.8846 118.736 17.286 118.51 17.8082 118.304C18.3343 118.099 18.7824 117.99 18.8097 118.068Z" fill="#263238"/>
<path d="M15.7254 116.359C15.7527 116.437 15.4838 116.592 15.1292 116.713C14.7746 116.833 14.4667 116.868 14.4394 116.794C14.4121 116.717 14.681 116.561 15.0357 116.441C15.3903 116.317 15.6982 116.282 15.7254 116.359Z" fill="#263238"/>
<path d="M15.9625 108.531C15.943 108.609 15.4793 108.562 14.9415 108.372C14.4037 108.181 14.014 107.929 14.0491 107.855C14.0841 107.782 14.5167 107.914 15.0389 108.096C15.5611 108.282 15.982 108.449 15.9625 108.531Z" fill="#263238"/>
<path d="M23.4272 107.677C23.4701 107.743 23.209 107.995 22.8427 108.236C22.4764 108.477 22.1412 108.616 22.0984 108.55C22.0555 108.484 22.3166 108.232 22.6829 107.991C23.0492 107.754 23.3844 107.611 23.4272 107.677Z" fill="#263238"/>
<path d="M23.8374 111.54C23.853 111.618 23.5802 111.742 23.2217 111.816C22.8671 111.89 22.567 111.886 22.5475 111.808C22.5319 111.731 22.8047 111.606 23.1632 111.532C23.5218 111.459 23.8218 111.463 23.8374 111.54Z" fill="#263238"/>
<path d="M24.3033 115.882C24.2682 115.955 23.8746 115.843 23.4187 115.633C22.9627 115.423 22.6237 115.194 22.6587 115.121C22.6938 115.047 23.0874 115.159 23.5434 115.369C23.9993 115.583 24.3384 115.812 24.3033 115.882Z" fill="#263238"/>
<path d="M23.3109 120.11C23.2485 120.161 22.9913 119.951 22.738 119.644C22.4847 119.334 22.3288 119.042 22.3873 118.992C22.4496 118.941 22.7068 119.151 22.9601 119.458C23.2173 119.768 23.3732 120.06 23.3109 120.11Z" fill="#263238"/>
<path d="M23.1088 104.834C23.1594 104.896 22.988 105.11 22.6957 105.254C22.4034 105.401 22.1306 105.409 22.1111 105.331C22.0877 105.254 22.3021 105.126 22.5632 104.993C22.8282 104.865 23.0581 104.768 23.1088 104.834Z" fill="#263238"/>
<path d="M26.7658 108.729C26.793 108.803 26.454 108.989 25.9902 109.051C25.5265 109.117 25.1524 109.028 25.1563 108.95C25.1602 108.869 25.5187 108.822 25.9513 108.764C26.38 108.706 26.7385 108.651 26.7658 108.729Z" fill="#263238"/>
<path d="M26.0354 105.234C26.0704 105.304 25.7353 105.545 25.2559 105.697C24.7766 105.848 24.3635 105.848 24.3518 105.77C24.3401 105.689 24.7104 105.564 25.1663 105.421C25.6223 105.273 25.9964 105.161 26.0354 105.234Z" fill="#263238"/>
<path d="M27.5616 114.146C27.5616 114.223 26.9849 114.274 26.2912 114.15C25.5975 114.025 25.0753 113.777 25.1026 113.703C25.1299 113.625 25.6716 113.746 26.3418 113.862C27.0121 113.987 27.5616 114.064 27.5616 114.146Z" fill="#263238"/>
<path d="M26.2053 119.225C26.1585 119.287 25.7337 119.039 25.3129 118.615C24.8881 118.192 24.6426 117.769 24.7049 117.722C24.7712 117.672 25.1102 118.002 25.5194 118.409C25.9247 118.821 26.2559 119.163 26.2053 119.225Z" fill="#263238"/>
<path d="M20.2264 101.099C20.2693 101.161 19.0651 101.646 17.6739 103.11C16.2826 104.539 14.8485 107.063 14.4939 110.111C14.3263 111.626 14.4705 113.094 14.6848 114.402C14.9109 115.711 15.2148 116.876 15.4915 117.846C15.7721 118.817 16.0293 119.594 16.2008 120.13C16.3723 120.669 16.4658 120.968 16.4463 120.976C16.4268 120.984 16.3021 120.697 16.0956 120.169C15.889 119.64 15.6045 118.872 15.2967 117.905C14.9927 116.938 14.6693 115.773 14.4237 114.449C14.1899 113.129 14.034 111.638 14.2055 110.08C14.5679 106.962 16.0683 104.392 17.5258 102.971C18.2506 102.248 18.9326 101.767 19.4314 101.487C19.6731 101.336 19.8796 101.254 20.016 101.184C20.1485 101.118 20.2187 101.091 20.2264 101.099Z" fill="#263238"/>
<path d="M24.1894 121.159C24.127 121.128 24.8441 120.025 25.4988 118.044C26.173 116.084 26.7302 113.183 26.2821 110.034C26.0716 108.461 25.6157 107.005 25.0428 105.762C24.4466 104.535 23.6788 103.53 22.9306 102.827C22.1551 102.143 21.3913 101.751 20.8574 101.522C20.3196 101.297 19.9961 101.246 20 101.223C20 101.215 20.0819 101.219 20.2378 101.243C20.3897 101.27 20.6158 101.32 20.8964 101.421C21.4536 101.623 22.2408 101.992 23.0631 102.675C23.862 103.386 24.6531 104.388 25.2844 105.65C25.8846 106.916 26.3561 108.395 26.5705 109.995C27.0264 113.206 26.4263 116.15 25.6936 118.114C25.5299 118.615 25.3156 119.046 25.1597 119.431C24.9727 119.803 24.8168 120.13 24.6765 120.386C24.3803 120.895 24.2088 121.17 24.1894 121.159Z" fill="#263238"/>
<path d="M12.9141 120.475H28.966L29.0634 123.675H12.9141V120.475Z" fill="#E26055"/>
<path d="M14.2812 122.075L15.2049 131.845H26.9389L27.8781 122.18L14.2812 122.075Z" fill="#E26055"/>
<path d="M29.0635 123.714C29.0635 123.795 25.4509 123.857 20.9927 123.857C16.5344 123.857 12.9219 123.791 12.9219 123.714C12.9219 123.636 16.5344 123.57 20.9927 123.57C25.4509 123.566 29.0635 123.632 29.0635 123.714Z" fill="#263238"/>
<path d="M27.4288 126.688C27.4444 126.696 27.3353 126.921 27.0859 127.298C26.8326 127.67 26.4351 128.199 25.8427 128.762L25.7687 128.832L25.6947 128.754C24.923 127.946 23.8591 126.956 22.5497 126.012L22.729 126.005C22.2808 126.397 21.8132 126.805 21.3339 127.224C20.7649 127.717 20.2115 128.199 19.6854 128.653L19.5958 128.731L19.5061 128.653C18.5085 127.814 17.5966 127.053 16.825 126.408L16.9809 126.393C16.4275 127.065 15.9637 127.632 15.5935 128.078C15.2584 128.474 15.0674 128.684 15.0479 128.672C15.0323 128.661 15.1921 128.42 15.4961 128.004C15.8429 127.542 16.2833 126.956 16.8055 126.261L16.8717 126.172L16.9614 126.245C17.7447 126.878 18.6683 127.624 19.6815 128.443L19.4983 128.447C20.0244 127.989 20.5739 127.507 21.139 127.01C21.6183 126.591 22.0899 126.187 22.538 125.795L22.6238 125.721L22.7134 125.787C24.0345 126.754 25.0906 127.779 25.8427 128.618L25.6947 128.61C26.891 127.535 27.386 126.653 27.4288 126.688Z" fill="#263238"/>
<path d="M220.269 129.161H50.3889C47.2518 129.161 44.7109 126.63 44.7109 123.504V15.4C44.7109 12.2742 47.2518 9.74243 50.3889 9.74243H220.269C223.406 9.74243 225.947 12.2742 225.947 15.4V123.504C225.947 126.63 223.406 129.161 220.269 129.161Z" fill="#455A64"/>
<path d="M228.193 131.899H45.7102C41.8794 131.899 38.7734 128.804 38.7734 124.987V121.45H235.126V124.987C235.13 128.804 232.024 131.899 228.193 131.899Z" fill="#455A64"/>
<path d="M117.461 120.331L119.9 124.191H154.187L156.447 120.331H117.461Z" fill="#263238"/>
<path d="M224.388 120.331C224.388 120.397 184.163 120.448 134.553 120.448C84.9285 120.448 44.7109 120.397 44.7109 120.331C44.7109 120.265 84.9285 120.215 134.553 120.215C184.163 120.215 224.388 120.265 224.388 120.331Z" fill="#263238"/>
<path d="M218.769 117.174H51.1728C50.4674 117.174 49.8984 116.604 49.8984 115.905V17.8813C49.8984 17.1785 50.4713 16.6116 51.1728 16.6116H218.769C219.475 16.6116 220.044 17.1824 220.044 17.8813V115.901C220.044 116.604 219.471 117.174 218.769 117.174Z" fill="#EBEBEB"/>
<path d="M219.864 117.322H49.7188L49.9019 24.1252H219.864V117.322Z" fill="white"/>
<path d="M63.8608 20.4946C63.8608 21.244 63.2528 21.8498 62.5007 21.8498C61.7486 21.8498 61.1406 21.244 61.1406 20.4946C61.1406 19.7452 61.7486 19.1394 62.5007 19.1394C63.2528 19.1394 63.8608 19.749 63.8608 20.4946Z" fill="#263238"/>
<path d="M55.6186 20.4946C55.6186 21.244 55.0106 21.8498 54.2585 21.8498C53.5064 21.8498 52.8984 21.244 52.8984 20.4946C52.8984 19.7452 53.5064 19.1394 54.2585 19.1394C55.0106 19.1433 55.6186 19.749 55.6186 20.4946Z" fill="#263238"/>
<path d="M59.5717 20.4946C59.5717 21.244 58.9638 21.8498 58.2116 21.8498C57.4595 21.8498 56.8516 21.244 56.8516 20.4946C56.8516 19.7452 57.4595 19.1394 58.2116 19.1394C58.9638 19.1433 59.5717 19.749 59.5717 20.4946Z" fill="#263238"/>
<path d="M220.047 108.321H49.7188V117.322H220.047V108.321Z" fill="#263238"/>
<path d="M56.1529 113.862V114.15H54.7967V113.921L55.5294 113.229C55.7086 113.059 55.7398 112.954 55.7398 112.849C55.7398 112.682 55.6229 112.585 55.3969 112.585C55.2176 112.585 55.0695 112.647 54.9643 112.775L54.7266 112.593C54.8669 112.402 55.1241 112.29 55.4241 112.29C55.8255 112.29 56.0827 112.492 56.0827 112.818C56.0827 112.997 56.0321 113.16 55.7788 113.396L55.2877 113.862H56.1529Z" fill="white"/>
<path d="M56.3438 112.954C56.3438 112.822 56.4412 112.736 56.5581 112.736C56.675 112.736 56.7724 112.822 56.7724 112.954C56.7724 113.078 56.675 113.171 56.5581 113.171C56.4412 113.171 56.3438 113.078 56.3438 112.954ZM56.3438 113.952C56.3438 113.82 56.4412 113.734 56.5581 113.734C56.675 113.734 56.7724 113.82 56.7724 113.952C56.7724 114.076 56.675 114.169 56.5581 114.169C56.4412 114.169 56.3438 114.076 56.3438 113.952Z" fill="white"/>
<path d="M57.6272 112.317V114.15H57.2881V112.6H56.8984V112.313H57.6272V112.317Z" fill="white"/>
<path d="M59.6367 113.734H59.3093V114.15H58.9781V113.734H57.9688V113.497L58.8768 112.317H59.2392L58.3857 113.447H58.9898V113.078H59.3093V113.447H59.6367V113.734Z" fill="white"/>
<path d="M202.249 113H62.6406V113.633H202.249V113Z" fill="white"/>
<path d="M106.159 112.317H62.5312V114.01H106.159V112.317Z" fill="#E26055"/>
<path d="M107.568 113.319C107.568 114.487 106.617 115.435 105.444 115.435C104.271 115.435 103.32 114.487 103.32 113.319C103.32 112.15 104.271 111.202 105.444 111.202C106.613 111.202 107.568 112.15 107.568 113.319Z" fill="#E26055"/>
<path d="M205.758 113.299C205.758 113.664 205.462 113.893 205.084 113.893C204.581 113.893 204.289 113.571 204.289 112.981C204.289 112.352 204.655 112.006 205.189 112.006C205.372 112.006 205.548 112.045 205.673 112.123L205.548 112.379C205.447 112.313 205.326 112.29 205.197 112.29C204.85 112.29 204.632 112.503 204.632 112.923V112.927C204.741 112.798 204.92 112.736 205.123 112.736C205.489 112.736 205.758 112.954 205.758 113.299ZM205.427 113.315C205.427 113.125 205.283 113.004 205.061 113.004C204.839 113.004 204.687 113.136 204.687 113.319C204.687 113.49 204.823 113.629 205.068 113.629C205.279 113.626 205.427 113.505 205.427 113.315Z" fill="white"/>
<path d="M205.93 112.67C205.93 112.538 206.027 112.453 206.144 112.453C206.261 112.453 206.358 112.538 206.358 112.67C206.358 112.795 206.261 112.888 206.144 112.888C206.027 112.888 205.93 112.795 205.93 112.67ZM205.93 113.668C205.93 113.536 206.027 113.451 206.144 113.451C206.261 113.451 206.358 113.536 206.358 113.668C206.358 113.793 206.261 113.886 206.144 113.886C206.027 113.886 205.93 113.793 205.93 113.668Z" fill="white"/>
<path d="M206.578 112.95C206.578 112.348 206.909 112.006 207.346 112.006C207.786 112.006 208.117 112.348 208.117 112.95C208.117 113.552 207.786 113.893 207.346 113.893C206.909 113.893 206.578 113.552 206.578 112.95ZM207.771 112.95C207.771 112.507 207.599 112.301 207.346 112.301C207.096 112.301 206.921 112.507 206.921 112.95C206.921 113.393 207.096 113.598 207.346 113.598C207.599 113.598 207.771 113.393 207.771 112.95Z" fill="white"/>
<path d="M208.344 112.95C208.344 112.348 208.675 112.006 209.111 112.006C209.552 112.006 209.883 112.348 209.883 112.95C209.883 113.552 209.552 113.893 209.111 113.893C208.675 113.893 208.344 113.552 208.344 112.95ZM209.536 112.95C209.536 112.507 209.365 112.301 209.111 112.301C208.862 112.301 208.687 112.507 208.687 112.95C208.687 113.393 208.862 113.598 209.111 113.598C209.365 113.598 209.536 113.393 209.536 112.95Z" fill="white"/>
<path d="M212.858 112.837H212.219V111.008H214.05V111.641H212.858V112.837Z" fill="white"/>
<path d="M214.054 115.222H212.219V113.396H212.854V114.589H214.054V115.222Z" fill="white"/>
<path d="M216.972 115.221H215.141V114.589H216.337V113.393H216.972V115.221Z" fill="white"/>
<path d="M216.976 112.833H216.341V111.641H215.141V111.008H216.976V112.833Z" fill="white"/>
<path d="M73.0504 29.6702H63.0233L58.0078 38.3216L63.0233 46.9769H73.0504L78.0659 38.3216L73.0504 29.6702Z" fill="#EBEBEB"/>
<path d="M63.843 40.0146C63.3948 39.5215 62.9428 39.0206 62.6154 38.4381C62.2881 37.8557 62.0932 37.18 62.2023 36.5199C62.2647 36.1355 62.4284 35.7705 62.4556 35.3822C62.4907 34.8463 62.2647 34.2871 62.4556 33.7862C62.7518 33.0019 63.8118 32.8815 64.4548 32.3417C64.9536 31.9185 65.1992 31.2351 65.7486 30.8817C66.228 30.5711 66.8476 30.5788 67.4127 30.6604C67.9778 30.7419 68.5506 30.8817 69.1157 30.8079C69.521 30.7536 69.899 30.5905 70.2965 30.4934C70.694 30.3963 71.1344 30.3692 71.4851 30.575C71.8358 30.7808 72.0346 31.2778 71.8047 31.6117C72.4633 31.3089 73.2972 31.8214 73.4765 32.5165C73.6558 33.2154 73.2972 33.9687 72.7399 34.4308C72.1827 34.8929 71.4617 35.1065 70.7525 35.2385C68.7416 35.6151 66.5553 35.4016 64.8211 34.3182" fill="#263238"/>
<path d="M73.1416 42.1502C73.0753 40.9115 72.7246 38.372 72.3855 36.0771C72.0192 33.6075 69.8096 31.8368 67.3116 32.0038L67.0622 32.0193C64.3966 32.3533 63.1924 34.7957 63.6016 37.4439L64.3849 46.9768H70.893C70.893 46.9768 70.741 45.3032 70.7371 45.2877C70.7371 45.2877 73.2819 44.7169 73.1416 42.1502Z" fill="#FFBE9D"/>
<path d="M70.738 45.2488C70.738 45.2488 69.1207 45.4896 67.3203 44.5227C67.3203 44.5227 68.2361 46.3128 70.7887 45.9128L70.738 45.2488Z" fill="#EB996E"/>
<path d="M71.5625 38.2787C71.582 38.4729 71.4339 38.6476 71.2312 38.6709C71.0286 38.6942 70.8493 38.5583 70.8298 38.3681C70.8104 38.1739 70.9585 37.9992 71.1572 37.9759C71.3637 37.9487 71.543 38.0846 71.5625 38.2787Z" fill="#263238"/>
<path d="M71.9207 37.3701C71.8778 37.4206 71.5856 37.2342 71.192 37.2614C70.7984 37.2847 70.5217 37.506 70.4749 37.4594C70.4515 37.44 70.4944 37.3507 70.6113 37.2497C70.7282 37.1488 70.9347 37.0478 71.1803 37.0323C71.4258 37.0167 71.6401 37.0944 71.7648 37.1798C71.8973 37.2614 71.9441 37.3468 71.9207 37.3701Z" fill="#263238"/>
<path d="M67.8281 38.5427C67.8476 38.7369 67.6995 38.9116 67.4969 38.9349C67.2942 38.9582 67.115 38.8223 67.0955 38.6282C67.076 38.434 67.2241 38.2593 67.4228 38.236C67.6294 38.2166 67.8086 38.3525 67.8281 38.5427Z" fill="#263238"/>
<path d="M68.0379 37.7002C67.995 37.7506 67.7027 37.5643 67.3091 37.5914C66.9155 37.6147 66.6388 37.8361 66.5921 37.7895C66.5687 37.7701 66.6115 37.6808 66.7324 37.5798C66.8493 37.4788 67.0558 37.3779 67.3013 37.3623C67.5468 37.3468 67.7612 37.4245 67.8859 37.5099C68.0145 37.5953 68.0613 37.6769 68.0379 37.7002Z" fill="#263238"/>
<path d="M69.6705 40.5269C69.6666 40.5036 69.9082 40.4454 70.3057 40.3677C70.407 40.3522 70.5005 40.325 70.5122 40.2551C70.5317 40.1813 70.4811 40.0765 70.4265 39.96C70.3135 39.7231 70.2005 39.4746 70.0758 39.2145C69.5886 38.1505 69.2262 37.2768 69.2691 37.2574C69.3119 37.238 69.7445 38.0845 70.2316 39.1484C70.3486 39.4125 70.4616 39.661 70.5707 39.9018C70.6175 40.0144 70.6915 40.1386 70.6486 40.2939C70.6252 40.3716 70.5551 40.4299 70.4927 40.4531C70.4304 40.4764 70.3719 40.4803 70.3213 40.4881C69.9199 40.5308 69.6744 40.5502 69.6705 40.5269Z" fill="#263238"/>
<path d="M68.0352 36.1509C68.004 36.2596 67.6065 36.2363 67.1467 36.3218C66.6829 36.3994 66.3205 36.5586 66.2503 36.4693C66.2192 36.4266 66.2776 36.3218 66.4218 36.2053C66.566 36.0927 66.7959 35.9762 67.0726 35.9296C67.3493 35.8791 67.6065 35.9063 67.7819 35.9645C67.9572 36.0189 68.0469 36.1004 68.0352 36.1509Z" fill="#263238"/>
<path d="M71.6947 36.2401C71.6323 36.3333 71.3517 36.2596 71.0244 36.2751C70.697 36.2829 70.4242 36.376 70.3541 36.2867C70.3229 36.244 70.3619 36.1508 70.4749 36.0576C70.5879 35.9644 70.7828 35.8829 71.0088 35.8751C71.2348 35.8674 71.4336 35.9334 71.5544 36.0188C71.6791 36.1042 71.7259 36.1935 71.6947 36.2401Z" fill="#263238"/>
<path d="M63.9381 39.3271C63.8914 39.3116 62.1338 38.9233 62.3092 40.6746C62.4845 42.4219 64.3863 41.855 64.3824 41.8045C64.3785 41.7502 63.9381 39.3271 63.9381 39.3271Z" fill="#FFBE9D"/>
<path d="M63.604 41.2259C63.5963 41.222 63.5768 41.2492 63.5261 41.2803C63.4793 41.3074 63.3936 41.3307 63.2962 41.3074C63.1052 41.257 62.9182 40.9813 62.8792 40.6667C62.8597 40.5075 62.8792 40.3522 62.9221 40.2241C62.961 40.092 63.039 39.995 63.1286 39.9678C63.2182 39.9367 63.2923 39.9872 63.3157 40.0338C63.3429 40.0804 63.3352 40.1153 63.3468 40.1192C63.3507 40.1231 63.3819 40.0882 63.3585 40.0144C63.3468 39.9794 63.3235 39.9406 63.2767 39.9134C63.2299 39.8824 63.1676 39.8707 63.1013 39.8862C62.9688 39.9095 62.8558 40.0454 62.809 40.1891C62.7545 40.3328 62.7272 40.5075 62.7506 40.6861C62.7974 41.0356 63.0117 41.3501 63.2728 41.3967C63.3975 41.4162 63.4988 41.3696 63.5495 41.323C63.604 41.2686 63.6118 41.2298 63.604 41.2259Z" fill="#EB996E"/>
<path d="M72.2487 33.6852C72.1279 34.3803 70.7132 35.0171 69.5363 34.986C68.453 34.9549 67.9191 34.4191 67.1319 34.0385C66.633 33.7978 66.633 33.7978 65.9588 33.9065C65.4133 33.9958 65.1288 34.6365 64.8209 35.0947C65.4055 36.3645 65.1677 37.84 64.9222 39.2146C64.895 39.3661 64.8599 39.5292 64.743 39.634C64.5442 39.8087 64.2247 39.7039 64.0337 39.5253C63.7219 39.2418 63.5816 38.8224 63.4803 38.4147C63.2465 37.4867 63.1608 36.5159 63.305 35.5723C63.453 34.6288 63.8427 33.7085 64.4936 33.0057C65.3041 32.1242 66.4849 31.6155 67.6852 31.5534C68.8816 31.4913 70.0858 31.8602 71.0874 32.5164C71.5511 32.8193 71.9876 33.1959 72.2487 33.6852Z" fill="#263238"/>
<path d="M69.9248 41.4125C69.6248 41.2727 69.3286 41.1368 69.0285 40.997C68.9778 40.9737 68.9233 40.9504 68.8648 40.9543C68.8025 40.9621 68.7518 41.0086 68.709 41.0591C68.5024 41.3076 68.4478 41.6882 68.6115 41.9716C68.7713 42.2551 69.1493 42.4027 69.4494 42.2784C69.765 42.1464 69.9209 41.7814 69.9443 41.4397L69.9248 41.4125Z" fill="#EB996E"/>
<path d="M69.4802 42.3405C69.4958 42.356 69.2932 42.4842 68.9541 42.3871C68.7904 42.3366 68.6034 42.2124 68.4904 42.0105C68.3735 41.8124 68.3306 41.5328 68.4319 41.2804C68.4787 41.1562 68.5566 41.0436 68.6501 40.9581C68.6969 40.9154 68.7437 40.8766 68.8021 40.8455C68.8606 40.8028 68.9814 40.7989 69.036 40.8339C69.2386 40.9465 69.3789 41.0436 69.5153 41.1329C69.7764 41.3076 69.9323 41.4241 69.9167 41.4513C69.9011 41.4746 69.7218 41.4008 69.4412 41.2571C69.2776 41.1717 69.1217 41.0902 68.9619 41.0086C68.9229 40.997 68.9268 40.997 68.8918 41.0164C68.8567 41.0397 68.8138 41.0708 68.7827 41.1057C68.7125 41.1756 68.6541 41.261 68.619 41.3581C68.541 41.5523 68.5683 41.7658 68.654 41.9289C68.7398 42.092 68.8723 42.2007 69.0048 42.259C69.2776 42.3716 69.4763 42.3094 69.4802 42.3405Z" fill="#263238"/>
<path d="M69.1982 38.3217C69.1787 38.3217 69.1826 38.1586 69.1008 37.8868C69.0228 37.6188 68.8358 37.2267 68.4305 36.9277C68.0369 36.6287 67.3939 36.4617 66.7742 36.6947C66.1585 36.9082 65.6285 37.5606 65.6363 38.3217C65.6285 39.0827 66.1585 39.7351 66.7742 39.9487C67.3939 40.1816 68.0369 40.0147 68.4305 39.7157C68.8358 39.4167 69.0267 39.0245 69.1008 38.7566C69.1826 38.4848 69.1787 38.3217 69.1982 38.3217C69.206 38.3217 69.2099 38.3605 69.2138 38.4382C69.2177 38.5158 69.2099 38.6323 69.1787 38.776C69.1203 39.0633 68.9449 39.4905 68.5162 39.8283C68.1031 40.1661 67.3978 40.368 66.708 40.1234C66.0221 39.8982 65.422 39.1721 65.4298 38.3217C65.422 37.4713 66.0221 36.7452 66.708 36.5199C67.4017 36.2714 68.1031 36.4733 68.5162 36.815C68.9449 37.1529 69.1203 37.5839 69.1787 37.8674C69.2099 38.011 69.2177 38.1275 69.2138 38.2052C69.2099 38.2828 69.206 38.3217 69.1982 38.3217Z" fill="#263238"/>
<path d="M73.5773 38.1507C73.5579 38.1507 73.5579 37.9915 73.4838 37.7275C73.4098 37.4673 73.2266 37.0868 72.8291 36.7956C72.4472 36.5043 71.8198 36.3451 71.2157 36.5703C70.6156 36.7761 70.1012 37.413 70.109 38.1546C70.1012 38.8963 70.6195 39.5292 71.2157 39.7389C71.8198 39.9641 72.4472 39.8049 72.8291 39.5137C73.2266 39.2225 73.4098 38.8419 73.4838 38.5818C73.5618 38.3099 73.5579 38.1507 73.5773 38.1507C73.5851 38.1507 73.589 38.1896 73.5929 38.2672C73.5968 38.341 73.589 38.4536 73.5618 38.5973C73.5072 38.8769 73.3357 39.2923 72.9188 39.6263C72.5174 39.9563 71.8315 40.1544 71.1534 39.9136C70.4831 39.6923 69.8985 38.9856 69.9063 38.1546C69.8985 37.3236 70.4831 36.6169 71.1534 36.3956C71.8276 36.1549 72.5135 36.3529 72.9188 36.6829C73.3357 37.013 73.5072 37.4324 73.5618 37.712C73.5929 37.8517 73.5968 37.9643 73.5929 38.042C73.589 38.1119 73.5851 38.1507 73.5773 38.1507Z" fill="#263238"/>
<path d="M70.0043 37.7469C69.9654 37.7857 69.79 37.6731 69.5562 37.6809C69.3223 37.6809 69.1548 37.8013 69.1119 37.7624C69.0573 37.7353 69.221 37.4829 69.5523 37.4751C69.8835 37.4751 70.055 37.7158 70.0043 37.7469Z" fill="#263238"/>
<path d="M65.6431 38.0614C65.6782 38.108 65.3353 38.4147 64.8832 38.7526C64.4311 39.0904 64.0336 39.3272 64.0025 39.2807C63.9674 39.2341 64.3103 38.9273 64.7624 38.5895C65.2144 38.2555 65.6081 38.0187 65.6431 38.0614Z" fill="#263238"/>
<path d="M101.812 38.2323C101.812 38.2867 97.3029 38.3333 91.7418 38.3333C86.1808 38.3333 81.6719 38.2867 81.6719 38.2323C81.6719 38.1779 86.1808 38.1313 91.7418 38.1313C97.3068 38.1313 101.812 38.1779 101.812 38.2323Z" fill="#263238"/>
<path d="M92.4982 40.3329C92.4982 40.3873 90.1054 40.4339 87.1514 40.4339C84.1975 40.4339 81.8047 40.3873 81.8047 40.3329C81.8047 40.2785 84.1975 40.2319 87.1514 40.2319C90.1015 40.2319 92.4982 40.2785 92.4982 40.3329Z" fill="#263238"/>
<path d="M162.145 53.749C162.145 53.749 167.496 56.3468 169.378 63.0567C171.26 69.7666 177.012 87.2402 177.012 87.2402C177.012 87.2402 180.301 91.0961 180.656 93.9501C181.007 96.8042 180.305 103.712 179.245 105.001C178.189 106.29 176.681 106.077 176.681 106.077L162.835 104.768L157.383 68.392L162.145 53.749Z" fill="#E26055"/>
<path d="M116.358 53.1123C116.358 53.1123 106.459 56.2071 103.992 58.898L112.098 96.4742L111.969 108.329H158.906C158.906 107.743 159.326 68.9667 159.326 68.9667L162.144 53.7491L145.461 50.8213L142.172 48.2468L123.61 49.1826L120.788 51.994L116.358 53.1123Z" fill="#E26055"/>
<g opacity="0.3">
<path d="M120.121 85.7104C119.977 85.392 119.771 85.0464 119.428 84.9765C118.863 84.86 118.485 85.5279 118.294 86.0676C116.77 90.37 114.751 94.3269 112.129 98.0623L112.008 103.833C114.744 101.538 117.44 99.0797 119.186 95.9694C120.928 92.863 121.595 88.9605 120.121 85.7104Z" fill="black"/>
</g>
<path d="M103.992 58.8979C103.992 58.8979 100.73 63.3285 99.3741 66.2214C98.0179 69.1142 86.7944 93.4065 86.1202 95.915C85.4421 98.4234 83.7001 106.325 88.8287 108.158H99.3741L109.958 86.8286L110.5 62.0743L103.992 58.8979Z" fill="#E26055"/>
<path d="M100.056 92.7542C100.04 92.7697 99.8218 92.5484 99.3347 92.2727C98.8514 92.0009 98.0954 91.6863 97.1211 91.4728C96.634 91.3679 96.0923 91.2825 95.5078 91.2476C94.9232 91.2126 94.2958 91.2204 93.6567 91.3679C92.3784 91.6514 91.108 92.4591 90.1064 93.589C89.0893 94.719 88.4658 96.0548 88.0956 97.3129C87.7214 98.5748 87.5617 99.7592 87.4603 100.749C87.3629 101.743 87.324 102.551 87.2889 103.11C87.2733 103.37 87.2577 103.584 87.2499 103.755C87.2382 103.902 87.2304 103.98 87.2226 103.98C87.2148 103.98 87.2109 103.902 87.2109 103.755C87.2109 103.584 87.2109 103.37 87.2148 103.11C87.2265 102.551 87.2421 101.74 87.3201 100.738C87.4019 99.7398 87.55 98.5438 87.9163 97.2585C88.2787 95.981 88.9139 94.6103 89.9545 93.4531C90.9794 92.296 92.2888 91.4689 93.6177 91.1854C94.2802 91.0379 94.9271 91.034 95.5194 91.0806C96.1118 91.1233 96.6613 91.2165 97.1523 91.333C98.1383 91.566 98.8943 91.9038 99.3736 92.2028C99.6113 92.3542 99.7867 92.4901 99.8958 92.5911C100.005 92.692 100.06 92.7464 100.056 92.7542Z" fill="#263238"/>
<path d="M95.0469 88.5061C95.0469 88.4905 95.1716 88.4711 95.4015 88.4478C95.6314 88.4206 95.9666 88.4129 96.3797 88.4362C96.7928 88.4556 97.2838 88.5255 97.8177 88.6497C98.3477 88.7818 98.9244 88.9759 99.4973 89.2438C100.066 89.5195 100.581 89.8418 101.017 90.1719C101.45 90.5097 101.812 90.8436 102.089 91.1543C102.366 91.461 102.572 91.7251 102.693 91.9192C102.818 92.1134 102.884 92.2221 102.872 92.2299C102.841 92.2532 102.556 91.8299 101.984 91.2514C101.699 90.9601 101.333 90.6417 100.904 90.3233C100.468 90.0088 99.965 89.6981 99.4077 89.4302C98.8465 89.1662 98.2892 88.9759 97.7709 88.8361C97.2487 88.7041 96.7733 88.6225 96.368 88.5876C95.5613 88.5022 95.0508 88.5449 95.0469 88.5061Z" fill="#263238"/>
<path d="M104.585 87.3374C104.581 87.3529 104.409 87.3374 104.098 87.2986C103.786 87.2597 103.334 87.2131 102.776 87.1704C101.662 87.085 100.111 87.0656 98.4117 87.2675C96.7165 87.4733 95.2123 87.8577 94.1484 88.1994C93.6145 88.3703 93.1858 88.5217 92.8935 88.6343C92.6012 88.743 92.4337 88.7974 92.4298 88.7858C92.4259 88.7741 92.5778 88.6926 92.8662 88.5605C93.1507 88.4246 93.5716 88.2538 94.1055 88.0635C95.1655 87.683 96.6775 87.2714 98.3922 87.0656C100.103 86.8637 101.674 86.9064 102.792 87.0267C103.353 87.085 103.805 87.1549 104.113 87.217C104.417 87.283 104.589 87.3257 104.585 87.3374Z" fill="#263238"/>
<path d="M134.625 66.5826C134.621 66.5865 134.586 66.5438 134.515 66.4545C134.441 66.3535 134.344 66.2254 134.227 66.0701C133.97 65.7128 133.611 65.2197 133.167 64.6062C132.255 63.3248 130.989 61.5424 129.492 59.4417L129.656 59.4184C129.087 61.0804 128.459 62.917 127.801 64.8469L127.758 64.9673L127.653 64.8974C127.583 64.8547 127.509 64.8042 127.435 64.7576C126.562 64.2062 125.79 63.5422 125.139 62.8238C124.488 62.1016 123.947 61.3328 123.498 60.5639C122.602 59.0223 122.06 57.5041 121.694 56.2188C121.328 54.9296 121.137 53.8579 121.012 53.124C120.95 52.7707 120.903 52.4911 120.864 52.2775C120.845 52.1804 120.825 52.1105 120.813 52.0601C120.794 52.0173 120.786 51.9902 120.79 51.9902C120.833 51.9707 120.946 52.3785 121.09 53.1124C121.242 53.8424 121.453 54.9063 121.834 56.1838C122.216 57.4575 122.766 58.9602 123.662 60.4746C124.11 61.2318 124.644 61.9851 125.287 62.6957C125.934 63.3985 126.69 64.0509 127.544 64.5906C127.618 64.6372 127.692 64.6838 127.758 64.7265L127.61 64.7809C128.276 62.851 128.908 61.0182 129.48 59.3602L129.539 59.1854L129.644 59.3369C131.113 61.4531 132.36 63.251 133.257 64.544C133.685 65.1692 134.024 65.674 134.274 66.039C134.383 66.2021 134.469 66.3341 134.539 66.439C134.601 66.5283 134.628 66.5787 134.625 66.5826Z" fill="#263238"/>
<g opacity="0.3">
<path d="M146.845 84.5183C146.409 88.8634 147.371 93.3367 149.557 97.1188C151.74 100.905 154.943 104.275 158.93 106.089C159.058 102.233 158.871 97.6896 159 93.8337L146.845 84.5183Z" fill="black"/>
</g>
<path d="M146.4 79.4432C146.4 79.4432 144.697 79.9131 145.976 83.3962C147.254 86.8754 147.679 86.6657 148.532 89.9236C149.386 93.1775 150.379 96.1519 151.872 97.9925C153.364 99.8331 158.906 103.584 158.906 103.584L163.879 98.9128C163.879 98.9128 163.06 95.4297 163.255 93.0649C163.45 90.7002 163.949 84.895 163.879 83.9048C163.809 82.9147 162.741 80.5072 162.741 80.5072V78.8608L160.184 71.0209C160.184 71.0209 158.762 70.3841 158.267 72.6479L157.413 70.2443C157.413 70.2443 156.065 70.0307 155.71 72.7916C155.356 75.5524 155.995 79.3733 155.995 79.3733L155.286 84.1883L154.222 87.4423L153.298 87.5821C153.298 87.5821 151.907 87.2054 151.147 84.596C150.375 81.9905 148.318 78.8763 146.4 79.4432Z" fill="#FFBE9D"/>
<path d="M162.204 91.7525C162.2 91.7525 162.193 91.6904 162.181 91.5739C162.173 91.438 162.162 91.2672 162.146 91.0536C162.119 90.5799 162.084 89.9236 162.041 89.1043C161.963 87.4152 161.858 85.0621 161.733 82.3168L161.756 82.375C161.526 82.1032 161.121 82.0216 160.751 82.1148C160.373 82.2042 160.038 82.4371 159.827 82.7866C159.395 83.4817 159.367 84.3903 159.235 85.2679C158.966 87.2521 158.709 89.1393 158.475 90.8633C158.358 91.7215 158.233 92.5408 158.062 93.298C157.898 94.0552 157.668 94.7464 157.446 95.3638C157.228 95.9812 157.033 96.5403 156.912 97.0451C156.791 97.5499 156.741 97.9926 156.752 98.3576C156.768 99.0876 156.982 99.4604 156.947 99.4681C156.939 99.472 156.9 99.3788 156.826 99.1963C156.768 99.0099 156.686 98.7304 156.671 98.3615C156.647 97.9926 156.686 97.5344 156.799 97.0218C156.912 96.5093 157.099 95.9423 157.31 95.3211C157.524 94.6998 157.742 94.0202 157.898 93.2669C158.058 92.5175 158.175 91.7021 158.288 90.8439C158.518 89.1198 158.767 87.2327 159.032 85.2484C159.095 84.8058 159.141 84.3709 159.219 83.9321C159.297 83.4972 159.418 83.0623 159.66 82.6895C159.886 82.309 160.283 82.0294 160.704 81.9323C161.121 81.8275 161.616 81.9207 161.9 82.2624L161.92 82.2896V82.3206C162.013 85.0659 162.095 87.4191 162.154 89.1121C162.173 89.9314 162.193 90.5876 162.204 91.0652C162.208 91.2788 162.208 91.4497 162.208 91.5856C162.216 91.6904 162.212 91.7525 162.204 91.7525Z" fill="#EB996E"/>
<path d="M159.491 82.8331C159.479 82.837 159.401 82.6817 159.281 82.3905C159.164 82.0993 159.008 81.6682 158.864 81.1207C158.719 80.5771 158.583 79.9131 158.505 79.1714C158.466 78.7987 158.439 78.4026 158.486 77.991C158.528 77.5794 158.649 77.1445 158.914 76.7795C159.14 76.4611 159.46 76.2048 159.822 76.1L159.9 76.0767L159.939 76.1466C160.66 77.4124 161.284 78.5307 161.724 79.3345C161.927 79.7112 162.094 80.0257 162.235 80.2859C162.351 80.5111 162.41 80.6353 162.398 80.6431C162.387 80.6509 162.309 80.5344 162.172 80.3208C162.02 80.0723 161.833 79.7655 161.611 79.4005C161.139 78.6123 160.493 77.5095 159.764 76.2475L159.881 76.2941C159.569 76.3873 159.284 76.6086 159.082 76.8999C158.844 77.2338 158.727 77.6299 158.684 78.0182C158.641 78.4104 158.661 78.7948 158.696 79.1598C158.762 79.8937 158.879 80.5499 159.008 81.0935C159.133 81.6372 159.265 82.0721 159.359 82.3711C159.448 82.6623 159.503 82.8293 159.491 82.8331Z" fill="#EB996E"/>
<path d="M158.305 83.47C158.29 83.47 158.274 83.3108 158.258 83.0196C158.247 82.6856 158.227 82.274 158.208 81.7886C158.173 80.748 158.141 79.3112 158.118 77.7231C158.106 76.1349 158.044 74.6943 158.18 73.6498C158.247 73.1295 158.352 72.714 158.445 72.4383C158.539 72.1587 158.617 72.0189 158.629 72.0228C158.664 72.0344 158.41 72.6363 158.321 73.6692C158.223 74.6982 158.305 76.1349 158.317 77.7231C158.34 79.3112 158.348 80.748 158.348 81.7886C158.344 82.274 158.336 82.6856 158.332 83.0234C158.329 83.3108 158.317 83.47 158.305 83.47Z" fill="#EB996E"/>
<path d="M154.095 96.5208C154.068 96.4975 154.376 96.1325 154.762 95.4685C154.957 95.1384 155.155 94.7268 155.339 94.2609C155.514 93.7871 155.674 93.2552 155.783 92.6844C155.884 92.1097 155.919 91.5583 155.919 91.0535C155.911 90.5487 155.869 90.0944 155.802 89.7216C155.674 88.9683 155.51 88.5179 155.545 88.5062C155.557 88.5023 155.607 88.611 155.685 88.813C155.767 89.0149 155.857 89.3178 155.943 89.6944C156.028 90.075 156.087 90.537 156.106 91.0496C156.118 91.566 156.083 92.133 155.982 92.7193C155.872 93.3056 155.705 93.8493 155.514 94.3269C155.315 94.8006 155.097 95.2161 154.883 95.5423C154.672 95.8684 154.481 96.1208 154.333 96.28C154.189 96.447 154.107 96.5324 154.095 96.5208Z" fill="#EB996E"/>
<path d="M162.827 94.0862L167.141 95.5773C167.141 95.5773 171.26 93.4532 174.101 95.5773C176.942 97.7013 179.409 103.297 178.629 105.561C178.629 105.561 176.669 107.972 175.176 108.325C173.684 108.679 167.885 107.281 165.473 106.772C163.053 106.263 158.898 103.572 158.898 103.572L162.827 94.0862Z" fill="#FFBE9D"/>
<path d="M163.356 100.423C163.34 100.423 163.325 100.287 163.309 100.043C163.294 99.7516 163.27 99.406 163.247 99.006C163.2 98.1285 163.142 96.9169 163.122 95.5734C163.103 94.2299 163.142 93.0145 163.223 92.1369C163.262 91.6981 163.309 91.3448 163.352 91.1002C163.395 90.8555 163.426 90.7235 163.442 90.7274C163.473 90.7313 163.407 91.271 163.364 92.1447C163.321 93.0184 163.305 94.2299 163.325 95.5695C163.348 96.882 163.372 98.0702 163.387 99.0021C163.391 99.4409 163.391 99.7982 163.383 100.043C163.379 100.287 163.368 100.423 163.356 100.423Z" fill="#EB996E"/>
<path d="M177.59 95.4102C177.559 95.4412 177.114 94.8277 176.156 94.121C175.209 93.4143 173.673 92.661 171.857 92.56C170.037 92.4629 168.428 93.0415 167.411 93.6395C166.378 94.2375 165.871 94.7966 165.844 94.7656C165.836 94.7578 165.957 94.6141 166.199 94.3811C166.44 94.1482 166.822 93.8375 167.337 93.5191C168.354 92.8784 169.998 92.261 171.869 92.362C173.74 92.4668 175.306 93.2628 176.245 94.0084C176.721 94.3812 177.068 94.7345 177.282 94.9908C177.496 95.2471 177.598 95.4024 177.59 95.4102Z" fill="#263238"/>
<path d="M177.033 91.8261C177.006 91.8689 176.429 91.2864 175.237 90.8399C174.064 90.3817 172.244 90.172 170.377 90.6962C169.446 90.9563 168.592 91.3252 167.864 91.7368C167.135 92.1523 166.527 92.6066 166.044 93.0182C165.56 93.4298 165.19 93.791 164.937 94.0395C164.684 94.2919 164.543 94.4278 164.532 94.42C164.524 94.4123 164.645 94.2569 164.882 93.9851C165.12 93.7172 165.475 93.3405 165.954 92.9095C166.429 92.4785 167.037 92.0048 167.774 91.5737C168.51 91.1466 169.376 90.7622 170.327 90.4981C172.24 89.9623 174.107 90.203 175.291 90.7039C175.891 90.9486 176.336 91.232 176.62 91.4495C176.768 91.5543 176.866 91.6553 176.936 91.7174C177.002 91.7834 177.037 91.8223 177.033 91.8261Z" fill="#263238"/>
<path d="M177.07 88.7198C177.059 88.7586 176.306 88.5295 175.052 88.3626C174.424 88.2733 173.672 88.2228 172.838 88.2228C172.004 88.2344 171.088 88.3043 170.137 88.4635C169.19 88.6344 168.306 88.8829 167.515 89.1547C166.731 89.4382 166.042 89.7411 165.484 90.0401C164.366 90.6264 163.735 91.0962 163.711 91.0652C163.703 91.0535 163.855 90.9332 164.144 90.7196C164.284 90.6109 164.463 90.4866 164.678 90.3546C164.892 90.2226 165.134 90.0595 165.414 89.9158C165.968 89.6013 166.661 89.2829 167.449 88.9839C168.244 88.7004 169.14 88.4441 170.098 88.2694C171.061 88.1063 171.989 88.0403 172.834 88.0403C173.68 88.0519 174.44 88.1179 175.067 88.2267C175.383 88.2655 175.663 88.3393 175.913 88.3898C176.162 88.4402 176.373 88.4985 176.54 88.549C176.887 88.6422 177.074 88.7043 177.07 88.7198Z" fill="#263238"/>
<path d="M144.004 50.6931C144.004 50.6931 144.202 51.0659 144.304 51.8347C144.409 52.5997 144.393 53.7491 144.14 55.1703C144.012 55.8809 143.84 56.6613 143.583 57.4962C143.314 58.3311 142.909 59.1853 142.449 60.0784C141.521 61.8646 140.348 63.81 138.996 65.8874L138.836 66.1321V65.8408C138.832 64.4701 138.832 63.0295 138.828 61.5307L138.98 61.6044C137.819 62.5364 136.599 63.5188 135.341 64.5323L135.372 64.4857C134.53 67.1494 133.973 70.1161 133.754 73.2031C133.4 77.9287 133.684 82.4486 133.91 86.5491C134.101 90.6535 134.226 94.354 134.355 97.4565C134.479 100.563 134.592 103.071 134.686 104.807C134.737 105.665 134.776 106.337 134.803 106.803C134.818 107.024 134.83 107.195 134.838 107.323C134.846 107.44 134.842 107.502 134.842 107.502C134.842 107.502 134.83 107.444 134.814 107.327C134.803 107.203 134.783 107.028 134.76 106.811C134.717 106.356 134.662 105.681 134.604 104.815C134.487 103.079 134.351 100.571 134.21 97.4643C134.07 94.3579 133.906 90.6612 133.719 86.5607C133.486 82.4641 133.193 77.9326 133.548 73.1914C133.77 70.0928 134.327 67.1106 135.181 64.4313L135.189 64.4041L135.212 64.3847C136.471 63.3751 137.694 62.3966 138.856 61.4647L139.008 61.3443V61.5384C139.004 63.0334 139.004 64.474 139 65.8486L138.84 65.802C141.517 61.6666 143.696 58.0709 144.031 55.1625C144.3 53.7529 144.331 52.6152 144.241 51.8503C144.202 51.4658 144.128 51.1824 144.082 50.9882C144.031 50.7941 144.004 50.6931 144.004 50.6931Z" fill="#263238"/>
<path d="M137.021 100.784L136.88 100.781C136.315 100.796 135.812 101.309 135.812 101.872C135.812 102.435 136.311 102.951 136.872 102.971C137.438 102.99 137.971 102.508 138.007 101.949C138.046 101.386 137.582 100.839 137.021 100.784Z" fill="white"/>
<path d="M137.013 85.8191L136.872 85.8152C136.307 85.8307 135.805 86.3433 135.805 86.9063C135.805 87.4694 136.304 87.9858 136.865 88.0052C137.43 88.0246 137.964 87.5431 137.999 86.984C138.038 86.4209 137.574 85.8734 137.013 85.8191Z" fill="white"/>
<path d="M136.869 72.4303C137.434 72.4497 137.968 71.9682 138.003 71.4091C138.042 70.8499 137.574 70.3024 137.013 70.248L136.872 70.2441C136.307 70.2597 135.805 70.7722 135.805 71.3353C135.809 71.8944 136.307 72.4109 136.869 72.4303Z" fill="white"/>
<path d="M120.045 33.1573C118.678 31.6507 117.302 30.1247 116.304 28.354C115.307 26.5834 114.714 24.5137 115.045 22.5101C115.236 21.3374 115.739 20.2229 115.817 19.0386C115.926 17.4077 115.236 15.7031 115.817 14.1771C116.725 11.789 119.952 11.4201 121.908 9.76981C123.432 8.48452 124.172 6.39933 125.852 5.31596C127.317 4.37238 129.2 4.3918 130.926 4.63643C132.652 4.88106 134.39 5.31596 136.121 5.08298C137.352 4.91601 138.513 4.42286 139.722 4.12387C140.93 3.82488 142.274 3.74721 143.35 4.3685C144.425 4.98979 145.029 6.51194 144.324 7.53318C146.327 6.6129 148.872 8.16999 149.421 10.2979C149.971 12.4258 148.872 14.7284 147.173 16.1302C145.474 17.5359 143.28 18.1882 141.113 18.596C134.975 19.7492 128.319 19.0969 123.031 15.7885" fill="#263238"/>
<path d="M141.623 53.7181C141.323 51.4038 141.077 49.4739 141.062 49.2332C141.062 49.2332 148.825 47.4936 148.396 39.6731C148.189 35.8949 147.126 28.1405 146.085 21.1394C144.967 13.6218 138.229 8.22442 130.618 8.72922L129.862 8.7797C121.732 9.79705 118.061 17.2486 119.308 25.3137L123.693 52.3668C123.693 52.3668 125.563 58.3506 129.569 59.3873L134.62 66.5787L135.454 63.4839L139.218 60.2183C139.218 60.2183 140.084 59.2864 141.073 57.4652C141.896 55.9741 141.724 54.4442 141.623 53.7181Z" fill="#FFBE9D"/>
<path d="M141.069 49.1167C141.069 49.1167 136.139 49.8505 130.648 46.9033C130.648 46.9033 133.443 52.3668 141.221 51.1397L141.069 49.1167Z" fill="#EB996E"/>
<path d="M143.562 27.861C143.625 28.4473 143.173 28.9832 142.557 29.0608C141.941 29.1346 141.396 28.7191 141.333 28.1328C141.275 27.5464 141.723 27.0067 142.335 26.9329C142.954 26.8553 143.5 27.2707 143.562 27.861Z" fill="#263238"/>
<path d="M144.661 25.0885C144.532 25.2438 143.64 24.673 142.435 24.7584C141.231 24.8244 140.386 25.5001 140.245 25.3642C140.175 25.302 140.3 25.0302 140.666 24.7274C141.029 24.4245 141.656 24.1099 142.408 24.0634C143.16 24.0168 143.811 24.2497 144.193 24.5099C144.579 24.7623 144.723 25.0186 144.661 25.0885Z" fill="#263238"/>
<path d="M132.18 28.6725C132.242 29.2588 131.79 29.7947 131.174 29.8723C130.558 29.9461 130.013 29.5306 129.95 28.9443C129.892 28.358 130.34 27.8182 130.952 27.7444C131.572 27.6668 132.117 28.0823 132.18 28.6725Z" fill="#263238"/>
<path d="M132.825 26.1019C132.696 26.2572 131.804 25.6864 130.599 25.7718C129.395 25.8379 128.55 26.5135 128.409 26.3776C128.339 26.3155 128.464 26.0437 128.83 25.7408C129.189 25.4379 129.82 25.1234 130.568 25.0768C131.32 25.0302 131.971 25.2632 132.353 25.5233C132.747 25.7757 132.891 26.032 132.825 26.1019Z" fill="#263238"/>
<path d="M137.797 34.7146C137.785 34.6485 138.526 34.466 139.73 34.2331C140.034 34.1826 140.322 34.101 140.361 33.8875C140.42 33.6622 140.268 33.34 140.096 32.9905C139.757 32.2682 139.403 31.511 139.028 30.715C137.54 27.4727 136.441 24.8012 136.573 24.7429C136.706 24.6847 138.019 27.263 139.504 30.5053C139.862 31.3052 140.205 32.0663 140.533 32.7963C140.673 33.138 140.899 33.5186 140.774 33.9884C140.708 34.2214 140.494 34.4039 140.299 34.4699C140.104 34.5437 139.933 34.5592 139.781 34.5786C138.565 34.7262 137.809 34.7844 137.797 34.7146Z" fill="#263238"/>
<path d="M132.824 21.3726C132.726 21.7065 131.514 21.6328 130.111 21.8968C128.705 22.1337 127.59 22.6229 127.383 22.3395C127.29 22.2036 127.469 21.8852 127.91 21.5357C128.346 21.1901 129.055 20.8406 129.897 20.6892C130.739 20.5416 131.526 20.6232 132.056 20.7979C132.586 20.9765 132.863 21.2134 132.824 21.3726Z" fill="#263238"/>
<path d="M143.987 21.6404C143.792 21.9278 142.942 21.6987 141.945 21.753C140.943 21.7725 140.113 22.0598 139.899 21.788C139.805 21.656 139.918 21.3725 140.273 21.089C140.62 20.8095 141.216 20.5571 141.902 20.5299C142.588 20.5066 143.199 20.7124 143.566 20.9687C143.936 21.2288 144.072 21.5006 143.987 21.6404Z" fill="#263238"/>
<path d="M120.338 31.0604C120.201 31.0099 114.843 29.8295 115.373 35.1648C115.903 40.4962 121.702 38.7604 121.698 38.6051C121.69 38.4498 120.338 31.0604 120.338 31.0604Z" fill="#FFBE9D"/>
<path d="M119.325 36.8539C119.302 36.8383 119.239 36.9276 119.087 37.0169C118.939 37.1024 118.682 37.1761 118.394 37.0985C117.809 36.947 117.244 36.1005 117.123 35.1414C117.061 34.6561 117.119 34.1862 117.252 33.7863C117.376 33.3785 117.602 33.0834 117.883 33.0058C118.16 32.9126 118.378 33.064 118.46 33.2077C118.546 33.3513 118.522 33.4601 118.553 33.464C118.569 33.4756 118.659 33.363 118.596 33.1456C118.565 33.0407 118.487 32.9203 118.351 32.831C118.21 32.7378 118.019 32.7068 117.821 32.7456C117.411 32.8155 117.076 33.231 116.928 33.6698C116.757 34.1124 116.683 34.6444 116.753 35.188C116.893 36.2597 117.544 37.2111 118.343 37.3548C118.729 37.4169 119.033 37.2732 119.181 37.1295C119.325 36.982 119.344 36.8616 119.325 36.8539Z" fill="#EB996E"/>
<path d="M145.689 13.8548C145.323 15.9788 141.001 17.9203 137.42 17.8193C134.119 17.7223 132.486 16.0914 130.086 14.9304C128.566 14.1965 128.566 14.1965 126.508 14.5304C124.84 14.8022 123.979 16.7593 123.04 18.1611C124.821 22.0324 124.1 26.5329 123.348 30.7266C123.266 31.1886 123.16 31.6896 122.806 32.0002C122.206 32.5283 121.228 32.2138 120.639 31.674C119.692 30.812 119.26 29.5267 118.952 28.288C118.246 25.4612 117.973 22.4984 118.422 19.6172C118.87 16.736 120.066 13.9402 122.042 11.789C124.509 9.10192 128.118 7.55259 131.769 7.3662C135.421 7.17982 139.088 8.3059 142.143 10.3018C143.562 11.2182 144.887 12.3637 145.689 13.8548Z" fill="#263238"/>
<path d="M138.581 37.417C137.672 36.9937 136.761 36.5705 135.853 36.1511C135.697 36.0773 135.529 36.0035 135.358 36.0268C135.163 36.054 135.011 36.1977 134.886 36.3452C134.255 37.1102 134.095 38.2596 134.582 39.1216C135.073 39.9837 136.223 40.438 137.143 40.0574C138.109 39.6575 138.581 38.5392 138.655 37.4985L138.581 37.417Z" fill="#EB996E"/>
<path d="M137.23 40.2517C137.238 40.275 137.105 40.3526 136.832 40.4109C136.563 40.4613 136.142 40.4846 135.659 40.3254C135.18 40.174 134.638 39.8012 134.303 39.2032C133.964 38.6208 133.839 37.8015 134.135 37.0598C134.276 36.6909 134.498 36.3647 134.767 36.1085C134.903 35.9803 135.047 35.8716 135.211 35.7745C135.297 35.7279 135.402 35.6813 135.527 35.6736C135.648 35.6658 135.757 35.6969 135.842 35.7357C136.022 35.8133 136.135 35.8988 136.267 35.9764C136.396 36.0541 136.517 36.1318 136.637 36.2055C136.871 36.3531 137.093 36.489 137.3 36.621C138.11 37.1336 138.594 37.4714 138.566 37.5219C138.539 37.5685 138.001 37.3161 137.156 36.8695C136.941 36.753 136.711 36.6288 136.466 36.4968C136.341 36.4269 136.213 36.357 136.084 36.2871C135.955 36.2172 135.811 36.1279 135.698 36.0852C135.573 36.0424 135.519 36.0463 135.398 36.1123C135.277 36.1861 135.149 36.2871 135.04 36.3958C134.814 36.6171 134.63 36.8928 134.51 37.2074C134.26 37.8325 134.35 38.5121 134.627 39.0285C134.899 39.5488 135.34 39.8905 135.753 40.0614C136.17 40.2361 136.552 40.2594 136.809 40.2594C137.074 40.2478 137.222 40.2206 137.23 40.2517Z" fill="#263238"/>
<path d="M136.376 27.9928C136.345 27.9967 136.38 27.4958 136.161 26.6415C135.947 25.8067 135.386 24.5757 134.123 23.6205C133.496 23.1545 132.709 22.7624 131.801 22.6032C130.9 22.4517 129.879 22.4789 128.913 22.8478C128.426 23.0186 127.954 23.271 127.526 23.5933C127.089 23.9079 126.692 24.3 126.364 24.7544C125.69 25.6513 125.308 26.8007 125.296 27.985C125.308 29.1694 125.686 30.3226 126.364 31.2196C126.692 31.6739 127.089 32.0661 127.526 32.3845C127.958 32.7068 128.426 32.9631 128.913 33.1301C129.879 33.499 130.9 33.5261 131.801 33.3747C132.709 33.2155 133.496 32.8233 134.123 32.3573C135.386 31.406 135.947 30.1751 136.161 29.3363C136.38 28.4898 136.341 27.9928 136.376 27.9928C136.38 27.9928 136.38 28.0239 136.38 28.0821C136.38 28.1559 136.376 28.2413 136.376 28.3462C136.376 28.4627 136.368 28.6063 136.341 28.7772C136.317 28.948 136.298 29.1422 136.235 29.3596C136.146 29.7945 135.947 30.311 135.631 30.8624C135.312 31.4099 134.848 31.9846 134.209 32.4738C133.574 32.9592 132.767 33.3708 131.832 33.5417C130.904 33.7048 129.852 33.6815 128.851 33.3087C128.344 33.1378 127.857 32.8738 127.409 32.5437C126.957 32.2176 126.543 31.8137 126.204 31.3439C125.503 30.4158 125.105 29.2237 125.094 27.9928C125.105 26.7619 125.503 25.5698 126.204 24.6417C126.543 24.1719 126.957 23.7681 127.409 23.4419C127.857 23.1118 128.344 22.8478 128.851 22.6769C129.852 22.3003 130.904 22.277 131.832 22.4439C132.767 22.6148 133.574 23.0303 134.209 23.5118C134.848 24.001 135.312 24.5757 135.631 25.1232C135.947 25.6746 136.146 26.1911 136.235 26.626C136.298 26.8395 136.317 27.0376 136.341 27.2084C136.368 27.3793 136.376 27.523 136.376 27.6395C136.376 27.7443 136.38 27.8336 136.38 27.9035C136.38 27.9617 136.376 27.9928 136.376 27.9928Z" fill="#263238"/>
<path d="M149.72 27.4725C149.689 27.4764 149.724 26.9871 149.51 26.1561C149.299 25.3407 148.754 24.1408 147.522 23.2167C146.914 22.7624 146.147 22.3779 145.262 22.2265C144.385 22.079 143.391 22.1061 142.448 22.4673C141.973 22.6303 141.517 22.8789 141.096 23.1934C140.671 23.5001 140.285 23.8846 139.966 24.3272C139.307 25.2009 138.937 26.3192 138.925 27.4764C138.937 28.6335 139.307 29.7518 139.962 30.6255C140.282 31.0682 140.667 31.4487 141.092 31.7594C141.513 32.0739 141.969 32.3224 142.444 32.4855C143.387 32.8427 144.377 32.8738 145.258 32.7224C146.143 32.567 146.91 32.1826 147.518 31.7322C148.75 30.8041 149.295 29.6082 149.502 28.7927C149.724 27.954 149.689 27.4686 149.72 27.4725C149.728 27.4725 149.728 27.5929 149.724 27.8181C149.724 27.9307 149.72 28.0744 149.693 28.2375C149.669 28.4044 149.65 28.5947 149.592 28.8044C149.401 29.6353 148.867 30.874 147.616 31.8409C146.996 32.3146 146.209 32.7185 145.297 32.8816C144.393 33.0408 143.368 33.0175 142.39 32.6525C141.899 32.4855 141.423 32.2292 140.987 31.903C140.547 31.5846 140.145 31.1924 139.814 30.7342C139.128 29.8295 138.742 28.6685 138.734 27.4686C138.746 26.2687 139.132 25.1077 139.818 24.203C140.149 23.7448 140.55 23.3487 140.991 23.0342C141.427 22.7119 141.903 22.4556 142.394 22.2886C143.372 21.9236 144.397 21.9003 145.301 22.0595C146.213 22.2265 147 22.6303 147.62 23.1002C148.871 24.0671 149.404 25.3019 149.595 26.1367C149.654 26.3464 149.677 26.5367 149.697 26.7036C149.724 26.8667 149.732 27.0104 149.728 27.123C149.728 27.3521 149.728 27.4725 149.72 27.4725Z" fill="#263238"/>
<path d="M138.832 26.2418C138.809 26.265 138.68 26.1563 138.446 26.0437C138.212 25.9311 137.862 25.8224 137.464 25.8301C137.071 25.834 136.72 25.9583 136.49 26.0787C136.256 26.199 136.135 26.3116 136.112 26.2922C136.092 26.2767 136.182 26.1214 136.416 25.9583C136.646 25.7952 137.02 25.636 137.46 25.6282C137.897 25.6205 138.279 25.7641 138.516 25.9195C138.75 26.0748 138.848 26.2262 138.832 26.2418Z" fill="#263238"/>
<path d="M125.532 27.2046C125.567 27.2512 124.472 28.121 123.089 29.1461C121.705 30.1751 120.559 30.9711 120.524 30.9284C120.489 30.8818 121.584 30.012 122.968 28.9869C124.351 27.954 125.501 27.158 125.532 27.2046Z" fill="#263238"/>
<g opacity="0.3">
<path d="M120.923 52.4753C120.381 57.7446 122.392 63.309 126.632 66.5009C126.963 66.7533 127.384 66.9979 127.774 66.8581C128.046 66.761 128.222 66.5009 128.366 66.2485C129.574 64.1633 129.979 61.8606 129.632 59.4765C128.962 61.2394 128.385 62.9673 127.707 64.8118C124.009 62.579 121.706 57.8262 120.923 52.4753Z" fill="black"/>
</g>
<path opacity="0.3" d="M135.289 64.4584L138.403 63.3246L138.917 68.5706C138.917 68.5706 142.276 62.4703 143.668 59.6862C145.059 56.902 144.342 51.99 144.342 51.99C144.342 51.99 144.841 56.2691 141.474 61.7248L138.933 65.8408V61.5306L135.289 64.4584Z" fill="black"/>
<g opacity="0.3">
<path d="M99.0706 91.1195C97.6832 90.4671 96.0855 90.3778 94.5617 90.5564C92.9522 90.7428 91.335 91.236 90.0723 92.2494C88.8097 93.2629 87.9562 94.8627 88.1121 96.4703L88.268 96.4936C89.3552 93.5658 91.5142 91.434 94.3006 91.1738C97.087 90.9176 99.8032 92.1524 101.717 94.1871C101.53 92.6649 100.458 91.7718 99.0706 91.1195Z" fill="black"/>
</g>
<g opacity="0.3">
<path d="M177.789 94.1134C176.745 92.9912 175.28 92.3116 173.767 92.0476C171.114 91.5855 168.265 92.4087 166.266 94.2104L166.858 93.7289C168.366 92.8475 170.104 92.3272 171.854 92.3776C173.6 92.4281 175.35 93.0727 176.616 94.2726C177.781 95.3792 178.479 96.8703 179.145 98.3265C179.406 96.8198 178.83 95.2356 177.789 94.1134Z" fill="black"/>
</g>
<path d="M157.728 69.7512C157.717 69.7473 157.767 69.5959 157.869 69.3279C157.989 69.0212 158.137 68.6445 158.313 68.198C158.691 67.2466 159.205 65.9303 159.755 64.4703C160.3 63.0063 160.772 61.6745 161.111 60.7076C161.271 60.2572 161.407 59.8766 161.516 59.566C161.614 59.298 161.676 59.1505 161.688 59.1544C161.699 59.1583 161.664 59.3136 161.59 59.5893C161.516 59.865 161.399 60.2649 161.247 60.7542C160.943 61.7327 160.491 63.0762 159.946 64.5401C159.4 66.0041 158.858 67.3126 158.449 68.2523C158.243 68.7222 158.071 69.0988 157.946 69.359C157.814 69.6153 157.74 69.7551 157.728 69.7512Z" fill="#263238"/>
<path d="M108.592 70.1316C108.537 70.1433 108.112 68.2949 107.645 66.004C107.177 63.713 106.842 61.8491 106.896 61.8375C106.951 61.8258 107.376 63.6741 107.843 65.9651C108.311 68.2561 108.646 70.12 108.592 70.1316Z" fill="#263238"/>
<path d="M107.856 93.2319C107.981 93.294 106.43 81.1323 106.43 81.1323C106.43 81.1323 107.408 71.9024 107.957 71.4752L107.973 68.2174C107.973 68.2174 109.489 67.301 109.894 68.7804C109.894 68.7804 111.239 67.6194 111.472 70.3841C111.706 73.1488 111.757 75.9795 111.757 75.9795L114.746 83.4272L115.237 83.6757C115.237 83.6757 115.88 77.8395 116.254 76.9814C116.628 76.1232 116.885 74.0341 118.3 74.3487C119.719 74.6632 119.836 75.832 119.582 77.7347C119.329 79.6374 119.009 81.6022 119.13 82.8331C119.247 84.064 119.808 86.7705 119.637 88.9178C119.465 91.069 118.285 93.3367 117.041 94.9288C115.802 96.5208 113.433 99.8136 112.143 100.808C111.691 101.153 107.856 93.2319 107.856 93.2319Z" fill="#FFBE9D"/>
<path d="M109.364 83.3339C109.349 83.3339 109.353 83.1476 109.372 82.8136C109.399 82.4409 109.43 81.9671 109.469 81.4002C109.559 80.2081 109.699 78.5617 109.867 76.7444C109.953 75.8397 110.035 74.9738 110.109 74.1855C110.148 73.7933 110.171 73.4244 110.12 73.0866C110.074 72.7488 109.941 72.4576 109.746 72.2479C109.353 71.8207 108.842 71.712 108.526 71.7159C108.195 71.712 108.024 71.8013 108.016 71.7819C108.012 71.7741 108.055 71.7547 108.137 71.7198C108.222 71.6887 108.351 71.6499 108.522 71.6382C108.858 71.6149 109.403 71.7004 109.851 72.1547C110.074 72.3799 110.229 72.7061 110.284 73.0633C110.346 73.4244 110.323 73.8089 110.292 74.2049C110.222 74.9971 110.144 75.8591 110.066 76.7677C109.898 78.585 109.734 80.2275 109.61 81.4157C109.544 81.9788 109.489 82.4525 109.446 82.8214C109.411 83.1514 109.38 83.3339 109.364 83.3339Z" fill="#EB996E"/>
<path d="M110.969 78.3598C110.997 78.3831 110.665 78.6743 110.439 79.3189C110.198 79.9519 110.112 80.9071 109.941 81.9439C109.781 82.9845 109.621 83.9242 109.5 84.5999C109.375 85.2794 109.286 85.6949 109.259 85.691C109.231 85.6871 109.27 85.26 109.36 84.5766C109.446 83.8931 109.582 82.9496 109.742 81.9089C109.909 80.876 110.018 79.9169 110.307 79.2607C110.443 78.9345 110.607 78.6976 110.739 78.5501C110.868 78.4103 110.962 78.352 110.969 78.3598Z" fill="#EB996E"/>
<path d="M109.874 68.6173C109.89 68.6134 109.925 68.7493 109.979 69.0017C110.034 69.2502 110.1 69.6113 110.174 70.0618C110.322 70.9587 110.486 72.2052 110.591 73.5914C110.692 74.9777 110.716 76.2358 110.7 77.1444C110.692 77.5987 110.681 77.9676 110.661 78.22C110.646 78.4724 110.63 78.6122 110.615 78.6122C110.583 78.6122 110.579 78.0492 110.556 77.1444C110.533 76.2358 110.49 74.9854 110.389 73.607C110.287 72.2285 110.147 70.982 110.034 70.0812C109.921 69.1803 109.843 68.625 109.874 68.6173Z" fill="#EB996E"/>
<path d="M118.494 80.0219C118.525 80.0685 118.058 80.282 117.489 80.1073C116.916 79.9365 116.651 79.4977 116.701 79.4782C116.748 79.4394 117.044 79.7695 117.547 79.917C118.046 80.0724 118.478 79.9636 118.494 80.0219Z" fill="#EB996E"/>
<path d="M108.022 91.7175L100.123 95.0259H95.4154C95.4154 95.0259 90.7623 96.4743 90.0453 100.819C89.3282 105.168 89.2269 107.405 91.2729 107.941C93.3188 108.477 99.0981 108.539 101.962 107.591C104.827 106.644 112.329 100.61 112.329 100.61L113.053 96.2452L108.022 91.7175Z" fill="#FFBE9D"/>
<path d="M109.871 96.5208C109.86 96.5286 109.782 96.4587 109.645 96.315C109.505 96.1791 109.334 95.9539 109.131 95.6665C108.741 95.0841 108.313 94.2026 108.028 93.1775C107.732 92.1524 107.607 91.1933 107.541 90.5021C107.483 89.8109 107.483 89.3799 107.51 89.376C107.541 89.3721 107.588 89.7993 107.681 90.4827C107.783 91.1661 107.931 92.1097 108.219 93.1193C108.5 94.1327 108.897 94.9986 109.248 95.5889C109.61 96.1791 109.899 96.4975 109.871 96.5208Z" fill="#EB996E"/>
<path d="M113.317 97.9031C113.274 97.8876 113.629 97.2896 113.765 96.214C113.832 95.682 113.824 95.0335 113.672 94.3385C113.52 93.6434 113.189 92.9289 112.705 92.2611C112.226 91.5893 111.684 91.0068 111.232 90.4438C110.773 89.8808 110.406 89.3332 110.165 88.8362C109.923 88.3392 109.81 87.9004 109.767 87.5936C109.728 87.2869 109.744 87.116 109.755 87.116C109.794 87.1083 109.783 87.8111 110.293 88.7702C110.543 89.2478 110.917 89.7759 111.377 90.3234C111.836 90.8748 112.382 91.4573 112.873 92.1407C113.368 92.8202 113.715 93.5735 113.859 94.2919C114.007 95.0102 113.995 95.682 113.91 96.2256C113.824 96.7731 113.672 97.1964 113.547 97.476C113.489 97.6158 113.43 97.7206 113.387 97.7905C113.348 97.872 113.325 97.907 113.317 97.9031Z" fill="#EB996E"/>
<path d="M101.142 78.95C101.091 78.9772 100.23 77.4123 99.2166 75.4591C98.2034 73.506 97.424 71.9023 97.4707 71.8751C97.5214 71.8479 98.3827 73.4128 99.3959 75.366C100.409 77.323 101.189 78.9267 101.142 78.95Z" fill="white"/>
<path d="M113.917 64.7807C113.867 64.7574 114.401 63.4566 115.106 61.8723C115.815 60.2881 116.431 59.0222 116.482 59.0455C116.532 59.0688 115.998 60.3696 115.293 61.9539C114.584 63.5382 113.968 64.804 113.917 64.7807Z" fill="white"/>
<path d="M126.416 73.9798C126.373 74.0147 125.57 73.1216 124.627 71.9839C123.68 70.8462 122.951 69.8948 122.994 69.8599C123.037 69.8249 123.84 70.718 124.783 71.8558C125.73 72.9896 126.458 73.941 126.416 73.9798Z" fill="white"/>
<path d="M123.542 86.6269C123.495 86.5959 124.099 85.6872 124.89 84.6C125.681 83.5127 126.359 82.6585 126.402 82.6934C126.449 82.7245 125.845 83.6331 125.054 84.7204C124.263 85.8037 123.588 86.658 123.542 86.6269Z" fill="white"/>
<path d="M119.671 104.489C119.647 104.5 119.468 104.205 119.215 103.708C118.958 103.211 118.626 102.516 118.295 101.736C117.96 100.951 117.691 100.233 117.508 99.7049C117.329 99.1768 117.235 98.8429 117.262 98.8351C117.29 98.8273 117.43 99.1419 117.644 99.6544C117.89 100.237 118.17 100.913 118.482 101.658C118.802 102.4 119.094 103.068 119.347 103.65C119.566 104.159 119.698 104.477 119.671 104.489Z" fill="white"/>
<path d="M130.677 96.8976C130.665 96.9519 129.605 96.7927 128.311 96.5442C127.013 96.2957 125.973 96.0472 125.984 95.9928C125.996 95.9385 127.056 96.0977 128.35 96.3462C129.644 96.5947 130.688 96.8432 130.677 96.8976Z" fill="white"/>
<path d="M139.212 80.2042C139.169 80.1654 140.183 79.016 141.469 77.6298C142.755 76.2474 143.834 75.1563 143.873 75.1951C143.916 75.2339 142.903 76.3833 141.617 77.7696C140.331 79.1519 139.255 80.2431 139.212 80.2042Z" fill="white"/>
<path d="M147.801 102.466C147.758 102.501 146.499 101.048 144.987 99.2195C143.475 97.3906 142.286 95.88 142.329 95.8451C142.372 95.8102 143.631 97.2624 145.143 99.0913C146.655 100.92 147.844 102.431 147.801 102.466Z" fill="white"/>
<path d="M94.4906 92.9755C94.5179 93.0299 93.3683 93.6124 92.1134 94.5715C90.8547 95.5228 89.9856 96.478 89.9389 96.4353C89.9194 96.4198 90.1103 96.1596 90.4689 95.7752C90.8235 95.3947 91.3535 94.8976 91.9887 94.4123C92.6239 93.9308 93.2475 93.5541 93.7112 93.3095C94.1789 93.0687 94.4789 92.9561 94.4906 92.9755Z" fill="white"/>
<path d="M97.6981 84.398C97.7449 84.4291 97.3357 85.1242 96.7823 85.9513C96.229 86.7784 95.7457 87.4229 95.699 87.3919C95.6522 87.3608 96.0614 86.6657 96.6148 85.8387C97.1681 85.0116 97.6514 84.367 97.6981 84.398Z" fill="white"/>
<path d="M104.935 92.8242C104.892 92.8513 104.483 92.1718 104.273 91.2282C104.055 90.2885 104.129 89.5003 104.179 89.5042C104.242 89.5042 104.261 90.2691 104.471 91.1816C104.674 92.098 104.99 92.797 104.935 92.8242Z" fill="white"/>
<path d="M106.009 66.0623C106.016 66.1167 105.346 66.2603 104.508 66.3768C103.67 66.4972 102.984 66.5477 102.977 66.4933C102.969 66.4389 103.639 66.2953 104.477 66.1788C105.315 66.0584 106.001 66.004 106.009 66.0623Z" fill="white"/>
<path d="M111.444 56.4594C111.471 56.5099 110.883 56.8866 110.13 57.302C109.378 57.7175 108.743 58.0165 108.72 57.966C108.692 57.9156 109.281 57.5389 110.033 57.1234C110.785 56.7079 111.416 56.4089 111.444 56.4594Z" fill="white"/>
<path d="M126.722 60.5135C126.68 60.5484 126.005 59.7408 125.218 58.7118C124.431 57.6828 123.831 56.8246 123.878 56.7897C123.92 56.7547 124.595 57.5624 125.382 58.5914C126.165 59.6204 126.765 60.4824 126.722 60.5135Z" fill="white"/>
<path d="M146.12 70.1705C146.081 70.2055 145.372 69.4793 144.717 68.4231C144.054 67.367 143.715 66.4156 143.762 66.3962C143.817 66.3729 144.238 67.2776 144.888 68.3183C145.535 69.3551 146.167 70.1317 146.12 70.1705Z" fill="white"/>
<path d="M153.524 72.6013C153.575 72.6246 153.216 73.5255 152.721 74.6088C152.226 75.6961 151.786 76.5581 151.731 76.5348C151.681 76.5115 152.039 75.6106 152.534 74.5273C153.029 73.44 153.473 72.578 153.524 72.6013Z" fill="white"/>
<path d="M154.555 62.5327C154.512 62.5676 153.632 61.5852 152.587 60.3349C151.543 59.0845 150.732 58.04 150.775 58.0051C150.818 57.9701 151.699 58.9525 152.743 60.2028C153.787 61.4532 154.598 62.4977 154.555 62.5327Z" fill="white"/>
<path d="M143.247 54.3549C143.192 54.3588 143.11 53.5162 143.072 52.4716C143.029 51.431 143.044 50.5845 143.099 50.5806C143.153 50.5767 143.235 51.4193 143.274 52.4639C143.313 53.5045 143.301 54.351 143.247 54.3549Z" fill="white"/>
<path d="M152.469 53.8461C152.477 53.9005 151.397 54.0907 150.065 54.2694C148.728 54.448 147.641 54.5451 147.633 54.4907C147.625 54.4363 148.701 54.2461 150.037 54.0674C151.37 53.8888 152.461 53.7879 152.469 53.8461Z" fill="white"/>
<path d="M166.993 64.474C166.942 64.4973 166.295 63.2664 165.543 61.7248C164.795 60.1833 164.226 58.9096 164.277 58.8863C164.327 58.863 164.974 60.0939 165.726 61.6355C166.475 63.1771 167.043 64.4468 166.993 64.474Z" fill="white"/>
<path d="M164.542 73.6536C164.488 73.642 164.64 72.6518 164.881 71.4442C165.123 70.2327 165.365 69.2619 165.419 69.2735C165.474 69.2852 165.322 70.2754 165.08 71.483C164.839 72.6945 164.597 73.6653 164.542 73.6536Z" fill="white"/>
<path d="M171.281 80.8955C171.226 80.915 170.712 79.5792 170.123 77.9134C169.539 76.2475 169.106 74.8807 169.161 74.8613C169.215 74.8419 169.73 76.1776 170.318 77.8435C170.903 79.5093 171.335 80.8761 171.281 80.8955Z" fill="white"/>
<path d="M170.345 85.1281C170.333 85.1786 169.402 84.9844 168.377 84.4252C167.348 83.8739 166.674 83.2021 166.713 83.1671C166.752 83.1205 167.469 83.7108 168.474 84.2505C169.472 84.7941 170.36 85.0698 170.345 85.1281Z" fill="white"/>
<path d="M178.969 94.785C178.918 94.8083 178.607 94.2181 178.271 93.4686C177.936 92.7192 177.706 92.094 177.757 92.0707C177.808 92.0474 178.119 92.6377 178.455 93.3871C178.79 94.1365 179.02 94.7617 178.969 94.785Z" fill="white"/>
<path d="M128.015 108.252C127.96 108.259 127.824 107.487 127.711 106.531C127.598 105.576 127.555 104.796 127.609 104.788C127.664 104.78 127.8 105.553 127.913 106.508C128.026 107.463 128.069 108.244 128.015 108.252Z" fill="white"/>
<path d="M154.482 107.584C154.428 107.572 154.541 106.819 154.736 105.902C154.931 104.986 155.133 104.252 155.188 104.264C155.242 104.275 155.129 105.029 154.935 105.945C154.74 106.861 154.537 107.595 154.482 107.584Z" fill="white"/>
<path d="M159.555 30.5867L162.976 24.5757C161.46 22.1255 160.587 19.2443 160.587 16.1573C160.587 7.27679 167.813 0.0776367 176.725 0.0776367C185.638 0.0776367 192.863 7.27679 192.863 16.1573C192.863 25.0378 185.638 32.237 176.725 32.237C173.003 32.237 169.578 30.9789 166.85 28.8704L166.854 28.8781L159.555 30.5867Z" fill="#FAFAFA"/>
<path d="M159.555 30.5866C159.902 30.509 162.212 29.9809 166.866 28.9208L166.94 28.9053L166.893 28.8431L166.889 28.8354L166.819 28.9053C167.738 29.6159 168.841 30.3148 170.139 30.9012C171.437 31.4758 172.925 31.9418 174.566 32.1593C175.385 32.2641 176.242 32.3301 177.123 32.2874C177.563 32.2641 178.011 32.2524 178.463 32.2136C178.911 32.1476 179.367 32.0777 179.827 32.0078C181.655 31.6467 183.522 30.9555 185.267 29.8799C187.009 28.8043 188.623 27.3482 189.917 25.5581C191.207 23.768 192.185 21.6479 192.645 19.3452C193.097 17.0426 193.062 14.5769 192.454 12.1888C191.842 9.80848 190.7 7.48643 188.993 5.57597L188.334 4.85373C188.116 4.6091 187.859 4.41106 187.625 4.18584C187.38 3.97616 187.157 3.73541 186.892 3.54903L186.117 2.97045C185.868 2.76854 185.591 2.60545 185.314 2.44236C185.041 2.27539 184.769 2.1123 184.496 1.94533C184.207 1.80554 183.923 1.66964 183.638 1.52985C183.35 1.39782 183.073 1.2425 182.773 1.14543C180.427 0.217379 177.929 -0.135977 175.536 0.0387597C173.144 0.209613 170.856 0.893028 168.896 1.99581C166.928 3.08694 165.268 4.54697 163.986 6.17396C162.7 7.80484 161.795 9.5988 161.234 11.3889C160.677 13.1867 160.525 14.969 160.533 16.6193C160.58 18.2735 160.884 19.7995 161.324 21.1353C161.764 22.475 162.345 23.6282 162.941 24.5951V24.5485C160.778 28.4082 159.722 30.2915 159.555 30.5866C159.726 30.2915 160.806 28.4238 163.019 24.599L163.035 24.5757L163.019 24.5524C162.431 23.5855 161.862 22.4361 161.429 21.1042C161 19.7724 160.704 18.2619 160.665 16.6193C160.665 14.9807 160.821 13.2178 161.379 11.4394C161.94 9.66869 162.84 7.89415 164.114 6.28269C165.385 4.67511 167.029 3.2345 168.978 2.1589C170.918 1.07165 173.183 0.399882 175.544 0.232912C177.906 0.065941 180.377 0.415415 182.691 1.33181C182.988 1.425 183.26 1.58033 183.545 1.71235C183.826 1.84826 184.11 1.98416 184.391 2.12395C184.659 2.28704 184.928 2.45013 185.197 2.61321C185.47 2.7763 185.743 2.93551 185.988 3.13742L186.752 3.70823C187.013 3.89073 187.232 4.1276 187.473 4.33728C187.703 4.55862 187.96 4.75665 188.175 4.9974L188.825 5.71188C190.513 7.59904 191.639 9.89391 192.243 12.2431C192.843 14.6002 192.882 17.0387 192.438 19.3142C191.986 21.5896 191.023 23.6903 189.749 25.4571C188.475 27.2317 186.881 28.6762 185.158 29.7401C183.436 30.8118 181.589 31.4991 179.78 31.8603C179.324 31.9302 178.872 32 178.432 32.0661C177.984 32.1049 177.54 32.1165 177.107 32.1437C176.234 32.1903 175.385 32.1243 174.574 32.0233C172.945 31.8137 171.468 31.3555 170.178 30.7924C168.888 30.2216 167.789 29.5304 166.869 28.8315L166.569 28.6024L166.799 28.9014L166.803 28.9092L166.83 28.8315C162.205 29.9459 159.902 30.5051 159.555 30.5866Z" fill="#263238"/>
<path d="M181.086 15.4855C181.086 16.3514 181.791 17.0581 182.664 17.0581C183.537 17.0581 184.243 16.3553 184.243 15.4855C184.243 14.6196 183.537 13.9128 182.664 13.9128C181.791 13.9128 181.086 14.6157 181.086 15.4855Z" fill="#263238"/>
<path d="M174.773 15.4855C174.773 16.3514 175.479 17.0581 176.352 17.0581C177.225 17.0581 177.93 16.3553 177.93 15.4855C177.93 14.6196 177.225 13.9128 176.352 13.9128C175.479 13.9128 174.773 14.6157 174.773 15.4855Z" fill="#263238"/>
<path d="M168.477 14.6974C168.041 15.4507 168.302 16.4098 169.054 16.8447C169.81 17.2796 170.773 17.0195 171.209 16.27C171.646 15.5167 171.384 14.5576 170.632 14.1227C169.88 13.6917 168.914 13.948 168.477 14.6974Z" fill="#263238"/>
</g>
<defs>
<clipPath id="clip0_8153_1451">
<rect width="273" height="132" fill="white"/>
</clipPath>
</defs>
</svg>
