<svg width="44" height="44" viewBox="0 0 44 44" fill="none" xmlns="http://www.w3.org/2000/svg">
<g clip-path="url(#clip0_8153_126)">
<path d="M0.6875 22C0.6875 10.2266 10.2266 0.6875 22 0.6875C33.7734 0.6875 43.3125 10.2266 43.3125 22C43.3125 33.7734 33.7734 43.3125 22 43.3125C10.2266 43.3125 0.6875 33.7734 0.6875 22ZM22 40.5625C32.2008 40.5625 40.5625 32.3039 40.5625 22C40.5625 11.7992 32.3039 3.4375 22 3.4375C11.7992 3.4375 3.4375 11.6961 3.4375 22C3.4375 32.2008 11.6961 40.5625 22 40.5625ZM23.0742 32.6133L32.9656 22.7305C33.3695 22.3266 33.3695 21.6734 32.9656 21.2695L23.0742 11.3867C22.6703 10.9828 22.0172 10.9828 21.6133 11.3867L21.0203 11.9797C20.6164 12.3836 20.6164 13.0539 21.0375 13.4492L28.3852 20.5391H12.0312C11.4641 20.5391 11 21.0031 11 21.5703V22.4297C11 22.9969 11.4641 23.4609 12.0312 23.4609H28.3852L21.0289 30.5508C20.6164 30.9547 20.6078 31.6164 21.0117 32.0203L21.6047 32.6133C22.0172 33.0172 22.6703 33.0172 23.0742 32.6133Z" fill="#5CA4ED"/>
</g>
<defs>
<clipPath id="clip0_8153_126">
<rect width="44" height="44" fill="white" transform="matrix(-1 0 0 1 44 0)"/>
</clipPath>
</defs>
</svg>
