<svg width="44" height="44" viewBox="0 0 44 44" fill="none" xmlns="http://www.w3.org/2000/svg">
<g clip-path="url(#clip0_8153_128)">
<path d="M43.3125 22C43.3125 33.7734 33.7734 43.3125 22 43.3125C10.2266 43.3125 0.6875 33.7734 0.6875 22C0.6875 10.2266 10.2266 0.6875 22 0.6875C33.7734 0.6875 43.3125 10.2266 43.3125 22ZM22 3.4375C11.7992 3.4375 3.4375 11.6961 3.4375 22C3.4375 32.2008 11.6961 40.5625 22 40.5625C32.2008 40.5625 40.5625 32.3039 40.5625 22C40.5625 11.7992 32.3039 3.4375 22 3.4375ZM20.9258 11.3867L11.0344 21.2695C10.6305 21.6734 10.6305 22.3266 11.0344 22.7305L20.9258 32.6133C21.3297 33.0172 21.9828 33.0172 22.3867 32.6133L22.9797 32.0203C23.3836 31.6164 23.3836 30.9461 22.9625 30.5508L15.6148 23.4609H31.9688C32.5359 23.4609 33 22.9969 33 22.4297V21.5703C33 21.0031 32.5359 20.5391 31.9688 20.5391H15.6148L22.9711 13.4492C23.3836 13.0453 23.3922 12.3836 22.9883 11.9797L22.3953 11.3867C21.9828 10.9828 21.3297 10.9828 20.9258 11.3867Z" fill="#5CA4ED"/>
</g>
<defs>
<clipPath id="clip0_8153_128">
<rect width="44" height="44" fill="white" transform="matrix(1 0 0 -1 0 44)"/>
</clipPath>
</defs>
</svg>
