<svg width="32" height="32" viewBox="0 0 32 32" fill="none" xmlns="http://www.w3.org/2000/svg">
<g clip-path="url(#clip0_8153_2190)">
<path d="M0.5 16C0.5 7.4375 7.4375 0.5 16 0.5C24.5625 0.5 31.5 7.4375 31.5 16C31.5 24.5625 24.5625 31.5 16 31.5C7.4375 31.5 0.5 24.5625 0.5 16ZM16 29.5C23.4187 29.5 29.5 23.4937 29.5 16C29.5 8.58125 23.4937 2.5 16 2.5C8.58125 2.5 2.5 8.50625 2.5 16C2.5 23.4188 8.50625 29.5 16 29.5ZM16.7812 23.7188L23.975 16.5312C24.2688 16.2375 24.2688 15.7625 23.975 15.4688L16.7812 8.28125C16.4875 7.9875 16.0125 7.9875 15.7188 8.28125L15.2875 8.7125C14.9937 9.00625 14.9937 9.49375 15.3 9.78125L20.6438 14.9375H8.75C8.3375 14.9375 8 15.275 8 15.6875V16.3125C8 16.725 8.3375 17.0625 8.75 17.0625H20.6438L15.2938 22.2188C14.9938 22.5125 14.9875 22.9937 15.2812 23.2875L15.7125 23.7188C16.0125 24.0125 16.4875 24.0125 16.7812 23.7188Z" fill="#A2362D"/>
</g>
<defs>
<clipPath id="clip0_8153_2190">
<rect width="32" height="32" fill="white" transform="matrix(-1 0 0 1 32 0)"/>
</clipPath>
</defs>
</svg>
