<svg width="71" height="72" viewBox="0 0 71 72" fill="none" xmlns="http://www.w3.org/2000/svg">
<path d="M13.6473 60.9738C13.9662 61.1998 14.4083 61.1226 14.635 60.8031C14.8604 60.4835 14.7838 60.0414 14.4643 59.8154L11.8951 58.0036C26.2162 57.8562 37.7236 53.6241 46.1079 45.3937C60.1051 31.6507 60.4204 11.2843 60.4219 11.0803C60.4247 10.6885 60.1101 10.3696 59.719 10.3661H59.7133C59.3243 10.3661 59.0076 10.68 59.0048 11.0689C59.0034 11.2673 58.6973 31.0471 45.1145 44.3818C37.0399 52.3083 25.9278 56.4236 12.0843 56.5879L14.4529 54.9838C14.7767 54.7641 14.8618 54.3234 14.6428 53.9996C14.5061 53.797 14.2822 53.6886 14.0554 53.6886C13.9187 53.6886 13.7805 53.7283 13.6587 53.8104L8.47141 57.3234L13.6473 60.9738Z" fill="#D6B9BF"/>
</svg>
