<svg width="243" height="154" viewBox="0 0 243 154" fill="none" xmlns="http://www.w3.org/2000/svg">
<g clip-path="url(#clip0_8153_1006)">
<path d="M243 153.861C243 153.938 188.596 154 121.505 154C54.3883 154 0 153.938 0 153.861C0 153.783 54.3883 153.721 121.505 153.721C188.601 153.721 243 153.783 243 153.861Z" fill="#263238"/>
<path d="M139.798 107.742H95.79C90.7574 107.742 86.6797 103.664 86.6797 98.6324V93.7552C86.6797 88.7232 90.7574 84.646 95.79 84.646H139.798V107.742Z" fill="#E26055"/>
<path d="M221.111 88.4858H128.289V84.6511H221.111C221.947 84.6511 222.623 85.3272 222.623 86.1633V86.9736C222.618 87.8097 221.942 88.4858 221.111 88.4858Z" fill="#E26055"/>
<path d="M221.111 107.742H128.289V103.907H221.111C221.947 103.907 222.623 104.583 222.623 105.419V106.229C222.618 107.066 221.942 107.742 221.111 107.742Z" fill="#E26055"/>
<path d="M219.812 103.907H138.821C134.563 103.907 131.109 100.454 131.109 96.1964C131.109 91.9386 134.563 88.4858 138.821 88.4858H219.812C217.644 93.6262 217.644 98.7666 219.812 103.907Z" fill="#F5F5F5"/>
<path opacity="0.3" d="M131.106 107.742H95.9707C90.84 107.742 86.6797 103.582 86.6797 98.4518V93.8636C86.6797 88.7748 90.809 84.646 95.8984 84.646H131.983C123.622 89.7141 124.246 101.843 131.106 107.742Z" fill="black"/>
<path d="M209.974 96.9138C209.974 96.9912 193.349 97.0531 172.846 97.0531C152.339 97.0531 135.719 96.9912 135.719 96.9138C135.719 96.8363 152.339 96.7744 172.846 96.7744C193.349 96.7744 209.974 96.8363 209.974 96.9138Z" fill="#263238"/>
<path d="M217.607 100.341C217.607 100.418 200.981 100.48 180.479 100.48C159.972 100.48 143.352 100.418 143.352 100.341C143.352 100.263 159.972 100.201 180.479 100.201C200.987 100.201 217.607 100.263 217.607 100.341Z" fill="#263238"/>
<path d="M215.357 92.0522C215.357 92.1296 198.731 92.1915 178.229 92.1915C157.722 92.1915 141.102 92.1296 141.102 92.0522C141.102 91.9748 157.722 91.9128 178.229 91.9128C198.731 91.9128 215.357 91.9748 215.357 92.0522Z" fill="#263238"/>
<path d="M127.04 106.126C127.04 106.204 119.256 106.266 109.661 106.266C100.06 106.266 92.2812 106.204 92.2812 106.126C92.2812 106.049 100.06 105.987 109.661 105.987C119.256 105.987 127.04 106.049 127.04 106.126Z" fill="#263238"/>
<path d="M127.04 86.5659C127.04 86.6433 119.256 86.7052 109.661 86.7052C100.06 86.7052 92.2812 86.6433 92.2812 86.5659C92.2812 86.4884 100.06 86.4265 109.661 86.4265C119.256 86.4317 127.04 86.4936 127.04 86.5659Z" fill="#263238"/>
<path d="M135.655 153.69H76.3525C71.3199 153.69 67.2422 149.613 67.2422 144.581V133.056C67.2422 128.024 71.3199 123.947 76.3525 123.947H135.649V153.69H135.655Z" fill="#E26055"/>
<path d="M240.813 128.886H120.836V123.947H240.808C241.644 123.947 242.32 124.623 242.32 125.459V127.374C242.32 128.21 241.644 128.886 240.813 128.886Z" fill="#E26055"/>
<path d="M240.813 153.69H120.836V148.751H240.808C241.644 148.751 242.32 149.427 242.32 150.263V152.178C242.32 153.014 241.644 153.69 240.813 153.69Z" fill="#E26055"/>
<path d="M238.699 148.751H134.392C128.905 148.751 124.461 144.302 124.461 138.821C124.461 133.335 128.91 128.892 134.392 128.892H238.699C235.906 135.508 235.906 142.13 238.699 148.751Z" fill="#F5F5F5"/>
<path opacity="0.3" d="M124.459 153.69H76.2338C71.2683 153.69 67.2422 149.665 67.2422 144.7V133.258C67.2422 128.117 71.4076 123.947 76.5538 123.947H125.589C114.822 130.476 115.627 146.093 124.459 153.69Z" fill="black"/>
<path d="M226.028 139.745C226.028 139.822 204.618 139.884 178.216 139.884C151.804 139.884 130.398 139.822 130.398 139.745C130.398 139.668 151.804 139.606 178.216 139.606C204.618 139.606 226.028 139.668 226.028 139.745Z" fill="#263238"/>
<path d="M235.864 144.158C235.864 144.235 214.454 144.297 188.052 144.297C161.64 144.297 140.234 144.235 140.234 144.158C140.234 144.08 161.64 144.019 188.052 144.019C214.454 144.019 235.864 144.08 235.864 144.158Z" fill="#263238"/>
<path d="M232.966 135.647C232.966 135.725 211.555 135.787 185.153 135.787C158.741 135.787 137.336 135.725 137.336 135.647C137.336 135.57 158.741 135.508 185.153 135.508C211.555 135.508 232.966 135.57 232.966 135.647Z" fill="#263238"/>
<path d="M119.223 151.605C119.223 151.683 109.199 151.745 96.8418 151.745C84.4797 151.745 74.4609 151.683 74.4609 151.605C74.4609 151.528 84.4797 151.466 96.8418 151.466C109.199 151.466 119.223 151.528 119.223 151.605Z" fill="#263238"/>
<path d="M119.223 126.419C119.223 126.497 109.199 126.559 96.8418 126.559C84.4797 126.559 74.4609 126.497 74.4609 126.419C74.4609 126.342 84.4797 126.28 96.8418 126.28C109.199 126.28 119.223 126.342 119.223 126.419Z" fill="#263238"/>
<path d="M153.419 124.061H104.559C100.848 124.061 97.8438 121.052 97.8438 117.346V113.749C97.8438 110.038 100.853 107.035 104.559 107.035H153.419V124.061Z" fill="#455A64"/>
<path d="M238.504 111.045H141.383V107.035H238.504C239.377 107.035 240.089 107.742 240.089 108.619V109.466C240.089 110.338 239.377 111.045 238.504 111.045Z" fill="#455A64"/>
<path d="M238.504 124.061H141.383V120.051H238.504C239.377 120.051 240.089 120.758 240.089 121.635V122.482C240.089 123.354 239.377 124.061 238.504 124.061Z" fill="#455A64"/>
<path d="M237.137 120.051H148.821C146.333 120.051 144.32 118.033 144.32 115.55C144.32 113.063 146.339 111.05 148.821 111.05H237.137C234.866 114.048 234.866 117.047 237.137 120.051Z" fill="#F5F5F5"/>
<path opacity="0.3" d="M144.322 124.061H104.598C100.866 124.061 97.8359 121.037 97.8359 117.3V113.93C97.8359 110.121 100.923 107.035 104.732 107.035H145.241C136.497 110.766 137.147 119.71 144.322 124.061Z" fill="black"/>
<path d="M226.847 114.838C226.847 114.915 209.452 114.977 188 114.977C166.538 114.977 149.148 114.915 149.148 114.838C149.148 114.761 166.538 114.699 188 114.699C209.452 114.699 226.847 114.761 226.847 114.838Z" fill="#263238"/>
<path d="M234.839 117.264C234.839 117.341 217.444 117.403 195.992 117.403C174.53 117.403 157.141 117.341 157.141 117.264C157.141 117.186 174.53 117.125 195.992 117.125C217.449 117.125 234.839 117.186 234.839 117.264Z" fill="#263238"/>
<path d="M140.072 122.368C140.072 122.446 131.932 122.507 121.888 122.507C111.843 122.507 103.703 122.446 103.703 122.368C103.703 122.291 111.843 122.229 121.888 122.229C131.932 122.229 140.072 122.291 140.072 122.368Z" fill="#263238"/>
<path d="M140.072 109.037C140.072 109.114 131.932 109.176 121.888 109.176C111.843 109.176 103.703 109.114 103.703 109.037C103.703 108.96 111.843 108.898 121.888 108.898C131.932 108.903 140.072 108.965 140.072 109.037Z" fill="#263238"/>
<path d="M238.921 107.035C238.921 107.112 209.05 107.174 172.217 107.174C135.368 107.174 105.508 107.112 105.508 107.035C105.508 106.957 135.368 106.895 172.217 106.895C209.056 106.895 238.921 106.957 238.921 107.035Z" fill="#263238"/>
<path d="M185.359 91.7991V101.048L188.565 98.9884L192.142 101.048V91.7991H185.359Z" fill="#E26055"/>
<path d="M217.939 0L201.799 13.4393L177.25 61.9375L192.554 68.8533L216.432 21.2892L217.939 0Z" fill="#E26055"/>
<g opacity="0.7">
<path d="M216.431 21.2893C215.605 21.3976 214.847 20.8764 214.909 20.0403C213.897 21.217 212.111 21.6557 210.676 21.0725C209.236 20.4945 208.25 18.941 208.343 17.3927C206.991 18.1204 205.251 18.0584 203.95 17.2378C202.655 16.4172 201.85 14.8741 201.927 13.3413L217.938 0L216.431 21.2893Z" fill="white"/>
</g>
<path d="M211.445 5.4036C211.445 5.4036 211.688 9.41888 217.319 8.72214L217.939 0L211.445 5.4036Z" fill="#E26055"/>
<path opacity="0.3" d="M208.336 17.3979L184.67 65.029L177.242 61.9376L201.791 13.4394L201.915 13.3413C201.915 13.3413 201.822 14.2393 202.25 15.2302C202.534 15.8909 203.05 16.6392 203.84 17.1708C204.852 17.8572 205.931 17.9914 206.777 17.8882C207.691 17.7746 208.336 17.3979 208.336 17.3979Z" fill="black"/>
<path opacity="0.3" d="M214.91 20.0403L190.594 67.9656L192.555 68.8533L216.428 21.2893C216.428 21.2893 215.23 21.4957 214.915 20.3499C214.895 20.2622 214.91 20.1538 214.91 20.0403Z" fill="black"/>
<path d="M208.22 12.7685C208.23 12.7737 208.142 12.8253 208.137 12.9853C208.132 13.1298 208.246 13.3982 208.55 13.4291C208.839 13.4652 209.211 13.3517 209.567 13.1401C209.742 13.0317 209.913 12.8717 210.001 12.655C210.093 12.4434 210.104 12.1698 209.954 11.9634C209.81 11.7518 209.536 11.6434 209.257 11.6124C208.973 11.5763 208.669 11.6124 208.359 11.664C207.745 11.7724 207.095 11.9944 206.516 12.3814C206.238 12.5827 205.985 12.8666 205.949 13.2175C205.913 13.5685 206.109 13.9246 206.403 14.1517C207.017 14.5955 207.889 14.5904 208.664 14.4355C210.248 14.0897 211.513 12.8356 211.817 11.4731C211.879 11.1325 211.797 10.7867 211.575 10.5441C211.363 10.2964 211.069 10.1415 210.785 10.028C210.202 9.81124 209.613 9.71318 209.082 9.68737C208.013 9.6306 207.156 9.85769 206.594 10.059C206.315 10.1673 206.103 10.2602 205.959 10.3325C205.82 10.4048 205.742 10.4357 205.742 10.4357C205.742 10.4357 206.016 10.2448 206.578 10.0177C207.136 9.80608 207.998 9.55835 209.087 9.6048C209.629 9.6306 210.217 9.71834 210.821 9.94026C211.115 10.059 211.425 10.2138 211.657 10.4822C211.895 10.7402 211.998 11.1325 211.926 11.4937C211.611 12.913 210.321 14.193 208.689 14.5491C208.282 14.642 207.869 14.6626 207.466 14.6316C207.064 14.5955 206.656 14.4923 206.336 14.2446C206.021 14.002 205.804 13.6098 205.845 13.2124C205.887 12.8098 206.171 12.5053 206.46 12.2989C207.064 11.8963 207.724 11.6795 208.349 11.5711C208.664 11.5195 208.973 11.4834 209.273 11.5247C209.567 11.5608 209.866 11.6795 210.026 11.9221C210.192 12.1595 210.171 12.4692 210.073 12.6911C209.975 12.9233 209.789 13.0885 209.603 13.202C209.226 13.4136 208.855 13.522 208.545 13.4756C208.22 13.4291 208.096 13.1349 208.117 12.9853C208.127 12.815 208.225 12.7685 208.22 12.7685Z" fill="white"/>
<path d="M216.872 12.4794C216.872 12.4948 216.634 12.4432 216.206 12.4587C215.783 12.4742 215.163 12.5981 214.477 12.9232C213.78 13.2432 213.042 13.7748 212.247 14.4096C211.452 15.0289 210.564 15.7566 209.439 16.1488C208.319 16.5411 207.142 16.5359 206.156 16.2779C205.16 16.0198 204.365 15.4986 203.797 14.9773C203.23 14.4509 202.889 13.9141 202.682 13.5374C202.481 13.1555 202.414 12.9284 202.414 12.9284C202.419 12.9284 202.445 12.98 202.491 13.0832C202.538 13.1864 202.615 13.3361 202.719 13.5167C202.93 13.8832 203.281 14.4044 203.849 14.9205C204.412 15.4263 205.196 15.9321 206.177 16.1798C207.147 16.4275 208.298 16.4275 209.398 16.0456C210.497 15.6637 211.375 14.9412 212.18 14.3322C212.975 13.7025 213.734 13.1709 214.441 12.8561C215.143 12.5361 215.772 12.4226 216.206 12.4226C216.64 12.4071 216.872 12.4794 216.872 12.4794Z" fill="white"/>
<path d="M216.784 17.3411C216.773 17.372 216.474 16.8921 215.679 16.8095C214.905 16.7321 213.821 16.954 212.67 17.2482C211.513 17.5578 210.507 17.9759 209.8 18.3165C209.444 18.4868 209.165 18.6365 208.969 18.7345C208.778 18.8378 208.664 18.8945 208.664 18.8894C208.659 18.8842 208.762 18.812 208.948 18.6984C209.134 18.5849 209.413 18.4249 209.764 18.2442C210.466 17.883 211.472 17.4494 212.639 17.1398C213.222 16.9798 213.785 16.8663 214.301 16.7888C214.817 16.7114 215.292 16.6753 215.689 16.7321C216.087 16.7837 216.386 16.9437 216.556 17.0882C216.722 17.2275 216.784 17.3411 216.784 17.3411Z" fill="white"/>
<path d="M210.079 20.7526C210.068 20.7423 210.269 20.5668 210.62 20.3191C210.971 20.0765 211.488 19.7462 212.148 19.6327C212.809 19.5088 213.439 19.7307 213.759 20.0301C213.924 20.1746 214.027 20.3242 214.079 20.4326C214.136 20.541 214.146 20.6081 214.141 20.6081C214.12 20.6184 214.032 20.3552 213.702 20.092C213.382 19.8236 212.799 19.6275 212.164 19.7462C211.529 19.8546 211.018 20.1642 210.662 20.3862C210.306 20.6184 210.089 20.7681 210.079 20.7526Z" fill="white"/>
<path d="M217.296 9.58932C217.296 9.59448 217.271 9.61512 217.219 9.65125C217.167 9.68738 217.09 9.74931 216.982 9.8164C216.878 9.8835 216.739 9.96607 216.563 10.0022C216.383 10.0435 216.171 10.0177 215.954 9.96607C215.516 9.86801 215.025 9.64609 214.478 9.45513C213.926 9.26417 213.301 9.10418 212.635 8.9958C211.304 8.77904 210.07 8.76871 209.182 8.76355C208.795 8.76355 208.449 8.76355 208.129 8.76355C207.882 8.76355 207.742 8.75839 207.742 8.74807C207.742 8.73775 207.882 8.72742 208.129 8.7171C208.377 8.70678 208.738 8.6913 209.182 8.68098C210.07 8.66549 211.309 8.66033 212.651 8.88226C213.322 8.99064 213.952 9.15579 214.509 9.35707C215.067 9.55835 215.541 9.78027 215.97 9.88866C216.398 10.0332 216.749 9.91446 216.956 9.78028C217.173 9.65125 217.291 9.57899 217.296 9.58932Z" fill="white"/>
<path d="M234.406 53.4167C234.406 64.3839 234.406 75.346 234.406 86.3131C234.406 89.4407 234.406 92.5683 234.406 95.6907C234.406 96.1191 235.067 96.1191 235.067 95.6907C235.067 84.7235 235.067 73.7615 235.067 62.7943C235.067 59.6667 235.067 56.5392 235.067 53.4167C235.072 52.9884 234.406 52.9884 234.406 53.4167Z" fill="#E26055"/>
<path d="M237.129 86.3751C237.129 87.6912 236.06 88.7595 234.744 88.7595C233.428 88.7595 232.359 87.6912 232.359 86.3751C232.359 85.0591 233.428 83.9907 234.744 83.9907C236.065 83.9907 237.129 85.0591 237.129 86.3751Z" fill="#E26055"/>
<path d="M234.078 87.6087C234.078 87.6087 232.344 89.3428 231.822 94.4367C231.301 99.5307 231.188 102.075 231.188 102.075L235.874 102.364C235.874 102.364 235.874 98.5449 235.874 98.7152C235.874 98.8907 236.798 101.435 236.798 101.435L240.504 100.217C240.504 100.227 239.173 86.6849 234.078 87.6087Z" fill="#E26055"/>
<path d="M209.694 56.8748H130.102V85.5649H209.694V56.8748Z" fill="#263238"/>
<path d="M237.654 51.9355H101.516V56.8747H237.654V51.9355Z" fill="#263238"/>
<path opacity="0.3" d="M130.102 77.426C130.102 77.426 154.284 68.7503 169.898 65.5505C185.512 62.3455 209.694 63.4138 209.694 63.4138V56.8748H130.102V77.426Z" fill="black"/>
<path opacity="0.3" d="M150.758 51.9355H101.516V56.8747H150.758V51.9355Z" fill="black"/>
<path d="M236.668 56.8747C236.668 56.9521 206.395 57.014 169.066 57.014C131.721 57.014 101.453 56.9521 101.453 56.8747C101.453 56.7973 131.716 56.7354 169.066 56.7354C206.4 56.7354 236.668 56.7973 236.668 56.8747Z" fill="#455A64"/>
<path d="M150.678 56.9159C150.601 56.9159 150.539 55.7908 150.539 54.4077C150.539 53.0194 150.601 51.8994 150.678 51.8994C150.756 51.8994 150.818 53.0245 150.818 54.4077C150.818 55.7908 150.756 56.9159 150.678 56.9159Z" fill="#455A64"/>
<path d="M162.038 85.5648C161.96 85.5648 161.898 79.9651 161.898 73.0648C161.898 66.1593 161.96 60.5596 162.038 60.5596C162.115 60.5596 162.177 66.1541 162.177 73.0648C162.172 79.9702 162.11 85.5648 162.038 85.5648Z" fill="#455A64"/>
<path d="M46.8854 120.804L56.037 117.114L63.0259 98.8542L72.3427 103.654C72.3427 103.654 71.4394 105.455 69.5141 109.919C68.7708 111.643 66.3087 116.443 65.3022 118.781C63.4079 123.194 59.1288 126.11 54.3234 126.239L45.7344 126.461L46.8854 120.804Z" fill="#FFBF9D"/>
<path d="M42.3373 117.269L40.954 115.813C40.6856 115.643 40.3759 115.555 40.061 115.566L35.6788 115.7C34.8529 115.783 34.1096 116.232 33.6502 116.928L32.0553 119.638C32.0553 119.638 30.9868 121.491 31.121 121.945C31.3275 122.626 32.045 122.487 32.045 122.487C32.045 122.487 32.1947 123.343 32.4837 123.519C32.9637 123.808 33.547 123.586 33.547 123.586C33.707 123.916 34.0425 124.133 34.409 124.107C34.4813 124.102 34.5587 124.087 34.6361 124.066C35.1574 123.906 35.3897 122.9 35.3897 122.9L37.6092 122.487C37.6092 122.487 40.7991 124.618 41.9244 126.017C43.0496 127.415 45.9917 126.347 45.9917 126.347L47.0912 121.083L42.3373 117.269Z" fill="#FFBF9D"/>
<path d="M39.1145 117.898C39.1196 117.929 38.7635 117.996 38.1544 118.058C37.5505 118.126 36.6937 118.151 35.7336 118.275L35.8368 118.198C35.682 118.538 35.4858 118.895 35.269 119.245C34.5877 120.334 33.7876 121.181 33.1631 121.738C32.5334 122.29 32.0843 122.549 32.0637 122.523C32.0379 122.487 32.4456 122.177 33.0289 121.594C33.607 121.011 34.3709 120.159 35.0316 119.101C35.2484 118.76 35.4342 118.415 35.5942 118.089L35.6252 118.022L35.6975 118.012C36.6885 117.898 37.535 117.914 38.1389 117.893C38.748 117.873 39.1093 117.862 39.1145 117.898Z" fill="#FF9A6C"/>
<path d="M39.2126 119.984C39.2178 120.009 38.9184 120.128 38.3868 120.205C37.8603 120.283 37.0964 120.309 36.2447 120.133L36.3995 120.045C36.3118 120.304 36.2086 120.572 36.0795 120.84C35.615 121.811 34.9646 122.554 34.4329 123.003C33.9013 123.457 33.509 123.648 33.4935 123.617C33.4677 123.581 33.8187 123.333 34.2987 122.858C34.7839 122.383 35.3827 121.651 35.8266 120.722C35.9505 120.464 36.0537 120.211 36.1414 119.963L36.1827 119.849L36.2963 119.875C37.9429 120.231 39.2075 119.906 39.2126 119.984Z" fill="#FF9A6C"/>
<path d="M44.7757 121.067C43.475 120.463 42.1691 119.854 40.8683 119.251C40.3264 118.998 39.7637 118.745 39.165 118.745C38.5249 118.75 37.9262 119.049 37.3532 119.344C36.6513 119.705 35.9544 120.071 35.2525 120.433C35.1389 120.489 35.015 120.562 34.9737 120.685C34.9221 120.845 35.0357 121.011 35.1544 121.129C36.2022 122.192 38.0914 122.27 39.2218 121.294C39.5573 122.213 39.9083 123.147 40.538 123.896C41.1677 124.644 42.1484 125.17 43.1136 124.995" fill="#FFBF9D"/>
<path d="M43.1158 124.99C43.1158 124.995 43.0797 125.01 43.0126 125.026C42.9403 125.041 42.8371 125.057 42.6926 125.062C42.4138 125.067 41.9854 125.015 41.5157 124.778C41.046 124.546 40.535 124.123 40.1324 123.519C39.7194 122.915 39.4149 122.156 39.1104 121.341L39.3065 121.392C38.7284 121.898 37.8922 122.172 37.0302 122.105C36.6018 122.074 36.1631 121.96 35.7605 121.748C35.5643 121.64 35.3682 121.516 35.1978 121.356C35.1153 121.279 35.0223 121.207 34.9449 121.098C34.8727 121 34.7901 120.85 34.8314 120.675C34.8675 120.531 34.9759 120.438 35.0636 120.381C35.1565 120.324 35.234 120.288 35.3166 120.241C35.4817 120.159 35.6417 120.071 35.8018 119.989C36.1218 119.823 36.4418 119.658 36.7567 119.498C37.3812 119.189 37.9748 118.827 38.6407 118.678C39.3168 118.513 39.9724 118.724 40.4937 118.956C41.0202 119.199 41.5002 119.431 41.939 119.643C42.7855 120.056 43.4823 120.396 44.0191 120.66C44.5095 120.907 44.7727 121.047 44.7675 121.067C44.7572 121.083 44.4785 120.974 43.9778 120.758C43.4358 120.515 42.7235 120.2 41.8615 119.823C41.4125 119.622 40.9273 119.405 40.4059 119.173C39.8898 118.951 39.3014 118.776 38.6974 118.931C38.0935 119.07 37.5103 119.426 36.8857 119.741C36.576 119.901 36.256 120.066 35.936 120.236C35.7759 120.319 35.6108 120.407 35.4508 120.489C35.2856 120.572 35.1101 120.654 35.1049 120.742C35.074 120.845 35.2236 121.021 35.3837 121.15C35.5385 121.289 35.714 121.403 35.8947 121.506C36.2611 121.697 36.6586 121.805 37.056 121.836C37.8458 121.903 38.62 121.661 39.1517 121.207L39.2859 121.088L39.3478 121.253C39.642 122.074 39.9259 122.817 40.3079 123.405C40.6847 123.999 41.1492 124.406 41.5931 124.649C42.4861 125.139 43.1261 124.943 43.1158 124.99Z" fill="#FF9A6C"/>
<path d="M95.5853 69.9267C95.6214 66.9952 96.0808 64.0741 95.9724 61.1426C95.8588 58.2112 95.0897 55.161 93.0457 53.0604C91.0017 50.9599 87.4505 50.1548 85.0607 51.8528L84.5703 54.3455C85.5097 65.6482 85.3858 77.1367 86.3253 88.4393C86.4491 89.9257 87.6518 91.2676 88.328 92.5939C89.0042 93.9203 90.3565 95.0196 91.8482 94.9267C93.7942 94.808 95.0691 92.8365 95.6782 90.9837C97.8667 84.2692 95.5027 76.9973 95.5853 69.9267Z" fill="#263238"/>
<path d="M88.5336 54.7326C88.1051 54.0101 87.6716 53.2721 87.0418 52.7147C86.4173 52.1521 85.5604 51.7857 84.7346 51.9457C84.3475 52.0179 83.95 52.2399 83.821 52.6115C83.6919 52.983 83.9707 53.4837 84.3629 53.4527L84.4455 53.525C85.323 54.2991 86.216 55.0578 87.1244 55.801C87.3515 55.9868 87.589 56.1777 87.8729 56.2655C88.1568 56.3532 88.4974 56.3119 88.6936 56.09C89.0187 55.7184 88.7813 55.1507 88.5336 54.7326Z" fill="#E26055"/>
<path d="M90.1933 57.6073C87.2718 54.0358 83.3489 51.9818 78.7344 51.9043C76.1329 51.8631 75.0541 52.3998 73.1805 52.9056C71.3068 53.4114 69.6138 54.4178 68.4989 56.0022C67.1723 57.886 66.0574 59.9968 65.8045 62.2883C65.5464 64.6418 65.2883 67.0107 65.4638 69.3744C65.6393 71.7382 66.2845 74.1123 67.673 76.0322L73.6812 77.0747C77.0001 77.1882 80.3655 77.2966 83.5967 76.5379C86.8279 75.7793 89.9713 74.04 91.7056 71.2066C94.1161 67.2791 93.1148 61.1787 90.1933 57.6073Z" fill="#263238"/>
<path d="M84.8471 57.5711L76.8362 54.3867L74.7457 54.6293C70.0383 54.6448 66.7865 59.8368 66.7555 63.6508C66.7194 67.888 66.8484 73.0645 67.5194 76.1869C68.8718 82.4679 74.2347 82.9892 74.2347 82.9892C74.2347 82.9892 74.1263 86.3335 74.085 88.4444L86.3491 87.5567L86.9634 59.7181C86.9221 58.562 86.0033 57.6278 84.8471 57.5711Z" fill="#FFBF9D"/>
<path d="M76.9371 74.716C76.8958 74.3857 76.71 74.0915 76.4725 73.8902C76.0028 73.4876 75.3163 73.4515 74.8156 73.7973C74.315 74.1431 74.0259 74.8553 74.1188 75.5159C74.4027 75.903 74.8311 76.1662 75.3112 76.2075C75.3834 76.2127 75.4609 76.2178 75.5331 76.2127C75.8944 76.2023 76.2661 76.0785 76.5396 75.8153C76.8184 75.5469 76.9887 75.1237 76.9371 74.716Z" fill="#FF9A6C"/>
<path d="M68.8752 69.0132C68.8855 69.4416 69.2572 69.7925 69.7062 69.7925C70.1553 69.7925 70.5115 69.4416 70.5011 69.0132C70.4908 68.5848 70.1192 68.2339 69.6753 68.2339C69.2211 68.2339 68.8649 68.5848 68.8752 69.0132Z" fill="#263238"/>
<path d="M68.187 65.7721C68.2954 65.8701 68.8838 65.385 69.7613 65.3385C70.6336 65.2818 71.2994 65.6947 71.3872 65.5811C71.4336 65.5295 71.3201 65.3437 71.0259 65.1579C70.742 64.9721 70.262 64.8018 69.7148 64.8328C69.1728 64.8637 68.7238 65.0908 68.4709 65.3127C68.2128 65.5295 68.1354 65.7256 68.187 65.7721Z" fill="#263238"/>
<path d="M73.8016 72.626C73.8016 72.5744 73.2544 72.5125 72.3666 72.4454C72.1447 72.435 71.9279 72.4041 71.8814 72.2493C71.8195 72.0893 71.9021 71.8467 71.995 71.5783C72.1756 71.0261 72.3614 70.4481 72.5628 69.8442C73.3473 67.3721 73.8996 65.349 73.8016 65.318C73.7035 65.287 72.986 67.2637 72.2014 69.7358C72.0156 70.3448 71.835 70.9229 71.6646 71.4803C71.5924 71.7383 71.4633 72.0325 71.5975 72.3628C71.6646 72.5279 71.835 72.6363 71.9846 72.6673C72.1292 72.7034 72.2582 72.6983 72.3666 72.6983C73.2544 72.7034 73.8016 72.6776 73.8016 72.626Z" fill="#263238"/>
<path d="M74.2185 82.9841C74.2185 82.9841 78.4975 83.0254 82.5803 80.2539C82.5803 80.2539 80.5621 84.7698 74.1875 84.5221L74.2185 82.9841Z" fill="#FF9A6C"/>
<path d="M76.4086 73.0904C76.264 73.0904 76.3156 74.0401 75.5414 74.7574C74.7672 75.48 73.7503 75.4284 73.7503 75.5574C73.74 75.6193 73.9877 75.7277 74.411 75.7174C74.8291 75.7071 75.433 75.5419 75.9079 75.1032C76.3828 74.6645 76.5634 74.102 76.5737 73.7097C76.5944 73.3123 76.4757 73.0801 76.4086 73.0904Z" fill="#263238"/>
<path d="M68.4812 62.7064C68.6412 62.9128 69.3019 62.7322 70.0865 62.7528C70.8711 62.7476 71.5317 62.9438 71.6918 62.7425C71.764 62.6444 71.666 62.4431 71.3821 62.2419C71.1033 62.0406 70.6285 61.8703 70.0917 61.8651C69.5497 61.86 69.0748 62.0199 68.7961 62.2109C68.5122 62.407 68.4141 62.6083 68.4812 62.7064Z" fill="#263238"/>
<path d="M78.4185 68.7912C78.4392 69.2196 78.0985 69.5964 77.6494 69.6273C77.2004 69.6583 76.8184 69.3383 76.7978 68.9099C76.7771 68.4816 77.1178 68.1048 77.5669 68.0738C78.0108 68.0429 78.3927 68.3629 78.4185 68.7912Z" fill="#263238"/>
<path d="M80.0211 65.4313C79.923 65.5397 79.2985 65.0959 78.421 65.1114C77.5487 65.1165 76.9138 65.5758 76.8157 65.4726C76.7693 65.4262 76.8674 65.2352 77.1461 65.0236C77.4197 64.8172 77.8842 64.6107 78.4313 64.6056C78.9785 64.6004 79.4379 64.7914 79.7063 64.9926C79.9747 65.1939 80.0727 65.3849 80.0211 65.4313Z" fill="#263238"/>
<path d="M79.4942 62.629C79.3238 62.8303 78.6477 62.6342 77.8321 62.6393C77.0217 62.6187 76.3352 62.7993 76.1701 62.5929C76.0978 62.4948 76.2062 62.2935 76.5004 62.0974C76.7946 61.9064 77.285 61.7413 77.8424 61.7465C78.3999 61.7516 78.8851 61.9219 79.1741 62.1232C79.4735 62.3297 79.5716 62.5309 79.4942 62.629Z" fill="#263238"/>
<path d="M85.876 70.3653C85.8502 69.8956 86.3354 68.7499 86.7999 68.6518C88.0336 68.3886 90.284 68.368 90.475 71.5265C90.7383 75.8463 86.3509 75.2218 86.3354 75.098C86.325 74.9999 85.9637 71.9962 85.876 70.3653Z" fill="#FFBF9D"/>
<path d="M87.4333 73.4465C87.454 73.431 87.5108 73.493 87.6398 73.5446C87.7689 73.591 87.9856 73.622 88.2024 73.5239C88.6463 73.3278 88.987 72.5795 88.9612 71.8002C88.9457 71.4079 88.8425 71.0363 88.6825 70.737C88.5328 70.4273 88.3108 70.2209 88.0786 70.1951C87.8463 70.1538 87.6914 70.3035 87.645 70.4273C87.5934 70.5512 87.6295 70.6389 87.6037 70.6441C87.5934 70.6544 87.5056 70.577 87.5314 70.3964C87.5417 70.3086 87.5882 70.2054 87.6863 70.1177C87.7843 70.0248 87.934 69.9732 88.094 69.9835C88.4295 69.9886 88.7444 70.2725 88.9199 70.6028C89.1109 70.9331 89.2399 71.346 89.2554 71.7898C89.2812 72.6621 88.8838 73.5033 88.2747 73.7201C87.9753 73.8181 87.7172 73.7407 87.5779 73.6478C87.4488 73.5497 87.4179 73.4568 87.4333 73.4465Z" fill="#FF9A6C"/>
<path d="M86.9696 68.6675L85.8701 69.8029C81.1317 65.2664 71.8717 53.9121 72.3879 54.5934C72.3879 54.5934 75.6346 53.2567 79.1548 53.8605C82.6802 54.4592 89.3594 56.2242 89.2562 60.3789C89.1632 64.5283 86.9696 68.6675 86.9696 68.6675Z" fill="#263238"/>
<path d="M93.2485 67.7126C93.2536 67.7126 93.233 67.6248 93.1814 67.4648C93.1297 67.3048 93.0368 67.0726 92.8871 66.7836C92.5878 66.2159 92.0148 65.4469 91.0806 64.7553C90.167 64.0431 88.892 63.465 87.4468 63.0057C86.0015 62.5361 84.3756 62.1696 82.7755 61.4832C81.165 60.8226 79.7301 59.971 78.5068 59.0936C77.2887 58.2059 76.2821 57.2873 75.4976 56.4615C74.713 55.6358 74.14 54.9029 73.7581 54.3971C73.5826 54.1545 73.4381 53.9584 73.3245 53.8036C73.2264 53.6694 73.1697 53.5971 73.1645 53.6023C73.1593 53.6075 73.2006 53.6849 73.2884 53.8294C73.3761 53.9739 73.5052 54.1855 73.691 54.4487C74.0575 54.9751 74.6098 55.7235 75.3892 56.5699C76.1634 57.4163 77.1699 58.3556 78.3932 59.2588C79.6217 60.1517 81.067 61.0187 82.6929 61.6896C84.3137 62.3864 85.9499 62.7477 87.39 63.2018C88.8301 63.6457 90.0792 64.1979 90.9928 64.8792C91.9167 65.5449 92.4949 66.2778 92.8149 66.8249C93.1297 67.3771 93.2227 67.7229 93.2485 67.7126Z" fill="#455A64"/>
<path d="M91.9882 68.3938C91.9882 68.3938 92.0295 68.0377 91.8231 67.4493C91.6218 66.8661 91.1108 66.0662 90.2023 65.4159C89.299 64.745 88.0138 64.3269 86.5995 64.0018C85.18 63.687 83.6367 63.2896 82.1192 62.5825C80.6068 61.8806 79.2493 61.0342 78.1292 60.1207C77.004 59.2123 76.0955 58.273 75.3936 57.4318C74.6864 56.5957 74.2064 55.8422 73.8657 55.3364C73.716 55.0887 73.5973 54.8926 73.4992 54.7326C73.4115 54.5932 73.365 54.5261 73.3599 54.5261C73.3547 54.5313 73.3908 54.6087 73.4631 54.7532C73.5508 54.9184 73.6592 55.1248 73.7934 55.3829C74.1135 55.9093 74.5728 56.6783 75.2697 57.535C75.9613 58.3969 76.8698 59.3568 78.0002 60.2858C79.1254 61.22 80.4984 62.0819 82.0263 62.7941C83.5593 63.5063 85.1336 63.9089 86.5479 64.2134C87.9622 64.523 89.2216 64.9153 90.1094 65.5552C91.0075 66.1746 91.5237 66.9281 91.7405 67.4906C91.9728 68.0429 91.9624 68.399 91.9882 68.3938Z" fill="#455A64"/>
<path d="M86.8282 75.9754C86.823 75.9444 87.1947 75.8979 87.8347 75.7328C88.4696 75.5573 89.3677 75.1651 90.2504 74.3806C91.1433 73.6064 91.933 72.4039 92.4957 70.9485C93.0531 69.4879 93.3886 67.7745 93.4299 65.9681C93.4506 65.0649 93.3783 64.1876 93.2235 63.3515C93.0531 62.5154 92.8054 61.7361 92.506 61.0135C91.8866 59.5736 91.0659 58.4072 90.271 57.5298C88.6657 55.7699 87.3237 55.0629 87.3702 55.0009C87.3753 54.9906 87.4579 55.0371 87.6076 55.1248C87.7573 55.2177 87.9896 55.3416 88.258 55.5377C88.8103 55.9144 89.5845 56.5131 90.4155 57.3905C91.2465 58.2627 92.1034 59.4394 92.7434 60.9052C93.0531 61.6432 93.3164 62.4431 93.4919 63.2947C93.657 64.1514 93.7293 65.0546 93.7138 65.9733C93.6674 67.8106 93.3215 69.555 92.7383 71.0414C92.155 72.5278 91.3188 73.7561 90.3794 74.5303C89.4555 75.3199 88.5109 75.6915 87.8605 75.836C87.5353 75.9238 87.2669 75.9289 87.0966 75.9599C86.9211 75.9805 86.8333 75.9857 86.8282 75.9754Z" fill="#455A64"/>
<path d="M92.3233 129.098L66.7835 132.809C57.188 135.523 47.0815 136.318 36.5156 135.4L74.9544 153.329L90.3877 153.566C90.3877 153.566 95.0848 153.582 95.9055 149.468C96.7417 145.293 97.6398 132.886 97.6398 132.886C97.6398 132.886 94.5893 130.238 92.3233 129.098Z" fill="#263238"/>
<g opacity="0.3">
<path d="M92.2528 139.848C92.6709 142.403 92.8257 144.999 92.7018 147.585C94.2813 145.882 95.0039 143.42 94.5962 141.134C94.3691 139.869 93.8477 138.486 94.5084 137.387C94.9523 136.649 96.124 135.802 95.9537 134.961C95.9537 134.961 94.9265 134.961 93.9974 134.925C93.249 134.894 91.6953 134.847 91.6953 134.847C92.4799 136.871 92.4179 138.114 92.1082 139.921" fill="black"/>
</g>
<path d="M74.1224 87.3865L86.531 86.0498L88.8021 88.1142L79.9447 93.3217L76.0373 95.3448L72.1764 94.1733L70.9531 91.8766L74.1224 87.3865Z" fill="#FFBF9D"/>
<path d="M57.3906 102.498C57.3906 102.498 61.2825 95.0353 62.2426 93.4044C63.884 90.6226 66.95 89.0485 66.95 89.0485L74.1195 87.3918C74.1195 87.3918 73.3762 90.9839 77.8359 91.2316C83.5086 91.5464 87.034 86.1067 87.034 86.1067C87.034 86.1067 93.5067 86.7725 95.2978 87.526C97.0837 88.2795 102.142 90.3903 102.885 97.1152L104.62 108.093L90.9413 109.135L91.1323 123.746L85.3203 128.499C85.3203 128.499 68.6275 134.244 67.5642 134.626C67.0584 134.806 67.1823 127.71 65.9899 121.635L63.7394 116.165C62.8362 113.976 62.2787 111.654 62.1445 109.29C62.0568 107.737 62.098 106.555 62.098 106.555C62.098 106.555 58.5881 105.347 57.3906 102.498Z" fill="#455A64"/>
<path d="M68.1664 128.881L91.0996 121.997L90.9396 109.13L102.62 108.242C102.62 108.242 101.686 114.91 101.552 118.327C101.356 123.246 98.9918 130.115 97.4071 131.575C95.8225 133.036 67.5625 134.62 67.5625 134.62L68.1664 128.881Z" fill="#FFBF9D"/>
<path d="M55.1691 132.928C55.3601 133.242 55.7162 133.428 56.0776 133.366C56.1498 133.356 56.2221 133.335 56.2995 133.304C56.8002 133.098 56.6712 132.05 56.6712 132.05L59.1126 131.457C59.1126 131.457 62.4883 133.279 63.7375 134.564C64.9866 135.849 67.8203 134.512 67.8203 134.512L68.4242 129.165L63.5568 125.403C63.5568 125.403 63.8562 125.625 63.4794 124.882C63.1077 124.138 61.6986 124.536 61.6986 124.536C61.4457 124.175 60.5011 124.107 60.5011 124.107L56.5473 124.876C55.7317 125.036 55.0349 125.553 54.6426 126.285L53.1612 129.088C53.1612 129.088 52.418 131.08 52.5986 131.519C52.867 132.174 53.569 131.973 53.569 131.973C53.569 131.973 53.8632 133.222 54.1987 133.242C54.5342 133.258 55.1691 132.928 55.1691 132.928Z" fill="#FFBF9D"/>
<path d="M63.3648 128.484C63.3648 128.525 62.828 128.52 61.9815 128.623C61.135 128.732 59.9684 128.969 58.7709 129.485C58.1722 129.738 57.625 130.032 57.145 130.332C56.6856 130.641 56.2004 130.904 56.0714 131.266C56.0094 131.441 56.0559 131.617 56.154 131.735C56.2469 131.859 56.3708 131.931 56.474 131.968C56.6908 132.04 56.8198 131.968 56.8301 131.993C56.8405 131.999 56.7166 132.112 56.4533 132.066C56.3243 132.04 56.1746 131.968 56.0456 131.828C55.9165 131.694 55.8288 131.451 55.9011 131.209C55.9682 130.972 56.154 130.775 56.3553 130.61C56.5617 130.45 56.7785 130.29 57.0211 130.13C57.5012 129.81 58.0586 129.506 58.6729 129.248C59.8962 128.721 61.0988 128.505 61.966 128.443C62.8331 128.386 63.37 128.458 63.3648 128.484Z" fill="#FF9A6C"/>
<path d="M63.8465 131.008C63.8465 131.085 62.2206 131.142 60.2333 131.415C58.2461 131.679 56.6615 132.055 56.6408 131.983C56.6305 131.952 57.0176 131.813 57.6628 131.653C58.3029 131.488 59.201 131.302 60.2024 131.168C61.2037 131.033 62.1173 130.977 62.778 130.966C63.4336 130.946 63.8465 130.977 63.8465 131.008Z" fill="#FF9A6C"/>
<path d="M55.1755 132.824C55.16 132.824 55.1342 132.68 55.0929 132.401C55.0568 132.128 55.0052 131.73 55 131.235C55 130.987 55.0052 130.714 55.0465 130.419C55.0878 130.125 55.2013 129.805 55.3716 129.521C55.6917 128.949 56.1459 128.345 56.7498 127.875C57.3485 127.411 57.9576 127.008 58.5822 126.76C59.2016 126.518 59.7952 126.425 60.2855 126.363C60.7759 126.306 61.1785 126.285 61.4521 126.275C61.7256 126.265 61.8805 126.27 61.8805 126.285C61.8856 126.327 61.2766 126.394 60.3113 126.538C59.8313 126.621 59.2584 126.729 58.6699 126.972C58.0867 127.209 57.4879 127.612 56.9098 128.066C56.3265 128.525 55.9033 129.078 55.5781 129.635C55.2323 130.167 55.2065 130.75 55.1807 131.235C55.16 132.21 55.2323 132.824 55.1755 132.824Z" fill="#FF9A6C"/>
<path d="M60.3838 125.14C60.3889 125.176 59.7902 125.238 58.8456 125.423C57.9372 125.635 56.4764 125.816 55.7331 127.147C54.9176 128.37 54.2311 129.516 53.9627 130.435C53.6736 131.348 53.7511 131.957 53.6995 131.957C53.684 131.957 53.653 131.808 53.6427 131.534C53.6323 131.261 53.6582 130.858 53.7872 130.383C54.0195 129.418 54.7008 128.231 55.5215 127.003C55.7331 126.693 55.9603 126.399 56.239 126.156C56.5125 125.914 56.8429 125.759 57.1423 125.64C57.7565 125.413 58.3346 125.315 58.8146 125.243C59.7747 125.103 60.3786 125.109 60.3838 125.14Z" fill="#FF9A6C"/>
<path d="M62.7952 133.784C62.7901 133.79 62.7023 133.733 62.5423 133.619C62.3616 133.495 62.1242 133.335 61.8351 133.134C61.2106 132.726 60.2815 132.143 59.0737 131.529L59.1304 131.534C58.4027 131.715 57.582 131.921 56.6941 132.148L56.7716 132.04C56.7922 132.241 56.7974 132.437 56.7716 132.649C56.7458 132.855 56.6993 133.077 56.5393 133.263C56.4567 133.356 56.3277 133.418 56.2244 133.439C56.116 133.475 55.9973 133.495 55.8786 133.485C55.6412 133.47 55.4089 133.361 55.2386 133.191C55.1973 133.15 55.156 133.103 55.1198 133.052L55.094 133.015L55.0837 132.995L55.0786 132.985C55.0476 132.974 55.3624 133.062 55.2282 133.026H55.2231L55.1457 133.062C55.0424 133.114 54.9392 133.155 54.836 133.201C54.7276 133.243 54.6192 133.284 54.5056 133.31C54.4488 133.325 54.3869 133.335 54.325 133.346C54.263 133.351 54.1908 133.361 54.0927 133.32C53.9482 133.232 53.8862 133.119 53.8243 133.01C53.7675 132.902 53.7159 132.794 53.6746 132.68C53.5868 132.458 53.5197 132.231 53.463 131.994L53.6126 132.081C53.2978 132.164 52.9107 132.112 52.6681 131.839C52.5597 131.71 52.4616 131.55 52.4616 131.354C52.4564 131.178 52.4822 131.023 52.5132 130.868C52.6371 130.249 52.8384 129.65 53.0552 129.036L53.0604 129.031L53.0655 129.021C53.3184 128.546 53.5868 128.04 53.8552 127.524C54.0256 127.204 54.1907 126.889 54.3559 126.575C54.5211 126.27 54.6656 125.935 54.9134 125.651C55.1508 125.372 55.4399 125.145 55.7651 124.985C56.0851 124.82 56.4464 124.753 56.7664 124.696C58.0775 124.443 59.3266 124.206 60.4983 123.984L60.5138 123.979H60.5293C60.7615 123.999 60.9835 124.035 61.2003 124.102C61.4119 124.169 61.639 124.247 61.8042 124.458L61.6648 124.428C62.0726 124.221 62.5629 124.18 62.9501 124.402C63.3423 124.618 63.5437 125 63.6624 125.362L63.6262 125.31C65.025 126.384 66.1658 127.261 66.9813 127.885C67.3581 128.18 67.6575 128.417 67.8846 128.598C68.0911 128.763 68.1943 128.856 68.1891 128.861C68.184 128.866 68.0653 128.794 67.8536 128.639C67.6162 128.469 67.3065 128.247 66.9194 127.968C66.0935 127.359 64.9321 126.502 63.5127 125.46L63.492 125.444L63.4817 125.413C63.3733 125.093 63.1772 124.748 62.8572 124.577C62.5423 124.402 62.1139 124.438 61.7732 124.613L61.6906 124.655L61.6338 124.577C61.5358 124.448 61.3396 124.366 61.1435 124.309C60.9473 124.252 60.7306 124.216 60.5189 124.2H60.5499C59.3834 124.433 58.1342 124.675 56.8232 124.933C56.4877 124.995 56.178 125.052 55.8838 125.207C55.5947 125.351 55.3315 125.558 55.1147 125.811C54.8979 126.058 54.7585 126.373 54.5882 126.688C54.423 127.003 54.2579 127.318 54.0875 127.638C53.8191 128.149 53.5507 128.654 53.2978 129.134L53.3029 129.119C53.0862 129.718 52.89 130.316 52.7661 130.905C52.7403 131.049 52.7145 131.199 52.7197 131.333C52.7145 131.447 52.7816 131.565 52.8642 131.663C53.0242 131.854 53.3184 131.896 53.5559 131.839L53.6797 131.808L53.7107 131.926C53.7675 132.148 53.8294 132.376 53.912 132.582C53.9894 132.783 54.0978 133.021 54.2114 133.098C54.2166 133.098 54.263 133.108 54.3146 133.103C54.3611 133.098 54.4127 133.088 54.4643 133.077C54.5675 133.052 54.6656 133.015 54.7689 132.979C54.8669 132.938 54.9702 132.897 55.0631 132.85L55.1353 132.814H55.1405C55.0063 132.778 55.3263 132.866 55.2902 132.855L55.2953 132.861L55.3057 132.876L55.3263 132.907C55.3573 132.943 55.3831 132.985 55.4192 133.015C55.5534 133.15 55.7341 133.237 55.9147 133.248C56.0077 133.258 56.0954 133.243 56.1831 133.212C56.2812 133.191 56.3432 133.155 56.3999 133.098C56.6167 132.835 56.6167 132.396 56.5909 132.045L56.5858 131.952L56.6683 131.932C57.5613 131.72 58.382 131.524 59.115 131.354L59.1459 131.348L59.1717 131.364C60.3847 132.004 61.2983 132.608 61.9126 133.041C62.2171 133.263 62.4494 133.439 62.5991 133.563C62.723 133.707 62.8004 133.774 62.7952 133.784Z" fill="#FF9A6C"/>
<path d="M50.8775 137.102C50.8775 137.102 34.6957 132.019 29.6115 130.372C20.8625 127.534 15.1331 130.403 13.3265 133.536C10.9831 137.598 16.6042 145.52 18.7669 147.342C25.1828 152.735 36.1823 153.463 36.1823 153.463L75.7308 153.391L64.1842 137.737L50.8775 137.102Z" fill="#263238"/>
<path d="M53.3008 144.442C46.7455 145.211 39.9992 144.292 33.8879 141.799C32.8194 141.366 31.7664 140.88 30.6463 140.597C29.5572 140.323 28.4217 140.24 27.3068 140.359C26.4241 140.452 25.4847 140.72 24.9479 141.428C24.1582 142.47 24.5659 143.946 25.0047 145.174C25.5157 146.614 26.0525 148.096 27.059 149.246C28.2307 150.599 29.934 151.368 31.6425 151.904C34.9821 152.957 38.5075 153.257 42.0071 153.396L54.0286 152.74L53.3008 144.442Z" fill="#E0E0E0"/>
<path d="M30.092 140.602C30.1075 140.597 30.1746 140.705 30.2779 140.927C30.3759 141.144 30.4998 141.469 30.5979 141.887C30.7992 142.713 30.8663 143.946 30.4637 145.205C30.0559 146.465 29.2868 147.425 28.6416 147.982C28.3164 148.266 28.0325 148.457 27.8209 148.576C27.6145 148.694 27.4906 148.746 27.4854 148.73C27.4596 148.694 27.919 148.431 28.5177 147.848C29.1165 147.275 29.834 146.336 30.2211 145.123C30.6082 143.915 30.5721 142.733 30.4224 141.918C30.2675 141.097 30.0507 140.617 30.092 140.602Z" fill="#263238"/>
<path d="M92.1741 136.112C91.2347 133.449 91.0798 129.536 85.2833 127.658C79.4919 125.779 75.1045 129.382 72.1314 130.631C69.1583 131.885 52.8733 140.808 52.8733 140.808C52.8733 140.808 49.8073 146.274 50.6796 148.689C51.5519 151.099 55.5161 153.489 55.5161 153.489H67.2743C67.2743 153.489 69.0241 153.489 73.7212 153.489C78.4183 153.489 87.157 153.334 87.157 153.334C88.7674 150.81 90.2901 147.383 90.2901 147.383L90.445 146.599C90.4501 145.969 93.1135 138.77 92.1741 136.112Z" fill="#263238"/>
<path d="M82.0931 149.938C82.0931 149.938 82.0776 150.041 81.9589 150.186C81.8402 150.33 81.644 150.521 81.3601 150.728C80.7975 151.141 79.92 151.651 78.7845 152.168C78.2167 152.426 77.587 152.694 76.885 152.916C76.183 153.138 75.4087 153.303 74.5932 153.411C72.9518 153.644 71.1349 153.592 69.2457 153.623C65.4571 153.685 62.0298 153.824 59.5418 153.798C58.2979 153.788 57.2914 153.737 56.5997 153.669C56.2539 153.633 55.9855 153.597 55.8048 153.556C55.6242 153.52 55.5312 153.499 55.5312 153.489C55.5364 153.463 55.9132 153.53 56.6049 153.566C57.2965 153.607 58.2979 153.628 59.5418 153.618C62.0246 153.597 65.4519 153.427 69.2457 153.37C71.1452 153.344 72.9466 153.401 74.5674 153.184C75.3778 153.081 76.1365 152.926 76.8282 152.72C77.5199 152.513 78.1496 152.255 78.7174 152.008C79.8529 151.512 80.7356 151.032 81.3085 150.65C81.5976 150.459 81.7989 150.289 81.9279 150.16C82.0518 150.026 82.0776 149.928 82.0931 149.938Z" fill="#263238"/>
<path d="M55.5239 153.484C55.5239 153.484 55.4362 153.448 55.2813 153.355C55.1265 153.267 54.8994 153.122 54.6051 152.931C54.0219 152.539 53.165 151.956 52.2101 151.027C51.7404 150.557 51.2397 150 50.8578 149.283C50.4552 148.555 50.4345 147.61 50.5894 146.692C50.9094 144.829 51.7249 142.842 52.7882 140.751L52.7986 140.726L52.8244 140.71C55.8026 139.069 59.2248 137.206 62.9619 135.198C64.8304 134.197 66.7815 133.16 68.8048 132.117C69.8165 131.596 70.8385 131.064 71.9173 130.584C72.9858 130.13 74.0078 129.537 75.0762 128.995C76.5886 128.22 78.1474 127.539 79.7837 127.224C80.594 127.049 81.4199 126.997 82.2354 126.997C83.0458 127.039 83.851 127.131 84.6201 127.338C86.1531 127.746 87.5984 128.386 88.7907 129.33C89.374 129.815 89.885 130.367 90.3083 130.971C90.7212 131.58 91.0309 132.236 91.289 132.896C91.5419 133.557 91.7277 134.223 91.9135 134.873C92.0839 135.523 92.3471 136.132 92.4349 136.803C92.5639 138.124 92.3471 139.368 92.1252 140.524C91.8877 141.686 91.6038 142.769 91.3148 143.781C91.1703 144.287 91.0257 144.772 90.8864 145.242C90.7522 145.706 90.5973 146.176 90.5302 146.589V146.604C90.4683 146.898 90.4218 147.146 90.3702 147.389V147.394C89.7147 149.448 88.9146 150.96 88.2797 151.93C87.6397 152.901 87.17 153.324 87.17 153.324C87.17 153.324 87.1906 153.288 87.2371 153.231C87.2938 153.164 87.361 153.076 87.4539 152.968C87.6397 152.735 87.9029 152.379 88.2126 151.889C88.8217 150.914 89.6011 149.391 90.2308 147.352V147.358C90.525 147.11 90.4683 146.867 90.3857 146.573V146.589C90.4579 146.109 90.6076 145.675 90.7367 145.195C90.8709 144.725 91.0102 144.235 91.1496 143.729C91.4283 142.718 91.7071 141.639 91.9342 140.483C92.151 139.332 92.3574 138.094 92.2232 136.824C92.1406 136.21 91.8722 135.58 91.7019 134.93C91.5161 134.28 91.3303 133.619 91.0773 132.974C90.8244 132.329 90.5199 131.689 90.1173 131.1C89.7043 130.517 89.214 129.98 88.6462 129.511C87.49 128.597 86.0654 127.968 84.5633 127.575C83.8097 127.369 83.0252 127.281 82.2354 127.245C81.4405 127.245 80.6353 127.291 79.8404 127.467C78.2403 127.771 76.7022 128.442 75.2001 129.217C74.1368 129.758 73.1096 130.352 72.0257 130.816C70.9676 131.291 69.9404 131.823 68.9287 132.339C66.9053 133.382 64.9594 134.414 63.0857 135.41C59.3539 137.423 55.9265 139.27 52.9276 140.886L52.9689 140.844C51.9056 142.909 51.0797 144.891 50.7494 146.712C50.5894 147.621 50.5997 148.508 50.9817 149.216C51.3481 149.917 51.8385 150.475 52.2927 150.944C53.227 151.873 54.0735 152.477 54.6413 152.88C54.9252 153.071 55.142 153.215 55.302 153.324C55.4517 153.432 55.5239 153.484 55.5239 153.484Z" fill="#263238"/>
<path d="M85.1514 146.733C85.1514 146.733 90.5762 147.378 90.091 150.036C89.611 152.689 87.8354 153.582 87.8354 153.582L73.0938 153.613C73.0989 153.613 81.8995 152.998 85.1514 146.733Z" fill="#E0E0E0"/>
<path d="M85.6816 145.443C85.7126 145.453 85.6713 145.742 85.5164 146.196C85.3616 146.645 85.0829 147.254 84.639 147.837C83.7305 149.019 82.5743 149.479 82.564 149.427C82.5175 149.355 83.5757 148.808 84.4377 147.683C85.2997 146.563 85.599 145.412 85.6816 145.443Z" fill="#263238"/>
<path d="M83.8013 146.485C83.8735 146.491 83.791 147.399 83.2799 148.374C82.7844 149.35 82.1444 149.985 82.0979 149.938C82.0412 149.892 82.5728 149.205 83.0528 148.261C83.5432 147.322 83.729 146.475 83.8013 146.485Z" fill="#263238"/>
<path d="M90.7142 152.839C90.673 152.818 91.0239 152.147 91.4472 151.007C91.8756 149.871 92.3402 148.245 92.5518 146.403C92.7583 144.56 92.6705 142.873 92.5105 141.67C92.3505 140.463 92.1647 139.73 92.2111 139.719C92.2266 139.714 92.2885 139.895 92.3815 140.225C92.4795 140.555 92.5879 141.041 92.6912 141.644C92.8976 142.852 93.0163 144.566 92.8047 146.434C92.5879 148.302 92.0872 149.938 91.6124 151.074C91.3749 151.641 91.1633 152.09 90.993 152.385C90.8278 152.689 90.7297 152.849 90.7142 152.839Z" fill="#455A64"/>
<g opacity="0.3">
<path d="M87.6456 145.303C87.6094 144.947 87.4649 144.524 87.1139 144.452C86.6855 144.364 86.3913 144.86 86.2158 145.262C84.3473 149.587 78.1997 152.952 73.5078 153.386C75.4383 153.401 78.4165 153.174 80.316 152.828C82.2155 152.482 84.084 151.755 85.5086 150.454C86.9281 149.154 87.8469 147.218 87.6456 145.303Z" fill="black"/>
</g>
<path d="M51.7328 139.42C51.7018 139.482 50.5353 139.038 49.1262 138.429C47.7171 137.82 46.5918 137.268 46.6176 137.206C46.6434 137.139 47.81 137.583 49.2294 138.197C50.6385 138.811 51.7586 139.358 51.7328 139.42Z" fill="#263238"/>
<g opacity="0.2">
<path d="M56.9878 137.144C49.9679 135.802 42.9223 134.61 35.8508 133.567L30.5859 135.234C32.0622 137.98 34.9785 139.725 38.0084 140.452C41.0383 141.175 44.2075 141.004 47.3097 140.715C50.7267 140.401 54.2366 139.921 57.2097 138.212C57.4368 138.083 57.6897 137.887 57.6639 137.624C57.6381 137.325 57.282 137.201 56.9878 137.144Z" fill="black"/>
</g>
<path d="M22.4286 116.237L31.2705 135.802C31.6369 136.612 32.437 137.139 33.3248 137.149L59.1227 137.485L62.3745 135.735L57.28 135.364L49.3517 116.34C49.0988 115.731 48.5104 115.339 47.8497 115.334L23.1357 115.148C22.5783 115.132 22.1963 115.721 22.4286 116.237Z" fill="#E0E0E0"/>
<path d="M22.4292 116.237C22.4292 116.237 22.3775 116.164 22.3517 115.999C22.3259 115.839 22.3517 115.561 22.5943 115.323C22.7131 115.21 22.8886 115.117 23.095 115.106C23.2912 115.106 23.5079 115.101 23.7454 115.101C24.2151 115.101 24.7571 115.101 25.361 115.101C27.8076 115.112 31.333 115.122 35.7152 115.137C37.9089 115.148 40.3194 115.163 42.9054 115.174C44.201 115.179 45.543 115.189 46.9263 115.194C47.2773 115.199 47.6283 115.199 47.9793 115.205C48.3561 115.23 48.7278 115.385 49.0116 115.638C49.311 115.881 49.4762 116.268 49.6052 116.588C49.7446 116.923 49.884 117.259 50.0285 117.594C52.2841 123.003 54.7824 128.974 57.42 135.296L57.2961 135.209C58.8652 135.322 60.5273 135.446 62.2151 135.57C62.2771 135.575 62.3339 135.58 62.3906 135.58L62.8862 135.616L62.4474 135.854C61.3325 136.453 60.2279 137.046 59.1956 137.603L59.1646 137.619H59.1285C52.1499 137.526 45.5482 137.433 39.5658 137.351C38.069 137.33 36.6134 137.309 35.1991 137.289C34.4868 137.273 33.8054 137.283 33.0983 137.247C32.3808 137.17 31.7253 136.752 31.3485 136.169C30.1974 133.748 29.2374 131.503 28.3031 129.454C26.4759 125.367 24.9997 122.069 23.9777 119.777C23.477 118.647 23.0899 117.764 22.8214 117.155C22.6976 116.861 22.5995 116.634 22.5272 116.469C22.455 116.319 22.4292 116.237 22.4292 116.237C22.4292 116.237 22.4756 116.309 22.5479 116.464C22.6253 116.624 22.7285 116.851 22.8679 117.135C23.1466 117.739 23.5544 118.616 24.0706 119.736C25.1132 122.017 26.6153 125.3 28.4786 129.377C29.418 131.405 30.4142 133.686 31.5395 136.045C31.8801 136.571 32.4737 136.948 33.1189 137.015C33.7796 137.046 34.4919 137.036 35.1939 137.051C36.6082 137.067 38.0638 137.082 39.5607 137.103C45.543 137.175 52.1499 137.258 59.1233 137.34L59.0511 137.356C60.0834 136.798 61.188 136.205 62.3029 135.606L62.3597 135.88C62.3029 135.874 62.2461 135.869 62.1842 135.869C60.5015 135.745 58.8343 135.622 57.2651 135.508L57.1774 135.503L57.1412 135.42C54.514 129.098 52.026 123.122 49.7756 117.708C49.6362 117.367 49.4968 117.032 49.3575 116.701C49.2233 116.355 49.0942 116.056 48.8362 115.839C48.5884 115.623 48.2735 115.488 47.9483 115.463C47.6025 115.457 47.2567 115.452 46.9109 115.447C45.5275 115.432 44.1855 115.421 42.8899 115.411C40.2988 115.385 37.8935 115.359 35.6998 115.339C31.3227 115.287 27.7973 115.246 25.3507 115.215C24.7416 115.205 24.2048 115.199 23.7351 115.189C23.5028 115.184 23.286 115.184 23.0899 115.179C22.8989 115.184 22.7389 115.266 22.6253 115.365C22.393 115.576 22.3569 115.845 22.3724 115.999C22.3982 116.154 22.4395 116.232 22.4292 116.237Z" fill="#263238"/>
<path d="M56.5297 137.443C56.5194 137.449 56.4832 137.371 56.411 137.232C56.3336 137.062 56.2355 136.85 56.1168 136.602C55.8587 136.014 55.5077 135.219 55.0793 134.259C54.2173 132.277 53.0456 129.526 51.7861 126.476C50.5267 123.426 49.4118 120.649 48.6427 118.626C48.2607 117.615 47.951 116.794 47.7549 116.221C47.6672 115.958 47.5897 115.741 47.533 115.561C47.4865 115.411 47.4607 115.328 47.471 115.323C47.4813 115.318 47.5175 115.395 47.5794 115.54C47.6517 115.715 47.7394 115.927 47.8478 116.185C48.0904 116.784 48.4156 117.584 48.813 118.559C49.6492 120.593 50.7745 123.338 52.0236 126.378C53.2779 129.413 54.4083 132.159 55.2496 134.192C55.6471 135.167 55.9671 135.967 56.2097 136.566C56.3077 136.824 56.3903 137.041 56.4626 137.216C56.5142 137.361 56.54 137.443 56.5297 137.443Z" fill="#263238"/>
<path d="M40.5292 125.718C40.5292 126.414 39.9614 126.982 39.2646 126.982C38.5678 126.982 38 126.414 38 125.718C38 125.021 38.5678 124.453 39.2646 124.453C39.9614 124.453 40.5292 125.021 40.5292 125.718Z" fill="white"/>
<path d="M65.6377 94.2507C65.679 94.2713 65.3074 94.9681 64.786 96.1293C64.2647 97.2854 63.6143 98.9214 63.093 100.785C62.5717 102.653 62.2826 104.387 62.1278 105.646C61.9729 106.906 61.9316 107.695 61.8852 107.695C61.8645 107.695 61.8594 107.499 61.8594 107.138C61.8594 106.782 61.88 106.266 61.9316 105.626C62.0349 104.351 62.2981 102.596 62.8246 100.712C63.3511 98.8285 64.0324 97.1925 64.6054 96.0467C64.8893 95.4739 65.137 95.0197 65.3228 94.7152C65.5138 94.4055 65.6222 94.2404 65.6377 94.2507Z" fill="#263238"/>
<path d="M104.621 108.087C104.621 108.098 104.523 108.108 104.337 108.134C104.126 108.154 103.852 108.18 103.517 108.216C102.768 108.278 101.736 108.366 100.451 108.474C97.808 108.676 94.1535 108.949 89.9675 109.264L89.8332 109.274L89.8229 109.14C89.7352 107.747 89.6423 106.276 89.5494 104.769C89.3997 102.137 89.2758 99.6284 89.2345 97.3421C89.1158 95.0454 89.6784 92.9449 90.5817 91.4533C91.4747 89.9412 92.6567 89.0586 93.5187 88.6303C93.9574 88.4238 94.3084 88.2845 94.5613 88.2277C94.8091 88.1606 94.9381 88.1245 94.9381 88.1348C94.9484 88.1709 94.4168 88.2793 93.5703 88.7283C92.7341 89.1825 91.5985 90.065 90.752 91.5566C89.89 93.0326 89.3635 95.0712 89.4926 97.3421C89.5494 99.6233 89.6836 102.126 89.8281 104.758C89.921 106.271 90.0087 107.736 90.0965 109.13L89.952 109.006C94.1432 108.727 97.7977 108.485 100.44 108.314C101.726 108.242 102.763 108.18 103.512 108.139C103.852 108.123 104.121 108.113 104.337 108.103C104.523 108.077 104.621 108.077 104.621 108.087Z" fill="#263238"/>
<path d="M78.9069 117.026C78.9018 117.042 78.7366 116.985 78.4475 116.856C78.303 116.794 78.1275 116.717 77.9365 116.598C77.7456 116.484 77.5133 116.371 77.2862 116.201C76.8165 115.891 76.2951 115.457 75.7738 114.921C75.2628 114.374 74.757 113.718 74.3285 112.97C73.9053 112.216 73.6059 111.447 73.3943 110.73C73.1981 110.007 73.0897 109.342 73.0639 108.779C73.033 108.5 73.0536 108.242 73.0536 108.02C73.0536 107.798 73.0743 107.608 73.0949 107.448C73.1362 107.138 73.1672 106.968 73.1827 106.968C73.2394 106.973 73.1465 107.664 73.2549 108.764C73.3014 109.316 73.4304 109.961 73.6317 110.663C73.8485 111.36 74.153 112.103 74.5608 112.836C74.9841 113.563 75.4693 114.203 75.9545 114.745C76.4551 115.277 76.9455 115.715 77.3894 116.041C78.2875 116.701 78.9276 116.975 78.9069 117.026Z" fill="#263238"/>
</g>
<defs>
<clipPath id="clip0_8153_1006">
<rect width="243" height="154" fill="white"/>
</clipPath>
</defs>
</svg>
